%
M48
M72
T01C0.01500
T02C0.01575
T03C0.01969
T04C0.02362
T05C0.02756
T06C0.03150
T07C0.03937
T08C0.04000
T09C0.04331
T10C0.05512
%
T01
X500092Y328354
X500863Y359483
X574439Y380569
X603750Y408537
X596798Y414426
X612009Y402057
X620715Y409535
X627810Y383713
X625954Y377884
X627716Y370652
X620062Y362201
X646793Y347902
X651321Y363235
X678412Y365488
X626674Y335735
X620568Y337582
X572109Y308488
X683668Y307067
X523822Y418204
X606088Y444720
X672946Y462451
X422330Y446003
X340697Y469200
X531009Y192988
T02
X340415Y259162
X499785Y343690
T03
X575336Y322942
X587541Y349713
X605139Y359083
X619627Y376721
X614470Y382706
X658407Y386013
X658603Y370934
X657462Y360383
X649706Y341918
X645454Y321328
X409470Y261170
T04
X415454Y351131
X423407Y384950
X433682Y489083
X650100Y374753
X670729Y385934
X677777Y387430
X691714Y396839
X700572Y386721
X699824Y354635
X681202Y344162
X669627Y347587
X673210Y411170
T05
X657265Y404950
X637265Y415973
T06
X562009Y461288
X498209Y469588
X466909Y231388
T07
X457009Y346288
X457009Y356288
T08
X669601Y287180
X669548Y277180
X679548Y277128
X679601Y287128
X679496Y267128
X669496Y267181
X569605Y149937
X559610Y149640
X549614Y149344
X539618Y149047
X529623Y148750
X519627Y148454
X468840Y151968
X459777Y156194
X450714Y160421
X441651Y164647
X432588Y168873
X423525Y173099
T09
X530809Y222988
X328682Y298217
X328682Y308217
X328682Y318217
X328682Y328217
X328682Y338217
X328682Y348217
X328682Y358217
X328682Y368217
X328682Y378217
X328682Y388217
X462816Y388178
X462816Y398178
T10
X467068Y375225
X467068Y317351
X561950Y317351
X561950Y375225
M30
