%
M48
M72
T01C0.01500
T02C0.01575
T03C0.03150
T04C0.03937
T05C0.04000
T06C0.04331
T07C0.05512
%
T01
X345009Y231688
X400182Y211891
X531009Y210988
X533109Y204088
X636309Y180988
X642609Y222088
X553509Y293788
X602409Y335488
X607209Y347488
X597909Y348688
X607509Y359488
X624909Y359488
X602709Y380488
X590409Y385588
X597609Y394888
X605109Y399388
X609309Y402688
X615009Y398188
X574809Y360088
X530487Y353188
X504909Y352588
X497109Y353188
X501009Y342988
X484809Y340888
X479709Y342088
X476409Y322288
X431409Y336688
X431409Y364288
X423909Y392488
X365709Y445888
X345009Y463888
X398238Y474635
X503409Y371488
X645309Y449488
X669009Y461188
X622209Y490588
T02
X669470Y390068
X669548Y381446
X681084Y393965
X698840Y381288
X696753Y355304
X689391Y351013
X679666Y351170
X669824Y351288
X669666Y359910
T03
X562009Y461288
X498209Y469588
X466909Y231388
T04
X457009Y346288
X457009Y356288
T05
X674024Y425921
X684023Y425868
X684076Y435868
X674076Y435921
X674128Y445921
X684128Y445868
X432588Y168873
X441651Y164647
X450714Y160421
X459777Y156194
X468840Y151968
X519627Y148454
X529623Y148750
X539618Y149047
X549614Y149344
X559610Y149640
X569605Y149937
X423525Y173099
T06
X530809Y222988
X328682Y298217
X328682Y308217
X328682Y318217
X328682Y328217
X328682Y338217
X328682Y348217
X328682Y358217
X328682Y368217
X328682Y378217
X328682Y388217
X462816Y388178
X462816Y398178
T07
X467068Y375225
X467068Y317351
X561950Y317351
X561950Y375225
M30
