G75*
%MOIN*%
%OFA0B0*%
%FSLAX25Y25*%
%IPPOS*%
%LPD*%
%AMOC8*
5,1,8,0,0,1.08239X$1,22.5*
%
%ADD10C,0.05937*%
%ADD11R,0.06496X0.06496*%
%ADD12C,0.06496*%
%ADD13R,0.07400X0.07400*%
%ADD14C,0.01480*%
%ADD15C,0.07400*%
%ADD16R,0.05150X0.05150*%
%ADD17C,0.05150*%
%ADD18C,0.00600*%
%ADD19C,0.04500*%
%ADD20C,0.04575*%
%ADD21C,0.01800*%
D10*
X0454041Y0346288D02*
X0459978Y0346288D01*
X0459978Y0356288D02*
X0454041Y0356288D01*
D11*
X0462816Y0398178D03*
X0328682Y0298217D03*
D12*
X0328682Y0308217D03*
X0328682Y0318217D03*
X0328682Y0328217D03*
X0328682Y0338217D03*
X0328682Y0348217D03*
X0328682Y0358217D03*
X0328682Y0368217D03*
X0328682Y0378217D03*
X0328682Y0388217D03*
X0462816Y0388178D03*
X0530809Y0222988D03*
D13*
G36*
X0670409Y0442241D02*
X0670448Y0449640D01*
X0677847Y0449601D01*
X0677808Y0442202D01*
X0670409Y0442241D01*
G37*
D14*
X0673575Y0433708D02*
X0672835Y0432968D01*
X0671110Y0434711D01*
X0671123Y0437162D01*
X0672866Y0438887D01*
X0675317Y0438874D01*
X0677042Y0437131D01*
X0677029Y0434680D01*
X0675286Y0432955D01*
X0672835Y0432968D01*
X0673301Y0434076D01*
X0672223Y0435165D01*
X0672231Y0436696D01*
X0673320Y0437774D01*
X0674851Y0437766D01*
X0675929Y0436677D01*
X0675921Y0435146D01*
X0674832Y0434068D01*
X0673301Y0434076D01*
X0673767Y0435183D01*
X0673335Y0435619D01*
X0673338Y0436230D01*
X0673774Y0436662D01*
X0674385Y0436659D01*
X0674817Y0436223D01*
X0674814Y0435612D01*
X0674378Y0435180D01*
X0673767Y0435183D01*
X0673523Y0423708D02*
X0672783Y0422968D01*
X0671058Y0424711D01*
X0671071Y0427162D01*
X0672814Y0428887D01*
X0675265Y0428874D01*
X0676990Y0427131D01*
X0676977Y0424680D01*
X0675234Y0422955D01*
X0672783Y0422968D01*
X0673249Y0424076D01*
X0672171Y0425165D01*
X0672179Y0426696D01*
X0673268Y0427774D01*
X0674799Y0427766D01*
X0675877Y0426677D01*
X0675869Y0425146D01*
X0674780Y0424068D01*
X0673249Y0424076D01*
X0673715Y0425183D01*
X0673283Y0425619D01*
X0673286Y0426230D01*
X0673722Y0426662D01*
X0674333Y0426659D01*
X0674765Y0426223D01*
X0674762Y0425612D01*
X0674326Y0425180D01*
X0673715Y0425183D01*
X0683522Y0423655D02*
X0682782Y0422915D01*
X0681057Y0424658D01*
X0681070Y0427109D01*
X0682813Y0428834D01*
X0685264Y0428821D01*
X0686989Y0427078D01*
X0686976Y0424627D01*
X0685233Y0422902D01*
X0682782Y0422915D01*
X0683248Y0424023D01*
X0682170Y0425112D01*
X0682178Y0426643D01*
X0683267Y0427721D01*
X0684798Y0427713D01*
X0685876Y0426624D01*
X0685868Y0425093D01*
X0684779Y0424015D01*
X0683248Y0424023D01*
X0683714Y0425130D01*
X0683282Y0425566D01*
X0683285Y0426177D01*
X0683721Y0426609D01*
X0684332Y0426606D01*
X0684764Y0426170D01*
X0684761Y0425559D01*
X0684325Y0425127D01*
X0683714Y0425130D01*
X0683575Y0433655D02*
X0682835Y0432915D01*
X0681110Y0434658D01*
X0681123Y0437109D01*
X0682866Y0438834D01*
X0685317Y0438821D01*
X0687042Y0437078D01*
X0687029Y0434627D01*
X0685286Y0432902D01*
X0682835Y0432915D01*
X0683301Y0434023D01*
X0682223Y0435112D01*
X0682231Y0436643D01*
X0683320Y0437721D01*
X0684851Y0437713D01*
X0685929Y0436624D01*
X0685921Y0435093D01*
X0684832Y0434015D01*
X0683301Y0434023D01*
X0683767Y0435130D01*
X0683335Y0435566D01*
X0683338Y0436177D01*
X0683774Y0436609D01*
X0684385Y0436606D01*
X0684817Y0436170D01*
X0684814Y0435559D01*
X0684378Y0435127D01*
X0683767Y0435130D01*
X0683627Y0443655D02*
X0682887Y0442915D01*
X0681162Y0444658D01*
X0681175Y0447109D01*
X0682918Y0448834D01*
X0685369Y0448821D01*
X0687094Y0447078D01*
X0687081Y0444627D01*
X0685338Y0442902D01*
X0682887Y0442915D01*
X0683353Y0444023D01*
X0682275Y0445112D01*
X0682283Y0446643D01*
X0683372Y0447721D01*
X0684903Y0447713D01*
X0685981Y0446624D01*
X0685973Y0445093D01*
X0684884Y0444015D01*
X0683353Y0444023D01*
X0683819Y0445130D01*
X0683387Y0445566D01*
X0683390Y0446177D01*
X0683826Y0446609D01*
X0684437Y0446606D01*
X0684869Y0446170D01*
X0684866Y0445559D01*
X0684430Y0445127D01*
X0683819Y0445130D01*
D15*
X0432588Y0168873D03*
X0441651Y0164647D03*
X0450714Y0160421D03*
X0459777Y0156194D03*
X0468840Y0151968D03*
X0519627Y0148454D03*
X0529623Y0148750D03*
X0539618Y0149047D03*
X0549614Y0149344D03*
X0559610Y0149640D03*
X0569605Y0149937D03*
X0423525Y0173099D03*
D16*
X0466909Y0231388D03*
D17*
X0562009Y0461288D03*
X0498209Y0469588D03*
D18*
X0537009Y0399388D02*
X0479709Y0342088D01*
X0484809Y0340888D02*
X0484809Y0345388D01*
X0534309Y0394888D01*
X0597609Y0394888D01*
X0605109Y0399388D02*
X0537009Y0399388D01*
X0568509Y0358288D02*
X0502209Y0358288D01*
X0497109Y0353188D01*
X0500409Y0354388D02*
X0500409Y0351988D01*
X0486009Y0337588D01*
X0477009Y0337588D01*
X0457809Y0318388D01*
X0328809Y0318388D01*
X0328682Y0318217D01*
X0328809Y0308488D02*
X0328682Y0308217D01*
X0328809Y0308488D02*
X0449709Y0308488D01*
X0477609Y0336388D01*
X0486609Y0336388D01*
X0501609Y0351388D01*
X0501609Y0353788D01*
X0503709Y0355888D01*
X0506109Y0355888D01*
X0508209Y0353788D01*
X0508209Y0350188D01*
X0501009Y0342988D01*
X0504909Y0352588D02*
X0487509Y0335188D01*
X0478209Y0335188D01*
X0441309Y0298288D01*
X0328809Y0298288D01*
X0328682Y0298217D01*
X0324309Y0294688D02*
X0325209Y0293788D01*
X0553509Y0293788D01*
X0610509Y0285988D02*
X0529809Y0205288D01*
X0529809Y0148888D01*
X0529623Y0148750D01*
X0533109Y0204088D02*
X0533109Y0206788D01*
X0657009Y0330688D01*
X0657009Y0408988D01*
X0673809Y0425788D01*
X0674024Y0425921D01*
X0684076Y0435868D02*
X0684009Y0435988D01*
X0679209Y0440788D01*
X0670509Y0440788D01*
X0658509Y0452788D01*
X0644109Y0452788D01*
X0642009Y0450688D01*
X0642009Y0420688D01*
X0602709Y0381388D01*
X0602709Y0380488D01*
X0604209Y0360688D02*
X0604209Y0356788D01*
X0573609Y0356788D01*
X0573309Y0357088D01*
X0503109Y0357088D01*
X0500409Y0354388D01*
X0489609Y0335488D02*
X0476409Y0322288D01*
X0489609Y0335488D02*
X0602409Y0335488D01*
X0607209Y0347488D02*
X0604209Y0350488D01*
X0604209Y0356788D01*
X0604209Y0360688D02*
X0645309Y0401788D01*
X0645309Y0449488D01*
X0615009Y0398188D02*
X0608409Y0398188D01*
X0568509Y0358288D01*
X0607509Y0359488D02*
X0607509Y0351688D01*
X0610509Y0348688D01*
X0610509Y0285988D01*
X0431409Y0364288D02*
X0407709Y0387988D01*
X0328809Y0387988D01*
X0328682Y0388217D01*
X0328682Y0338217D02*
X0328509Y0338188D01*
X0328509Y0333988D01*
X0324309Y0329788D01*
X0324309Y0294688D01*
D19*
X0345009Y0231688D03*
X0400182Y0211891D03*
X0531009Y0210988D03*
X0533109Y0204088D03*
X0636309Y0180988D03*
X0642609Y0222088D03*
X0553509Y0293788D03*
X0602409Y0335488D03*
X0607209Y0347488D03*
X0597909Y0348688D03*
X0607509Y0359488D03*
X0624909Y0359488D03*
X0602709Y0380488D03*
X0590409Y0385588D03*
X0597609Y0394888D03*
X0605109Y0399388D03*
X0609309Y0402688D03*
X0615009Y0398188D03*
X0574809Y0360088D03*
X0530487Y0353188D03*
X0504909Y0352588D03*
X0497109Y0353188D03*
X0501009Y0342988D03*
X0484809Y0340888D03*
X0479709Y0342088D03*
X0476409Y0322288D03*
X0431409Y0336688D03*
X0431409Y0364288D03*
X0423909Y0392488D03*
X0365709Y0445888D03*
X0345009Y0463888D03*
X0398238Y0474635D03*
X0503409Y0371488D03*
X0645309Y0449488D03*
X0669009Y0461188D03*
X0622209Y0490588D03*
D20*
X0669470Y0390068D03*
X0669548Y0381446D03*
X0681084Y0393965D03*
X0698840Y0381288D03*
X0696753Y0355304D03*
X0689391Y0351013D03*
X0679666Y0351170D03*
X0669824Y0351288D03*
X0669666Y0359910D03*
D21*
X0457009Y0346288D02*
X0456909Y0346288D01*
X0456909Y0346888D01*
X0423909Y0379888D01*
X0423909Y0392488D01*
M02*
