G75*
%MOIN*%
%OFA0B0*%
%FSLAX25Y25*%
%IPPOS*%
%LPD*%
%AMOC8*
5,1,8,0,0,1.08239X$1,22.5*
%
%ADD10R,0.04000X0.10000*%
%ADD11R,0.01378X0.03150*%
%ADD12C,0.05937*%
%ADD13R,0.06496X0.06496*%
%ADD14C,0.06496*%
%ADD15C,0.01956*%
%ADD16C,0.01959*%
%ADD17R,0.07400X0.07400*%
%ADD18C,0.01480*%
%ADD19C,0.07400*%
%ADD20R,0.05150X0.05150*%
%ADD21C,0.05150*%
%ADD22C,0.01811*%
%ADD23R,0.07874X0.07874*%
%ADD24R,0.04724X0.02165*%
%ADD25R,0.03937X0.05906*%
%ADD26R,0.11417X0.08071*%
%ADD27R,0.01102X0.05512*%
%ADD28R,0.05512X0.01102*%
%ADD29R,0.06150X0.01102*%
%ADD30R,0.01102X0.06150*%
%ADD31R,0.07480X0.04331*%
%ADD32R,0.05600X0.02800*%
%ADD33C,0.01575*%
%ADD34R,0.05512X0.08268*%
%ADD35C,0.00600*%
%ADD36C,0.04500*%
%ADD37C,0.01800*%
%ADD38C,0.04575*%
D10*
X0697769Y0367745D03*
X0723769Y0367745D03*
D11*
X0691163Y0365422D03*
X0688603Y0365422D03*
X0686044Y0365422D03*
X0686044Y0371721D03*
X0688603Y0371721D03*
X0691163Y0371721D03*
D12*
X0459978Y0356288D02*
X0454041Y0356288D01*
X0454041Y0346288D02*
X0459978Y0346288D01*
D13*
X0462816Y0398178D03*
X0328682Y0298217D03*
D14*
X0328682Y0308217D03*
X0328682Y0318217D03*
X0328682Y0328217D03*
X0328682Y0338217D03*
X0328682Y0348217D03*
X0328682Y0358217D03*
X0328682Y0368217D03*
X0328682Y0378217D03*
X0328682Y0388217D03*
X0462816Y0388178D03*
X0530809Y0222988D03*
D15*
X0527409Y0166164D02*
X0525113Y0166164D01*
X0525113Y0169798D01*
X0527409Y0169798D01*
X0527409Y0166164D01*
X0527409Y0168119D02*
X0525113Y0168119D01*
X0520362Y0169798D02*
X0518066Y0169798D01*
X0520362Y0169798D02*
X0520362Y0166164D01*
X0518066Y0166164D01*
X0518066Y0169798D01*
X0518066Y0168119D02*
X0520362Y0168119D01*
X0394923Y0226693D02*
X0393300Y0225070D01*
X0390731Y0227639D01*
X0392354Y0229262D01*
X0394923Y0226693D01*
X0394591Y0227025D02*
X0391345Y0227025D01*
X0392072Y0228980D02*
X0392636Y0228980D01*
X0387371Y0224278D02*
X0385748Y0222655D01*
X0387371Y0224278D02*
X0389940Y0221709D01*
X0388317Y0220086D01*
X0385748Y0222655D01*
X0386362Y0222041D02*
X0389608Y0222041D01*
X0387653Y0223996D02*
X0387089Y0223996D01*
X0430270Y0344168D02*
X0432566Y0344168D01*
X0432566Y0340534D01*
X0430270Y0340534D01*
X0430270Y0344168D01*
X0430270Y0342489D02*
X0432566Y0342489D01*
X0437318Y0340534D02*
X0439614Y0340534D01*
X0437318Y0340534D02*
X0437318Y0344168D01*
X0439614Y0344168D01*
X0439614Y0340534D01*
X0439614Y0342489D02*
X0437318Y0342489D01*
X0437121Y0355810D02*
X0439417Y0355810D01*
X0437121Y0355810D02*
X0437121Y0359444D01*
X0439417Y0359444D01*
X0439417Y0355810D01*
X0439417Y0357765D02*
X0437121Y0357765D01*
X0432370Y0359444D02*
X0430074Y0359444D01*
X0432370Y0359444D02*
X0432370Y0355810D01*
X0430074Y0355810D01*
X0430074Y0359444D01*
X0430074Y0357765D02*
X0432370Y0357765D01*
X0435192Y0397948D02*
X0437488Y0397948D01*
X0437488Y0394314D01*
X0435192Y0394314D01*
X0435192Y0397948D01*
X0435192Y0396269D02*
X0437488Y0396269D01*
X0442239Y0394314D02*
X0444535Y0394314D01*
X0442239Y0394314D02*
X0442239Y0397948D01*
X0444535Y0397948D01*
X0444535Y0394314D01*
X0444535Y0396269D02*
X0442239Y0396269D01*
X0499948Y0372495D02*
X0499948Y0370199D01*
X0496314Y0370199D01*
X0496314Y0372495D01*
X0499948Y0372495D01*
X0499948Y0372154D02*
X0496314Y0372154D01*
X0496314Y0365448D02*
X0496314Y0363152D01*
X0496314Y0365448D02*
X0499948Y0365448D01*
X0499948Y0363152D01*
X0496314Y0363152D01*
X0496314Y0365107D02*
X0499948Y0365107D01*
X0507861Y0366892D02*
X0507861Y0369188D01*
X0507861Y0366892D02*
X0504227Y0366892D01*
X0504227Y0369188D01*
X0507861Y0369188D01*
X0507861Y0368847D02*
X0504227Y0368847D01*
X0504227Y0362141D02*
X0504227Y0359845D01*
X0504227Y0362141D02*
X0507861Y0362141D01*
X0507861Y0359845D01*
X0504227Y0359845D01*
X0504227Y0361800D02*
X0507861Y0361800D01*
X0512338Y0362062D02*
X0512338Y0359766D01*
X0512338Y0362062D02*
X0515972Y0362062D01*
X0515972Y0359766D01*
X0512338Y0359766D01*
X0512338Y0361721D02*
X0515972Y0361721D01*
X0520251Y0362102D02*
X0520251Y0359806D01*
X0520251Y0362102D02*
X0523885Y0362102D01*
X0523885Y0359806D01*
X0520251Y0359806D01*
X0520251Y0361761D02*
X0523885Y0361761D01*
X0523885Y0366853D02*
X0523885Y0369149D01*
X0523885Y0366853D02*
X0520251Y0366853D01*
X0520251Y0369149D01*
X0523885Y0369149D01*
X0523885Y0368808D02*
X0520251Y0368808D01*
X0515972Y0369109D02*
X0515972Y0366813D01*
X0512338Y0366813D01*
X0512338Y0369109D01*
X0515972Y0369109D01*
X0515972Y0368768D02*
X0512338Y0368768D01*
X0528420Y0360271D02*
X0530716Y0360271D01*
X0530716Y0356637D01*
X0528420Y0356637D01*
X0528420Y0360271D01*
X0528420Y0358592D02*
X0530716Y0358592D01*
X0535467Y0356637D02*
X0537763Y0356637D01*
X0535467Y0356637D02*
X0535467Y0360271D01*
X0537763Y0360271D01*
X0537763Y0356637D01*
X0537763Y0358592D02*
X0535467Y0358592D01*
X0563341Y0363893D02*
X0565637Y0363893D01*
X0565637Y0360259D01*
X0563341Y0360259D01*
X0563341Y0363893D01*
X0563341Y0362214D02*
X0565637Y0362214D01*
X0570389Y0360259D02*
X0572685Y0360259D01*
X0570389Y0360259D02*
X0570389Y0363893D01*
X0572685Y0363893D01*
X0572685Y0360259D01*
X0572685Y0362214D02*
X0570389Y0362214D01*
X0571176Y0386479D02*
X0573472Y0386479D01*
X0571176Y0386479D02*
X0571176Y0390113D01*
X0573472Y0390113D01*
X0573472Y0386479D01*
X0573472Y0388434D02*
X0571176Y0388434D01*
X0566425Y0390113D02*
X0564129Y0390113D01*
X0566425Y0390113D02*
X0566425Y0386479D01*
X0564129Y0386479D01*
X0564129Y0390113D01*
X0564129Y0388434D02*
X0566425Y0388434D01*
X0595330Y0404687D02*
X0595330Y0406983D01*
X0598964Y0406983D01*
X0598964Y0404687D01*
X0595330Y0404687D01*
X0595330Y0406642D02*
X0598964Y0406642D01*
X0598964Y0411735D02*
X0598964Y0414031D01*
X0598964Y0411735D02*
X0595330Y0411735D01*
X0595330Y0414031D01*
X0598964Y0414031D01*
X0598964Y0413690D02*
X0595330Y0413690D01*
X0603696Y0426373D02*
X0605992Y0426373D01*
X0605992Y0422739D01*
X0603696Y0422739D01*
X0603696Y0426373D01*
X0603696Y0424694D02*
X0605992Y0424694D01*
X0610743Y0422739D02*
X0613039Y0422739D01*
X0610743Y0422739D02*
X0610743Y0426373D01*
X0613039Y0426373D01*
X0613039Y0422739D01*
X0613039Y0424694D02*
X0610743Y0424694D01*
X0617436Y0426334D02*
X0619732Y0426334D01*
X0619732Y0422700D01*
X0617436Y0422700D01*
X0617436Y0426334D01*
X0617436Y0424655D02*
X0619732Y0424655D01*
X0624483Y0422700D02*
X0626779Y0422700D01*
X0624483Y0422700D02*
X0624483Y0426334D01*
X0626779Y0426334D01*
X0626779Y0422700D01*
X0626779Y0424655D02*
X0624483Y0424655D01*
X0685696Y0386235D02*
X0685696Y0383939D01*
X0682062Y0383939D01*
X0682062Y0386235D01*
X0685696Y0386235D01*
X0685696Y0385894D02*
X0682062Y0385894D01*
X0682062Y0379188D02*
X0682062Y0376892D01*
X0682062Y0379188D02*
X0685696Y0379188D01*
X0685696Y0376892D01*
X0682062Y0376892D01*
X0682062Y0378847D02*
X0685696Y0378847D01*
X0689857Y0379228D02*
X0689857Y0376932D01*
X0689857Y0379228D02*
X0693491Y0379228D01*
X0693491Y0376932D01*
X0689857Y0376932D01*
X0689857Y0378887D02*
X0693491Y0378887D01*
X0693491Y0383979D02*
X0693491Y0386275D01*
X0693491Y0383979D02*
X0689857Y0383979D01*
X0689857Y0386275D01*
X0693491Y0386275D01*
X0693491Y0385934D02*
X0689857Y0385934D01*
X0614594Y0329857D02*
X0614594Y0327561D01*
X0610960Y0327561D01*
X0610960Y0329857D01*
X0614594Y0329857D01*
X0614594Y0329516D02*
X0610960Y0329516D01*
X0610960Y0322810D02*
X0610960Y0320514D01*
X0610960Y0322810D02*
X0614594Y0322810D01*
X0614594Y0320514D01*
X0610960Y0320514D01*
X0610960Y0322469D02*
X0614594Y0322469D01*
X0647215Y0237726D02*
X0648838Y0236103D01*
X0646269Y0233534D01*
X0644646Y0235157D01*
X0647215Y0237726D01*
X0648224Y0235489D02*
X0644978Y0235489D01*
X0646933Y0237444D02*
X0647497Y0237444D01*
X0649629Y0230174D02*
X0651252Y0228551D01*
X0649629Y0230174D02*
X0652198Y0232743D01*
X0653821Y0231120D01*
X0651252Y0228551D01*
X0649961Y0230506D02*
X0653207Y0230506D01*
X0652480Y0232461D02*
X0651916Y0232461D01*
X0393102Y0457921D02*
X0391479Y0459544D01*
X0394048Y0462113D01*
X0395671Y0460490D01*
X0393102Y0457921D01*
X0391811Y0459876D02*
X0395057Y0459876D01*
X0394330Y0461831D02*
X0393766Y0461831D01*
X0390688Y0465473D02*
X0389065Y0467096D01*
X0390688Y0465473D02*
X0388119Y0462904D01*
X0386496Y0464527D01*
X0389065Y0467096D01*
X0390074Y0464859D02*
X0386828Y0464859D01*
X0388783Y0466814D02*
X0389347Y0466814D01*
X0619961Y0481199D02*
X0621584Y0482822D01*
X0624153Y0480253D01*
X0622530Y0478630D01*
X0619961Y0481199D01*
X0620575Y0480585D02*
X0623821Y0480585D01*
X0621866Y0482540D02*
X0621302Y0482540D01*
X0627513Y0483613D02*
X0629136Y0485236D01*
X0627513Y0483613D02*
X0624944Y0486182D01*
X0626567Y0487805D01*
X0629136Y0485236D01*
X0628804Y0485568D02*
X0625558Y0485568D01*
X0626285Y0487523D02*
X0626849Y0487523D01*
D16*
X0641954Y0494409D02*
X0647167Y0489196D01*
X0641954Y0494409D02*
X0647333Y0499788D01*
X0652546Y0494575D01*
X0647167Y0489196D01*
X0649125Y0491154D02*
X0645209Y0491154D01*
X0643251Y0493112D02*
X0651083Y0493112D01*
X0652051Y0495070D02*
X0642615Y0495070D01*
X0644573Y0497028D02*
X0650093Y0497028D01*
X0648135Y0498986D02*
X0646531Y0498986D01*
X0635174Y0511947D02*
X0629961Y0517160D01*
X0635174Y0511947D02*
X0629795Y0506568D01*
X0624582Y0511781D01*
X0629961Y0517160D01*
X0631753Y0508526D02*
X0627837Y0508526D01*
X0625879Y0510484D02*
X0633711Y0510484D01*
X0634679Y0512442D02*
X0625243Y0512442D01*
X0627201Y0514400D02*
X0632721Y0514400D01*
X0630763Y0516358D02*
X0629159Y0516358D01*
X0402231Y0503985D02*
X0397018Y0498772D01*
X0391639Y0504151D01*
X0396852Y0509364D01*
X0402231Y0503985D01*
X0398976Y0500730D02*
X0395060Y0500730D01*
X0393102Y0502688D02*
X0400934Y0502688D01*
X0401570Y0504646D02*
X0392134Y0504646D01*
X0394092Y0506604D02*
X0399612Y0506604D01*
X0397654Y0508562D02*
X0396050Y0508562D01*
X0379480Y0491993D02*
X0374267Y0486780D01*
X0379480Y0491993D02*
X0384859Y0486614D01*
X0379646Y0481401D01*
X0374267Y0486780D01*
X0377688Y0483359D02*
X0381604Y0483359D01*
X0383562Y0485317D02*
X0375730Y0485317D01*
X0374762Y0487275D02*
X0384198Y0487275D01*
X0382240Y0489233D02*
X0376720Y0489233D01*
X0378678Y0491191D02*
X0380282Y0491191D01*
X0679459Y0223891D02*
X0684672Y0229104D01*
X0679459Y0223891D02*
X0674080Y0229270D01*
X0679293Y0234483D01*
X0684672Y0229104D01*
X0681417Y0225849D02*
X0677501Y0225849D01*
X0675543Y0227807D02*
X0683375Y0227807D01*
X0684011Y0229765D02*
X0674575Y0229765D01*
X0676533Y0231723D02*
X0682053Y0231723D01*
X0680095Y0233681D02*
X0678491Y0233681D01*
X0661921Y0217111D02*
X0656708Y0211898D01*
X0661921Y0217111D02*
X0667300Y0211732D01*
X0662087Y0206519D01*
X0656708Y0211898D01*
X0660129Y0208477D02*
X0664045Y0208477D01*
X0666003Y0210435D02*
X0658171Y0210435D01*
X0657203Y0212393D02*
X0666639Y0212393D01*
X0664681Y0214351D02*
X0659161Y0214351D01*
X0661119Y0216309D02*
X0662723Y0216309D01*
X0391301Y0179196D02*
X0386088Y0184409D01*
X0391467Y0189788D01*
X0396680Y0184575D01*
X0391301Y0179196D01*
X0393259Y0181154D02*
X0389343Y0181154D01*
X0387385Y0183112D02*
X0395217Y0183112D01*
X0396185Y0185070D02*
X0386749Y0185070D01*
X0388707Y0187028D02*
X0394227Y0187028D01*
X0392269Y0188986D02*
X0390665Y0188986D01*
X0379308Y0201947D02*
X0374095Y0207160D01*
X0379308Y0201947D02*
X0373929Y0196568D01*
X0368716Y0201781D01*
X0374095Y0207160D01*
X0375887Y0198526D02*
X0371971Y0198526D01*
X0370013Y0200484D02*
X0377845Y0200484D01*
X0378813Y0202442D02*
X0369377Y0202442D01*
X0371335Y0204400D02*
X0376855Y0204400D01*
X0374897Y0206358D02*
X0373293Y0206358D01*
D17*
G36*
X0665882Y0283500D02*
X0665921Y0290899D01*
X0673320Y0290860D01*
X0673281Y0283461D01*
X0665882Y0283500D01*
G37*
D18*
X0669047Y0274967D02*
X0668307Y0274227D01*
X0666582Y0275970D01*
X0666595Y0278421D01*
X0668338Y0280146D01*
X0670789Y0280133D01*
X0672514Y0278390D01*
X0672501Y0275939D01*
X0670758Y0274214D01*
X0668307Y0274227D01*
X0668773Y0275335D01*
X0667695Y0276424D01*
X0667703Y0277955D01*
X0668792Y0279033D01*
X0670323Y0279025D01*
X0671401Y0277936D01*
X0671393Y0276405D01*
X0670304Y0275327D01*
X0668773Y0275335D01*
X0669239Y0276442D01*
X0668807Y0276878D01*
X0668810Y0277489D01*
X0669246Y0277921D01*
X0669857Y0277918D01*
X0670289Y0277482D01*
X0670286Y0276871D01*
X0669850Y0276439D01*
X0669239Y0276442D01*
X0668995Y0264968D02*
X0668255Y0264228D01*
X0666530Y0265971D01*
X0666543Y0268422D01*
X0668286Y0270147D01*
X0670737Y0270134D01*
X0672462Y0268391D01*
X0672449Y0265940D01*
X0670706Y0264215D01*
X0668255Y0264228D01*
X0668721Y0265336D01*
X0667643Y0266425D01*
X0667651Y0267956D01*
X0668740Y0269034D01*
X0670271Y0269026D01*
X0671349Y0267937D01*
X0671341Y0266406D01*
X0670252Y0265328D01*
X0668721Y0265336D01*
X0669187Y0266443D01*
X0668755Y0266879D01*
X0668758Y0267490D01*
X0669194Y0267922D01*
X0669805Y0267919D01*
X0670237Y0267483D01*
X0670234Y0266872D01*
X0669798Y0266440D01*
X0669187Y0266443D01*
X0678995Y0264915D02*
X0678255Y0264175D01*
X0676530Y0265918D01*
X0676543Y0268369D01*
X0678286Y0270094D01*
X0680737Y0270081D01*
X0682462Y0268338D01*
X0682449Y0265887D01*
X0680706Y0264162D01*
X0678255Y0264175D01*
X0678721Y0265283D01*
X0677643Y0266372D01*
X0677651Y0267903D01*
X0678740Y0268981D01*
X0680271Y0268973D01*
X0681349Y0267884D01*
X0681341Y0266353D01*
X0680252Y0265275D01*
X0678721Y0265283D01*
X0679187Y0266390D01*
X0678755Y0266826D01*
X0678758Y0267437D01*
X0679194Y0267869D01*
X0679805Y0267866D01*
X0680237Y0267430D01*
X0680234Y0266819D01*
X0679798Y0266387D01*
X0679187Y0266390D01*
X0679047Y0274915D02*
X0678307Y0274175D01*
X0676582Y0275918D01*
X0676595Y0278369D01*
X0678338Y0280094D01*
X0680789Y0280081D01*
X0682514Y0278338D01*
X0682501Y0275887D01*
X0680758Y0274162D01*
X0678307Y0274175D01*
X0678773Y0275283D01*
X0677695Y0276372D01*
X0677703Y0277903D01*
X0678792Y0278981D01*
X0680323Y0278973D01*
X0681401Y0277884D01*
X0681393Y0276353D01*
X0680304Y0275275D01*
X0678773Y0275283D01*
X0679239Y0276390D01*
X0678807Y0276826D01*
X0678810Y0277437D01*
X0679246Y0277869D01*
X0679857Y0277866D01*
X0680289Y0277430D01*
X0680286Y0276819D01*
X0679850Y0276387D01*
X0679239Y0276390D01*
X0679100Y0284915D02*
X0678360Y0284175D01*
X0676635Y0285918D01*
X0676648Y0288369D01*
X0678391Y0290094D01*
X0680842Y0290081D01*
X0682567Y0288338D01*
X0682554Y0285887D01*
X0680811Y0284162D01*
X0678360Y0284175D01*
X0678826Y0285283D01*
X0677748Y0286372D01*
X0677756Y0287903D01*
X0678845Y0288981D01*
X0680376Y0288973D01*
X0681454Y0287884D01*
X0681446Y0286353D01*
X0680357Y0285275D01*
X0678826Y0285283D01*
X0679292Y0286390D01*
X0678860Y0286826D01*
X0678863Y0287437D01*
X0679299Y0287869D01*
X0679910Y0287866D01*
X0680342Y0287430D01*
X0680339Y0286819D01*
X0679903Y0286387D01*
X0679292Y0286390D01*
D19*
X0569605Y0149937D03*
X0559610Y0149640D03*
X0549614Y0149344D03*
X0539618Y0149047D03*
X0529623Y0148750D03*
X0519627Y0148454D03*
X0468840Y0151968D03*
X0459777Y0156194D03*
X0450714Y0160421D03*
X0441651Y0164647D03*
X0432588Y0168873D03*
X0423525Y0173099D03*
D20*
X0466909Y0231388D03*
D21*
X0562009Y0461288D03*
X0498209Y0469588D03*
D22*
X0430348Y0478244D02*
X0429066Y0479526D01*
X0431626Y0482086D01*
X0432908Y0480804D01*
X0430348Y0478244D01*
X0429594Y0480054D02*
X0432158Y0480054D01*
X0431848Y0481864D02*
X0431404Y0481864D01*
X0427590Y0486121D02*
X0426308Y0487403D01*
X0427590Y0486121D02*
X0425030Y0483561D01*
X0423748Y0484843D01*
X0426308Y0487403D01*
X0426840Y0485371D02*
X0424276Y0485371D01*
X0426086Y0487181D02*
X0426530Y0487181D01*
X0408458Y0473795D02*
X0407176Y0475077D01*
X0409736Y0477637D01*
X0411018Y0476355D01*
X0408458Y0473795D01*
X0407704Y0475605D02*
X0410268Y0475605D01*
X0409958Y0477415D02*
X0409514Y0477415D01*
X0405701Y0481672D02*
X0404419Y0482954D01*
X0405701Y0481672D02*
X0403141Y0479112D01*
X0401859Y0480394D01*
X0404419Y0482954D01*
X0404951Y0480922D02*
X0402387Y0480922D01*
X0404197Y0482732D02*
X0404641Y0482732D01*
X0500060Y0358828D02*
X0500060Y0357016D01*
X0496438Y0357016D01*
X0496438Y0358828D01*
X0500060Y0358828D01*
X0500060Y0358826D02*
X0496438Y0358826D01*
X0496438Y0351308D02*
X0496438Y0349496D01*
X0496438Y0351308D02*
X0500060Y0351308D01*
X0500060Y0349496D01*
X0496438Y0349496D01*
X0496438Y0351306D02*
X0500060Y0351306D01*
X0501281Y0345167D02*
X0501281Y0343355D01*
X0497659Y0343355D01*
X0497659Y0345167D01*
X0501281Y0345167D01*
X0501281Y0345165D02*
X0497659Y0345165D01*
X0497659Y0337647D02*
X0497659Y0335835D01*
X0497659Y0337647D02*
X0501281Y0337647D01*
X0501281Y0335835D01*
X0497659Y0335835D01*
X0497659Y0337645D02*
X0501281Y0337645D01*
X0399167Y0250867D02*
X0397885Y0249585D01*
X0395325Y0252145D01*
X0396607Y0253427D01*
X0399167Y0250867D01*
X0398639Y0251395D02*
X0396075Y0251395D01*
X0396385Y0253205D02*
X0396829Y0253205D01*
X0391290Y0248110D02*
X0390008Y0246828D01*
X0391290Y0248110D02*
X0393850Y0245550D01*
X0392568Y0244268D01*
X0390008Y0246828D01*
X0390758Y0246078D02*
X0393322Y0246078D01*
X0391512Y0247888D02*
X0391068Y0247888D01*
X0409522Y0226536D02*
X0408240Y0225254D01*
X0405680Y0227814D01*
X0406962Y0229096D01*
X0409522Y0226536D01*
X0408994Y0227064D02*
X0406430Y0227064D01*
X0406740Y0228874D02*
X0407184Y0228874D01*
X0401644Y0223779D02*
X0400362Y0222497D01*
X0401644Y0223779D02*
X0404204Y0221219D01*
X0402922Y0219937D01*
X0400362Y0222497D01*
X0401112Y0221747D02*
X0403676Y0221747D01*
X0401866Y0223557D02*
X0401422Y0223557D01*
X0628513Y0220277D02*
X0629795Y0218995D01*
X0627235Y0216435D01*
X0625953Y0217717D01*
X0628513Y0220277D01*
X0629045Y0218245D02*
X0626481Y0218245D01*
X0628291Y0220055D02*
X0628735Y0220055D01*
X0631270Y0212400D02*
X0632552Y0211118D01*
X0631270Y0212400D02*
X0633830Y0214960D01*
X0635112Y0213678D01*
X0632552Y0211118D01*
X0631798Y0212928D02*
X0634362Y0212928D01*
X0634052Y0214738D02*
X0633608Y0214738D01*
X0633261Y0224858D02*
X0631979Y0226140D01*
X0634539Y0228700D01*
X0635821Y0227418D01*
X0633261Y0224858D01*
X0632507Y0226668D02*
X0635071Y0226668D01*
X0634761Y0228478D02*
X0634317Y0228478D01*
X0630504Y0232735D02*
X0629222Y0234017D01*
X0630504Y0232735D02*
X0627944Y0230175D01*
X0626662Y0231457D01*
X0629222Y0234017D01*
X0629754Y0231985D02*
X0627190Y0231985D01*
X0629000Y0233795D02*
X0629444Y0233795D01*
X0689233Y0306268D02*
X0689233Y0308080D01*
X0692855Y0308080D01*
X0692855Y0306268D01*
X0689233Y0306268D01*
X0689233Y0308078D02*
X0692855Y0308078D01*
X0692855Y0313788D02*
X0692855Y0315600D01*
X0692855Y0313788D02*
X0689233Y0313788D01*
X0689233Y0315600D01*
X0692855Y0315600D01*
X0692855Y0315598D02*
X0689233Y0315598D01*
X0644718Y0453362D02*
X0643436Y0454644D01*
X0645996Y0457204D01*
X0647278Y0455922D01*
X0644718Y0453362D01*
X0643964Y0455172D02*
X0646528Y0455172D01*
X0646218Y0456982D02*
X0645774Y0456982D01*
X0641960Y0461239D02*
X0640678Y0462521D01*
X0641960Y0461239D02*
X0639400Y0458679D01*
X0638118Y0459961D01*
X0640678Y0462521D01*
X0641210Y0460489D02*
X0638646Y0460489D01*
X0640456Y0462299D02*
X0640900Y0462299D01*
X0610008Y0492182D02*
X0611290Y0493464D01*
X0613850Y0490904D01*
X0612568Y0489622D01*
X0610008Y0492182D01*
X0610758Y0491432D02*
X0613322Y0491432D01*
X0611512Y0493242D02*
X0611068Y0493242D01*
X0617885Y0494939D02*
X0619167Y0496221D01*
X0617885Y0494939D02*
X0615325Y0497499D01*
X0616607Y0498781D01*
X0619167Y0496221D01*
X0618639Y0496749D02*
X0616075Y0496749D01*
X0616385Y0498559D02*
X0616829Y0498559D01*
D23*
G36*
X0660146Y0484651D02*
X0665713Y0490218D01*
X0671280Y0484651D01*
X0665713Y0479084D01*
X0660146Y0484651D01*
G37*
G36*
X0668498Y0476300D02*
X0674065Y0481867D01*
X0679632Y0476300D01*
X0674065Y0470733D01*
X0668498Y0476300D01*
G37*
G36*
X0362490Y0472088D02*
X0356923Y0477655D01*
X0362490Y0483222D01*
X0368057Y0477655D01*
X0362490Y0472088D01*
G37*
G36*
X0354138Y0463736D02*
X0348571Y0469303D01*
X0354138Y0474870D01*
X0359705Y0469303D01*
X0354138Y0463736D01*
G37*
G36*
X0356702Y0225647D02*
X0351135Y0220080D01*
X0345568Y0225647D01*
X0351135Y0231214D01*
X0356702Y0225647D01*
G37*
G36*
X0365053Y0217295D02*
X0359486Y0211728D01*
X0353919Y0217295D01*
X0359486Y0222862D01*
X0365053Y0217295D01*
G37*
G36*
X0640555Y0184209D02*
X0634988Y0189776D01*
X0640555Y0195343D01*
X0646122Y0189776D01*
X0640555Y0184209D01*
G37*
G36*
X0648907Y0192560D02*
X0643340Y0198127D01*
X0648907Y0203694D01*
X0654474Y0198127D01*
X0648907Y0192560D01*
G37*
D24*
X0448367Y0373572D03*
X0438131Y0373572D03*
X0438131Y0377312D03*
X0438131Y0381052D03*
X0448367Y0381052D03*
D25*
G36*
X0365656Y0450179D02*
X0368439Y0452962D01*
X0372614Y0448787D01*
X0369831Y0446004D01*
X0365656Y0450179D01*
G37*
G36*
X0370946Y0455468D02*
X0373729Y0458251D01*
X0377904Y0454076D01*
X0375121Y0451293D01*
X0370946Y0455468D01*
G37*
G36*
X0651392Y0481243D02*
X0654175Y0478460D01*
X0650000Y0474285D01*
X0647217Y0477068D01*
X0651392Y0481243D01*
G37*
G36*
X0656681Y0475954D02*
X0659464Y0473171D01*
X0655289Y0468996D01*
X0652506Y0471779D01*
X0656681Y0475954D01*
G37*
G36*
X0362101Y0236071D02*
X0359318Y0238854D01*
X0363493Y0243029D01*
X0366276Y0240246D01*
X0362101Y0236071D01*
G37*
G36*
X0367390Y0230782D02*
X0364607Y0233565D01*
X0368782Y0237740D01*
X0371565Y0234957D01*
X0367390Y0230782D01*
G37*
G36*
X0624175Y0200494D02*
X0621392Y0197711D01*
X0617217Y0201886D01*
X0620000Y0204669D01*
X0624175Y0200494D01*
G37*
G36*
X0629464Y0205783D02*
X0626681Y0203000D01*
X0622506Y0207175D01*
X0625289Y0209958D01*
X0629464Y0205783D01*
G37*
D26*
G36*
X0624426Y0210820D02*
X0616355Y0202749D01*
X0610648Y0208456D01*
X0618719Y0216527D01*
X0624426Y0210820D01*
G37*
G36*
X0372426Y0235820D02*
X0364355Y0243891D01*
X0370062Y0249598D01*
X0378133Y0241527D01*
X0372426Y0235820D01*
G37*
G36*
X0370694Y0445142D02*
X0378765Y0453213D01*
X0384472Y0447506D01*
X0376401Y0439435D01*
X0370694Y0445142D01*
G37*
G36*
X0646355Y0476206D02*
X0654426Y0468135D01*
X0648719Y0462428D01*
X0640648Y0470499D01*
X0646355Y0476206D01*
G37*
D27*
X0520533Y0353276D03*
X0518812Y0353276D03*
X0517092Y0353276D03*
X0515371Y0353276D03*
X0513651Y0353276D03*
X0511930Y0353276D03*
X0510210Y0353276D03*
X0508485Y0353276D03*
X0508485Y0339300D03*
X0510210Y0339300D03*
X0511930Y0339300D03*
X0513651Y0339300D03*
X0515371Y0339300D03*
X0517092Y0339300D03*
X0518812Y0339300D03*
X0520533Y0339300D03*
D28*
X0522265Y0343650D03*
X0522265Y0345383D03*
X0522265Y0347194D03*
X0522265Y0348926D03*
X0506753Y0348926D03*
X0506753Y0347194D03*
X0506753Y0345383D03*
X0506753Y0343650D03*
D29*
X0596907Y0356957D03*
X0596907Y0358926D03*
X0596907Y0360894D03*
X0596907Y0362863D03*
X0596907Y0364831D03*
X0596907Y0366800D03*
X0596907Y0368769D03*
X0596907Y0370737D03*
X0596907Y0372706D03*
X0596907Y0374674D03*
X0596907Y0376643D03*
X0596907Y0378611D03*
X0596907Y0380580D03*
X0596907Y0382548D03*
X0596907Y0384517D03*
X0596907Y0386485D03*
X0635340Y0386485D03*
X0635340Y0384517D03*
X0635340Y0382548D03*
X0635340Y0380580D03*
X0635340Y0378611D03*
X0635340Y0376643D03*
X0635340Y0374674D03*
X0635340Y0372706D03*
X0635340Y0370737D03*
X0635340Y0368769D03*
X0635340Y0366800D03*
X0635340Y0364831D03*
X0635340Y0362863D03*
X0635340Y0360894D03*
X0635340Y0358926D03*
X0635340Y0356957D03*
D30*
X0630887Y0352505D03*
X0628918Y0352505D03*
X0626950Y0352505D03*
X0624981Y0352505D03*
X0623013Y0352505D03*
X0621044Y0352505D03*
X0619076Y0352505D03*
X0617107Y0352505D03*
X0615139Y0352505D03*
X0613170Y0352505D03*
X0611202Y0352505D03*
X0609233Y0352505D03*
X0607265Y0352505D03*
X0605296Y0352505D03*
X0603328Y0352505D03*
X0601359Y0352505D03*
X0601359Y0390938D03*
X0603328Y0390938D03*
X0605296Y0390938D03*
X0607265Y0390938D03*
X0609233Y0390938D03*
X0611202Y0390938D03*
X0613170Y0390938D03*
X0615139Y0390938D03*
X0617107Y0390938D03*
X0619076Y0390938D03*
X0621044Y0390938D03*
X0623013Y0390938D03*
X0624981Y0390938D03*
X0626950Y0390938D03*
X0628918Y0390938D03*
X0630887Y0390938D03*
D31*
X0621950Y0407115D03*
X0607383Y0407115D03*
X0607383Y0416170D03*
X0621950Y0416170D03*
D32*
X0436627Y0350233D03*
X0433627Y0350233D03*
D33*
X0354257Y0447630D02*
X0351892Y0449995D01*
X0353007Y0451110D01*
X0355372Y0448745D01*
X0354257Y0447630D01*
X0354913Y0449204D02*
X0352683Y0449204D01*
X0352675Y0450778D02*
X0353339Y0450778D01*
X0346102Y0458015D02*
X0343737Y0460380D01*
X0346102Y0458015D02*
X0344987Y0456900D01*
X0342622Y0459265D01*
X0343737Y0460380D01*
X0343413Y0458474D02*
X0345643Y0458474D01*
X0344069Y0460048D02*
X0343405Y0460048D01*
X0652780Y0451776D02*
X0655145Y0454141D01*
X0656260Y0453026D01*
X0653895Y0450661D01*
X0652780Y0451776D01*
X0653239Y0452235D02*
X0655469Y0452235D01*
X0655477Y0453809D02*
X0654813Y0453809D01*
X0663165Y0459931D02*
X0665530Y0462296D01*
X0663165Y0459931D02*
X0662050Y0461046D01*
X0664415Y0463411D01*
X0665530Y0462296D01*
X0664739Y0461505D02*
X0662509Y0461505D01*
X0664083Y0463079D02*
X0664747Y0463079D01*
X0348758Y0247296D02*
X0346393Y0244931D01*
X0345278Y0246046D01*
X0347643Y0248411D01*
X0348758Y0247296D01*
X0347967Y0246505D02*
X0345737Y0246505D01*
X0347311Y0248079D02*
X0347975Y0248079D01*
X0338373Y0239141D02*
X0336008Y0236776D01*
X0338373Y0239141D02*
X0339488Y0238026D01*
X0337123Y0235661D01*
X0336008Y0236776D01*
X0336467Y0237235D02*
X0338697Y0237235D01*
X0338705Y0238809D02*
X0338041Y0238809D01*
X0621065Y0192093D02*
X0623384Y0189683D01*
X0622249Y0188591D01*
X0619930Y0191001D01*
X0621065Y0192093D01*
X0620734Y0190165D02*
X0622920Y0190165D01*
X0621406Y0191739D02*
X0620697Y0191739D01*
X0629020Y0181555D02*
X0631339Y0179145D01*
X0629020Y0181555D02*
X0630155Y0182647D01*
X0632474Y0180237D01*
X0631339Y0179145D01*
X0632010Y0180719D02*
X0629824Y0180719D01*
X0629787Y0182293D02*
X0630496Y0182293D01*
D34*
X0504548Y0200186D03*
X0486832Y0200186D03*
X0486832Y0164359D03*
X0504548Y0164359D03*
D35*
X0504609Y0164488D01*
X0511659Y0171538D01*
X0504609Y0178588D01*
X0504609Y0199888D01*
X0504548Y0200186D01*
X0511809Y0171688D02*
X0511659Y0171538D01*
X0511809Y0171688D02*
X0521409Y0171688D01*
X0525009Y0168088D01*
X0526209Y0168088D01*
X0526261Y0167981D01*
X0524709Y0168088D01*
X0524709Y0146788D01*
X0527409Y0144088D01*
X0541509Y0144088D01*
X0544809Y0147388D01*
X0544809Y0151288D01*
X0621609Y0228088D01*
X0630309Y0228088D01*
X0669309Y0267088D01*
X0669496Y0267181D01*
X0669609Y0267388D01*
X0674409Y0272188D01*
X0674409Y0278788D01*
X0677409Y0281788D01*
X0681009Y0281788D01*
X0690909Y0291688D01*
X0690909Y0306988D01*
X0691044Y0307174D01*
X0690909Y0312388D02*
X0674409Y0295888D01*
X0674409Y0283288D01*
X0673509Y0282388D01*
X0665709Y0282388D01*
X0639609Y0308488D01*
X0639609Y0357688D01*
X0638409Y0358888D01*
X0635409Y0358888D01*
X0635340Y0358926D01*
X0635109Y0359188D01*
X0628809Y0359188D01*
X0624459Y0363538D01*
X0629409Y0368488D01*
X0629409Y0378688D01*
X0629559Y0378838D01*
X0629709Y0378688D01*
X0635109Y0378688D01*
X0635340Y0378611D01*
X0635409Y0380488D02*
X0635340Y0380580D01*
X0635409Y0380488D02*
X0641409Y0380488D01*
X0644709Y0378988D02*
X0644709Y0396688D01*
X0630009Y0411388D01*
X0630009Y0427588D01*
X0591609Y0465988D01*
X0439509Y0465988D01*
X0430659Y0474838D01*
X0430809Y0474988D01*
X0430809Y0480088D01*
X0430987Y0480165D01*
X0430659Y0474838D02*
X0333009Y0377188D01*
X0333009Y0352588D01*
X0328809Y0348388D01*
X0328682Y0348217D01*
X0327009Y0343888D02*
X0324309Y0346588D01*
X0324309Y0349888D01*
X0328509Y0354088D01*
X0328509Y0357988D01*
X0328682Y0358217D01*
X0327009Y0343888D02*
X0427209Y0343888D01*
X0429609Y0346288D01*
X0434409Y0346288D01*
X0438309Y0342388D01*
X0438466Y0342351D01*
X0438609Y0342388D01*
X0489309Y0342388D01*
X0489309Y0351688D01*
X0495309Y0357688D01*
X0498009Y0357688D01*
X0498249Y0357922D01*
X0498609Y0357988D01*
X0503109Y0353488D01*
X0508209Y0353488D01*
X0508485Y0353276D01*
X0510009Y0353488D02*
X0510210Y0353276D01*
X0510009Y0353488D02*
X0510009Y0357088D01*
X0506109Y0360988D01*
X0506044Y0360993D01*
X0508509Y0364288D02*
X0498609Y0364288D01*
X0498131Y0364300D01*
X0498309Y0364288D01*
X0498309Y0357988D01*
X0498249Y0357922D01*
X0498131Y0364300D02*
X0498009Y0364588D01*
X0469809Y0392788D01*
X0461109Y0392788D01*
X0449409Y0381088D01*
X0448509Y0381088D01*
X0448367Y0381052D01*
X0438131Y0377312D02*
X0438009Y0377188D01*
X0436809Y0377188D01*
X0431409Y0371788D01*
X0431409Y0357688D01*
X0431222Y0357627D01*
X0431709Y0357688D01*
X0432309Y0357688D01*
X0436268Y0353335D01*
X0440856Y0351777D01*
X0436627Y0350233D01*
X0440856Y0351777D02*
X0457009Y0346288D01*
X0431418Y0342351D02*
X0431409Y0342088D01*
X0431409Y0336688D01*
X0489309Y0342388D02*
X0495609Y0342388D01*
X0495609Y0345688D01*
X0497109Y0347188D01*
X0506709Y0347188D01*
X0506753Y0347194D01*
X0506753Y0348926D02*
X0506709Y0348988D01*
X0505509Y0350188D01*
X0498309Y0350188D01*
X0498249Y0350402D01*
X0498009Y0350488D01*
X0492609Y0350488D01*
X0495609Y0342388D02*
X0495609Y0340588D01*
X0499209Y0336988D01*
X0499470Y0336741D01*
X0499509Y0336688D01*
X0506109Y0336688D01*
X0508509Y0339088D01*
X0508485Y0339300D01*
X0508809Y0339088D01*
X0510009Y0339088D01*
X0510210Y0339300D01*
X0510309Y0339388D01*
X0511809Y0339388D01*
X0511930Y0339300D01*
X0512109Y0339088D01*
X0512109Y0336088D01*
X0512709Y0335488D01*
X0519609Y0335488D01*
X0520509Y0336388D01*
X0520509Y0339088D01*
X0520533Y0339300D01*
X0522265Y0343650D02*
X0522309Y0343888D01*
X0522309Y0345088D01*
X0522265Y0345383D01*
X0522309Y0345688D01*
X0522309Y0346888D01*
X0522265Y0347194D01*
X0522309Y0347488D01*
X0522309Y0348688D01*
X0522265Y0348926D01*
X0522309Y0348988D01*
X0522309Y0353488D01*
X0530409Y0353488D01*
X0535209Y0358288D01*
X0536409Y0358288D01*
X0536615Y0358454D01*
X0536709Y0358288D01*
X0566409Y0358288D01*
X0570009Y0361888D01*
X0571509Y0361888D01*
X0571537Y0362076D01*
X0571809Y0362188D01*
X0571809Y0373888D01*
X0571809Y0387988D01*
X0572109Y0388288D01*
X0572324Y0388296D01*
X0566709Y0387088D02*
X0565509Y0388288D01*
X0565277Y0388296D01*
X0566709Y0387088D02*
X0566709Y0373288D01*
X0564609Y0371188D01*
X0564609Y0367288D01*
X0568509Y0367288D01*
X0564609Y0367288D02*
X0564609Y0362188D01*
X0564489Y0362076D01*
X0564309Y0362188D01*
X0523509Y0362188D01*
X0522309Y0360988D01*
X0522068Y0360954D01*
X0522009Y0360988D01*
X0514209Y0360988D01*
X0514155Y0360914D01*
X0513609Y0360688D01*
X0512109Y0360688D01*
X0508509Y0364288D01*
X0506044Y0368040D02*
X0505809Y0368188D01*
X0502959Y0371038D01*
X0503109Y0371188D01*
X0503109Y0372388D01*
X0504009Y0373288D01*
X0502809Y0371188D02*
X0502959Y0371038D01*
X0502809Y0371188D02*
X0498309Y0371188D01*
X0498131Y0371347D01*
X0506044Y0368040D02*
X0506109Y0368188D01*
X0513909Y0368188D01*
X0514155Y0367961D01*
X0514209Y0367888D01*
X0522009Y0367888D01*
X0522068Y0368001D01*
X0514155Y0360914D02*
X0513909Y0360688D01*
X0513909Y0353488D01*
X0513651Y0353276D01*
X0513609Y0353188D01*
X0512109Y0353188D01*
X0511930Y0353276D01*
X0515371Y0353276D02*
X0515409Y0353488D01*
X0515409Y0356188D01*
X0516909Y0357688D01*
X0528909Y0357688D01*
X0529509Y0358288D01*
X0529568Y0358454D01*
X0522309Y0353488D02*
X0520809Y0353488D01*
X0520533Y0353276D01*
X0520509Y0353188D01*
X0519009Y0353188D01*
X0518812Y0353276D01*
X0518709Y0353188D01*
X0517209Y0353188D01*
X0517092Y0353276D01*
X0506753Y0345383D02*
X0506709Y0345388D01*
X0503709Y0345388D01*
X0502809Y0344488D01*
X0502809Y0342988D01*
X0504909Y0340888D01*
X0504909Y0339988D01*
X0507009Y0342388D02*
X0508209Y0341188D01*
X0508209Y0339388D01*
X0508485Y0339300D01*
X0507009Y0342388D02*
X0507009Y0343588D01*
X0506753Y0343650D01*
X0502809Y0344488D02*
X0499509Y0344488D01*
X0499470Y0344261D01*
X0580209Y0371188D02*
X0580209Y0199288D01*
X0529809Y0148888D01*
X0529623Y0148750D01*
X0539618Y0149047D02*
X0539709Y0149188D01*
X0583509Y0192988D01*
X0583509Y0410788D01*
X0602409Y0429688D01*
X0626109Y0429688D01*
X0628809Y0426988D01*
X0628809Y0410788D01*
X0639609Y0399988D01*
X0639609Y0383788D01*
X0638409Y0382588D01*
X0635409Y0382588D01*
X0635340Y0382548D01*
X0635109Y0384388D02*
X0635340Y0384517D01*
X0635109Y0384388D02*
X0629409Y0384388D01*
X0629559Y0378838D02*
X0620859Y0387538D01*
X0618909Y0385588D01*
X0613509Y0385588D01*
X0611409Y0387688D01*
X0611409Y0390688D01*
X0611202Y0390938D01*
X0612909Y0390988D02*
X0613170Y0390938D01*
X0613209Y0390688D01*
X0613209Y0387688D01*
X0614109Y0386788D01*
X0618009Y0386788D01*
X0618909Y0387688D01*
X0618909Y0390688D01*
X0619076Y0390938D01*
X0621009Y0390688D02*
X0621044Y0390938D01*
X0621009Y0390688D02*
X0621009Y0387688D01*
X0620859Y0387538D01*
X0617107Y0390938D02*
X0617109Y0390988D01*
X0617109Y0411088D01*
X0621909Y0415888D01*
X0621950Y0416170D01*
X0622209Y0416188D01*
X0625509Y0419488D01*
X0625509Y0424288D01*
X0625631Y0424517D01*
X0631209Y0428188D02*
X0589809Y0469588D01*
X0498209Y0469588D01*
X0593409Y0407788D02*
X0593409Y0403888D01*
X0602109Y0395188D01*
X0606009Y0395188D01*
X0607209Y0393988D01*
X0607209Y0390988D01*
X0607265Y0390938D01*
X0607209Y0390688D01*
X0607209Y0381088D01*
X0600459Y0374338D01*
X0600309Y0374488D01*
X0597009Y0374488D01*
X0596907Y0374674D01*
X0596709Y0372988D02*
X0593409Y0372988D01*
X0593109Y0373288D01*
X0586809Y0373288D01*
X0590709Y0369688D02*
X0592809Y0369688D01*
X0593709Y0370588D01*
X0596709Y0370588D01*
X0596907Y0370737D01*
X0596907Y0368769D02*
X0597309Y0368488D01*
X0599709Y0368488D01*
X0600459Y0369238D01*
X0607809Y0361888D01*
X0607809Y0356188D01*
X0607509Y0355888D01*
X0607509Y0352588D01*
X0607265Y0352505D01*
X0607509Y0352288D01*
X0607509Y0348388D01*
X0604509Y0348388D01*
X0603609Y0349288D01*
X0603609Y0352288D01*
X0603328Y0352505D01*
X0603309Y0352588D01*
X0601509Y0352588D01*
X0601359Y0352505D01*
X0607509Y0348388D02*
X0607509Y0328288D01*
X0612609Y0323188D01*
X0612609Y0322888D01*
X0612777Y0321662D01*
X0612609Y0321688D01*
X0612609Y0322888D01*
X0616509Y0326788D01*
X0616509Y0330688D01*
X0612609Y0334588D01*
X0612609Y0345688D01*
X0615009Y0348088D01*
X0615009Y0352288D01*
X0615139Y0352505D01*
X0615009Y0352588D01*
X0615009Y0357088D01*
X0614109Y0357988D01*
X0614109Y0360388D01*
X0616209Y0362488D01*
X0623709Y0362488D01*
X0629109Y0357088D01*
X0635109Y0357088D01*
X0635340Y0356957D01*
X0635340Y0360894D02*
X0635409Y0360988D01*
X0641409Y0360988D01*
X0640209Y0366688D02*
X0651909Y0354988D01*
X0651909Y0342388D01*
X0669309Y0339388D02*
X0669309Y0287188D01*
X0669601Y0287180D01*
X0690909Y0312388D02*
X0690909Y0314488D01*
X0691044Y0314694D01*
X0669309Y0339388D02*
X0640209Y0368488D01*
X0635409Y0368488D01*
X0635340Y0368769D01*
X0635340Y0370737D02*
X0635409Y0370888D01*
X0638709Y0370888D01*
X0645909Y0378088D01*
X0645909Y0397288D01*
X0631209Y0411988D01*
X0631209Y0428188D01*
X0618584Y0424517D02*
X0618309Y0424588D01*
X0612009Y0424588D01*
X0611891Y0424556D01*
X0611709Y0424588D01*
X0607809Y0428488D01*
X0603009Y0428488D01*
X0597309Y0422788D01*
X0597309Y0417988D01*
X0597309Y0412888D01*
X0597147Y0412883D01*
X0597609Y0411988D01*
X0593409Y0407788D01*
X0597147Y0405835D02*
X0597309Y0405688D01*
X0607809Y0395188D01*
X0608109Y0395188D01*
X0609009Y0394288D01*
X0609009Y0390988D01*
X0609233Y0390938D01*
X0612909Y0390988D02*
X0612909Y0394288D01*
X0600909Y0406288D01*
X0600909Y0408988D01*
X0597309Y0412588D01*
X0597147Y0412883D01*
X0602709Y0411688D02*
X0607209Y0407188D01*
X0607383Y0407115D01*
X0607509Y0406888D01*
X0615009Y0399388D01*
X0615009Y0390988D01*
X0615139Y0390938D01*
X0625509Y0395488D02*
X0626709Y0394288D01*
X0626709Y0390988D01*
X0626950Y0390938D01*
X0628809Y0390988D02*
X0628918Y0390938D01*
X0628809Y0390988D02*
X0628809Y0396988D01*
X0625509Y0398188D02*
X0625509Y0395488D01*
X0625509Y0398188D02*
X0628809Y0401488D01*
X0628809Y0406288D01*
X0635109Y0412588D02*
X0635109Y0437788D01*
X0645309Y0447988D01*
X0645309Y0455188D01*
X0645357Y0455283D01*
X0604844Y0424556D02*
X0604809Y0424288D01*
X0604809Y0420988D01*
X0602709Y0418888D01*
X0602709Y0411688D01*
X0630887Y0390938D02*
X0630909Y0390688D01*
X0631509Y0390088D01*
X0634509Y0390088D01*
X0644709Y0378988D02*
X0638709Y0372988D01*
X0635409Y0372988D01*
X0635340Y0372706D01*
X0635340Y0366800D02*
X0635409Y0366688D01*
X0640209Y0366688D01*
X0635340Y0364831D02*
X0635109Y0364588D01*
X0630909Y0364588D01*
X0629409Y0363088D01*
X0624459Y0363538D02*
X0624309Y0363688D01*
X0615609Y0363688D01*
X0613059Y0361138D01*
X0611709Y0362488D01*
X0613059Y0361138D02*
X0612909Y0360988D01*
X0612909Y0352588D01*
X0613170Y0352505D01*
X0611409Y0352288D02*
X0611202Y0352505D01*
X0611109Y0352588D01*
X0609309Y0352588D01*
X0609233Y0352505D01*
X0611409Y0352288D02*
X0611409Y0333988D01*
X0612609Y0332788D01*
X0612609Y0328888D01*
X0612777Y0328709D01*
X0619509Y0330688D02*
X0619509Y0336088D01*
X0621009Y0337588D01*
X0621009Y0352288D01*
X0621044Y0352505D01*
X0622809Y0352288D02*
X0623013Y0352505D01*
X0622809Y0352288D02*
X0622809Y0334888D01*
X0619509Y0330688D02*
X0619809Y0330388D01*
X0628509Y0340888D02*
X0628509Y0232288D01*
X0628583Y0232096D01*
X0519214Y0167981D02*
X0519309Y0167788D01*
X0519309Y0148888D01*
X0519609Y0148588D01*
X0519627Y0148454D01*
X0468840Y0151968D02*
X0468609Y0152188D01*
X0468609Y0229888D01*
X0467109Y0231388D01*
X0466909Y0231388D01*
X0397246Y0251506D02*
X0397209Y0251788D01*
X0397209Y0259588D01*
X0328809Y0327988D01*
X0328682Y0328217D01*
X0596907Y0364831D02*
X0597009Y0364588D01*
X0600309Y0364588D01*
X0604509Y0360388D01*
X0600459Y0369238D02*
X0600909Y0369688D01*
X0600909Y0373888D01*
X0600459Y0374338D01*
X0596907Y0372706D02*
X0596709Y0372988D01*
X0596907Y0368769D02*
X0597009Y0368488D01*
X0597009Y0366988D01*
X0596907Y0366800D01*
X0617109Y0358888D02*
X0617109Y0352588D01*
X0617107Y0352505D01*
X0618909Y0352288D02*
X0619076Y0352505D01*
X0618909Y0352288D02*
X0618909Y0347488D01*
X0615909Y0344488D01*
X0617109Y0358888D02*
X0617409Y0359188D01*
X0677409Y0365488D02*
X0685809Y0365488D01*
X0686044Y0365422D01*
X0686044Y0371721D02*
X0685809Y0371788D01*
X0677409Y0371788D01*
X0684009Y0377788D02*
X0683879Y0378040D01*
X0684009Y0377788D02*
X0688509Y0373288D01*
X0688509Y0371788D01*
X0688603Y0371721D01*
D36*
X0677409Y0371788D03*
X0677409Y0365488D03*
X0651909Y0342388D03*
X0628509Y0340888D03*
X0622809Y0334888D03*
X0619809Y0330388D03*
X0615909Y0344488D03*
X0617409Y0359188D03*
X0611709Y0362488D03*
X0604509Y0360388D03*
X0590709Y0369688D03*
X0586809Y0373288D03*
X0580209Y0371188D03*
X0571809Y0373888D03*
X0568509Y0367288D03*
X0629409Y0363088D03*
X0641409Y0360988D03*
X0641409Y0380488D03*
X0629409Y0384388D03*
X0634509Y0390088D03*
X0628809Y0396988D03*
X0628809Y0406288D03*
X0635109Y0412588D03*
X0597309Y0417988D03*
X0646809Y0444988D03*
X0622209Y0490588D03*
X0504009Y0373288D03*
X0492609Y0350488D03*
X0504909Y0339988D03*
X0431409Y0336688D03*
X0388809Y0388288D03*
X0396309Y0435988D03*
X0402309Y0436888D03*
X0365709Y0445888D03*
X0345009Y0463888D03*
X0396309Y0472588D03*
X0690609Y0278488D03*
X0642609Y0222088D03*
X0636309Y0180988D03*
X0531009Y0194488D03*
X0396009Y0222088D03*
X0345009Y0231688D03*
D37*
X0351309Y0224788D02*
X0351309Y0217588D01*
X0366909Y0201988D01*
X0373809Y0201988D01*
X0374012Y0201864D01*
X0359486Y0217295D02*
X0359709Y0217588D01*
X0359709Y0236488D01*
X0362109Y0238888D01*
X0362797Y0239550D01*
X0362709Y0239788D01*
X0356109Y0246388D01*
X0347109Y0246388D01*
X0347018Y0246671D01*
X0339309Y0237388D02*
X0345009Y0231688D01*
X0351009Y0225688D01*
X0351135Y0225647D01*
X0351309Y0224788D01*
X0339309Y0237388D02*
X0337809Y0237388D01*
X0337748Y0237401D01*
X0368086Y0234261D02*
X0368109Y0234088D01*
X0375309Y0234088D01*
X0387009Y0222388D01*
X0387844Y0222182D01*
X0387909Y0222088D01*
X0391509Y0222088D01*
X0391509Y0184588D01*
X0391384Y0184492D01*
X0391509Y0222088D02*
X0396009Y0222088D01*
X0402009Y0222088D01*
X0402283Y0221858D01*
X0407409Y0227188D02*
X0393609Y0227188D01*
X0392827Y0227166D01*
X0392709Y0227188D01*
X0392109Y0227788D01*
X0392109Y0242788D01*
X0371409Y0242788D01*
X0371244Y0242709D01*
X0392109Y0242788D02*
X0392109Y0246088D01*
X0391929Y0246189D01*
X0407409Y0227188D02*
X0407601Y0227175D01*
X0530809Y0222988D02*
X0531009Y0222988D01*
X0531009Y0194488D01*
X0617537Y0209638D02*
X0617709Y0209788D01*
X0619509Y0209788D01*
X0627309Y0217588D01*
X0627874Y0218356D01*
X0627909Y0218488D01*
X0627909Y0220888D01*
X0633609Y0226588D01*
X0633900Y0226779D01*
X0634509Y0227488D01*
X0642609Y0235588D01*
X0646509Y0235588D01*
X0646742Y0235630D01*
X0651009Y0230488D02*
X0642609Y0222088D01*
X0633909Y0213388D01*
X0633191Y0213039D01*
X0633009Y0212788D01*
X0632409Y0212788D01*
X0626109Y0206488D01*
X0625985Y0206479D01*
X0620696Y0201190D02*
X0620709Y0201088D01*
X0621609Y0200188D01*
X0621609Y0190588D01*
X0621657Y0190342D01*
X0622209Y0189988D01*
X0640509Y0189988D01*
X0640555Y0189776D01*
X0648609Y0189988D02*
X0639609Y0180988D01*
X0636309Y0180988D01*
X0630909Y0180988D01*
X0630747Y0180896D01*
X0648609Y0189988D02*
X0648609Y0198088D01*
X0648907Y0198127D01*
X0649209Y0198988D01*
X0661809Y0211588D01*
X0662004Y0211815D01*
X0652809Y0229288D02*
X0652209Y0229888D01*
X0651725Y0230647D01*
X0651609Y0230488D01*
X0651009Y0230488D01*
X0652809Y0229288D02*
X0679209Y0229288D01*
X0679376Y0229187D01*
X0667292Y0343951D02*
X0664812Y0346431D01*
X0665375Y0398532D01*
X0701005Y0398335D01*
X0700984Y0395388D01*
X0697928Y0395141D01*
X0676440Y0396733D01*
X0676407Y0396768D01*
X0675703Y0396787D01*
X0675001Y0396839D01*
X0674964Y0396808D01*
X0674916Y0396809D01*
X0674405Y0396325D01*
X0673871Y0395865D01*
X0673868Y0395817D01*
X0673439Y0395412D01*
X0673411Y0395412D01*
X0672901Y0394902D01*
X0672376Y0394406D01*
X0672375Y0394378D01*
X0672356Y0394359D01*
X0672355Y0393637D01*
X0672335Y0392916D01*
X0672354Y0392895D01*
X0672316Y0360616D01*
X0672167Y0360248D01*
X0672315Y0359900D01*
X0672314Y0359521D01*
X0672595Y0359240D01*
X0674403Y0354978D01*
X0675181Y0354663D01*
X0676243Y0353646D01*
X0695181Y0354054D01*
X0700071Y0353750D01*
X0700680Y0353713D01*
X0700611Y0344280D01*
X0667292Y0343951D01*
X0666753Y0344490D02*
X0700613Y0344490D01*
X0700626Y0346288D02*
X0664955Y0346288D01*
X0664830Y0348087D02*
X0700639Y0348087D01*
X0700652Y0349885D02*
X0664849Y0349885D01*
X0664868Y0351684D02*
X0700665Y0351684D01*
X0700678Y0353482D02*
X0664888Y0353482D01*
X0664907Y0355281D02*
X0674274Y0355281D01*
X0673511Y0357079D02*
X0664927Y0357079D01*
X0664946Y0358878D02*
X0672748Y0358878D01*
X0672316Y0360676D02*
X0664966Y0360676D01*
X0664985Y0362475D02*
X0672318Y0362475D01*
X0672320Y0364273D02*
X0665005Y0364273D01*
X0665024Y0366072D02*
X0672322Y0366072D01*
X0672324Y0367870D02*
X0665044Y0367870D01*
X0665063Y0369669D02*
X0672326Y0369669D01*
X0672329Y0371467D02*
X0665082Y0371467D01*
X0665102Y0373266D02*
X0672331Y0373266D01*
X0672333Y0375064D02*
X0665121Y0375064D01*
X0665141Y0376863D02*
X0672335Y0376863D01*
X0672337Y0378661D02*
X0665160Y0378661D01*
X0665180Y0380460D02*
X0672339Y0380460D01*
X0672341Y0382258D02*
X0665199Y0382258D01*
X0665219Y0384057D02*
X0672343Y0384057D01*
X0672346Y0385855D02*
X0665238Y0385855D01*
X0665257Y0387654D02*
X0672348Y0387654D01*
X0672350Y0389452D02*
X0665277Y0389452D01*
X0665296Y0391251D02*
X0672352Y0391251D01*
X0672338Y0393049D02*
X0665316Y0393049D01*
X0665335Y0394848D02*
X0672843Y0394848D01*
X0674744Y0396647D02*
X0665355Y0396647D01*
X0665374Y0398445D02*
X0681170Y0398445D01*
X0677601Y0396647D02*
X0700993Y0396647D01*
X0700957Y0391774D02*
X0700903Y0384340D01*
X0700280Y0374245D01*
X0695148Y0374245D01*
X0694797Y0373894D01*
X0694086Y0374188D01*
X0693609Y0374188D01*
X0693609Y0374454D01*
X0693985Y0374454D01*
X0694895Y0374831D01*
X0695592Y0375528D01*
X0695970Y0376439D01*
X0695970Y0379720D01*
X0695592Y0380631D01*
X0694895Y0381328D01*
X0694754Y0381387D01*
X0694855Y0381428D01*
X0695326Y0381743D01*
X0695727Y0382144D01*
X0696042Y0382616D01*
X0696259Y0383139D01*
X0696370Y0383695D01*
X0696370Y0384964D01*
X0691837Y0384964D01*
X0691837Y0385290D01*
X0691511Y0385290D01*
X0691511Y0384964D01*
X0686979Y0384964D01*
X0686979Y0384924D01*
X0684042Y0384924D01*
X0684042Y0385250D01*
X0688574Y0385250D01*
X0688574Y0385290D01*
X0691511Y0385290D01*
X0691511Y0389153D01*
X0689574Y0389153D01*
X0689018Y0389042D01*
X0688494Y0388825D01*
X0688022Y0388510D01*
X0687757Y0388245D01*
X0687531Y0388471D01*
X0687060Y0388786D01*
X0686536Y0389003D01*
X0685980Y0389113D01*
X0684042Y0389113D01*
X0684042Y0385250D01*
X0683716Y0385250D01*
X0683716Y0384924D01*
X0679184Y0384924D01*
X0679184Y0383656D01*
X0679294Y0383100D01*
X0679511Y0382576D01*
X0679826Y0382105D01*
X0680227Y0381704D01*
X0680699Y0381389D01*
X0680799Y0381347D01*
X0680658Y0381289D01*
X0679961Y0380592D01*
X0679584Y0379681D01*
X0679584Y0376399D01*
X0679961Y0375488D01*
X0680658Y0374791D01*
X0681569Y0374414D01*
X0684352Y0374414D01*
X0683855Y0373917D01*
X0683855Y0373588D01*
X0680722Y0373588D01*
X0680588Y0373912D01*
X0679533Y0374967D01*
X0678155Y0375538D01*
X0676663Y0375538D01*
X0675933Y0375236D01*
X0675954Y0392835D01*
X0676271Y0393135D01*
X0697216Y0391584D01*
X0697336Y0391481D01*
X0697940Y0391530D01*
X0698545Y0391485D01*
X0698665Y0391589D01*
X0700957Y0391774D01*
X0700953Y0391251D02*
X0675952Y0391251D01*
X0675950Y0389452D02*
X0700940Y0389452D01*
X0700927Y0387654D02*
X0696031Y0387654D01*
X0696042Y0387638D02*
X0695727Y0388109D01*
X0695326Y0388510D01*
X0694855Y0388825D01*
X0694331Y0389042D01*
X0693775Y0389153D01*
X0691837Y0389153D01*
X0691837Y0385290D01*
X0696370Y0385290D01*
X0696370Y0386558D01*
X0696259Y0387114D01*
X0696042Y0387638D01*
X0696370Y0385855D02*
X0700914Y0385855D01*
X0700886Y0384057D02*
X0696370Y0384057D01*
X0695803Y0382258D02*
X0700775Y0382258D01*
X0700664Y0380460D02*
X0695663Y0380460D01*
X0695970Y0378661D02*
X0700553Y0378661D01*
X0700442Y0376863D02*
X0695970Y0376863D01*
X0695129Y0375064D02*
X0700331Y0375064D01*
X0693609Y0371788D02*
X0697509Y0367888D01*
X0697769Y0367745D01*
X0694269Y0367734D02*
X0694269Y0362124D01*
X0695148Y0361245D01*
X0699477Y0361245D01*
X0699241Y0357409D01*
X0695987Y0357611D01*
X0695924Y0357671D01*
X0695254Y0357656D01*
X0694585Y0357698D01*
X0694520Y0357640D01*
X0677341Y0357270D01*
X0675916Y0360630D01*
X0675917Y0362047D01*
X0676663Y0361738D01*
X0678155Y0361738D01*
X0679533Y0362309D01*
X0680588Y0363364D01*
X0680722Y0363688D01*
X0683855Y0363688D01*
X0683855Y0363226D01*
X0684734Y0362347D01*
X0686727Y0362347D01*
X0686748Y0362327D01*
X0687181Y0362077D01*
X0687664Y0361947D01*
X0688603Y0361947D01*
X0688603Y0365422D01*
X0688604Y0365422D01*
X0688604Y0361947D01*
X0689543Y0361947D01*
X0690026Y0362077D01*
X0690459Y0362327D01*
X0690479Y0362347D01*
X0692473Y0362347D01*
X0693352Y0363226D01*
X0693352Y0367618D01*
X0692473Y0368497D01*
X0690479Y0368497D01*
X0690459Y0368517D01*
X0690235Y0368646D01*
X0692473Y0368646D01*
X0692915Y0369088D01*
X0694269Y0367734D01*
X0694133Y0367870D02*
X0693099Y0367870D01*
X0693352Y0366072D02*
X0694269Y0366072D01*
X0694269Y0364273D02*
X0693352Y0364273D01*
X0692600Y0362475D02*
X0694269Y0362475D01*
X0699442Y0360676D02*
X0675916Y0360676D01*
X0676659Y0358878D02*
X0699331Y0358878D01*
X0700071Y0353750D02*
X0700071Y0353750D01*
X0688604Y0362475D02*
X0688603Y0362475D01*
X0688603Y0364273D02*
X0688604Y0364273D01*
X0684607Y0362475D02*
X0679699Y0362475D01*
X0691163Y0371721D02*
X0691209Y0371788D01*
X0693609Y0371788D01*
X0691209Y0371788D02*
X0691209Y0377488D01*
X0691509Y0377788D01*
X0691674Y0378080D01*
X0691511Y0385855D02*
X0691837Y0385855D01*
X0691837Y0387654D02*
X0691511Y0387654D01*
X0684042Y0387654D02*
X0683716Y0387654D01*
X0683716Y0389113D02*
X0683716Y0385250D01*
X0679184Y0385250D01*
X0679184Y0386519D01*
X0679294Y0387075D01*
X0679511Y0387599D01*
X0679826Y0388070D01*
X0680227Y0388471D01*
X0680699Y0388786D01*
X0681222Y0389003D01*
X0681778Y0389113D01*
X0683716Y0389113D01*
X0683716Y0385855D02*
X0684042Y0385855D01*
X0679548Y0387654D02*
X0675948Y0387654D01*
X0675945Y0385855D02*
X0679184Y0385855D01*
X0679184Y0384057D02*
X0675943Y0384057D01*
X0675941Y0382258D02*
X0679724Y0382258D01*
X0679906Y0380460D02*
X0675939Y0380460D01*
X0675937Y0378661D02*
X0679584Y0378661D01*
X0679584Y0376863D02*
X0675935Y0376863D01*
X0679299Y0375064D02*
X0680385Y0375064D01*
X0677428Y0393049D02*
X0676180Y0393049D01*
X0646809Y0444988D02*
X0654009Y0452188D01*
X0654520Y0452401D01*
X0654609Y0452488D01*
X0659109Y0452488D01*
X0673809Y0467188D01*
X0673809Y0476188D01*
X0674065Y0476300D01*
X0673809Y0477088D01*
X0673809Y0484288D01*
X0663609Y0494488D01*
X0647409Y0494488D01*
X0647250Y0494492D01*
X0650409Y0477988D02*
X0635409Y0477988D01*
X0627909Y0485488D01*
X0627040Y0485709D01*
X0627009Y0485788D01*
X0622209Y0490588D01*
X0617409Y0495388D01*
X0617409Y0496588D01*
X0617246Y0496860D01*
X0617709Y0497488D01*
X0629709Y0509488D01*
X0629709Y0511588D01*
X0629878Y0511864D01*
X0612009Y0491488D02*
X0611929Y0491543D01*
X0612009Y0491488D02*
X0612009Y0490888D01*
X0621909Y0480988D01*
X0622057Y0480726D01*
X0622809Y0480388D01*
X0640209Y0462988D01*
X0640039Y0460600D01*
X0640209Y0460888D01*
X0640209Y0462088D01*
X0647409Y0469288D01*
X0647537Y0469317D01*
X0650696Y0477764D02*
X0650409Y0477988D01*
X0656409Y0473188D02*
X0655985Y0472475D01*
X0656109Y0472288D01*
X0663609Y0464788D01*
X0663609Y0461788D01*
X0663790Y0461671D01*
X0656409Y0473188D02*
X0665709Y0482488D01*
X0665709Y0484588D01*
X0665713Y0484651D01*
X0462816Y0398178D02*
X0462609Y0397888D01*
X0461409Y0396688D01*
X0444009Y0396688D01*
X0443387Y0396131D01*
X0442509Y0396688D01*
X0402309Y0436888D01*
X0396609Y0435988D02*
X0396309Y0435988D01*
X0396609Y0435988D02*
X0436209Y0396388D01*
X0436340Y0396131D01*
X0435690Y0388729D01*
X0425218Y0388729D01*
X0423643Y0350225D01*
X0433627Y0350233D01*
X0438269Y0357627D02*
X0438309Y0357688D01*
X0448209Y0367588D01*
X0448209Y0373288D01*
X0448367Y0373572D01*
X0442209Y0375688D02*
X0442209Y0378988D01*
X0440409Y0380788D01*
X0443109Y0383488D01*
X0443109Y0396088D01*
X0443387Y0396131D01*
X0438131Y0381052D02*
X0438309Y0380788D01*
X0440409Y0380788D01*
X0442209Y0375688D02*
X0440109Y0373588D01*
X0438309Y0373588D01*
X0438131Y0373572D01*
X0457209Y0382588D02*
X0457209Y0356488D01*
X0457009Y0356288D01*
X0457209Y0382588D02*
X0462609Y0387988D01*
X0462816Y0388178D01*
X0392709Y0459688D02*
X0379509Y0446488D01*
X0377709Y0446488D01*
X0377583Y0446324D01*
X0369135Y0449483D02*
X0369009Y0449188D01*
X0365709Y0445888D01*
X0374425Y0454772D02*
X0374409Y0454888D01*
X0353709Y0454888D01*
X0353709Y0449488D01*
X0353632Y0449370D01*
X0353709Y0454888D02*
X0353709Y0468988D01*
X0354009Y0469288D01*
X0354138Y0469303D01*
X0354309Y0477388D02*
X0362409Y0477388D01*
X0362490Y0477655D01*
X0363309Y0477988D01*
X0372009Y0486688D01*
X0379509Y0486688D01*
X0379563Y0486697D01*
X0397209Y0487288D02*
X0397209Y0503788D01*
X0396935Y0504068D01*
X0397209Y0487288D02*
X0402909Y0481588D01*
X0403780Y0481033D01*
X0403509Y0480988D01*
X0403509Y0479788D01*
X0396309Y0472588D01*
X0388809Y0465088D01*
X0388592Y0465000D01*
X0392709Y0459688D02*
X0393575Y0460017D01*
X0393609Y0460288D01*
X0408609Y0475288D01*
X0409097Y0475716D01*
X0409209Y0475888D01*
X0416109Y0475888D01*
X0425409Y0485188D01*
X0425669Y0485482D01*
X0354309Y0477388D02*
X0344409Y0467488D01*
X0344409Y0463888D01*
X0345009Y0463888D01*
X0344409Y0463888D02*
X0344409Y0458788D01*
X0344362Y0458640D01*
D38*
X0670296Y0391957D03*
X0679115Y0390855D03*
X0670139Y0377863D03*
X0670651Y0360225D03*
X0671911Y0350658D03*
X0682147Y0349517D03*
X0692344Y0349674D03*
X0693367Y0360383D03*
X0698722Y0383099D03*
M02*
