G75*
%MOIN*%
%OFA0B0*%
%FSLAX25Y25*%
%IPPOS*%
%LPD*%
%AMOC8*
5,1,8,0,0,1.08239X$1,22.5*
%
%ADD10C,0.01600*%
%ADD11C,0.00500*%
%ADD12C,0.00800*%
%ADD13C,0.00200*%
%ADD14C,0.00000*%
%ADD15C,0.00472*%
%ADD16C,0.00400*%
%ADD17C,0.00787*%
%ADD18C,0.00300*%
%ADD19C,0.00600*%
%ADD20C,0.00100*%
%ADD21C,0.00150*%
%ADD22C,0.00039*%
D10*
X0248205Y0095800D02*
X0261832Y0109083D01*
X0246079Y0101552D02*
X0246269Y0100837D01*
X0246475Y0100126D01*
X0246697Y0099420D01*
X0246935Y0098720D01*
X0247188Y0098024D01*
X0247456Y0097335D01*
X0247740Y0096652D01*
X0248039Y0095975D01*
X0264076Y0079788D02*
X0277186Y0093454D01*
X0276017Y0076583D02*
X0275324Y0076663D01*
X0274633Y0076758D01*
X0273945Y0076869D01*
X0273259Y0076994D01*
X0272576Y0077136D01*
X0271896Y0077292D01*
X0271221Y0077464D01*
X0270549Y0077650D01*
X0269891Y0077607D02*
X0269144Y0077810D01*
X0268402Y0078031D01*
X0267665Y0078269D01*
X0266935Y0078524D01*
X0266210Y0078797D01*
X0265492Y0079086D01*
X0264781Y0079391D01*
X0264077Y0079714D01*
X0245780Y0102139D02*
X0245632Y0102770D01*
X0245497Y0103404D01*
X0245374Y0104040D01*
X0245263Y0104679D01*
X0261886Y0108905D02*
X0261862Y0109311D01*
X0261847Y0109718D01*
X0261843Y0110125D01*
X0261849Y0110532D01*
X0261864Y0110938D01*
X0261890Y0111345D01*
X0261925Y0111750D01*
X0261971Y0112154D01*
X0262026Y0112558D01*
X0262091Y0112959D01*
X0262166Y0113359D01*
X0262251Y0113758D01*
X0262345Y0114153D01*
X0262449Y0114547D01*
X0262563Y0114938D01*
X0262686Y0115326D01*
X0262819Y0115710D01*
X0262961Y0116092D01*
X0263112Y0116470D01*
X0263272Y0116844D01*
X0263442Y0117214D01*
X0263621Y0117579D01*
X0263808Y0117941D01*
X0264004Y0118297D01*
X0264209Y0118649D01*
X0264423Y0118995D01*
X0264645Y0119336D01*
X0264875Y0119672D01*
X0265113Y0120002D01*
X0265359Y0120326D01*
X0265614Y0120644D01*
X0265876Y0120955D01*
X0266145Y0121260D01*
X0266422Y0121559D01*
X0266706Y0121850D01*
X0266997Y0122135D01*
X0267295Y0122412D01*
X0267599Y0122682D01*
X0267911Y0122944D01*
X0268228Y0123199D01*
X0268552Y0123446D01*
X0268881Y0123685D01*
X0269217Y0123915D01*
X0269557Y0124138D01*
X0269904Y0124352D01*
X0270255Y0124557D01*
X0270611Y0124754D01*
X0270972Y0124942D01*
X0271337Y0125121D01*
X0271707Y0125291D01*
X0272081Y0125452D01*
X0272459Y0125604D01*
X0272840Y0125747D01*
X0273224Y0125880D01*
X0273612Y0126004D01*
X0274003Y0126118D01*
X0274396Y0126223D01*
X0274792Y0126318D01*
X0275190Y0126403D01*
X0275590Y0126479D01*
X0275991Y0126544D01*
X0276394Y0126600D01*
X0276799Y0126646D01*
X0277204Y0126682D01*
X0277610Y0126708D01*
X0278017Y0126725D01*
X0278424Y0126731D01*
X0278831Y0126727D01*
X0279238Y0126714D01*
X0279644Y0126690D01*
X0280050Y0126656D01*
X0280454Y0126613D01*
X0280858Y0126560D01*
X0281260Y0126496D01*
X0281660Y0126423D01*
X0282059Y0126341D01*
X0282455Y0126248D01*
X0282849Y0126146D01*
X0283240Y0126034D01*
X0283629Y0125913D01*
X0284014Y0125782D01*
X0284396Y0125642D01*
X0284775Y0125492D01*
X0285150Y0125333D01*
X0285520Y0125166D01*
X0285887Y0124989D01*
X0285848Y0125131D02*
X0297068Y0133989D01*
X0296832Y0134162D02*
X0301281Y0129871D01*
X0301241Y0129934D02*
X0292383Y0119107D01*
X0311891Y0113383D02*
X0311891Y0112457D01*
X0311891Y0113383D02*
X0311893Y0113448D01*
X0311899Y0113512D01*
X0311908Y0113576D01*
X0311921Y0113639D01*
X0311938Y0113701D01*
X0311958Y0113763D01*
X0311982Y0113823D01*
X0312009Y0113881D01*
X0312040Y0113938D01*
X0312074Y0113993D01*
X0312111Y0114046D01*
X0312151Y0114096D01*
X0312194Y0114145D01*
X0312239Y0114190D01*
X0312288Y0114233D01*
X0312338Y0114273D01*
X0312391Y0114310D01*
X0312446Y0114344D01*
X0312503Y0114375D01*
X0312561Y0114402D01*
X0312621Y0114426D01*
X0312683Y0114446D01*
X0312745Y0114463D01*
X0312808Y0114476D01*
X0312872Y0114485D01*
X0312936Y0114491D01*
X0313001Y0114493D01*
X0312816Y0114493D01*
X0312790Y0114495D01*
X0312764Y0114500D01*
X0312739Y0114510D01*
X0312716Y0114522D01*
X0312695Y0114538D01*
X0312676Y0114557D01*
X0312660Y0114578D01*
X0312648Y0114601D01*
X0312638Y0114626D01*
X0312633Y0114652D01*
X0312631Y0114678D01*
X0313086Y0114865D02*
X0376044Y0177823D01*
X0345923Y0207702D02*
X0282764Y0144543D01*
X0282599Y0144398D02*
X0282597Y0144355D01*
X0282592Y0144313D01*
X0282582Y0144271D01*
X0282569Y0144230D01*
X0282553Y0144190D01*
X0282533Y0144152D01*
X0282510Y0144116D01*
X0282484Y0144082D01*
X0282455Y0144050D01*
X0282423Y0144021D01*
X0282389Y0143995D01*
X0282353Y0143972D01*
X0282315Y0143952D01*
X0282275Y0143936D01*
X0282234Y0143923D01*
X0282192Y0143913D01*
X0282150Y0143908D01*
X0282107Y0143906D01*
X0281985Y0143906D01*
X0281983Y0143866D01*
X0281978Y0143826D01*
X0281968Y0143788D01*
X0281956Y0143750D01*
X0281940Y0143713D01*
X0281920Y0143678D01*
X0281898Y0143645D01*
X0281872Y0143614D01*
X0281844Y0143586D01*
X0281813Y0143560D01*
X0281780Y0143538D01*
X0281745Y0143518D01*
X0281708Y0143502D01*
X0281670Y0143490D01*
X0281632Y0143480D01*
X0281592Y0143475D01*
X0281552Y0143473D01*
X0280257Y0143473D01*
X0244907Y0108052D02*
X0244960Y0107315D01*
X0245030Y0106579D01*
X0245116Y0105845D01*
X0245218Y0105113D01*
X0245336Y0104384D01*
X0245469Y0103657D01*
X0245619Y0102933D01*
X0245785Y0102213D01*
X0277032Y0093528D02*
X0277435Y0093498D01*
X0277838Y0093477D01*
X0278242Y0093467D01*
X0278646Y0093466D01*
X0279049Y0093475D01*
X0279453Y0093494D01*
X0279856Y0093522D01*
X0280258Y0093561D01*
X0280659Y0093609D01*
X0281059Y0093667D01*
X0281457Y0093734D01*
X0281853Y0093811D01*
X0282248Y0093898D01*
X0282640Y0093995D01*
X0283030Y0094100D01*
X0283417Y0094216D01*
X0283801Y0094340D01*
X0284182Y0094474D01*
X0284560Y0094617D01*
X0284934Y0094770D01*
X0285304Y0094931D01*
X0285670Y0095101D01*
X0286032Y0095280D01*
X0286390Y0095468D01*
X0286743Y0095665D01*
X0287091Y0095870D01*
X0287434Y0096083D01*
X0287771Y0096305D01*
X0288103Y0096534D01*
X0288430Y0096772D01*
X0288751Y0097018D01*
X0289065Y0097271D01*
X0289373Y0097532D01*
X0289675Y0097800D01*
X0289971Y0098076D01*
X0290259Y0098359D01*
X0290541Y0098648D01*
X0290815Y0098944D01*
X0291082Y0099247D01*
X0291342Y0099557D01*
X0291594Y0099872D01*
X0291839Y0100194D01*
X0292075Y0100521D01*
X0292304Y0100854D01*
X0292524Y0101193D01*
X0292736Y0101536D01*
X0292940Y0101885D01*
X0293135Y0102239D01*
X0293322Y0102597D01*
X0293499Y0102960D01*
X0293668Y0103327D01*
X0293828Y0103697D01*
X0293979Y0104072D01*
X0294121Y0104450D01*
X0294253Y0104832D01*
X0294377Y0105216D01*
X0294490Y0105604D01*
X0294595Y0105994D01*
X0294690Y0106387D01*
X0294775Y0106781D01*
X0294851Y0107178D01*
X0294917Y0107577D01*
X0294973Y0107977D01*
X0295020Y0108378D01*
X0295057Y0108780D01*
X0295084Y0109183D01*
X0295101Y0109586D01*
X0295109Y0109990D01*
X0295106Y0110394D01*
X0295094Y0110798D01*
X0295072Y0111201D01*
X0295041Y0111604D01*
X0294999Y0112006D01*
X0294948Y0112406D01*
X0294887Y0112806D01*
X0294817Y0113203D01*
X0294736Y0113599D01*
X0294647Y0113993D01*
X0294547Y0114384D01*
X0294438Y0114773D01*
X0294320Y0115159D01*
X0294193Y0115543D01*
X0294056Y0115923D01*
X0293910Y0116299D01*
X0293755Y0116672D01*
X0293591Y0117041D01*
X0293417Y0117406D01*
X0293236Y0117767D01*
X0293045Y0118123D01*
X0292846Y0118474D01*
X0292638Y0118821D01*
X0292422Y0119162D01*
X0311987Y0112199D02*
X0312028Y0111387D01*
X0312050Y0110574D01*
X0312053Y0109761D01*
X0312035Y0108948D01*
X0311998Y0108136D01*
X0311941Y0107325D01*
X0311865Y0106516D01*
X0311768Y0105709D01*
X0311653Y0104904D01*
X0311518Y0104102D01*
X0311363Y0103304D01*
X0311189Y0102510D01*
X0310996Y0101720D01*
X0310784Y0100935D01*
X0310553Y0100156D01*
X0310303Y0099382D01*
X0310034Y0098615D01*
X0309747Y0097855D01*
X0309441Y0097101D01*
X0309118Y0096356D01*
X0308776Y0095618D01*
X0308416Y0094889D01*
X0308039Y0094169D01*
X0307645Y0093458D01*
X0307233Y0092757D01*
X0306805Y0092066D01*
X0306359Y0091385D01*
X0305898Y0090716D01*
X0305420Y0090058D01*
X0304927Y0089412D01*
X0304418Y0088778D01*
X0303894Y0088157D01*
X0303355Y0087548D01*
X0302801Y0086953D01*
X0302233Y0086371D01*
X0301651Y0085803D01*
X0301056Y0085250D01*
X0300447Y0084711D01*
X0299825Y0084187D01*
X0299191Y0083679D01*
X0298545Y0083185D01*
X0297887Y0082708D01*
X0297217Y0082247D01*
X0296537Y0081802D01*
X0295846Y0081374D01*
X0295144Y0080962D01*
X0294433Y0080568D01*
X0293713Y0080191D01*
X0292984Y0079832D01*
X0292246Y0079491D01*
X0291500Y0079167D01*
X0290747Y0078862D01*
X0289986Y0078575D01*
X0289219Y0078307D01*
X0288445Y0078057D01*
X0287665Y0077826D01*
X0286880Y0077614D01*
X0286091Y0077422D01*
X0285296Y0077248D01*
X0284498Y0077094D01*
X0283696Y0076959D01*
X0282892Y0076844D01*
X0282084Y0076748D01*
X0281275Y0076672D01*
X0280464Y0076615D01*
X0279652Y0076578D01*
X0278839Y0076561D01*
X0278026Y0076564D01*
X0277213Y0076586D01*
X0276401Y0076628D01*
X0245098Y0107876D02*
X0245055Y0108692D01*
X0245031Y0109508D01*
X0245027Y0110324D01*
X0245043Y0111141D01*
X0245079Y0111956D01*
X0245135Y0112771D01*
X0245210Y0113584D01*
X0245306Y0114395D01*
X0245421Y0115203D01*
X0245556Y0116008D01*
X0245710Y0116810D01*
X0245884Y0117608D01*
X0246077Y0118401D01*
X0246289Y0119189D01*
X0246521Y0119972D01*
X0246772Y0120749D01*
X0247041Y0121520D01*
X0247329Y0122284D01*
X0247636Y0123041D01*
X0247961Y0123790D01*
X0248304Y0124530D01*
X0248665Y0125263D01*
X0249044Y0125986D01*
X0249441Y0126700D01*
X0249854Y0127404D01*
X0250285Y0128097D01*
X0250732Y0128780D01*
X0251196Y0129452D01*
X0251676Y0130112D01*
X0252173Y0130761D01*
X0252684Y0131397D01*
X0253211Y0132021D01*
X0253754Y0132631D01*
X0254310Y0133228D01*
X0254882Y0133812D01*
X0255467Y0134381D01*
X0256066Y0134936D01*
X0256678Y0135476D01*
X0257304Y0136001D01*
X0257941Y0136510D01*
X0258592Y0137004D01*
X0259253Y0137482D01*
X0259927Y0137944D01*
X0260611Y0138389D01*
X0261306Y0138818D01*
X0262012Y0139229D01*
X0262727Y0139623D01*
X0263451Y0139999D01*
X0264185Y0140358D01*
X0264927Y0140699D01*
X0265677Y0141021D01*
X0266435Y0141325D01*
X0267199Y0141611D01*
X0267971Y0141878D01*
X0268749Y0142126D01*
X0269533Y0142355D01*
X0270322Y0142565D01*
X0271116Y0142755D01*
X0271914Y0142926D01*
X0272716Y0143078D01*
X0273522Y0143210D01*
X0274331Y0143323D01*
X0275142Y0143415D01*
X0275955Y0143488D01*
X0276770Y0143541D01*
X0277585Y0143574D01*
X0278402Y0143588D01*
X0279218Y0143581D01*
X0280034Y0143555D01*
X0279223Y0143581D01*
X0278411Y0143588D01*
X0277599Y0143575D01*
X0276788Y0143542D01*
X0275978Y0143490D01*
X0275169Y0143418D01*
X0274363Y0143327D01*
X0273558Y0143216D01*
X0272757Y0143085D01*
X0271959Y0142936D01*
X0271165Y0142766D01*
X0270375Y0142578D01*
X0269590Y0142371D01*
X0268811Y0142145D01*
X0268037Y0141900D01*
X0267269Y0141636D01*
X0266508Y0141354D01*
X0265753Y0141053D01*
X0265007Y0140734D01*
X0264268Y0140397D01*
X0263538Y0140043D01*
X0262816Y0139670D01*
X0262104Y0139281D01*
X0261401Y0138874D01*
X0260709Y0138451D01*
X0260027Y0138010D01*
X0259355Y0137554D01*
X0258695Y0137081D01*
X0258047Y0136592D01*
X0257411Y0136088D01*
X0256787Y0135569D01*
X0256175Y0135034D01*
X0255577Y0134485D01*
X0254993Y0133922D01*
X0254422Y0133344D01*
X0253865Y0132753D01*
X0253323Y0132149D01*
X0252796Y0131532D01*
X0252284Y0130902D01*
X0251787Y0130260D01*
X0251306Y0129606D01*
X0250841Y0128940D01*
X0250392Y0128264D01*
X0249960Y0127577D01*
X0249544Y0126879D01*
X0249145Y0126172D01*
X0248764Y0125455D01*
X0248400Y0124729D01*
X0248054Y0123995D01*
X0247726Y0123253D01*
X0247416Y0122502D01*
X0247124Y0121745D01*
X0246850Y0120980D01*
X0246595Y0120209D01*
X0246359Y0119433D01*
X0246142Y0118650D01*
X0245944Y0117863D01*
X0245765Y0117071D01*
X0245605Y0116275D01*
X0245464Y0115476D01*
X0245343Y0114673D01*
X0245241Y0113867D01*
X0245159Y0113060D01*
X0245097Y0112250D01*
X0245054Y0111440D01*
X0245031Y0110628D01*
X0245027Y0109816D01*
X0245043Y0109004D01*
X0245079Y0108193D01*
X0245134Y0107383D01*
X0245209Y0106575D01*
X0245304Y0105769D01*
X0345756Y0208315D02*
X0342459Y0212501D01*
X0339265Y0216765D01*
X0336176Y0221106D01*
X0333192Y0225521D01*
X0330317Y0230007D01*
X0327551Y0234561D01*
X0324897Y0239181D01*
X0322356Y0243864D01*
X0319929Y0248608D01*
X0317618Y0253409D01*
X0315425Y0258265D01*
X0313350Y0263172D01*
X0311395Y0268129D01*
X0309560Y0273131D01*
X0307848Y0278177D01*
X0306258Y0283263D01*
X0304793Y0288385D01*
X0303452Y0293542D01*
X0302237Y0298730D01*
X0301149Y0303946D01*
X0300187Y0309186D01*
X0299353Y0314449D01*
X0298647Y0319730D01*
X0298069Y0325027D01*
X0297620Y0330336D01*
X0297300Y0335655D01*
X0297109Y0340980D01*
X0297048Y0346308D01*
X0297116Y0351635D01*
X0297313Y0356960D01*
X0297640Y0362278D01*
X0298096Y0367587D01*
X0298680Y0372883D01*
X0299393Y0378163D01*
X0300234Y0383425D01*
X0301202Y0388664D01*
X0302297Y0393879D01*
X0303519Y0399065D01*
X0304866Y0404220D01*
X0306337Y0409341D01*
X0307933Y0414425D01*
X0309652Y0419468D01*
X0311493Y0424468D01*
X0313454Y0429422D01*
X0315535Y0434327D01*
X0317735Y0439180D01*
X0320052Y0443978D01*
X0322484Y0448719D01*
X0325031Y0453399D01*
X0327691Y0458016D01*
X0330463Y0462567D01*
X0333344Y0467049D01*
X0336332Y0471460D01*
X0339428Y0475797D01*
X0342627Y0480057D01*
X0345929Y0484239D01*
X0345878Y0484920D02*
X0282654Y0548143D01*
X0282210Y0548430D02*
X0282208Y0548475D01*
X0282203Y0548521D01*
X0282194Y0548565D01*
X0282182Y0548609D01*
X0282166Y0548652D01*
X0282147Y0548693D01*
X0282125Y0548733D01*
X0282099Y0548770D01*
X0282071Y0548806D01*
X0282040Y0548839D01*
X0282007Y0548870D01*
X0281971Y0548898D01*
X0281934Y0548924D01*
X0281894Y0548946D01*
X0281853Y0548965D01*
X0281810Y0548981D01*
X0281766Y0548993D01*
X0281722Y0549002D01*
X0281676Y0549007D01*
X0281631Y0549009D01*
X0281517Y0549009D01*
X0281515Y0549029D01*
X0281510Y0549048D01*
X0281502Y0549066D01*
X0281490Y0549082D01*
X0281476Y0549096D01*
X0281460Y0549108D01*
X0281442Y0549116D01*
X0281423Y0549121D01*
X0281403Y0549123D01*
X0279320Y0549123D01*
X0286753Y0568162D02*
X0298092Y0559225D01*
X0298210Y0558847D02*
X0302816Y0563650D01*
X0303131Y0563989D02*
X0292855Y0574540D01*
X0311828Y0578977D02*
X0311828Y0580828D01*
X0311828Y0578977D02*
X0311830Y0578957D01*
X0311835Y0578938D01*
X0311843Y0578920D01*
X0311855Y0578904D01*
X0311869Y0578890D01*
X0311885Y0578878D01*
X0311903Y0578870D01*
X0311922Y0578865D01*
X0311942Y0578863D01*
X0311942Y0578749D01*
X0311944Y0578708D01*
X0311949Y0578668D01*
X0311958Y0578629D01*
X0311970Y0578590D01*
X0311986Y0578552D01*
X0312004Y0578517D01*
X0312026Y0578482D01*
X0312051Y0578450D01*
X0312078Y0578420D01*
X0312108Y0578393D01*
X0312140Y0578368D01*
X0312175Y0578346D01*
X0312210Y0578328D01*
X0312248Y0578312D01*
X0312287Y0578300D01*
X0312326Y0578291D01*
X0312366Y0578286D01*
X0312407Y0578284D01*
X0312491Y0578306D02*
X0376062Y0514735D01*
X0245155Y0578501D02*
X0245082Y0579251D01*
X0245025Y0580002D01*
X0244986Y0580755D01*
X0244964Y0581508D01*
X0244958Y0582261D01*
X0244970Y0583015D01*
X0244998Y0583768D01*
X0245044Y0584520D01*
X0245106Y0585271D01*
X0248083Y0596984D02*
X0261792Y0584083D01*
X0263615Y0612560D02*
X0264330Y0612896D01*
X0265053Y0613215D01*
X0265784Y0613516D01*
X0266521Y0613800D01*
X0267265Y0614066D01*
X0268016Y0614315D01*
X0268771Y0614545D01*
X0269533Y0614758D01*
X0270299Y0614952D01*
X0271069Y0615128D01*
X0271843Y0615285D01*
X0272621Y0615424D01*
X0273402Y0615545D01*
X0274186Y0615646D01*
X0274972Y0615730D01*
X0275759Y0615794D01*
X0276548Y0615839D01*
X0263647Y0612426D02*
X0277304Y0599044D01*
X0248128Y0596976D02*
X0247806Y0596279D01*
X0247499Y0595575D01*
X0247210Y0594863D01*
X0246937Y0594145D01*
X0246680Y0593421D01*
X0246441Y0592691D01*
X0246218Y0591956D01*
X0246012Y0591216D01*
X0245824Y0590471D01*
X0245653Y0589723D01*
X0245499Y0588970D01*
X0245363Y0588214D01*
X0245245Y0587455D01*
X0245144Y0586694D01*
X0245060Y0585930D01*
X0277237Y0599044D02*
X0277641Y0599064D01*
X0278044Y0599075D01*
X0278448Y0599076D01*
X0278852Y0599067D01*
X0279256Y0599049D01*
X0279659Y0599020D01*
X0280061Y0598982D01*
X0280462Y0598934D01*
X0280862Y0598876D01*
X0281260Y0598808D01*
X0281657Y0598731D01*
X0282051Y0598644D01*
X0282444Y0598548D01*
X0282834Y0598442D01*
X0283221Y0598326D01*
X0283605Y0598201D01*
X0283986Y0598067D01*
X0284364Y0597923D01*
X0284738Y0597771D01*
X0285108Y0597609D01*
X0285474Y0597438D01*
X0285836Y0597258D01*
X0286193Y0597070D01*
X0286546Y0596873D01*
X0286894Y0596667D01*
X0287237Y0596453D01*
X0287574Y0596231D01*
X0287906Y0596001D01*
X0288232Y0595762D01*
X0288552Y0595516D01*
X0288866Y0595262D01*
X0289174Y0595000D01*
X0289475Y0594731D01*
X0289770Y0594454D01*
X0290058Y0594171D01*
X0290339Y0593881D01*
X0290612Y0593583D01*
X0290879Y0593280D01*
X0291138Y0592970D01*
X0291389Y0592653D01*
X0291632Y0592331D01*
X0291868Y0592002D01*
X0292095Y0591669D01*
X0292315Y0591329D01*
X0292526Y0590985D01*
X0292728Y0590635D01*
X0292922Y0590281D01*
X0293107Y0589921D01*
X0293283Y0589558D01*
X0293451Y0589190D01*
X0293609Y0588819D01*
X0293758Y0588443D01*
X0293899Y0588064D01*
X0294029Y0587682D01*
X0294151Y0587297D01*
X0294263Y0586909D01*
X0294365Y0586518D01*
X0294458Y0586125D01*
X0294542Y0585729D01*
X0294616Y0585332D01*
X0294680Y0584933D01*
X0294734Y0584533D01*
X0294778Y0584131D01*
X0294813Y0583729D01*
X0294838Y0583325D01*
X0294853Y0582922D01*
X0294858Y0582518D01*
X0294853Y0582114D01*
X0294839Y0581710D01*
X0294814Y0581307D01*
X0294780Y0580904D01*
X0294736Y0580503D01*
X0294682Y0580102D01*
X0294619Y0579703D01*
X0294546Y0579306D01*
X0294463Y0578910D01*
X0294370Y0578517D01*
X0294268Y0578126D01*
X0294157Y0577738D01*
X0294035Y0577352D01*
X0293905Y0576970D01*
X0293765Y0576591D01*
X0293617Y0576215D01*
X0293459Y0575844D01*
X0293292Y0575476D01*
X0293116Y0575112D01*
X0292931Y0574753D01*
X0292737Y0574398D01*
X0311623Y0585749D02*
X0311525Y0586554D01*
X0311408Y0587357D01*
X0311272Y0588156D01*
X0311116Y0588952D01*
X0310940Y0589744D01*
X0310746Y0590531D01*
X0310533Y0591313D01*
X0310300Y0592090D01*
X0310049Y0592862D01*
X0309779Y0593626D01*
X0309491Y0594384D01*
X0309185Y0595135D01*
X0308860Y0595878D01*
X0308517Y0596614D01*
X0308157Y0597340D01*
X0307779Y0598058D01*
X0307384Y0598766D01*
X0306972Y0599464D01*
X0306543Y0600153D01*
X0306097Y0600830D01*
X0305635Y0601497D01*
X0305157Y0602152D01*
X0304664Y0602795D01*
X0304155Y0603427D01*
X0303630Y0604045D01*
X0303091Y0604651D01*
X0302538Y0605244D01*
X0301970Y0605823D01*
X0301388Y0606388D01*
X0300793Y0606939D01*
X0300184Y0607475D01*
X0299563Y0607996D01*
X0298929Y0608502D01*
X0298283Y0608992D01*
X0297626Y0609467D01*
X0296957Y0609926D01*
X0296277Y0610368D01*
X0295586Y0610793D01*
X0294886Y0611202D01*
X0294176Y0611594D01*
X0293456Y0611968D01*
X0292728Y0612325D01*
X0291991Y0612664D01*
X0291246Y0612985D01*
X0290494Y0613287D01*
X0289735Y0613572D01*
X0288969Y0613838D01*
X0288196Y0614085D01*
X0287418Y0614314D01*
X0286635Y0614523D01*
X0285846Y0614714D01*
X0285054Y0614885D01*
X0284257Y0615037D01*
X0283457Y0615170D01*
X0282654Y0615283D01*
X0281848Y0615377D01*
X0281041Y0615451D01*
X0280231Y0615505D01*
X0279421Y0615540D01*
X0278610Y0615555D01*
X0277799Y0615551D01*
X0276989Y0615527D01*
X0276179Y0615483D01*
X0245057Y0578756D02*
X0245158Y0577950D01*
X0245279Y0577146D01*
X0245419Y0576345D01*
X0245579Y0575548D01*
X0245758Y0574755D01*
X0245956Y0573967D01*
X0246173Y0573184D01*
X0246409Y0572406D01*
X0246665Y0571634D01*
X0246938Y0570869D01*
X0247231Y0570110D01*
X0247541Y0569359D01*
X0247870Y0568616D01*
X0248217Y0567880D01*
X0248581Y0567154D01*
X0248963Y0566436D01*
X0249362Y0565728D01*
X0249779Y0565030D01*
X0250212Y0564342D01*
X0250662Y0563665D01*
X0251128Y0562999D01*
X0251610Y0562345D01*
X0252108Y0561702D01*
X0252621Y0561072D01*
X0253150Y0560454D01*
X0253693Y0559850D01*
X0254251Y0559259D01*
X0254823Y0558681D01*
X0255409Y0558118D01*
X0256009Y0557569D01*
X0256621Y0557034D01*
X0257247Y0556515D01*
X0257884Y0556011D01*
X0258534Y0555523D01*
X0259196Y0555051D01*
X0259869Y0554594D01*
X0260552Y0554155D01*
X0261247Y0553732D01*
X0261951Y0553326D01*
X0262665Y0552937D01*
X0263388Y0552566D01*
X0264120Y0552212D01*
X0264860Y0551876D01*
X0265608Y0551559D01*
X0266364Y0551259D01*
X0267127Y0550978D01*
X0267896Y0550716D01*
X0268672Y0550472D01*
X0269453Y0550248D01*
X0270239Y0550042D01*
X0271031Y0549856D01*
X0271826Y0549688D01*
X0272625Y0549541D01*
X0273428Y0549412D01*
X0274234Y0549303D01*
X0275042Y0549214D01*
X0275851Y0549145D01*
X0276663Y0549095D01*
X0277475Y0549064D01*
X0278288Y0549054D01*
X0279101Y0549063D01*
X0279913Y0549092D01*
X0286871Y0568335D02*
X0286524Y0568131D01*
X0286173Y0567935D01*
X0285816Y0567747D01*
X0285455Y0567569D01*
X0285090Y0567399D01*
X0284721Y0567238D01*
X0284348Y0567087D01*
X0283971Y0566944D01*
X0283591Y0566810D01*
X0283208Y0566686D01*
X0282822Y0566571D01*
X0282434Y0566466D01*
X0282043Y0566370D01*
X0281649Y0566283D01*
X0281254Y0566206D01*
X0280857Y0566139D01*
X0280459Y0566082D01*
X0280059Y0566034D01*
X0279658Y0565996D01*
X0279256Y0565967D01*
X0278854Y0565949D01*
X0278451Y0565940D01*
X0278049Y0565941D01*
X0277646Y0565951D01*
X0277244Y0565972D01*
X0276842Y0566002D01*
X0276442Y0566042D01*
X0276042Y0566092D01*
X0275644Y0566152D01*
X0275247Y0566221D01*
X0274852Y0566299D01*
X0274459Y0566388D01*
X0274069Y0566485D01*
X0273681Y0566593D01*
X0273295Y0566709D01*
X0272913Y0566835D01*
X0272533Y0566971D01*
X0272158Y0567115D01*
X0271785Y0567269D01*
X0271417Y0567431D01*
X0271053Y0567603D01*
X0270692Y0567783D01*
X0270337Y0567972D01*
X0269986Y0568170D01*
X0269640Y0568376D01*
X0269299Y0568590D01*
X0268964Y0568812D01*
X0268633Y0569043D01*
X0268309Y0569282D01*
X0267991Y0569528D01*
X0267678Y0569782D01*
X0267372Y0570044D01*
X0267072Y0570313D01*
X0266779Y0570589D01*
X0266493Y0570872D01*
X0266214Y0571162D01*
X0265942Y0571459D01*
X0265677Y0571763D01*
X0265419Y0572072D01*
X0265170Y0572388D01*
X0264928Y0572710D01*
X0264693Y0573037D01*
X0264467Y0573371D01*
X0264249Y0573709D01*
X0264040Y0574053D01*
X0263838Y0574402D01*
X0263646Y0574755D01*
X0263462Y0575113D01*
X0263286Y0575476D01*
X0263120Y0575843D01*
X0262962Y0576213D01*
X0262814Y0576588D01*
X0262675Y0576965D01*
X0262544Y0577346D01*
X0262424Y0577731D01*
X0262312Y0578118D01*
X0262210Y0578507D01*
X0262118Y0578899D01*
X0262035Y0579293D01*
X0261962Y0579689D01*
X0261898Y0580087D01*
X0261844Y0580486D01*
X0261800Y0580886D01*
X0261765Y0581287D01*
X0261740Y0581689D01*
X0261725Y0582091D01*
X0261720Y0582494D01*
X0261725Y0582897D01*
X0261739Y0583299D01*
X0261763Y0583701D01*
X0261797Y0584102D01*
X0311567Y0586288D02*
X0311642Y0585562D01*
X0311700Y0584835D01*
X0311742Y0584107D01*
X0311769Y0583378D01*
X0311780Y0582649D01*
X0311775Y0581920D01*
X0311754Y0581191D01*
X0683162Y0485126D02*
X0686474Y0480920D01*
X0689684Y0476635D01*
X0692788Y0472274D01*
X0695786Y0467838D01*
X0698675Y0463331D01*
X0701454Y0458755D01*
X0704121Y0454113D01*
X0706675Y0449408D01*
X0709114Y0444642D01*
X0711437Y0439819D01*
X0713641Y0434940D01*
X0715727Y0430010D01*
X0717693Y0425030D01*
X0719537Y0420004D01*
X0721259Y0414935D01*
X0722858Y0409826D01*
X0724332Y0404679D01*
X0725681Y0399498D01*
X0726903Y0394286D01*
X0727999Y0389046D01*
X0728968Y0383781D01*
X0729808Y0378494D01*
X0730520Y0373187D01*
X0731103Y0367866D01*
X0731557Y0362531D01*
X0731881Y0357188D01*
X0732075Y0351838D01*
X0732140Y0346484D01*
X0732075Y0341131D01*
X0731880Y0335781D01*
X0731555Y0330437D01*
X0731101Y0325103D01*
X0730517Y0319781D01*
X0729805Y0314475D01*
X0728964Y0309188D01*
X0727995Y0303923D01*
X0726898Y0298683D01*
X0725675Y0293471D01*
X0724326Y0288290D01*
X0722851Y0283144D01*
X0721252Y0278035D01*
X0719530Y0272966D01*
X0717685Y0267940D01*
X0715719Y0262961D01*
X0713632Y0258030D01*
X0711427Y0253152D01*
X0709104Y0248329D01*
X0706664Y0243563D01*
X0704110Y0238858D01*
X0701442Y0234217D01*
X0698663Y0229641D01*
X0695773Y0225134D01*
X0692775Y0220699D01*
X0689670Y0216338D01*
X0686460Y0212053D01*
X0683147Y0207848D01*
X0683004Y0207793D02*
X0747494Y0143303D01*
X0747619Y0143257D02*
X0748446Y0142469D01*
X0750533Y0142902D01*
X0743422Y0124950D02*
X0732123Y0133257D01*
X0732068Y0133020D02*
X0727816Y0128690D01*
X0727556Y0128335D02*
X0735706Y0117391D01*
X0783824Y0112603D02*
X0783885Y0111793D01*
X0783926Y0110981D01*
X0783947Y0110169D01*
X0783948Y0109357D01*
X0783930Y0108544D01*
X0783892Y0107733D01*
X0783834Y0106922D01*
X0783757Y0106114D01*
X0783659Y0105307D01*
X0783543Y0104503D01*
X0783407Y0103702D01*
X0783251Y0102905D01*
X0783076Y0102111D01*
X0782882Y0101322D01*
X0782669Y0100538D01*
X0782437Y0099760D01*
X0782186Y0098987D01*
X0781916Y0098221D01*
X0781627Y0097461D01*
X0781321Y0096709D01*
X0780996Y0095964D01*
X0780653Y0095227D01*
X0780782Y0095402D02*
X0767422Y0108257D01*
X0752764Y0093559D02*
X0752362Y0093521D01*
X0751958Y0093492D01*
X0751554Y0093474D01*
X0751150Y0093465D01*
X0750746Y0093466D01*
X0750342Y0093477D01*
X0749938Y0093497D01*
X0749535Y0093528D01*
X0749132Y0093568D01*
X0748731Y0093619D01*
X0748331Y0093679D01*
X0747933Y0093748D01*
X0747536Y0093827D01*
X0747142Y0093916D01*
X0746750Y0094015D01*
X0746360Y0094123D01*
X0745973Y0094240D01*
X0745589Y0094367D01*
X0745208Y0094503D01*
X0744831Y0094649D01*
X0744457Y0094803D01*
X0744088Y0094967D01*
X0743722Y0095140D01*
X0743360Y0095321D01*
X0743004Y0095511D01*
X0742651Y0095710D01*
X0742304Y0095917D01*
X0741962Y0096133D01*
X0741626Y0096357D01*
X0741294Y0096589D01*
X0740969Y0096829D01*
X0740650Y0097077D01*
X0740336Y0097332D01*
X0740029Y0097596D01*
X0739729Y0097866D01*
X0739435Y0098144D01*
X0739148Y0098429D01*
X0738868Y0098721D01*
X0738595Y0099019D01*
X0738330Y0099324D01*
X0738072Y0099636D01*
X0737822Y0099953D01*
X0737579Y0100277D01*
X0737345Y0100606D01*
X0737118Y0100941D01*
X0736900Y0101282D01*
X0736690Y0101627D01*
X0736489Y0101978D01*
X0736296Y0102333D01*
X0736112Y0102693D01*
X0735937Y0103058D01*
X0735770Y0103426D01*
X0735613Y0103799D01*
X0735465Y0104175D01*
X0735326Y0104555D01*
X0735196Y0104938D01*
X0735076Y0105324D01*
X0734965Y0105713D01*
X0734863Y0106104D01*
X0734771Y0106498D01*
X0734689Y0106894D01*
X0734617Y0107292D01*
X0734554Y0107691D01*
X0734501Y0108092D01*
X0734457Y0108494D01*
X0734424Y0108897D01*
X0734400Y0109301D01*
X0734386Y0109705D01*
X0734382Y0110109D01*
X0734388Y0110514D01*
X0734403Y0110918D01*
X0734429Y0111321D01*
X0734464Y0111724D01*
X0734509Y0112126D01*
X0734564Y0112526D01*
X0734629Y0112926D01*
X0734703Y0113323D01*
X0734787Y0113719D01*
X0734880Y0114112D01*
X0734983Y0114503D01*
X0735096Y0114891D01*
X0735218Y0115277D01*
X0735349Y0115659D01*
X0735490Y0116039D01*
X0735640Y0116414D01*
X0735799Y0116786D01*
X0735966Y0117154D01*
X0752954Y0076359D02*
X0753743Y0076426D01*
X0754529Y0076512D01*
X0755313Y0076616D01*
X0756095Y0076739D01*
X0756873Y0076880D01*
X0757648Y0077040D01*
X0758419Y0077218D01*
X0759185Y0077414D01*
X0759947Y0077628D01*
X0760703Y0077860D01*
X0761453Y0078110D01*
X0762198Y0078378D01*
X0762936Y0078663D01*
X0763667Y0078965D01*
X0764390Y0079285D01*
X0765106Y0079622D01*
X0765814Y0079975D01*
X0765646Y0079954D02*
X0752462Y0093572D01*
X0783788Y0113008D02*
X0783700Y0113812D01*
X0783592Y0114613D01*
X0783464Y0115411D01*
X0783318Y0116205D01*
X0783152Y0116996D01*
X0782966Y0117783D01*
X0782762Y0118565D01*
X0782539Y0119342D01*
X0782297Y0120113D01*
X0782036Y0120878D01*
X0781757Y0121636D01*
X0781459Y0122388D01*
X0781144Y0123132D01*
X0780810Y0123868D01*
X0780458Y0124596D01*
X0780089Y0125315D01*
X0779703Y0126024D01*
X0779299Y0126725D01*
X0778878Y0127415D01*
X0778441Y0128095D01*
X0777988Y0128764D01*
X0777518Y0129421D01*
X0777032Y0130067D01*
X0776531Y0130701D01*
X0776015Y0131323D01*
X0775484Y0131932D01*
X0774938Y0132528D01*
X0774377Y0133110D01*
X0773803Y0133679D01*
X0773215Y0134234D01*
X0772614Y0134774D01*
X0771999Y0135299D01*
X0771373Y0135809D01*
X0770734Y0136304D01*
X0770083Y0136783D01*
X0769420Y0137246D01*
X0768747Y0137693D01*
X0768063Y0138124D01*
X0767369Y0138537D01*
X0766665Y0138934D01*
X0765951Y0139314D01*
X0765228Y0139676D01*
X0764497Y0140020D01*
X0763758Y0140346D01*
X0763011Y0140655D01*
X0762256Y0140945D01*
X0761495Y0141217D01*
X0760728Y0141470D01*
X0759954Y0141704D01*
X0759175Y0141920D01*
X0758391Y0142116D01*
X0757603Y0142294D01*
X0756810Y0142452D01*
X0756014Y0142591D01*
X0755215Y0142710D01*
X0754413Y0142810D01*
X0753608Y0142891D01*
X0752803Y0142951D01*
X0751995Y0142993D01*
X0751187Y0143014D01*
X0750379Y0143016D01*
X0717379Y0113465D02*
X0717333Y0113467D01*
X0717286Y0113473D01*
X0717241Y0113482D01*
X0717196Y0113496D01*
X0717153Y0113512D01*
X0717111Y0113533D01*
X0717071Y0113557D01*
X0717033Y0113584D01*
X0716998Y0113614D01*
X0716965Y0113647D01*
X0716935Y0113682D01*
X0716908Y0113720D01*
X0716884Y0113760D01*
X0716863Y0113802D01*
X0716847Y0113845D01*
X0716833Y0113890D01*
X0716824Y0113935D01*
X0716818Y0113982D01*
X0716816Y0114028D01*
X0716765Y0114033D02*
X0653224Y0177573D01*
X0717379Y0113465D02*
X0717501Y0113465D01*
X0717487Y0113463D01*
X0717474Y0113459D01*
X0717462Y0113451D01*
X0717452Y0113441D01*
X0717444Y0113429D01*
X0717440Y0113416D01*
X0717438Y0113402D01*
X0717438Y0111162D01*
X0717488Y0111278D02*
X0717462Y0110487D01*
X0717454Y0109696D01*
X0717465Y0108905D01*
X0717495Y0108115D01*
X0717544Y0107325D01*
X0717612Y0106537D01*
X0717490Y0106193D02*
X0717590Y0105390D01*
X0717711Y0104590D01*
X0717850Y0103792D01*
X0718009Y0102999D01*
X0718187Y0102209D01*
X0718384Y0101424D01*
X0718600Y0100644D01*
X0718834Y0099869D01*
X0719088Y0099100D01*
X0719359Y0098338D01*
X0719650Y0097582D01*
X0719958Y0096834D01*
X0720285Y0096093D01*
X0720629Y0095360D01*
X0720991Y0094636D01*
X0721370Y0093921D01*
X0721766Y0093215D01*
X0722180Y0092519D01*
X0722610Y0091834D01*
X0723057Y0091159D01*
X0723519Y0090494D01*
X0723998Y0089842D01*
X0724492Y0089201D01*
X0725002Y0088572D01*
X0725527Y0087956D01*
X0726066Y0087352D01*
X0726620Y0086762D01*
X0727188Y0086185D01*
X0727770Y0085623D01*
X0728365Y0085074D01*
X0728974Y0084540D01*
X0729595Y0084021D01*
X0730228Y0083517D01*
X0730874Y0083029D01*
X0731531Y0082556D01*
X0732199Y0082099D01*
X0732879Y0081659D01*
X0733568Y0081235D01*
X0734268Y0080828D01*
X0734977Y0080438D01*
X0735696Y0080065D01*
X0736423Y0079710D01*
X0737159Y0079373D01*
X0737903Y0079053D01*
X0738654Y0078751D01*
X0739412Y0078468D01*
X0740177Y0078203D01*
X0740948Y0077957D01*
X0741725Y0077729D01*
X0742507Y0077521D01*
X0743294Y0077331D01*
X0744085Y0077160D01*
X0744880Y0077009D01*
X0745679Y0076877D01*
X0746480Y0076764D01*
X0747284Y0076670D01*
X0748090Y0076596D01*
X0748898Y0076542D01*
X0749707Y0076507D01*
X0750516Y0076492D01*
X0751326Y0076496D01*
X0752135Y0076520D01*
X0752943Y0076563D01*
X0767495Y0108188D02*
X0767536Y0108589D01*
X0767567Y0108991D01*
X0767588Y0109394D01*
X0767600Y0109797D01*
X0767602Y0110201D01*
X0767594Y0110604D01*
X0767576Y0111007D01*
X0767548Y0111410D01*
X0767511Y0111811D01*
X0767464Y0112212D01*
X0767407Y0112611D01*
X0767341Y0113009D01*
X0767265Y0113405D01*
X0767179Y0113799D01*
X0767084Y0114191D01*
X0766979Y0114581D01*
X0766865Y0114968D01*
X0766741Y0115352D01*
X0766608Y0115733D01*
X0766466Y0116110D01*
X0766315Y0116484D01*
X0766155Y0116854D01*
X0765986Y0117221D01*
X0765808Y0117583D01*
X0765621Y0117940D01*
X0765426Y0118293D01*
X0765222Y0118641D01*
X0765010Y0118984D01*
X0764789Y0119322D01*
X0764561Y0119654D01*
X0764324Y0119981D01*
X0764079Y0120302D01*
X0763827Y0120617D01*
X0763567Y0120925D01*
X0763300Y0121227D01*
X0763026Y0121523D01*
X0762744Y0121812D01*
X0762456Y0122094D01*
X0762160Y0122369D01*
X0761859Y0122636D01*
X0761550Y0122896D01*
X0761236Y0123149D01*
X0760915Y0123394D01*
X0760589Y0123631D01*
X0760257Y0123860D01*
X0759919Y0124081D01*
X0759576Y0124294D01*
X0759229Y0124498D01*
X0758876Y0124694D01*
X0758519Y0124881D01*
X0758157Y0125059D01*
X0757791Y0125229D01*
X0757421Y0125389D01*
X0757047Y0125541D01*
X0756670Y0125684D01*
X0756289Y0125817D01*
X0755905Y0125941D01*
X0755518Y0126055D01*
X0755129Y0126161D01*
X0754737Y0126256D01*
X0754343Y0126342D01*
X0753947Y0126419D01*
X0753549Y0126486D01*
X0753150Y0126543D01*
X0752749Y0126591D01*
X0752348Y0126629D01*
X0751945Y0126657D01*
X0751542Y0126675D01*
X0751139Y0126683D01*
X0750735Y0126682D01*
X0750332Y0126671D01*
X0749929Y0126650D01*
X0749527Y0126619D01*
X0749126Y0126579D01*
X0748726Y0126529D01*
X0748327Y0126469D01*
X0747929Y0126399D01*
X0747534Y0126320D01*
X0747140Y0126231D01*
X0746749Y0126133D01*
X0746360Y0126025D01*
X0745974Y0125908D01*
X0745591Y0125781D01*
X0745211Y0125646D01*
X0744835Y0125501D01*
X0744462Y0125347D01*
X0744093Y0125184D01*
X0743728Y0125012D01*
X0743368Y0124831D01*
X0652864Y0514443D02*
X0648788Y0517732D01*
X0644633Y0520921D01*
X0640402Y0524009D01*
X0636098Y0526994D01*
X0631723Y0529874D01*
X0627280Y0532648D01*
X0622772Y0535314D01*
X0618200Y0537870D01*
X0613568Y0540316D01*
X0608879Y0542648D01*
X0604134Y0544867D01*
X0599337Y0546971D01*
X0594491Y0548958D01*
X0589599Y0550828D01*
X0584662Y0552579D01*
X0579685Y0554211D01*
X0574670Y0555722D01*
X0569620Y0557111D01*
X0564538Y0558378D01*
X0559426Y0559523D01*
X0554289Y0560543D01*
X0549128Y0561440D01*
X0543948Y0562211D01*
X0538750Y0562857D01*
X0533538Y0563378D01*
X0528315Y0563773D01*
X0523084Y0564041D01*
X0517849Y0564183D01*
X0512611Y0564199D01*
X0507374Y0564089D01*
X0502142Y0563852D01*
X0496917Y0563489D01*
X0491702Y0562999D01*
X0486500Y0562385D01*
X0481315Y0561644D01*
X0476149Y0560779D01*
X0471006Y0559790D01*
X0465888Y0558677D01*
X0460798Y0557440D01*
X0455739Y0556081D01*
X0450715Y0554600D01*
X0445728Y0552999D01*
X0440782Y0551278D01*
X0435878Y0549437D01*
X0431020Y0547479D01*
X0426210Y0545405D01*
X0421452Y0543215D01*
X0416749Y0540910D01*
X0412102Y0538493D01*
X0407515Y0535965D01*
X0402990Y0533326D01*
X0398531Y0530579D01*
X0394139Y0527725D01*
X0389817Y0524766D01*
X0385568Y0521704D01*
X0381393Y0518540D01*
X0377297Y0515276D01*
X0377350Y0177780D02*
X0381517Y0174486D01*
X0385763Y0171294D01*
X0390085Y0168205D01*
X0394480Y0165222D01*
X0398946Y0162346D01*
X0403481Y0159579D01*
X0408081Y0156923D01*
X0412744Y0154378D01*
X0417468Y0151948D01*
X0422248Y0149632D01*
X0427084Y0147433D01*
X0431971Y0145352D01*
X0436907Y0143389D01*
X0441890Y0141546D01*
X0446915Y0139825D01*
X0451981Y0138226D01*
X0457084Y0136750D01*
X0462221Y0135397D01*
X0467389Y0134170D01*
X0472586Y0133068D01*
X0477807Y0132092D01*
X0483051Y0131243D01*
X0488314Y0130521D01*
X0493592Y0129926D01*
X0498884Y0129460D01*
X0504185Y0129121D01*
X0509493Y0128911D01*
X0514805Y0128830D01*
X0520117Y0128877D01*
X0525426Y0129053D01*
X0530729Y0129357D01*
X0536024Y0129790D01*
X0541306Y0130351D01*
X0546573Y0131039D01*
X0551822Y0131854D01*
X0557050Y0132797D01*
X0562254Y0133865D01*
X0567430Y0135060D01*
X0572575Y0136379D01*
X0577688Y0137822D01*
X0582763Y0139389D01*
X0587800Y0141078D01*
X0592794Y0142889D01*
X0597743Y0144820D01*
X0602643Y0146870D01*
X0607493Y0149038D01*
X0612288Y0151323D01*
X0617027Y0153723D01*
X0621706Y0156237D01*
X0626324Y0158864D01*
X0630876Y0161602D01*
X0635360Y0164449D01*
X0639775Y0167404D01*
X0644116Y0170465D01*
X0648383Y0173630D01*
X0652571Y0176897D01*
X0683029Y0484808D02*
X0746544Y0548323D01*
X0746808Y0548682D02*
X0746810Y0548731D01*
X0746816Y0548780D01*
X0746825Y0548828D01*
X0746839Y0548875D01*
X0746856Y0548922D01*
X0746876Y0548966D01*
X0746900Y0549009D01*
X0746928Y0549050D01*
X0746958Y0549089D01*
X0746991Y0549125D01*
X0747027Y0549158D01*
X0747066Y0549188D01*
X0747107Y0549216D01*
X0747150Y0549240D01*
X0747194Y0549260D01*
X0747241Y0549277D01*
X0747288Y0549291D01*
X0747336Y0549300D01*
X0747385Y0549306D01*
X0747434Y0549308D01*
X0747749Y0549308D01*
X0747751Y0549293D01*
X0747755Y0549278D01*
X0747762Y0549264D01*
X0747772Y0549252D01*
X0747784Y0549242D01*
X0747798Y0549235D01*
X0747813Y0549231D01*
X0747828Y0549229D01*
X0749115Y0549229D01*
X0732934Y0558532D02*
X0729115Y0561643D01*
X0728958Y0561784D02*
X0737304Y0572729D01*
X0743265Y0567627D02*
X0732915Y0558568D01*
X0716783Y0578562D02*
X0652993Y0514773D01*
X0716942Y0578725D02*
X0716960Y0578727D01*
X0716977Y0578732D01*
X0716993Y0578740D01*
X0717006Y0578752D01*
X0717018Y0578765D01*
X0717026Y0578781D01*
X0717031Y0578798D01*
X0717033Y0578816D01*
X0717304Y0580887D01*
X0753245Y0615406D02*
X0754027Y0615330D01*
X0754807Y0615236D01*
X0755584Y0615124D01*
X0756359Y0614993D01*
X0757130Y0614844D01*
X0757897Y0614676D01*
X0758661Y0614491D01*
X0759419Y0614287D01*
X0760173Y0614066D01*
X0760921Y0613826D01*
X0761663Y0613569D01*
X0762399Y0613295D01*
X0763129Y0613003D01*
X0763851Y0612694D01*
X0764566Y0612368D01*
X0764540Y0612054D02*
X0752107Y0599320D01*
X0767741Y0583859D02*
X0767769Y0583450D01*
X0767787Y0583041D01*
X0767795Y0582631D01*
X0767792Y0582221D01*
X0767780Y0581812D01*
X0767758Y0581402D01*
X0767726Y0580994D01*
X0767684Y0580586D01*
X0767632Y0580180D01*
X0767570Y0579775D01*
X0767498Y0579371D01*
X0767416Y0578970D01*
X0767325Y0578570D01*
X0767224Y0578173D01*
X0767113Y0577779D01*
X0766993Y0577387D01*
X0766863Y0576999D01*
X0766723Y0576613D01*
X0766575Y0576231D01*
X0766417Y0575853D01*
X0766250Y0575479D01*
X0766074Y0575109D01*
X0765888Y0574744D01*
X0765694Y0574383D01*
X0765492Y0574027D01*
X0765280Y0573676D01*
X0765060Y0573330D01*
X0764832Y0572989D01*
X0764596Y0572655D01*
X0764351Y0572326D01*
X0764099Y0572003D01*
X0763838Y0571687D01*
X0763570Y0571377D01*
X0763295Y0571074D01*
X0763012Y0570777D01*
X0762722Y0570487D01*
X0762425Y0570205D01*
X0762122Y0569930D01*
X0761811Y0569662D01*
X0761495Y0569402D01*
X0761172Y0569150D01*
X0760843Y0568906D01*
X0760508Y0568670D01*
X0760167Y0568442D01*
X0759821Y0568222D01*
X0759470Y0568011D01*
X0759114Y0567809D01*
X0758753Y0567615D01*
X0758387Y0567431D01*
X0758017Y0567255D01*
X0757642Y0567088D01*
X0757264Y0566931D01*
X0756882Y0566782D01*
X0756497Y0566643D01*
X0756108Y0566514D01*
X0755716Y0566394D01*
X0755321Y0566284D01*
X0754924Y0566183D01*
X0754525Y0566092D01*
X0754123Y0566011D01*
X0753719Y0565939D01*
X0753314Y0565878D01*
X0752908Y0565826D01*
X0752500Y0565785D01*
X0752092Y0565753D01*
X0751683Y0565731D01*
X0751273Y0565719D01*
X0750863Y0565718D01*
X0750453Y0565726D01*
X0750044Y0565744D01*
X0749635Y0565772D01*
X0749227Y0565810D01*
X0748820Y0565858D01*
X0748415Y0565916D01*
X0748011Y0565984D01*
X0747608Y0566062D01*
X0747208Y0566149D01*
X0746810Y0566247D01*
X0746414Y0566354D01*
X0746022Y0566470D01*
X0745632Y0566596D01*
X0745245Y0566732D01*
X0744862Y0566877D01*
X0744482Y0567031D01*
X0744106Y0567194D01*
X0743735Y0567367D01*
X0743367Y0567548D01*
X0783757Y0586036D02*
X0783639Y0586794D01*
X0783504Y0587548D01*
X0783352Y0588300D01*
X0783182Y0589047D01*
X0782995Y0589791D01*
X0782792Y0590530D01*
X0782571Y0591264D01*
X0782334Y0591993D01*
X0782080Y0592716D01*
X0781810Y0593434D01*
X0781523Y0594145D01*
X0781220Y0594849D01*
X0780901Y0595546D01*
X0780566Y0596236D01*
X0780317Y0596276D02*
X0767974Y0583965D01*
X0752064Y0599283D02*
X0751654Y0599304D01*
X0751244Y0599315D01*
X0750833Y0599316D01*
X0750423Y0599307D01*
X0750013Y0599288D01*
X0749603Y0599259D01*
X0749194Y0599220D01*
X0748787Y0599171D01*
X0748381Y0599112D01*
X0747976Y0599043D01*
X0747573Y0598965D01*
X0747172Y0598876D01*
X0746773Y0598778D01*
X0746377Y0598670D01*
X0745984Y0598552D01*
X0745594Y0598425D01*
X0745207Y0598288D01*
X0744823Y0598142D01*
X0744443Y0597987D01*
X0744067Y0597822D01*
X0743695Y0597648D01*
X0743328Y0597465D01*
X0742965Y0597273D01*
X0742606Y0597073D01*
X0742253Y0596864D01*
X0741905Y0596646D01*
X0741563Y0596419D01*
X0741226Y0596185D01*
X0740895Y0595942D01*
X0740570Y0595691D01*
X0740251Y0595432D01*
X0739939Y0595166D01*
X0739633Y0594892D01*
X0739334Y0594611D01*
X0739042Y0594322D01*
X0738757Y0594027D01*
X0738479Y0593724D01*
X0738209Y0593415D01*
X0737947Y0593099D01*
X0737692Y0592777D01*
X0737445Y0592449D01*
X0737207Y0592115D01*
X0736976Y0591775D01*
X0736754Y0591430D01*
X0736541Y0591080D01*
X0736336Y0590724D01*
X0736140Y0590363D01*
X0735953Y0589998D01*
X0735774Y0589628D01*
X0735605Y0589254D01*
X0735445Y0588876D01*
X0735294Y0588494D01*
X0735153Y0588109D01*
X0735021Y0587720D01*
X0734899Y0587328D01*
X0734786Y0586933D01*
X0734683Y0586536D01*
X0734589Y0586136D01*
X0734506Y0585734D01*
X0734432Y0585330D01*
X0734368Y0584925D01*
X0734315Y0584518D01*
X0734271Y0584110D01*
X0734237Y0583701D01*
X0734213Y0583291D01*
X0734199Y0582880D01*
X0734195Y0582470D01*
X0734201Y0582059D01*
X0734217Y0581649D01*
X0734244Y0581240D01*
X0734280Y0580831D01*
X0734326Y0580423D01*
X0734382Y0580016D01*
X0734448Y0579611D01*
X0734524Y0579207D01*
X0734610Y0578806D01*
X0734706Y0578407D01*
X0734811Y0578010D01*
X0734926Y0577616D01*
X0735050Y0577225D01*
X0735184Y0576837D01*
X0735328Y0576452D01*
X0735481Y0576071D01*
X0735643Y0575694D01*
X0735814Y0575321D01*
X0735995Y0574952D01*
X0736184Y0574588D01*
X0736382Y0574228D01*
X0736589Y0573874D01*
X0736805Y0573524D01*
X0737029Y0573180D01*
X0737261Y0572842D01*
X0737501Y0572509D01*
X0717391Y0581591D02*
X0717387Y0582407D01*
X0717402Y0583223D01*
X0717438Y0584038D01*
X0717493Y0584853D01*
X0717569Y0585665D01*
X0717664Y0586476D01*
X0717779Y0587284D01*
X0717914Y0588089D01*
X0718068Y0588890D01*
X0718243Y0589688D01*
X0718436Y0590480D01*
X0718649Y0591268D01*
X0718881Y0592051D01*
X0719133Y0592827D01*
X0719403Y0593597D01*
X0719692Y0594361D01*
X0720000Y0595117D01*
X0720326Y0595865D01*
X0720670Y0596605D01*
X0721033Y0597336D01*
X0721413Y0598058D01*
X0721811Y0598771D01*
X0722226Y0599474D01*
X0722658Y0600166D01*
X0723107Y0600848D01*
X0723573Y0601518D01*
X0724054Y0602177D01*
X0724552Y0602823D01*
X0725066Y0603458D01*
X0725595Y0604079D01*
X0726139Y0604688D01*
X0726698Y0605283D01*
X0727271Y0605864D01*
X0727858Y0606430D01*
X0728459Y0606983D01*
X0729073Y0607520D01*
X0729701Y0608042D01*
X0730341Y0608549D01*
X0730993Y0609040D01*
X0731657Y0609514D01*
X0732332Y0609973D01*
X0733018Y0610414D01*
X0733715Y0610839D01*
X0734423Y0611246D01*
X0735140Y0611636D01*
X0735866Y0612009D01*
X0736601Y0612363D01*
X0737345Y0612699D01*
X0738096Y0613017D01*
X0738856Y0613317D01*
X0739622Y0613597D01*
X0740395Y0613859D01*
X0741174Y0614102D01*
X0741959Y0614326D01*
X0742749Y0614530D01*
X0743544Y0614715D01*
X0744343Y0614881D01*
X0745147Y0615026D01*
X0745953Y0615153D01*
X0746762Y0615259D01*
X0747574Y0615345D01*
X0748387Y0615412D01*
X0749202Y0615458D01*
X0750018Y0615485D01*
X0750834Y0615492D01*
X0751650Y0615478D01*
X0752465Y0615445D01*
X0753280Y0615392D01*
X0783847Y0586308D02*
X0783929Y0585500D01*
X0783991Y0584690D01*
X0784033Y0583880D01*
X0784056Y0583068D01*
X0784059Y0582256D01*
X0784042Y0581444D01*
X0784006Y0580633D01*
X0783949Y0579823D01*
X0783874Y0579015D01*
X0783778Y0578209D01*
X0783663Y0577405D01*
X0783529Y0576604D01*
X0783375Y0575807D01*
X0783202Y0575014D01*
X0783010Y0574225D01*
X0782799Y0573441D01*
X0782569Y0572663D01*
X0782320Y0571890D01*
X0782052Y0571123D01*
X0781766Y0570364D01*
X0781461Y0569611D01*
X0781138Y0568866D01*
X0780798Y0568129D01*
X0780439Y0567401D01*
X0780063Y0566681D01*
X0779670Y0565971D01*
X0779259Y0565270D01*
X0778832Y0564580D01*
X0778388Y0563900D01*
X0777927Y0563232D01*
X0777451Y0562574D01*
X0776959Y0561929D01*
X0776451Y0561295D01*
X0775928Y0560674D01*
X0775390Y0560066D01*
X0774837Y0559471D01*
X0774271Y0558890D01*
X0773690Y0558322D01*
X0773096Y0557769D01*
X0772488Y0557231D01*
X0771868Y0556707D01*
X0771235Y0556198D01*
X0770590Y0555705D01*
X0769933Y0555228D01*
X0769264Y0554767D01*
X0768585Y0554322D01*
X0767895Y0553894D01*
X0767195Y0553483D01*
X0766486Y0553089D01*
X0765766Y0552712D01*
X0765038Y0552352D01*
X0764302Y0552011D01*
X0763557Y0551687D01*
X0762805Y0551382D01*
X0762046Y0551095D01*
X0761279Y0550826D01*
X0760507Y0550576D01*
X0759729Y0550345D01*
X0758945Y0550133D01*
X0758156Y0549940D01*
X0757363Y0549766D01*
X0756566Y0549612D01*
X0755766Y0549476D01*
X0754962Y0549361D01*
X0754156Y0549264D01*
X0753348Y0549188D01*
X0752538Y0549131D01*
X0751727Y0549093D01*
X0750915Y0549076D01*
X0750103Y0549078D01*
X0749291Y0549099D01*
D11*
X0683112Y0476996D02*
X0666409Y0493699D01*
X0655273Y0482563D01*
X0671977Y0465860D01*
X0683112Y0476996D01*
X0634725Y0479641D02*
X0634227Y0480139D01*
X0634227Y0484125D01*
X0633728Y0484623D01*
X0631735Y0482630D01*
X0631151Y0481049D02*
X0630154Y0481049D01*
X0629157Y0480053D01*
X0629157Y0479056D01*
X0631151Y0477063D01*
X0632147Y0477063D01*
X0633144Y0478059D01*
X0633144Y0479056D01*
X0547172Y0567962D02*
X0547172Y0570667D01*
X0546271Y0571569D01*
X0545369Y0571569D01*
X0544467Y0570667D01*
X0544467Y0567962D01*
X0541762Y0567962D02*
X0541762Y0570667D01*
X0542664Y0571569D01*
X0543566Y0571569D01*
X0544467Y0570667D01*
X0544467Y0573400D02*
X0544467Y0577007D01*
X0543566Y0577007D02*
X0547172Y0577007D01*
X0543566Y0577007D02*
X0541762Y0575203D01*
X0543566Y0573400D01*
X0547172Y0573400D01*
X0547172Y0567962D02*
X0541762Y0567962D01*
X0541762Y0578838D02*
X0541762Y0582445D01*
X0541762Y0580641D02*
X0547172Y0580641D01*
X0548074Y0584275D02*
X0548074Y0587882D01*
X0546271Y0589713D02*
X0547172Y0590615D01*
X0547172Y0592418D01*
X0546271Y0593320D01*
X0544467Y0593320D01*
X0544467Y0591517D01*
X0542664Y0593320D02*
X0541762Y0592418D01*
X0541762Y0590615D01*
X0542664Y0589713D01*
X0546271Y0589713D01*
X0547172Y0595151D02*
X0541762Y0595151D01*
X0547172Y0598758D01*
X0541762Y0598758D01*
X0541762Y0600589D02*
X0541762Y0603294D01*
X0542664Y0604195D01*
X0546271Y0604195D01*
X0547172Y0603294D01*
X0547172Y0600589D01*
X0541762Y0600589D01*
X0537842Y0602235D02*
X0532432Y0602235D01*
X0532432Y0604038D02*
X0532432Y0600431D01*
X0534235Y0598600D02*
X0537842Y0598600D01*
X0535137Y0598600D02*
X0535137Y0594993D01*
X0534235Y0594993D02*
X0532432Y0596797D01*
X0534235Y0598600D01*
X0534235Y0594993D02*
X0537842Y0594993D01*
X0536940Y0593162D02*
X0537842Y0592261D01*
X0537842Y0589556D01*
X0532432Y0589556D01*
X0532432Y0592261D01*
X0533333Y0593162D01*
X0534235Y0593162D01*
X0535137Y0592261D01*
X0535137Y0589556D01*
X0536038Y0587725D02*
X0532432Y0587725D01*
X0536038Y0587725D02*
X0537842Y0585921D01*
X0536038Y0584118D01*
X0532432Y0584118D01*
X0535137Y0592261D02*
X0536038Y0593162D01*
X0536940Y0593162D01*
X0528314Y0596954D02*
X0526511Y0598758D01*
X0522904Y0598758D01*
X0523806Y0600589D02*
X0522904Y0601490D01*
X0522904Y0603294D01*
X0523806Y0604195D01*
X0524707Y0604195D01*
X0525609Y0603294D01*
X0526511Y0604195D01*
X0527412Y0604195D01*
X0528314Y0603294D01*
X0528314Y0601490D01*
X0527412Y0600589D01*
X0525609Y0602392D02*
X0525609Y0603294D01*
X0528314Y0596954D02*
X0526511Y0595151D01*
X0522904Y0595151D01*
X0518629Y0595348D02*
X0518629Y0598053D01*
X0517727Y0598955D01*
X0516826Y0598955D01*
X0515924Y0598053D01*
X0515924Y0595348D01*
X0515924Y0593517D02*
X0516826Y0592615D01*
X0516826Y0589910D01*
X0518629Y0589910D02*
X0513219Y0589910D01*
X0513219Y0592615D01*
X0514121Y0593517D01*
X0515924Y0593517D01*
X0513219Y0595348D02*
X0513219Y0598053D01*
X0514121Y0598955D01*
X0515022Y0598955D01*
X0515924Y0598053D01*
X0515924Y0600785D02*
X0515022Y0602589D01*
X0515022Y0603491D01*
X0515924Y0604392D01*
X0517727Y0604392D01*
X0518629Y0603491D01*
X0518629Y0601687D01*
X0517727Y0600785D01*
X0515924Y0600785D02*
X0513219Y0600785D01*
X0513219Y0604392D01*
X0507527Y0603294D02*
X0507527Y0601490D01*
X0506625Y0600589D01*
X0507527Y0598758D02*
X0507527Y0595151D01*
X0502117Y0595151D01*
X0502117Y0598758D01*
X0503018Y0600589D02*
X0502117Y0601490D01*
X0502117Y0603294D01*
X0503018Y0604195D01*
X0503920Y0604195D01*
X0504822Y0603294D01*
X0505723Y0604195D01*
X0506625Y0604195D01*
X0507527Y0603294D01*
X0504822Y0603294D02*
X0504822Y0602392D01*
X0504822Y0596954D02*
X0504822Y0595151D01*
X0504822Y0593320D02*
X0505723Y0592418D01*
X0505723Y0589713D01*
X0507527Y0589713D02*
X0502117Y0589713D01*
X0502117Y0592418D01*
X0503018Y0593320D01*
X0504822Y0593320D01*
X0498393Y0595348D02*
X0498393Y0598955D01*
X0495688Y0597151D02*
X0495688Y0595348D01*
X0495688Y0593517D02*
X0496589Y0592615D01*
X0496589Y0589910D01*
X0498393Y0589910D02*
X0492983Y0589910D01*
X0492983Y0592615D01*
X0493884Y0593517D01*
X0495688Y0593517D01*
X0492983Y0595348D02*
X0498393Y0595348D01*
X0492983Y0595348D02*
X0492983Y0598955D01*
X0495688Y0600785D02*
X0495688Y0604392D01*
X0498393Y0603491D02*
X0492983Y0603491D01*
X0495688Y0600785D01*
X0487999Y0601845D02*
X0487999Y0603648D01*
X0487097Y0604550D01*
X0485294Y0604550D01*
X0484392Y0603648D01*
X0484392Y0602746D01*
X0485294Y0600943D01*
X0482589Y0600943D01*
X0482589Y0604550D01*
X0478117Y0604904D02*
X0474511Y0604904D01*
X0472707Y0603101D01*
X0474511Y0601297D01*
X0478117Y0601297D01*
X0477216Y0599466D02*
X0473609Y0599466D01*
X0472707Y0598565D01*
X0472707Y0595860D01*
X0478117Y0595860D01*
X0478117Y0598565D01*
X0477216Y0599466D01*
X0475412Y0601297D02*
X0475412Y0604904D01*
X0467724Y0605258D02*
X0467724Y0601652D01*
X0462313Y0601652D01*
X0463215Y0599821D02*
X0462313Y0598919D01*
X0462313Y0597116D01*
X0463215Y0596214D01*
X0466822Y0596214D01*
X0467724Y0597116D01*
X0467724Y0598919D01*
X0466822Y0599821D01*
X0466822Y0594383D02*
X0467724Y0593481D01*
X0467724Y0591678D01*
X0466822Y0590776D01*
X0465019Y0591678D02*
X0465019Y0593481D01*
X0465920Y0594383D01*
X0466822Y0594383D01*
X0465019Y0591678D02*
X0464117Y0590776D01*
X0463215Y0590776D01*
X0462313Y0591678D01*
X0462313Y0593481D01*
X0463215Y0594383D01*
X0472707Y0593127D02*
X0472707Y0591324D01*
X0473609Y0590422D01*
X0474511Y0590422D01*
X0475412Y0591324D01*
X0475412Y0593127D01*
X0476314Y0594029D01*
X0477216Y0594029D01*
X0478117Y0593127D01*
X0478117Y0591324D01*
X0477216Y0590422D01*
X0473609Y0594029D02*
X0472707Y0593127D01*
X0482589Y0592773D02*
X0483491Y0593674D01*
X0485294Y0593674D01*
X0486196Y0592773D01*
X0486196Y0590068D01*
X0487999Y0590068D02*
X0482589Y0590068D01*
X0482589Y0592773D01*
X0482589Y0595505D02*
X0487999Y0595505D01*
X0487999Y0599112D01*
X0487097Y0600943D02*
X0487999Y0601845D01*
X0485294Y0597309D02*
X0485294Y0595505D01*
X0482589Y0595505D02*
X0482589Y0599112D01*
X0513219Y0595348D02*
X0518629Y0595348D01*
X0552313Y0595505D02*
X0557724Y0599112D01*
X0552313Y0599112D01*
X0552313Y0600943D02*
X0552313Y0603648D01*
X0553215Y0604550D01*
X0556822Y0604550D01*
X0557724Y0603648D01*
X0557724Y0600943D01*
X0552313Y0600943D01*
X0552313Y0595505D02*
X0557724Y0595505D01*
X0556822Y0593674D02*
X0555019Y0593674D01*
X0555019Y0591871D01*
X0556822Y0593674D02*
X0557724Y0592773D01*
X0557724Y0590969D01*
X0556822Y0590068D01*
X0553215Y0590068D01*
X0552313Y0590969D01*
X0552313Y0592773D01*
X0553215Y0593674D01*
X0397299Y0466194D02*
X0396302Y0467190D01*
X0395306Y0467190D01*
X0394807Y0466692D01*
X0394807Y0465695D01*
X0396302Y0464201D01*
X0397299Y0465197D02*
X0397299Y0466194D01*
X0397299Y0465197D02*
X0395306Y0463204D01*
X0394309Y0463204D01*
X0393312Y0464201D01*
X0393312Y0465197D01*
X0392230Y0466280D02*
X0391233Y0466280D01*
X0390236Y0467277D01*
X0390236Y0468273D01*
X0392230Y0470266D01*
X0393226Y0470266D01*
X0394223Y0469270D01*
X0394223Y0468273D01*
X0372929Y0475567D02*
X0356226Y0458864D01*
X0345090Y0469999D01*
X0361794Y0486702D01*
X0372929Y0475567D01*
X0451062Y0400792D02*
X0451062Y0399382D01*
X0451767Y0398678D01*
X0451062Y0397146D02*
X0451062Y0395737D01*
X0451062Y0396442D02*
X0454586Y0396442D01*
X0455291Y0395737D01*
X0455291Y0395032D01*
X0454586Y0394328D01*
X0455291Y0398678D02*
X0452472Y0401496D01*
X0451767Y0401496D01*
X0451062Y0400792D01*
X0455291Y0401496D02*
X0455291Y0398678D01*
X0684666Y0371032D02*
X0684666Y0366111D01*
X0691420Y0369083D02*
X0691422Y0369109D01*
X0691428Y0369135D01*
X0691437Y0369159D01*
X0691451Y0369182D01*
X0691467Y0369203D01*
X0691486Y0369221D01*
X0691508Y0369235D01*
X0691532Y0369247D01*
X0691557Y0369255D01*
X0691583Y0369259D01*
X0691609Y0369259D01*
X0691635Y0369255D01*
X0691660Y0369247D01*
X0691684Y0369235D01*
X0691706Y0369221D01*
X0691725Y0369203D01*
X0691741Y0369182D01*
X0691755Y0369159D01*
X0691764Y0369135D01*
X0691770Y0369109D01*
X0691772Y0369083D01*
X0691770Y0369057D01*
X0691764Y0369031D01*
X0691755Y0369007D01*
X0691741Y0368984D01*
X0691725Y0368963D01*
X0691706Y0368945D01*
X0691684Y0368931D01*
X0691660Y0368919D01*
X0691635Y0368911D01*
X0691609Y0368907D01*
X0691583Y0368907D01*
X0691557Y0368911D01*
X0691532Y0368919D01*
X0691508Y0368931D01*
X0691486Y0368945D01*
X0691467Y0368963D01*
X0691451Y0368984D01*
X0691437Y0369007D01*
X0691428Y0369031D01*
X0691422Y0369057D01*
X0691420Y0369083D01*
X0692541Y0371032D02*
X0692541Y0366111D01*
X0643352Y0232978D02*
X0642356Y0232978D01*
X0640363Y0230985D01*
X0640363Y0229989D01*
X0641359Y0228992D01*
X0642356Y0228992D01*
X0642940Y0227411D02*
X0644933Y0225418D01*
X0643937Y0226414D02*
X0646926Y0229404D01*
X0644933Y0229404D01*
X0644349Y0230985D02*
X0644349Y0231982D01*
X0643352Y0232978D01*
X0648508Y0226826D02*
X0649504Y0226826D01*
X0650501Y0225830D01*
X0650501Y0224833D01*
X0650003Y0224335D01*
X0649006Y0224335D01*
X0649006Y0223338D01*
X0648508Y0222840D01*
X0647511Y0222840D01*
X0646515Y0223837D01*
X0646515Y0224833D01*
X0648508Y0224833D02*
X0649006Y0224335D01*
X0648211Y0207175D02*
X0659347Y0196039D01*
X0642643Y0179336D01*
X0631508Y0190472D01*
X0648211Y0207175D01*
X0389444Y0229828D02*
X0388447Y0228832D01*
X0387450Y0228832D01*
X0386454Y0229828D02*
X0386952Y0231323D01*
X0387450Y0231821D01*
X0388447Y0231821D01*
X0389444Y0230825D01*
X0389444Y0229828D01*
X0386454Y0229828D02*
X0384959Y0231323D01*
X0386952Y0233316D01*
X0382880Y0229244D02*
X0382880Y0227251D01*
X0381298Y0226666D02*
X0380302Y0226666D01*
X0379305Y0225669D01*
X0379305Y0224673D01*
X0381298Y0222680D01*
X0382295Y0222680D01*
X0383291Y0223676D01*
X0383291Y0224673D01*
X0384873Y0225258D02*
X0386866Y0227251D01*
X0385869Y0226254D02*
X0382880Y0229244D01*
X0369926Y0219383D02*
X0353222Y0236086D01*
X0342087Y0224951D01*
X0358790Y0208248D01*
X0369926Y0219383D01*
D12*
X0420050Y0177478D02*
X0417937Y0172947D01*
X0419146Y0169624D01*
X0423677Y0167511D01*
X0427000Y0168720D01*
X0428209Y0165398D01*
X0432741Y0163285D01*
X0436063Y0164494D01*
X0437272Y0161172D01*
X0441804Y0159059D01*
X0445126Y0160268D01*
X0446335Y0156946D01*
X0450867Y0154833D01*
X0454189Y0156042D01*
X0455398Y0152719D01*
X0459930Y0150606D01*
X0463252Y0151816D01*
X0464461Y0148493D01*
X0468993Y0146380D01*
X0472315Y0147589D01*
X0474428Y0152121D01*
X0473219Y0155443D01*
X0468687Y0157556D01*
X0465365Y0156347D01*
X0464156Y0159669D01*
X0459624Y0161783D01*
X0456302Y0160573D01*
X0455093Y0163896D01*
X0450561Y0166009D01*
X0447239Y0164800D01*
X0446030Y0168122D01*
X0441498Y0170235D01*
X0438176Y0169026D01*
X0436967Y0172348D01*
X0432435Y0174461D01*
X0429113Y0173252D01*
X0427904Y0176574D01*
X0423372Y0178687D01*
X0420050Y0177478D01*
X0514555Y0150804D02*
X0514703Y0145806D01*
X0517277Y0143382D01*
X0522274Y0143530D01*
X0524699Y0146103D01*
X0527272Y0143678D01*
X0532270Y0143827D01*
X0534695Y0146400D01*
X0537268Y0143975D01*
X0542266Y0144123D01*
X0544690Y0146696D01*
X0547263Y0144272D01*
X0552261Y0144420D01*
X0554686Y0146993D01*
X0557259Y0144568D01*
X0562257Y0144717D01*
X0564681Y0147290D01*
X0567255Y0144865D01*
X0572252Y0145013D01*
X0574677Y0147586D01*
X0574529Y0152584D01*
X0571956Y0155009D01*
X0566958Y0154860D01*
X0564533Y0152287D01*
X0561960Y0154712D01*
X0556962Y0154564D01*
X0554538Y0151991D01*
X0551964Y0154415D01*
X0546967Y0154267D01*
X0544542Y0151694D01*
X0541969Y0154119D01*
X0536971Y0153970D01*
X0534546Y0151397D01*
X0531973Y0153822D01*
X0526975Y0153674D01*
X0524551Y0151101D01*
X0521978Y0153526D01*
X0516980Y0153377D01*
X0514555Y0150804D01*
X0664483Y0264707D02*
X0666970Y0262194D01*
X0681970Y0262115D01*
X0684483Y0264602D01*
X0684509Y0269602D01*
X0682022Y0272115D01*
X0667022Y0272194D01*
X0664509Y0269707D01*
X0664483Y0264707D01*
X0667022Y0272194D02*
X0664535Y0274707D01*
X0664562Y0279707D01*
X0665794Y0282030D01*
X0663982Y0283600D01*
X0664186Y0290119D01*
X0665247Y0292193D01*
X0682127Y0292115D01*
X0684614Y0289602D01*
X0684588Y0284602D01*
X0682074Y0282115D01*
X0665794Y0282030D01*
X0684561Y0279602D02*
X0684535Y0274602D01*
X0682022Y0272115D01*
X0633840Y0354005D02*
X0633840Y0355186D01*
X0633840Y0354005D02*
X0632659Y0354005D01*
X0599588Y0354005D02*
X0598407Y0354005D01*
X0598407Y0355186D01*
X0598407Y0388257D02*
X0599588Y0389438D01*
X0617383Y0415107D02*
X0622107Y0415107D01*
X0629588Y0420225D02*
X0629588Y0422587D01*
X0622107Y0427706D02*
X0617383Y0427706D01*
X0609903Y0422587D02*
X0609903Y0420225D01*
X0632659Y0389438D02*
X0633840Y0389438D01*
X0633840Y0388257D01*
X0702883Y0371024D02*
X0721883Y0371024D01*
X0719383Y0368024D02*
X0720883Y0366524D01*
X0719383Y0365024D01*
X0720883Y0366524D02*
X0717383Y0366524D01*
X0721883Y0362024D02*
X0702883Y0362024D01*
D13*
X0690171Y0359472D02*
X0688703Y0359472D01*
X0689437Y0359472D02*
X0689437Y0361674D01*
X0688703Y0360940D01*
X0687962Y0360940D02*
X0687595Y0360573D01*
X0686494Y0360573D01*
X0686494Y0361674D02*
X0687595Y0361674D01*
X0687962Y0361307D01*
X0687962Y0360940D01*
X0687595Y0360573D02*
X0687962Y0360206D01*
X0687962Y0359839D01*
X0687595Y0359472D01*
X0686494Y0359472D01*
X0686494Y0361674D01*
X0703816Y0374995D02*
X0703816Y0376463D01*
X0704550Y0377197D01*
X0705284Y0376463D01*
X0705284Y0374995D01*
X0706026Y0374995D02*
X0707494Y0374995D01*
X0706760Y0374995D02*
X0706760Y0377197D01*
X0706026Y0376463D01*
X0705284Y0376096D02*
X0703816Y0376096D01*
X0621156Y0431350D02*
X0619688Y0431350D01*
X0620422Y0431350D02*
X0620422Y0433551D01*
X0619688Y0432818D01*
X0618946Y0433184D02*
X0618946Y0433551D01*
X0618946Y0433184D02*
X0618212Y0432451D01*
X0618212Y0431350D01*
X0618212Y0432451D02*
X0617478Y0433184D01*
X0617478Y0433551D01*
X0649177Y0451251D02*
X0649956Y0452029D01*
X0650475Y0452029D01*
X0651513Y0450991D01*
X0651513Y0450472D01*
X0650734Y0449694D01*
X0649177Y0451251D01*
X0651259Y0452294D02*
X0651259Y0453332D01*
X0652816Y0451775D01*
X0652297Y0451256D02*
X0653335Y0452294D01*
X0665925Y0473251D02*
X0667482Y0474808D01*
X0665925Y0474808D01*
X0666963Y0473770D01*
X0665141Y0475073D02*
X0665141Y0475592D01*
X0664622Y0476111D01*
X0664622Y0476630D01*
X0664882Y0476890D01*
X0665401Y0476890D01*
X0665920Y0476371D01*
X0665920Y0475852D01*
X0665920Y0476890D02*
X0663844Y0474814D01*
X0663844Y0475333D02*
X0664363Y0474814D01*
X0664882Y0474814D01*
X0665141Y0475073D01*
X0663844Y0475333D02*
X0663844Y0475852D01*
X0663319Y0476376D02*
X0664616Y0477674D01*
X0663578Y0478712D02*
X0662281Y0477414D01*
X0662281Y0476895D01*
X0662800Y0476376D01*
X0663319Y0476376D01*
X0455786Y0380349D02*
X0455786Y0379615D01*
X0455419Y0379248D01*
X0453951Y0380716D01*
X0455419Y0380716D01*
X0455786Y0380349D01*
X0455419Y0379248D02*
X0453951Y0379248D01*
X0453584Y0379615D01*
X0453584Y0380349D01*
X0453951Y0380716D01*
X0455786Y0378506D02*
X0455786Y0377038D01*
X0455786Y0377772D02*
X0453584Y0377772D01*
X0454318Y0377038D01*
X0453951Y0376296D02*
X0453584Y0375929D01*
X0453584Y0375195D01*
X0453951Y0374828D01*
X0454318Y0374828D01*
X0454685Y0375195D01*
X0454685Y0375929D01*
X0455052Y0376296D01*
X0455419Y0376296D01*
X0455786Y0375929D01*
X0455786Y0375195D01*
X0455419Y0374828D01*
X0455419Y0374086D02*
X0453584Y0374086D01*
X0453584Y0372618D02*
X0455419Y0372618D01*
X0455786Y0372985D01*
X0455786Y0373719D01*
X0455419Y0374086D01*
X0456153Y0375562D02*
X0453217Y0375562D01*
X0353526Y0446962D02*
X0352488Y0448000D01*
X0354045Y0448000D01*
X0352488Y0446443D01*
X0351444Y0448006D02*
X0352482Y0449044D01*
X0352482Y0449563D01*
X0351704Y0450341D01*
X0350147Y0448784D01*
X0350925Y0448006D01*
X0351444Y0448006D01*
X0361375Y0465871D02*
X0361894Y0465871D01*
X0362413Y0466390D01*
X0362413Y0466909D01*
X0361116Y0468207D01*
X0361900Y0468472D02*
X0361900Y0468991D01*
X0362419Y0469510D01*
X0362938Y0469510D01*
X0363197Y0468731D02*
X0362678Y0468212D01*
X0362159Y0468212D01*
X0361900Y0468472D01*
X0361900Y0469510D02*
X0363976Y0467434D01*
X0363976Y0467953D02*
X0363976Y0468472D01*
X0363716Y0468731D01*
X0363197Y0468731D01*
X0363976Y0467953D02*
X0363457Y0467434D01*
X0362938Y0467434D01*
X0361375Y0465871D02*
X0360078Y0467169D01*
X0363722Y0469775D02*
X0363722Y0470813D01*
X0365279Y0469256D01*
X0364760Y0468737D02*
X0365798Y0469775D01*
X0354497Y0249879D02*
X0353978Y0249879D01*
X0353459Y0249360D01*
X0353459Y0248841D01*
X0352935Y0248316D02*
X0352416Y0248316D01*
X0351637Y0247538D01*
X0353194Y0245981D01*
X0353973Y0246759D01*
X0353973Y0247278D01*
X0352935Y0248316D01*
X0354497Y0247803D02*
X0355016Y0247803D01*
X0355535Y0248322D01*
X0355535Y0248841D01*
X0355276Y0249101D01*
X0354757Y0249101D01*
X0354497Y0248841D01*
X0354757Y0249101D02*
X0354757Y0249620D01*
X0354497Y0249879D01*
X0358632Y0229340D02*
X0357335Y0228042D01*
X0357335Y0227523D01*
X0357854Y0227004D01*
X0358373Y0227004D01*
X0359670Y0228302D01*
X0359936Y0227517D02*
X0360455Y0227517D01*
X0360973Y0226998D01*
X0360973Y0226479D01*
X0361498Y0225955D02*
X0361239Y0225695D01*
X0361239Y0225176D01*
X0361758Y0224657D01*
X0361758Y0224138D01*
X0361498Y0223879D01*
X0360979Y0223879D01*
X0360460Y0224398D01*
X0360460Y0224917D01*
X0360720Y0225176D01*
X0361239Y0225176D01*
X0361758Y0224657D02*
X0362277Y0224657D01*
X0362536Y0224917D01*
X0362536Y0225436D01*
X0362017Y0225955D01*
X0361498Y0225955D01*
X0360195Y0225701D02*
X0360195Y0226220D01*
X0359676Y0226739D01*
X0359676Y0227258D01*
X0359936Y0227517D01*
X0360973Y0227517D02*
X0358898Y0225441D01*
X0359417Y0225441D02*
X0359936Y0225441D01*
X0360195Y0225701D01*
X0359417Y0225441D02*
X0358898Y0225960D01*
X0358898Y0226479D01*
X0446633Y0171631D02*
X0446811Y0171143D01*
X0447143Y0170988D01*
X0447631Y0171166D01*
X0448407Y0172829D01*
X0448739Y0172674D02*
X0448074Y0172984D01*
X0449412Y0172360D02*
X0450409Y0171895D01*
X0450587Y0171407D01*
X0450277Y0170742D01*
X0449789Y0170564D01*
X0448791Y0171030D01*
X0448481Y0170364D02*
X0449412Y0172360D01*
X0451259Y0171094D02*
X0451747Y0171271D01*
X0452412Y0170961D01*
X0452590Y0170473D01*
X0452435Y0170141D01*
X0450484Y0169431D01*
X0451814Y0168810D01*
X0540931Y0157525D02*
X0541309Y0157169D01*
X0541676Y0157180D01*
X0542032Y0157558D01*
X0541977Y0159392D01*
X0541610Y0159381D02*
X0542344Y0159403D01*
X0543086Y0159425D02*
X0544186Y0159457D01*
X0544564Y0159101D01*
X0544586Y0158368D01*
X0544230Y0157990D01*
X0543129Y0157957D01*
X0543151Y0157224D02*
X0543086Y0159425D01*
X0545316Y0158757D02*
X0546028Y0159512D01*
X0546094Y0157311D01*
X0546827Y0157333D02*
X0545360Y0157289D01*
X0613820Y0192701D02*
X0614598Y0191922D01*
X0615117Y0191922D01*
X0616155Y0192960D01*
X0616155Y0193479D01*
X0615377Y0194258D01*
X0613820Y0192701D01*
X0615383Y0191138D02*
X0617459Y0191138D01*
X0617718Y0191398D01*
X0617718Y0191917D01*
X0617199Y0192436D01*
X0616680Y0192436D01*
X0615383Y0191138D02*
X0616421Y0190100D01*
X0646495Y0187641D02*
X0647792Y0186344D01*
X0648311Y0186344D01*
X0648830Y0186863D01*
X0648830Y0187382D01*
X0647533Y0188679D01*
X0648317Y0188944D02*
X0648317Y0189463D01*
X0648836Y0189982D01*
X0649355Y0189982D01*
X0649615Y0189204D02*
X0649096Y0188685D01*
X0648577Y0188685D01*
X0648317Y0188944D01*
X0648317Y0189982D02*
X0650393Y0187906D01*
X0649874Y0187906D02*
X0650393Y0188425D01*
X0650393Y0188944D01*
X0650134Y0189204D01*
X0649615Y0189204D01*
X0650399Y0189988D02*
X0651177Y0190766D01*
X0651696Y0190766D01*
X0651956Y0190507D01*
X0651956Y0189988D01*
X0651437Y0189469D01*
X0650918Y0189469D01*
X0650399Y0189988D01*
X0650399Y0191026D01*
X0650658Y0191804D01*
X0649874Y0187906D02*
X0649355Y0187906D01*
D14*
X0559194Y0317351D02*
X0559196Y0317456D01*
X0559202Y0317561D01*
X0559212Y0317665D01*
X0559226Y0317769D01*
X0559244Y0317873D01*
X0559266Y0317975D01*
X0559291Y0318077D01*
X0559321Y0318178D01*
X0559354Y0318277D01*
X0559391Y0318375D01*
X0559432Y0318472D01*
X0559477Y0318567D01*
X0559525Y0318660D01*
X0559576Y0318752D01*
X0559632Y0318841D01*
X0559690Y0318928D01*
X0559752Y0319013D01*
X0559816Y0319096D01*
X0559884Y0319176D01*
X0559955Y0319253D01*
X0560029Y0319327D01*
X0560106Y0319399D01*
X0560185Y0319468D01*
X0560267Y0319533D01*
X0560351Y0319596D01*
X0560438Y0319655D01*
X0560527Y0319711D01*
X0560618Y0319764D01*
X0560711Y0319813D01*
X0560805Y0319858D01*
X0560901Y0319900D01*
X0560999Y0319938D01*
X0561098Y0319972D01*
X0561199Y0320003D01*
X0561300Y0320029D01*
X0561403Y0320052D01*
X0561506Y0320071D01*
X0561610Y0320086D01*
X0561714Y0320097D01*
X0561819Y0320104D01*
X0561924Y0320107D01*
X0562029Y0320106D01*
X0562134Y0320101D01*
X0562238Y0320092D01*
X0562342Y0320079D01*
X0562446Y0320062D01*
X0562549Y0320041D01*
X0562651Y0320016D01*
X0562752Y0319988D01*
X0562851Y0319955D01*
X0562950Y0319919D01*
X0563047Y0319879D01*
X0563142Y0319836D01*
X0563236Y0319788D01*
X0563328Y0319738D01*
X0563418Y0319684D01*
X0563506Y0319626D01*
X0563591Y0319565D01*
X0563674Y0319501D01*
X0563755Y0319434D01*
X0563833Y0319364D01*
X0563908Y0319290D01*
X0563980Y0319215D01*
X0564050Y0319136D01*
X0564116Y0319055D01*
X0564180Y0318971D01*
X0564240Y0318885D01*
X0564296Y0318797D01*
X0564350Y0318706D01*
X0564400Y0318614D01*
X0564446Y0318520D01*
X0564489Y0318424D01*
X0564528Y0318326D01*
X0564563Y0318228D01*
X0564594Y0318127D01*
X0564622Y0318026D01*
X0564646Y0317924D01*
X0564666Y0317821D01*
X0564682Y0317717D01*
X0564694Y0317613D01*
X0564702Y0317508D01*
X0564706Y0317403D01*
X0564706Y0317299D01*
X0564702Y0317194D01*
X0564694Y0317089D01*
X0564682Y0316985D01*
X0564666Y0316881D01*
X0564646Y0316778D01*
X0564622Y0316676D01*
X0564594Y0316575D01*
X0564563Y0316474D01*
X0564528Y0316376D01*
X0564489Y0316278D01*
X0564446Y0316182D01*
X0564400Y0316088D01*
X0564350Y0315996D01*
X0564296Y0315905D01*
X0564240Y0315817D01*
X0564180Y0315731D01*
X0564116Y0315647D01*
X0564050Y0315566D01*
X0563980Y0315487D01*
X0563908Y0315412D01*
X0563833Y0315338D01*
X0563755Y0315268D01*
X0563674Y0315201D01*
X0563591Y0315137D01*
X0563506Y0315076D01*
X0563418Y0315018D01*
X0563328Y0314964D01*
X0563236Y0314914D01*
X0563142Y0314866D01*
X0563047Y0314823D01*
X0562950Y0314783D01*
X0562851Y0314747D01*
X0562752Y0314714D01*
X0562651Y0314686D01*
X0562549Y0314661D01*
X0562446Y0314640D01*
X0562342Y0314623D01*
X0562238Y0314610D01*
X0562134Y0314601D01*
X0562029Y0314596D01*
X0561924Y0314595D01*
X0561819Y0314598D01*
X0561714Y0314605D01*
X0561610Y0314616D01*
X0561506Y0314631D01*
X0561403Y0314650D01*
X0561300Y0314673D01*
X0561199Y0314699D01*
X0561098Y0314730D01*
X0560999Y0314764D01*
X0560901Y0314802D01*
X0560805Y0314844D01*
X0560711Y0314889D01*
X0560618Y0314938D01*
X0560527Y0314991D01*
X0560438Y0315047D01*
X0560351Y0315106D01*
X0560267Y0315169D01*
X0560185Y0315234D01*
X0560106Y0315303D01*
X0560029Y0315375D01*
X0559955Y0315449D01*
X0559884Y0315526D01*
X0559816Y0315606D01*
X0559752Y0315689D01*
X0559690Y0315774D01*
X0559632Y0315861D01*
X0559576Y0315950D01*
X0559525Y0316042D01*
X0559477Y0316135D01*
X0559432Y0316230D01*
X0559391Y0316327D01*
X0559354Y0316425D01*
X0559321Y0316524D01*
X0559291Y0316625D01*
X0559266Y0316727D01*
X0559244Y0316829D01*
X0559226Y0316933D01*
X0559212Y0317037D01*
X0559202Y0317141D01*
X0559196Y0317246D01*
X0559194Y0317351D01*
X0559194Y0375225D02*
X0559196Y0375330D01*
X0559202Y0375435D01*
X0559212Y0375539D01*
X0559226Y0375643D01*
X0559244Y0375747D01*
X0559266Y0375849D01*
X0559291Y0375951D01*
X0559321Y0376052D01*
X0559354Y0376151D01*
X0559391Y0376249D01*
X0559432Y0376346D01*
X0559477Y0376441D01*
X0559525Y0376534D01*
X0559576Y0376626D01*
X0559632Y0376715D01*
X0559690Y0376802D01*
X0559752Y0376887D01*
X0559816Y0376970D01*
X0559884Y0377050D01*
X0559955Y0377127D01*
X0560029Y0377201D01*
X0560106Y0377273D01*
X0560185Y0377342D01*
X0560267Y0377407D01*
X0560351Y0377470D01*
X0560438Y0377529D01*
X0560527Y0377585D01*
X0560618Y0377638D01*
X0560711Y0377687D01*
X0560805Y0377732D01*
X0560901Y0377774D01*
X0560999Y0377812D01*
X0561098Y0377846D01*
X0561199Y0377877D01*
X0561300Y0377903D01*
X0561403Y0377926D01*
X0561506Y0377945D01*
X0561610Y0377960D01*
X0561714Y0377971D01*
X0561819Y0377978D01*
X0561924Y0377981D01*
X0562029Y0377980D01*
X0562134Y0377975D01*
X0562238Y0377966D01*
X0562342Y0377953D01*
X0562446Y0377936D01*
X0562549Y0377915D01*
X0562651Y0377890D01*
X0562752Y0377862D01*
X0562851Y0377829D01*
X0562950Y0377793D01*
X0563047Y0377753D01*
X0563142Y0377710D01*
X0563236Y0377662D01*
X0563328Y0377612D01*
X0563418Y0377558D01*
X0563506Y0377500D01*
X0563591Y0377439D01*
X0563674Y0377375D01*
X0563755Y0377308D01*
X0563833Y0377238D01*
X0563908Y0377164D01*
X0563980Y0377089D01*
X0564050Y0377010D01*
X0564116Y0376929D01*
X0564180Y0376845D01*
X0564240Y0376759D01*
X0564296Y0376671D01*
X0564350Y0376580D01*
X0564400Y0376488D01*
X0564446Y0376394D01*
X0564489Y0376298D01*
X0564528Y0376200D01*
X0564563Y0376102D01*
X0564594Y0376001D01*
X0564622Y0375900D01*
X0564646Y0375798D01*
X0564666Y0375695D01*
X0564682Y0375591D01*
X0564694Y0375487D01*
X0564702Y0375382D01*
X0564706Y0375277D01*
X0564706Y0375173D01*
X0564702Y0375068D01*
X0564694Y0374963D01*
X0564682Y0374859D01*
X0564666Y0374755D01*
X0564646Y0374652D01*
X0564622Y0374550D01*
X0564594Y0374449D01*
X0564563Y0374348D01*
X0564528Y0374250D01*
X0564489Y0374152D01*
X0564446Y0374056D01*
X0564400Y0373962D01*
X0564350Y0373870D01*
X0564296Y0373779D01*
X0564240Y0373691D01*
X0564180Y0373605D01*
X0564116Y0373521D01*
X0564050Y0373440D01*
X0563980Y0373361D01*
X0563908Y0373286D01*
X0563833Y0373212D01*
X0563755Y0373142D01*
X0563674Y0373075D01*
X0563591Y0373011D01*
X0563506Y0372950D01*
X0563418Y0372892D01*
X0563328Y0372838D01*
X0563236Y0372788D01*
X0563142Y0372740D01*
X0563047Y0372697D01*
X0562950Y0372657D01*
X0562851Y0372621D01*
X0562752Y0372588D01*
X0562651Y0372560D01*
X0562549Y0372535D01*
X0562446Y0372514D01*
X0562342Y0372497D01*
X0562238Y0372484D01*
X0562134Y0372475D01*
X0562029Y0372470D01*
X0561924Y0372469D01*
X0561819Y0372472D01*
X0561714Y0372479D01*
X0561610Y0372490D01*
X0561506Y0372505D01*
X0561403Y0372524D01*
X0561300Y0372547D01*
X0561199Y0372573D01*
X0561098Y0372604D01*
X0560999Y0372638D01*
X0560901Y0372676D01*
X0560805Y0372718D01*
X0560711Y0372763D01*
X0560618Y0372812D01*
X0560527Y0372865D01*
X0560438Y0372921D01*
X0560351Y0372980D01*
X0560267Y0373043D01*
X0560185Y0373108D01*
X0560106Y0373177D01*
X0560029Y0373249D01*
X0559955Y0373323D01*
X0559884Y0373400D01*
X0559816Y0373480D01*
X0559752Y0373563D01*
X0559690Y0373648D01*
X0559632Y0373735D01*
X0559576Y0373824D01*
X0559525Y0373916D01*
X0559477Y0374009D01*
X0559432Y0374104D01*
X0559391Y0374201D01*
X0559354Y0374299D01*
X0559321Y0374398D01*
X0559291Y0374499D01*
X0559266Y0374601D01*
X0559244Y0374703D01*
X0559226Y0374807D01*
X0559212Y0374911D01*
X0559202Y0375015D01*
X0559196Y0375120D01*
X0559194Y0375225D01*
X0464312Y0375225D02*
X0464314Y0375330D01*
X0464320Y0375435D01*
X0464330Y0375539D01*
X0464344Y0375643D01*
X0464362Y0375747D01*
X0464384Y0375849D01*
X0464409Y0375951D01*
X0464439Y0376052D01*
X0464472Y0376151D01*
X0464509Y0376249D01*
X0464550Y0376346D01*
X0464595Y0376441D01*
X0464643Y0376534D01*
X0464694Y0376626D01*
X0464750Y0376715D01*
X0464808Y0376802D01*
X0464870Y0376887D01*
X0464934Y0376970D01*
X0465002Y0377050D01*
X0465073Y0377127D01*
X0465147Y0377201D01*
X0465224Y0377273D01*
X0465303Y0377342D01*
X0465385Y0377407D01*
X0465469Y0377470D01*
X0465556Y0377529D01*
X0465645Y0377585D01*
X0465736Y0377638D01*
X0465829Y0377687D01*
X0465923Y0377732D01*
X0466019Y0377774D01*
X0466117Y0377812D01*
X0466216Y0377846D01*
X0466317Y0377877D01*
X0466418Y0377903D01*
X0466521Y0377926D01*
X0466624Y0377945D01*
X0466728Y0377960D01*
X0466832Y0377971D01*
X0466937Y0377978D01*
X0467042Y0377981D01*
X0467147Y0377980D01*
X0467252Y0377975D01*
X0467356Y0377966D01*
X0467460Y0377953D01*
X0467564Y0377936D01*
X0467667Y0377915D01*
X0467769Y0377890D01*
X0467870Y0377862D01*
X0467969Y0377829D01*
X0468068Y0377793D01*
X0468165Y0377753D01*
X0468260Y0377710D01*
X0468354Y0377662D01*
X0468446Y0377612D01*
X0468536Y0377558D01*
X0468624Y0377500D01*
X0468709Y0377439D01*
X0468792Y0377375D01*
X0468873Y0377308D01*
X0468951Y0377238D01*
X0469026Y0377164D01*
X0469098Y0377089D01*
X0469168Y0377010D01*
X0469234Y0376929D01*
X0469298Y0376845D01*
X0469358Y0376759D01*
X0469414Y0376671D01*
X0469468Y0376580D01*
X0469518Y0376488D01*
X0469564Y0376394D01*
X0469607Y0376298D01*
X0469646Y0376200D01*
X0469681Y0376102D01*
X0469712Y0376001D01*
X0469740Y0375900D01*
X0469764Y0375798D01*
X0469784Y0375695D01*
X0469800Y0375591D01*
X0469812Y0375487D01*
X0469820Y0375382D01*
X0469824Y0375277D01*
X0469824Y0375173D01*
X0469820Y0375068D01*
X0469812Y0374963D01*
X0469800Y0374859D01*
X0469784Y0374755D01*
X0469764Y0374652D01*
X0469740Y0374550D01*
X0469712Y0374449D01*
X0469681Y0374348D01*
X0469646Y0374250D01*
X0469607Y0374152D01*
X0469564Y0374056D01*
X0469518Y0373962D01*
X0469468Y0373870D01*
X0469414Y0373779D01*
X0469358Y0373691D01*
X0469298Y0373605D01*
X0469234Y0373521D01*
X0469168Y0373440D01*
X0469098Y0373361D01*
X0469026Y0373286D01*
X0468951Y0373212D01*
X0468873Y0373142D01*
X0468792Y0373075D01*
X0468709Y0373011D01*
X0468624Y0372950D01*
X0468536Y0372892D01*
X0468446Y0372838D01*
X0468354Y0372788D01*
X0468260Y0372740D01*
X0468165Y0372697D01*
X0468068Y0372657D01*
X0467969Y0372621D01*
X0467870Y0372588D01*
X0467769Y0372560D01*
X0467667Y0372535D01*
X0467564Y0372514D01*
X0467460Y0372497D01*
X0467356Y0372484D01*
X0467252Y0372475D01*
X0467147Y0372470D01*
X0467042Y0372469D01*
X0466937Y0372472D01*
X0466832Y0372479D01*
X0466728Y0372490D01*
X0466624Y0372505D01*
X0466521Y0372524D01*
X0466418Y0372547D01*
X0466317Y0372573D01*
X0466216Y0372604D01*
X0466117Y0372638D01*
X0466019Y0372676D01*
X0465923Y0372718D01*
X0465829Y0372763D01*
X0465736Y0372812D01*
X0465645Y0372865D01*
X0465556Y0372921D01*
X0465469Y0372980D01*
X0465385Y0373043D01*
X0465303Y0373108D01*
X0465224Y0373177D01*
X0465147Y0373249D01*
X0465073Y0373323D01*
X0465002Y0373400D01*
X0464934Y0373480D01*
X0464870Y0373563D01*
X0464808Y0373648D01*
X0464750Y0373735D01*
X0464694Y0373824D01*
X0464643Y0373916D01*
X0464595Y0374009D01*
X0464550Y0374104D01*
X0464509Y0374201D01*
X0464472Y0374299D01*
X0464439Y0374398D01*
X0464409Y0374499D01*
X0464384Y0374601D01*
X0464362Y0374703D01*
X0464344Y0374807D01*
X0464330Y0374911D01*
X0464320Y0375015D01*
X0464314Y0375120D01*
X0464312Y0375225D01*
X0464312Y0317351D02*
X0464314Y0317456D01*
X0464320Y0317561D01*
X0464330Y0317665D01*
X0464344Y0317769D01*
X0464362Y0317873D01*
X0464384Y0317975D01*
X0464409Y0318077D01*
X0464439Y0318178D01*
X0464472Y0318277D01*
X0464509Y0318375D01*
X0464550Y0318472D01*
X0464595Y0318567D01*
X0464643Y0318660D01*
X0464694Y0318752D01*
X0464750Y0318841D01*
X0464808Y0318928D01*
X0464870Y0319013D01*
X0464934Y0319096D01*
X0465002Y0319176D01*
X0465073Y0319253D01*
X0465147Y0319327D01*
X0465224Y0319399D01*
X0465303Y0319468D01*
X0465385Y0319533D01*
X0465469Y0319596D01*
X0465556Y0319655D01*
X0465645Y0319711D01*
X0465736Y0319764D01*
X0465829Y0319813D01*
X0465923Y0319858D01*
X0466019Y0319900D01*
X0466117Y0319938D01*
X0466216Y0319972D01*
X0466317Y0320003D01*
X0466418Y0320029D01*
X0466521Y0320052D01*
X0466624Y0320071D01*
X0466728Y0320086D01*
X0466832Y0320097D01*
X0466937Y0320104D01*
X0467042Y0320107D01*
X0467147Y0320106D01*
X0467252Y0320101D01*
X0467356Y0320092D01*
X0467460Y0320079D01*
X0467564Y0320062D01*
X0467667Y0320041D01*
X0467769Y0320016D01*
X0467870Y0319988D01*
X0467969Y0319955D01*
X0468068Y0319919D01*
X0468165Y0319879D01*
X0468260Y0319836D01*
X0468354Y0319788D01*
X0468446Y0319738D01*
X0468536Y0319684D01*
X0468624Y0319626D01*
X0468709Y0319565D01*
X0468792Y0319501D01*
X0468873Y0319434D01*
X0468951Y0319364D01*
X0469026Y0319290D01*
X0469098Y0319215D01*
X0469168Y0319136D01*
X0469234Y0319055D01*
X0469298Y0318971D01*
X0469358Y0318885D01*
X0469414Y0318797D01*
X0469468Y0318706D01*
X0469518Y0318614D01*
X0469564Y0318520D01*
X0469607Y0318424D01*
X0469646Y0318326D01*
X0469681Y0318228D01*
X0469712Y0318127D01*
X0469740Y0318026D01*
X0469764Y0317924D01*
X0469784Y0317821D01*
X0469800Y0317717D01*
X0469812Y0317613D01*
X0469820Y0317508D01*
X0469824Y0317403D01*
X0469824Y0317299D01*
X0469820Y0317194D01*
X0469812Y0317089D01*
X0469800Y0316985D01*
X0469784Y0316881D01*
X0469764Y0316778D01*
X0469740Y0316676D01*
X0469712Y0316575D01*
X0469681Y0316474D01*
X0469646Y0316376D01*
X0469607Y0316278D01*
X0469564Y0316182D01*
X0469518Y0316088D01*
X0469468Y0315996D01*
X0469414Y0315905D01*
X0469358Y0315817D01*
X0469298Y0315731D01*
X0469234Y0315647D01*
X0469168Y0315566D01*
X0469098Y0315487D01*
X0469026Y0315412D01*
X0468951Y0315338D01*
X0468873Y0315268D01*
X0468792Y0315201D01*
X0468709Y0315137D01*
X0468624Y0315076D01*
X0468536Y0315018D01*
X0468446Y0314964D01*
X0468354Y0314914D01*
X0468260Y0314866D01*
X0468165Y0314823D01*
X0468068Y0314783D01*
X0467969Y0314747D01*
X0467870Y0314714D01*
X0467769Y0314686D01*
X0467667Y0314661D01*
X0467564Y0314640D01*
X0467460Y0314623D01*
X0467356Y0314610D01*
X0467252Y0314601D01*
X0467147Y0314596D01*
X0467042Y0314595D01*
X0466937Y0314598D01*
X0466832Y0314605D01*
X0466728Y0314616D01*
X0466624Y0314631D01*
X0466521Y0314650D01*
X0466418Y0314673D01*
X0466317Y0314699D01*
X0466216Y0314730D01*
X0466117Y0314764D01*
X0466019Y0314802D01*
X0465923Y0314844D01*
X0465829Y0314889D01*
X0465736Y0314938D01*
X0465645Y0314991D01*
X0465556Y0315047D01*
X0465469Y0315106D01*
X0465385Y0315169D01*
X0465303Y0315234D01*
X0465224Y0315303D01*
X0465147Y0315375D01*
X0465073Y0315449D01*
X0465002Y0315526D01*
X0464934Y0315606D01*
X0464870Y0315689D01*
X0464808Y0315774D01*
X0464750Y0315861D01*
X0464694Y0315950D01*
X0464643Y0316042D01*
X0464595Y0316135D01*
X0464550Y0316230D01*
X0464509Y0316327D01*
X0464472Y0316425D01*
X0464439Y0316524D01*
X0464409Y0316625D01*
X0464384Y0316727D01*
X0464362Y0316829D01*
X0464344Y0316933D01*
X0464330Y0317037D01*
X0464320Y0317141D01*
X0464314Y0317246D01*
X0464312Y0317351D01*
D15*
X0491753Y0330934D02*
X0491753Y0338808D01*
X0498603Y0338808D02*
X0498603Y0330934D01*
X0494233Y0346524D02*
X0494233Y0354398D01*
X0487383Y0354398D02*
X0487383Y0346524D01*
X0491871Y0372587D02*
X0491871Y0380461D01*
X0498879Y0380461D02*
X0498879Y0372587D01*
X0501005Y0372863D02*
X0501005Y0380737D01*
X0508013Y0380737D02*
X0508013Y0372863D01*
X0510769Y0372745D02*
X0510769Y0380619D01*
X0517777Y0380619D02*
X0517777Y0372745D01*
X0520611Y0375619D02*
X0520611Y0383493D01*
X0527619Y0383493D02*
X0527619Y0375619D01*
X0530178Y0363690D02*
X0530178Y0355816D01*
X0537186Y0355816D02*
X0537186Y0363690D01*
X0566359Y0364950D02*
X0574233Y0364950D01*
X0574233Y0357942D02*
X0566359Y0357942D01*
X0564863Y0384792D02*
X0572737Y0384792D01*
X0572737Y0391800D02*
X0564863Y0391800D01*
X0591202Y0418611D02*
X0599076Y0418611D01*
X0599076Y0425619D02*
X0591202Y0425619D01*
X0600021Y0431643D02*
X0607895Y0431643D01*
X0614115Y0434753D02*
X0621989Y0434753D01*
X0621989Y0441761D02*
X0614115Y0441761D01*
X0607895Y0438650D02*
X0600021Y0438650D01*
X0630169Y0463855D02*
X0635737Y0458287D01*
X0640581Y0463131D02*
X0635013Y0468699D01*
X0628691Y0480672D02*
X0634259Y0486240D01*
X0629303Y0491195D02*
X0623736Y0485628D01*
X0618281Y0490177D02*
X0623849Y0495745D01*
X0619005Y0500589D02*
X0613437Y0495021D01*
X0622000Y0506936D02*
X0644647Y0484289D01*
X0657453Y0497095D01*
X0634806Y0519742D01*
X0663604Y0470827D02*
X0668615Y0465816D01*
X0657981Y0455182D01*
X0652970Y0460193D02*
X0663604Y0470827D01*
X0683761Y0383139D02*
X0691635Y0383139D01*
X0691635Y0376131D02*
X0683761Y0376131D01*
X0684785Y0357666D02*
X0692659Y0357666D01*
X0692659Y0350658D02*
X0684785Y0350658D01*
X0687619Y0314871D02*
X0687619Y0306997D01*
X0694470Y0306997D02*
X0694470Y0314871D01*
X0616281Y0321249D02*
X0616281Y0329123D01*
X0609273Y0329123D02*
X0609273Y0321249D01*
X0648927Y0238400D02*
X0654495Y0232832D01*
X0649540Y0227877D02*
X0643972Y0233445D01*
X0636447Y0229076D02*
X0630879Y0234644D01*
X0626035Y0229800D02*
X0631603Y0224232D01*
X0630171Y0220903D02*
X0635738Y0215336D01*
X0630895Y0210492D02*
X0625327Y0216060D01*
X0651801Y0214418D02*
X0674448Y0237065D01*
X0687254Y0224259D02*
X0664607Y0201612D01*
X0651801Y0214418D01*
X0624319Y0190465D02*
X0634954Y0179831D01*
X0629943Y0174820D01*
X0619308Y0185454D01*
X0526674Y0171485D02*
X0518800Y0171485D01*
X0518800Y0164477D02*
X0526674Y0164477D01*
X0410148Y0224878D02*
X0404580Y0219311D01*
X0399736Y0224155D02*
X0405304Y0229722D01*
X0395597Y0224980D02*
X0390030Y0219412D01*
X0385074Y0224368D02*
X0390642Y0229936D01*
X0394226Y0243641D02*
X0399794Y0249209D01*
X0394950Y0254053D02*
X0389382Y0248485D01*
X0352387Y0240021D02*
X0341752Y0229387D01*
X0336741Y0234398D01*
X0347376Y0245032D01*
X0376615Y0212067D02*
X0399262Y0189420D01*
X0386456Y0176614D02*
X0363809Y0199261D01*
X0376615Y0212067D01*
X0333682Y0293217D02*
X0327016Y0293217D01*
X0323682Y0296551D02*
X0323682Y0393217D01*
X0333682Y0393217D01*
X0333682Y0293217D01*
X0430375Y0339477D02*
X0438249Y0339477D01*
X0438249Y0346485D02*
X0430375Y0346485D01*
X0431202Y0354674D02*
X0439076Y0354674D01*
X0439076Y0361682D02*
X0431202Y0361682D01*
X0457816Y0383178D02*
X0467816Y0383178D01*
X0467816Y0399844D01*
X0464483Y0403178D02*
X0457816Y0403178D01*
X0457816Y0383178D01*
X0443170Y0394595D02*
X0435296Y0394595D01*
X0435296Y0401603D02*
X0443170Y0401603D01*
X0389461Y0457050D02*
X0383893Y0462618D01*
X0388848Y0467573D02*
X0394416Y0462006D01*
X0406800Y0473169D02*
X0401232Y0478737D01*
X0406076Y0483581D02*
X0411644Y0478013D01*
X0423122Y0483186D02*
X0428690Y0477618D01*
X0433534Y0482462D02*
X0427966Y0488029D01*
X0404813Y0499141D02*
X0382166Y0476494D01*
X0369360Y0489300D01*
X0392007Y0511947D01*
X0338563Y0465237D02*
X0349198Y0454602D01*
X0344187Y0449591D02*
X0333553Y0460226D01*
X0338563Y0465237D01*
D16*
X0356966Y0463031D02*
X0359137Y0465201D01*
X0365318Y0471382D02*
X0367488Y0473553D01*
X0365318Y0473553D02*
X0367488Y0471382D01*
X0413792Y0471304D02*
X0416340Y0473851D01*
X0417614Y0472578D01*
X0417614Y0471728D01*
X0416764Y0470879D01*
X0415915Y0470879D01*
X0414641Y0472153D01*
X0415491Y0471304D02*
X0415491Y0469605D01*
X0416821Y0469124D02*
X0416821Y0468275D01*
X0417670Y0467425D01*
X0418520Y0467425D01*
X0419369Y0468275D01*
X0419369Y0469124D01*
X0418944Y0469549D01*
X0417670Y0469973D01*
X0418944Y0471247D01*
X0420643Y0469549D01*
X0417805Y0487972D02*
X0416107Y0489671D01*
X0419504Y0489671D01*
X0419928Y0490095D01*
X0419928Y0490944D01*
X0419079Y0491794D01*
X0418230Y0491794D01*
X0416899Y0493973D02*
X0414352Y0491426D01*
X0413502Y0492275D02*
X0415201Y0490576D01*
X0415201Y0493973D02*
X0416899Y0493973D01*
X0414720Y0495304D02*
X0413870Y0494455D01*
X0413021Y0494455D01*
X0411747Y0495729D01*
X0410898Y0494879D02*
X0413446Y0497427D01*
X0414720Y0496153D01*
X0414720Y0495304D01*
X0412597Y0494879D02*
X0412597Y0493181D01*
X0402816Y0510232D02*
X0403665Y0511082D01*
X0403665Y0511931D01*
X0404996Y0512412D02*
X0406694Y0514111D01*
X0405845Y0513261D02*
X0403297Y0515809D01*
X0403297Y0514111D01*
X0401967Y0513629D02*
X0401117Y0513629D01*
X0400268Y0512780D01*
X0400268Y0511931D01*
X0401967Y0510232D01*
X0402816Y0510232D01*
X0407175Y0515441D02*
X0406751Y0515866D01*
X0406751Y0516715D01*
X0407600Y0517564D01*
X0408449Y0517564D01*
X0408874Y0517139D01*
X0408874Y0516290D01*
X0408025Y0515441D01*
X0407175Y0515441D01*
X0406751Y0516715D02*
X0405902Y0516715D01*
X0405477Y0517139D01*
X0405477Y0517989D01*
X0406326Y0518838D01*
X0407175Y0518838D01*
X0407600Y0518413D01*
X0407600Y0517564D01*
X0576415Y0421318D02*
X0576415Y0418915D01*
X0577016Y0418315D01*
X0578217Y0418315D01*
X0578818Y0418915D01*
X0580099Y0418315D02*
X0582501Y0420717D01*
X0582501Y0421318D01*
X0581900Y0421918D01*
X0580699Y0421918D01*
X0580099Y0421318D01*
X0578818Y0421318D02*
X0578217Y0421918D01*
X0577016Y0421918D01*
X0576415Y0421318D01*
X0580099Y0418315D02*
X0582501Y0418315D01*
X0583782Y0418915D02*
X0584382Y0418315D01*
X0585583Y0418315D01*
X0586184Y0418915D01*
X0586184Y0421318D01*
X0585583Y0421918D01*
X0584382Y0421918D01*
X0583782Y0421318D01*
X0583782Y0420717D01*
X0584382Y0420116D01*
X0586184Y0420116D01*
X0585835Y0431346D02*
X0587036Y0431346D01*
X0587636Y0431947D01*
X0588918Y0431346D02*
X0591320Y0433748D01*
X0591320Y0434349D01*
X0590719Y0434950D01*
X0589518Y0434950D01*
X0588918Y0434349D01*
X0587636Y0434349D02*
X0587036Y0434950D01*
X0585835Y0434950D01*
X0585234Y0434349D01*
X0585234Y0431947D01*
X0585835Y0431346D01*
X0588918Y0431346D02*
X0591320Y0431346D01*
X0592601Y0431947D02*
X0593201Y0431346D01*
X0594402Y0431346D01*
X0595003Y0431947D01*
X0595003Y0432547D01*
X0594402Y0433148D01*
X0592601Y0433148D01*
X0592601Y0431947D01*
X0592601Y0433148D02*
X0593802Y0434349D01*
X0595003Y0434950D01*
X0626126Y0439057D02*
X0626727Y0438457D01*
X0627928Y0438457D01*
X0628528Y0439057D01*
X0629809Y0438457D02*
X0632212Y0440859D01*
X0632212Y0441459D01*
X0631611Y0442060D01*
X0630410Y0442060D01*
X0629809Y0441459D01*
X0628528Y0441459D02*
X0627928Y0442060D01*
X0626727Y0442060D01*
X0626126Y0441459D01*
X0626126Y0439057D01*
X0629809Y0438457D02*
X0632212Y0438457D01*
X0633493Y0438457D02*
X0633493Y0439057D01*
X0635895Y0441459D01*
X0635895Y0442060D01*
X0633493Y0442060D01*
X0624428Y0469066D02*
X0626976Y0471614D01*
X0624428Y0471614D01*
X0626126Y0469915D01*
X0623522Y0472520D02*
X0622673Y0472520D01*
X0621399Y0473794D01*
X0622248Y0472944D02*
X0622248Y0471246D01*
X0623522Y0472520D02*
X0624371Y0473369D01*
X0624371Y0474218D01*
X0623097Y0475492D01*
X0620550Y0472944D01*
X0610890Y0482256D02*
X0609191Y0482256D01*
X0609616Y0482680D02*
X0608342Y0481406D01*
X0609191Y0480557D02*
X0606644Y0483105D01*
X0607918Y0484379D01*
X0608767Y0484379D01*
X0609616Y0483530D01*
X0609616Y0482680D01*
X0611371Y0483586D02*
X0612220Y0483586D01*
X0613070Y0484435D01*
X0613070Y0485285D01*
X0612645Y0485709D01*
X0611796Y0485709D01*
X0610522Y0484435D01*
X0611371Y0483586D01*
X0610522Y0484435D02*
X0610522Y0486134D01*
X0610947Y0487408D01*
X0620970Y0515398D02*
X0619272Y0517096D01*
X0620121Y0516247D02*
X0622669Y0518795D01*
X0620970Y0518795D01*
X0618366Y0518002D02*
X0616668Y0519700D01*
X0617517Y0518851D02*
X0620065Y0521399D01*
X0618366Y0521399D01*
X0617885Y0522729D02*
X0617885Y0523579D01*
X0617036Y0524428D01*
X0616186Y0524428D01*
X0614488Y0522729D01*
X0614488Y0521880D01*
X0615337Y0521031D01*
X0616186Y0521031D01*
X0659440Y0481823D02*
X0661611Y0479653D01*
X0667792Y0473471D02*
X0669962Y0471301D01*
X0669962Y0473471D02*
X0667792Y0471301D01*
X0559845Y0388099D02*
X0558644Y0387499D01*
X0557443Y0386298D01*
X0559245Y0386298D01*
X0559845Y0385697D01*
X0559845Y0385097D01*
X0559245Y0384496D01*
X0558044Y0384496D01*
X0557443Y0385097D01*
X0557443Y0386298D01*
X0556162Y0387499D02*
X0555562Y0388099D01*
X0554361Y0388099D01*
X0553760Y0387499D01*
X0553760Y0385097D01*
X0554361Y0384496D01*
X0555562Y0384496D01*
X0556162Y0385097D01*
X0533482Y0377595D02*
X0533482Y0375193D01*
X0531080Y0377595D01*
X0530480Y0377595D01*
X0529879Y0376995D01*
X0529879Y0375794D01*
X0530480Y0375193D01*
X0530480Y0373912D02*
X0529879Y0373311D01*
X0529879Y0372110D01*
X0530480Y0371510D01*
X0530480Y0370229D02*
X0529879Y0369628D01*
X0529879Y0368427D01*
X0530480Y0367827D01*
X0532882Y0367827D01*
X0533482Y0368427D01*
X0533482Y0369628D01*
X0532882Y0370229D01*
X0533482Y0371510D02*
X0531080Y0373912D01*
X0530480Y0373912D01*
X0533482Y0373912D02*
X0533482Y0371510D01*
X0527915Y0370601D02*
X0527915Y0368199D01*
X0527915Y0369400D02*
X0524312Y0369400D01*
X0525513Y0368199D01*
X0525513Y0366918D02*
X0524913Y0366918D01*
X0524312Y0366317D01*
X0524312Y0365116D01*
X0524913Y0364516D01*
X0524913Y0363234D02*
X0524312Y0362634D01*
X0524312Y0361433D01*
X0524913Y0360832D01*
X0527315Y0360832D01*
X0527915Y0361433D01*
X0527915Y0362634D01*
X0527315Y0363234D01*
X0527915Y0364516D02*
X0525513Y0366918D01*
X0527915Y0366918D02*
X0527915Y0364516D01*
X0513472Y0384756D02*
X0514073Y0385356D01*
X0514073Y0386557D01*
X0513472Y0387158D01*
X0514073Y0388439D02*
X0514073Y0390841D01*
X0514073Y0389640D02*
X0510470Y0389640D01*
X0511671Y0388439D01*
X0511070Y0387158D02*
X0510470Y0386557D01*
X0510470Y0385356D01*
X0511070Y0384756D01*
X0513472Y0384756D01*
X0513472Y0392122D02*
X0514073Y0392723D01*
X0514073Y0393924D01*
X0513472Y0394524D01*
X0511070Y0394524D01*
X0510470Y0393924D01*
X0510470Y0392723D01*
X0511070Y0392122D01*
X0511671Y0392122D01*
X0512271Y0392723D01*
X0512271Y0394524D01*
X0504309Y0394042D02*
X0504309Y0392841D01*
X0503709Y0392240D01*
X0501306Y0394642D01*
X0503709Y0394642D01*
X0504309Y0394042D01*
X0503709Y0392240D02*
X0501306Y0392240D01*
X0500706Y0392841D01*
X0500706Y0394042D01*
X0501306Y0394642D01*
X0501306Y0390959D02*
X0500706Y0390359D01*
X0500706Y0389158D01*
X0501306Y0388557D01*
X0501306Y0387276D02*
X0500706Y0386676D01*
X0500706Y0385475D01*
X0501306Y0384874D01*
X0503709Y0384874D01*
X0504309Y0385475D01*
X0504309Y0386676D01*
X0503709Y0387276D01*
X0504309Y0388557D02*
X0501907Y0390959D01*
X0501306Y0390959D01*
X0504309Y0390959D02*
X0504309Y0388557D01*
X0495175Y0388282D02*
X0495175Y0390684D01*
X0495175Y0389483D02*
X0491572Y0389483D01*
X0492773Y0388282D01*
X0492173Y0387000D02*
X0491572Y0386400D01*
X0491572Y0385199D01*
X0492173Y0384598D01*
X0494575Y0384598D01*
X0495175Y0385199D01*
X0495175Y0386400D01*
X0494575Y0387000D01*
X0494575Y0391965D02*
X0495175Y0391965D01*
X0494575Y0391965D02*
X0492173Y0394367D01*
X0491572Y0394367D01*
X0491572Y0391965D01*
X0490608Y0366747D02*
X0490608Y0364345D01*
X0488206Y0366747D01*
X0487606Y0366747D01*
X0487005Y0366146D01*
X0487005Y0364945D01*
X0487606Y0364345D01*
X0487606Y0363063D02*
X0488807Y0363063D01*
X0489407Y0362463D01*
X0489407Y0360661D01*
X0490608Y0360661D02*
X0487005Y0360661D01*
X0487005Y0362463D01*
X0487606Y0363063D01*
X0489407Y0361862D02*
X0490608Y0363063D01*
X0495976Y0323790D02*
X0496576Y0323790D01*
X0497177Y0323189D01*
X0497777Y0323790D01*
X0498378Y0323790D01*
X0498978Y0323189D01*
X0498978Y0321988D01*
X0498378Y0321388D01*
X0498978Y0320107D02*
X0497777Y0318906D01*
X0497777Y0319506D02*
X0497777Y0317705D01*
X0498978Y0317705D02*
X0495375Y0317705D01*
X0495375Y0319506D01*
X0495976Y0320107D01*
X0497177Y0320107D01*
X0497777Y0319506D01*
X0495976Y0321388D02*
X0495375Y0321988D01*
X0495375Y0323189D01*
X0495976Y0323790D01*
X0497177Y0323189D02*
X0497177Y0322589D01*
X0555256Y0358246D02*
X0555256Y0360648D01*
X0555857Y0361249D01*
X0557058Y0361249D01*
X0557658Y0360648D01*
X0558939Y0361249D02*
X0558939Y0359447D01*
X0560140Y0360048D01*
X0560741Y0360048D01*
X0561341Y0359447D01*
X0561341Y0358246D01*
X0560741Y0357646D01*
X0559540Y0357646D01*
X0558939Y0358246D01*
X0557658Y0358246D02*
X0557058Y0357646D01*
X0555857Y0357646D01*
X0555256Y0358246D01*
X0558939Y0361249D02*
X0561341Y0361249D01*
X0612974Y0315630D02*
X0613574Y0316231D01*
X0614175Y0316231D01*
X0614775Y0315630D01*
X0614775Y0314429D01*
X0614175Y0313829D01*
X0613574Y0313829D01*
X0612974Y0314429D01*
X0612974Y0315630D01*
X0614775Y0315630D02*
X0615376Y0316231D01*
X0615976Y0316231D01*
X0616577Y0315630D01*
X0616577Y0314429D01*
X0615976Y0313829D01*
X0615376Y0313829D01*
X0614775Y0314429D01*
X0614175Y0312548D02*
X0616577Y0310146D01*
X0616577Y0312548D01*
X0614175Y0312548D02*
X0613574Y0312548D01*
X0612974Y0311947D01*
X0612974Y0310746D01*
X0613574Y0310146D01*
X0613574Y0308864D02*
X0612974Y0308264D01*
X0612974Y0307063D01*
X0613574Y0306462D01*
X0615976Y0306462D01*
X0616577Y0307063D01*
X0616577Y0308264D01*
X0615976Y0308864D01*
X0673681Y0350963D02*
X0674282Y0350362D01*
X0675483Y0350362D01*
X0676083Y0350963D01*
X0677364Y0350963D02*
X0677364Y0351563D01*
X0677965Y0352164D01*
X0679166Y0352164D01*
X0679766Y0351563D01*
X0679766Y0350963D01*
X0679166Y0350362D01*
X0677965Y0350362D01*
X0677364Y0350963D01*
X0677965Y0352164D02*
X0677364Y0352764D01*
X0677364Y0353365D01*
X0677965Y0353965D01*
X0679166Y0353965D01*
X0679766Y0353365D01*
X0679766Y0352764D01*
X0679166Y0352164D01*
X0676083Y0353365D02*
X0675483Y0353965D01*
X0674282Y0353965D01*
X0673681Y0353365D01*
X0673681Y0350963D01*
X0687241Y0326018D02*
X0690844Y0326018D01*
X0690844Y0324817D02*
X0690844Y0327219D01*
X0688442Y0324817D02*
X0687241Y0326018D01*
X0687842Y0323536D02*
X0687241Y0322935D01*
X0687241Y0321134D01*
X0690844Y0321134D01*
X0689643Y0321134D02*
X0689643Y0322935D01*
X0689043Y0323536D01*
X0687842Y0323536D01*
X0689643Y0322335D02*
X0690844Y0323536D01*
X0696373Y0379835D02*
X0697574Y0379835D01*
X0698174Y0380435D01*
X0699455Y0379835D02*
X0701857Y0379835D01*
X0700656Y0379835D02*
X0700656Y0383438D01*
X0699455Y0382237D01*
X0698174Y0382837D02*
X0697574Y0383438D01*
X0696373Y0383438D01*
X0695772Y0382837D01*
X0695772Y0380435D01*
X0696373Y0379835D01*
X0703138Y0379835D02*
X0705540Y0382237D01*
X0705540Y0382837D01*
X0704940Y0383438D01*
X0703739Y0383438D01*
X0703138Y0382837D01*
X0703138Y0379835D02*
X0705540Y0379835D01*
X0688767Y0243956D02*
X0688767Y0241408D01*
X0690466Y0243107D01*
X0691315Y0241408D02*
X0688767Y0243956D01*
X0685738Y0240927D02*
X0688286Y0238379D01*
X0687437Y0237530D02*
X0689135Y0239229D01*
X0685738Y0239229D02*
X0685738Y0240927D01*
X0684408Y0238747D02*
X0683558Y0238747D01*
X0682709Y0237898D01*
X0682709Y0237049D01*
X0684408Y0235350D01*
X0685257Y0235350D01*
X0686106Y0236200D01*
X0686106Y0237049D01*
X0645446Y0220612D02*
X0645021Y0220187D01*
X0641624Y0220187D01*
X0641200Y0219762D01*
X0640294Y0220668D02*
X0640294Y0222367D01*
X0640718Y0221942D02*
X0639444Y0223216D01*
X0638595Y0222367D02*
X0641143Y0224914D01*
X0642417Y0223641D01*
X0642417Y0222791D01*
X0641568Y0221942D01*
X0640718Y0221942D01*
X0643747Y0222310D02*
X0645446Y0220612D01*
X0622133Y0222969D02*
X0621709Y0222545D01*
X0620859Y0222545D01*
X0620010Y0223394D01*
X0620010Y0224243D01*
X0620435Y0224668D01*
X0621284Y0224668D01*
X0622133Y0223819D01*
X0622133Y0222969D01*
X0620859Y0222545D02*
X0620859Y0221695D01*
X0620435Y0221271D01*
X0619585Y0221271D01*
X0618736Y0222120D01*
X0618736Y0222969D01*
X0619161Y0223394D01*
X0620010Y0223394D01*
X0618680Y0224724D02*
X0617830Y0224724D01*
X0616556Y0225998D01*
X0615707Y0225149D02*
X0618255Y0227697D01*
X0619529Y0226423D01*
X0619529Y0225574D01*
X0618680Y0224724D01*
X0617406Y0225149D02*
X0617406Y0223451D01*
X0651735Y0194025D02*
X0653906Y0191855D01*
X0653906Y0194025D02*
X0651735Y0191855D01*
X0645554Y0185673D02*
X0643384Y0183503D01*
X0540580Y0171184D02*
X0538178Y0168782D01*
X0538778Y0168181D01*
X0539979Y0168181D01*
X0540580Y0168782D01*
X0540580Y0171184D01*
X0539979Y0171784D01*
X0538778Y0171784D01*
X0538178Y0171184D01*
X0538178Y0168782D01*
X0536897Y0168181D02*
X0534495Y0168181D01*
X0535696Y0168181D02*
X0535696Y0171784D01*
X0534495Y0170583D01*
X0533213Y0171184D02*
X0532613Y0171784D01*
X0531412Y0171784D01*
X0530811Y0171184D01*
X0530811Y0168782D01*
X0531412Y0168181D01*
X0532613Y0168181D01*
X0533213Y0168782D01*
X0418496Y0238353D02*
X0417646Y0237504D01*
X0416797Y0237504D01*
X0416797Y0240901D01*
X0418496Y0239202D01*
X0418496Y0238353D01*
X0416797Y0237504D02*
X0415099Y0239202D01*
X0415099Y0240052D01*
X0415948Y0240901D01*
X0416797Y0240901D01*
X0416316Y0236173D02*
X0414618Y0234475D01*
X0415467Y0235324D02*
X0412919Y0237872D01*
X0412919Y0236173D01*
X0411589Y0235692D02*
X0412438Y0234843D01*
X0412438Y0233994D01*
X0411164Y0232720D01*
X0412013Y0233569D02*
X0413712Y0233569D01*
X0412013Y0231870D02*
X0409465Y0234418D01*
X0410739Y0235692D01*
X0411589Y0235692D01*
X0389015Y0237900D02*
X0389015Y0238749D01*
X0387316Y0240448D01*
X0386467Y0240448D01*
X0385618Y0239599D01*
X0385618Y0238749D01*
X0386042Y0238325D01*
X0386891Y0238325D01*
X0388165Y0239599D01*
X0389015Y0237900D02*
X0388165Y0237051D01*
X0387316Y0237051D01*
X0386835Y0235720D02*
X0385136Y0235720D01*
X0385561Y0236145D02*
X0384287Y0234871D01*
X0385136Y0234022D02*
X0382589Y0236570D01*
X0383862Y0237843D01*
X0384712Y0237843D01*
X0385561Y0236994D01*
X0385561Y0236145D01*
X0364959Y0220928D02*
X0362789Y0223099D01*
X0356607Y0229280D02*
X0354437Y0231450D01*
X0356607Y0231450D02*
X0354437Y0229280D01*
X0399246Y0181159D02*
X0397548Y0179460D01*
X0397548Y0178611D01*
X0398397Y0177762D01*
X0399246Y0177762D01*
X0399727Y0176431D02*
X0401426Y0174733D01*
X0400577Y0175582D02*
X0403124Y0178130D01*
X0401426Y0178130D01*
X0400945Y0179460D02*
X0400945Y0180310D01*
X0400095Y0181159D01*
X0399246Y0181159D01*
X0403606Y0175101D02*
X0404879Y0173827D01*
X0404879Y0172978D01*
X0404455Y0172553D01*
X0403606Y0172553D01*
X0402756Y0173402D01*
X0402756Y0174252D01*
X0403606Y0175101D01*
X0405304Y0175101D01*
X0406578Y0174676D01*
X0323482Y0328417D02*
X0319879Y0328417D01*
X0319879Y0330219D01*
X0320480Y0330819D01*
X0321080Y0330819D01*
X0321681Y0330219D01*
X0321681Y0328417D01*
X0323482Y0328417D02*
X0323482Y0330219D01*
X0322882Y0330819D01*
X0322281Y0330819D01*
X0321681Y0330219D01*
X0322281Y0332100D02*
X0322281Y0333902D01*
X0321681Y0334503D01*
X0320480Y0334503D01*
X0319879Y0333902D01*
X0319879Y0332100D01*
X0323482Y0332100D01*
X0322281Y0333301D02*
X0323482Y0334503D01*
X0323482Y0335784D02*
X0323482Y0338186D01*
X0323482Y0339467D02*
X0321080Y0339467D01*
X0319879Y0340668D01*
X0321080Y0341869D01*
X0323482Y0341869D01*
X0323482Y0343150D02*
X0319879Y0343150D01*
X0321681Y0343750D02*
X0323482Y0345552D01*
X0322882Y0346833D02*
X0320480Y0346833D01*
X0319879Y0347434D01*
X0319879Y0348635D01*
X0320480Y0349235D01*
X0322882Y0349235D01*
X0323482Y0348635D01*
X0323482Y0347434D01*
X0322882Y0346833D01*
X0319879Y0345552D02*
X0322281Y0343150D01*
X0321681Y0341869D02*
X0321681Y0339467D01*
X0319879Y0338186D02*
X0319879Y0335784D01*
X0323482Y0335784D01*
X0321681Y0335784D02*
X0321681Y0336985D01*
X0322882Y0350516D02*
X0319879Y0350516D01*
X0319879Y0352918D02*
X0322882Y0352918D01*
X0323482Y0352318D01*
X0323482Y0351117D01*
X0322882Y0350516D01*
X0319879Y0354199D02*
X0319879Y0356601D01*
X0319879Y0355400D02*
X0323482Y0355400D01*
X0324083Y0357882D02*
X0324083Y0360285D01*
X0323482Y0361566D02*
X0319879Y0361566D01*
X0321681Y0361566D02*
X0321681Y0363968D01*
X0321681Y0365249D02*
X0321681Y0366450D01*
X0323482Y0365249D02*
X0323482Y0367651D01*
X0323482Y0368932D02*
X0321080Y0368932D01*
X0319879Y0370133D01*
X0321080Y0371334D01*
X0323482Y0371334D01*
X0323482Y0372615D02*
X0323482Y0374417D01*
X0322882Y0375017D01*
X0320480Y0375017D01*
X0319879Y0374417D01*
X0319879Y0372615D01*
X0323482Y0372615D01*
X0321681Y0371334D02*
X0321681Y0368932D01*
X0319879Y0367651D02*
X0319879Y0365249D01*
X0323482Y0365249D01*
X0323482Y0363968D02*
X0319879Y0363968D01*
X0319879Y0376298D02*
X0323482Y0376298D01*
X0323482Y0378700D01*
X0323482Y0379981D02*
X0319879Y0379981D01*
X0319879Y0381783D01*
X0320480Y0382383D01*
X0321681Y0382383D01*
X0322281Y0381783D01*
X0322281Y0379981D01*
X0322281Y0381182D02*
X0323482Y0382383D01*
X0319879Y0378700D02*
X0319879Y0376298D01*
X0321681Y0376298D02*
X0321681Y0377499D01*
X0416415Y0357381D02*
X0416415Y0354978D01*
X0417016Y0354378D01*
X0418217Y0354378D01*
X0418818Y0354978D01*
X0420099Y0354378D02*
X0422501Y0356780D01*
X0422501Y0357381D01*
X0421900Y0357981D01*
X0420699Y0357981D01*
X0420099Y0357381D01*
X0418818Y0357381D02*
X0418217Y0357981D01*
X0417016Y0357981D01*
X0416415Y0357381D01*
X0420099Y0354378D02*
X0422501Y0354378D01*
X0423782Y0354978D02*
X0424382Y0354378D01*
X0425583Y0354378D01*
X0426184Y0354978D01*
X0426184Y0355579D01*
X0425583Y0356179D01*
X0424983Y0356179D01*
X0425583Y0356179D02*
X0426184Y0356780D01*
X0426184Y0357381D01*
X0425583Y0357981D01*
X0424382Y0357981D01*
X0423782Y0357381D01*
X0424757Y0342784D02*
X0422955Y0340983D01*
X0425357Y0340983D01*
X0424757Y0342784D02*
X0424757Y0339181D01*
X0421674Y0339181D02*
X0419272Y0339181D01*
X0421674Y0341583D01*
X0421674Y0342184D01*
X0421073Y0342784D01*
X0419872Y0342784D01*
X0419272Y0342184D01*
X0417991Y0342184D02*
X0417390Y0342784D01*
X0416189Y0342784D01*
X0415589Y0342184D01*
X0415589Y0339782D01*
X0416189Y0339181D01*
X0417390Y0339181D01*
X0417991Y0339782D01*
X0421110Y0394299D02*
X0422312Y0394299D01*
X0422912Y0394900D01*
X0424193Y0394299D02*
X0426595Y0396701D01*
X0426595Y0397302D01*
X0425995Y0397902D01*
X0424794Y0397902D01*
X0424193Y0397302D01*
X0422912Y0397302D02*
X0422312Y0397902D01*
X0421110Y0397902D01*
X0420510Y0397302D01*
X0420510Y0394900D01*
X0421110Y0394299D01*
X0424193Y0394299D02*
X0426595Y0394299D01*
X0427876Y0394900D02*
X0428477Y0394299D01*
X0429678Y0394299D01*
X0430278Y0394900D01*
X0430278Y0396101D01*
X0429678Y0396701D01*
X0429077Y0396701D01*
X0427876Y0396101D01*
X0427876Y0397902D01*
X0430278Y0397902D01*
D17*
X0334773Y0463622D02*
X0334775Y0463661D01*
X0334781Y0463700D01*
X0334791Y0463738D01*
X0334804Y0463775D01*
X0334821Y0463810D01*
X0334841Y0463844D01*
X0334865Y0463875D01*
X0334892Y0463904D01*
X0334921Y0463930D01*
X0334953Y0463953D01*
X0334987Y0463973D01*
X0335023Y0463989D01*
X0335060Y0464001D01*
X0335099Y0464010D01*
X0335138Y0464015D01*
X0335177Y0464016D01*
X0335216Y0464013D01*
X0335255Y0464006D01*
X0335292Y0463995D01*
X0335329Y0463981D01*
X0335364Y0463963D01*
X0335397Y0463942D01*
X0335428Y0463917D01*
X0335456Y0463890D01*
X0335481Y0463860D01*
X0335503Y0463827D01*
X0335522Y0463793D01*
X0335537Y0463757D01*
X0335549Y0463719D01*
X0335557Y0463681D01*
X0335561Y0463642D01*
X0335561Y0463602D01*
X0335557Y0463563D01*
X0335549Y0463525D01*
X0335537Y0463487D01*
X0335522Y0463451D01*
X0335503Y0463417D01*
X0335481Y0463384D01*
X0335456Y0463354D01*
X0335428Y0463327D01*
X0335397Y0463302D01*
X0335364Y0463281D01*
X0335329Y0463263D01*
X0335292Y0463249D01*
X0335255Y0463238D01*
X0335216Y0463231D01*
X0335177Y0463228D01*
X0335138Y0463229D01*
X0335099Y0463234D01*
X0335060Y0463243D01*
X0335023Y0463255D01*
X0334987Y0463271D01*
X0334953Y0463291D01*
X0334921Y0463314D01*
X0334892Y0463340D01*
X0334865Y0463369D01*
X0334841Y0463400D01*
X0334821Y0463434D01*
X0334804Y0463469D01*
X0334791Y0463506D01*
X0334781Y0463544D01*
X0334775Y0463583D01*
X0334773Y0463622D01*
X0374479Y0482006D02*
X0374481Y0482045D01*
X0374487Y0482084D01*
X0374497Y0482122D01*
X0374510Y0482159D01*
X0374527Y0482194D01*
X0374547Y0482228D01*
X0374571Y0482259D01*
X0374598Y0482288D01*
X0374627Y0482314D01*
X0374659Y0482337D01*
X0374693Y0482357D01*
X0374729Y0482373D01*
X0374766Y0482385D01*
X0374805Y0482394D01*
X0374844Y0482399D01*
X0374883Y0482400D01*
X0374922Y0482397D01*
X0374961Y0482390D01*
X0374998Y0482379D01*
X0375035Y0482365D01*
X0375070Y0482347D01*
X0375103Y0482326D01*
X0375134Y0482301D01*
X0375162Y0482274D01*
X0375187Y0482244D01*
X0375209Y0482211D01*
X0375228Y0482177D01*
X0375243Y0482141D01*
X0375255Y0482103D01*
X0375263Y0482065D01*
X0375267Y0482026D01*
X0375267Y0481986D01*
X0375263Y0481947D01*
X0375255Y0481909D01*
X0375243Y0481871D01*
X0375228Y0481835D01*
X0375209Y0481801D01*
X0375187Y0481768D01*
X0375162Y0481738D01*
X0375134Y0481711D01*
X0375103Y0481686D01*
X0375070Y0481665D01*
X0375035Y0481647D01*
X0374998Y0481633D01*
X0374961Y0481622D01*
X0374922Y0481615D01*
X0374883Y0481612D01*
X0374844Y0481613D01*
X0374805Y0481618D01*
X0374766Y0481627D01*
X0374729Y0481639D01*
X0374693Y0481655D01*
X0374659Y0481675D01*
X0374627Y0481698D01*
X0374598Y0481724D01*
X0374571Y0481753D01*
X0374547Y0481784D01*
X0374527Y0481818D01*
X0374510Y0481853D01*
X0374497Y0481890D01*
X0374487Y0481928D01*
X0374481Y0481967D01*
X0374479Y0482006D01*
X0651547Y0489801D02*
X0651549Y0489840D01*
X0651555Y0489879D01*
X0651565Y0489917D01*
X0651578Y0489954D01*
X0651595Y0489989D01*
X0651615Y0490023D01*
X0651639Y0490054D01*
X0651666Y0490083D01*
X0651695Y0490109D01*
X0651727Y0490132D01*
X0651761Y0490152D01*
X0651797Y0490168D01*
X0651834Y0490180D01*
X0651873Y0490189D01*
X0651912Y0490194D01*
X0651951Y0490195D01*
X0651990Y0490192D01*
X0652029Y0490185D01*
X0652066Y0490174D01*
X0652103Y0490160D01*
X0652138Y0490142D01*
X0652171Y0490121D01*
X0652202Y0490096D01*
X0652230Y0490069D01*
X0652255Y0490039D01*
X0652277Y0490006D01*
X0652296Y0489972D01*
X0652311Y0489936D01*
X0652323Y0489898D01*
X0652331Y0489860D01*
X0652335Y0489821D01*
X0652335Y0489781D01*
X0652331Y0489742D01*
X0652323Y0489704D01*
X0652311Y0489666D01*
X0652296Y0489630D01*
X0652277Y0489596D01*
X0652255Y0489563D01*
X0652230Y0489533D01*
X0652202Y0489506D01*
X0652171Y0489481D01*
X0652138Y0489460D01*
X0652103Y0489442D01*
X0652066Y0489428D01*
X0652029Y0489417D01*
X0651990Y0489410D01*
X0651951Y0489407D01*
X0651912Y0489408D01*
X0651873Y0489413D01*
X0651834Y0489422D01*
X0651797Y0489434D01*
X0651761Y0489450D01*
X0651727Y0489470D01*
X0651695Y0489493D01*
X0651666Y0489519D01*
X0651639Y0489548D01*
X0651615Y0489579D01*
X0651595Y0489613D01*
X0651578Y0489648D01*
X0651565Y0489685D01*
X0651555Y0489723D01*
X0651549Y0489762D01*
X0651547Y0489801D01*
X0666606Y0469213D02*
X0666608Y0469252D01*
X0666614Y0469291D01*
X0666624Y0469329D01*
X0666637Y0469366D01*
X0666654Y0469401D01*
X0666674Y0469435D01*
X0666698Y0469466D01*
X0666725Y0469495D01*
X0666754Y0469521D01*
X0666786Y0469544D01*
X0666820Y0469564D01*
X0666856Y0469580D01*
X0666893Y0469592D01*
X0666932Y0469601D01*
X0666971Y0469606D01*
X0667010Y0469607D01*
X0667049Y0469604D01*
X0667088Y0469597D01*
X0667125Y0469586D01*
X0667162Y0469572D01*
X0667197Y0469554D01*
X0667230Y0469533D01*
X0667261Y0469508D01*
X0667289Y0469481D01*
X0667314Y0469451D01*
X0667336Y0469418D01*
X0667355Y0469384D01*
X0667370Y0469348D01*
X0667382Y0469310D01*
X0667390Y0469272D01*
X0667394Y0469233D01*
X0667394Y0469193D01*
X0667390Y0469154D01*
X0667382Y0469116D01*
X0667370Y0469078D01*
X0667355Y0469042D01*
X0667336Y0469008D01*
X0667314Y0468975D01*
X0667289Y0468945D01*
X0667261Y0468918D01*
X0667230Y0468893D01*
X0667197Y0468872D01*
X0667162Y0468854D01*
X0667125Y0468840D01*
X0667088Y0468829D01*
X0667049Y0468822D01*
X0667010Y0468819D01*
X0666971Y0468820D01*
X0666932Y0468825D01*
X0666893Y0468834D01*
X0666856Y0468846D01*
X0666820Y0468862D01*
X0666786Y0468882D01*
X0666754Y0468905D01*
X0666725Y0468931D01*
X0666698Y0468960D01*
X0666674Y0468991D01*
X0666654Y0469025D01*
X0666637Y0469060D01*
X0666624Y0469097D01*
X0666614Y0469135D01*
X0666608Y0469174D01*
X0666606Y0469213D01*
X0337962Y0231001D02*
X0337964Y0231040D01*
X0337970Y0231079D01*
X0337980Y0231117D01*
X0337993Y0231154D01*
X0338010Y0231189D01*
X0338030Y0231223D01*
X0338054Y0231254D01*
X0338081Y0231283D01*
X0338110Y0231309D01*
X0338142Y0231332D01*
X0338176Y0231352D01*
X0338212Y0231368D01*
X0338249Y0231380D01*
X0338288Y0231389D01*
X0338327Y0231394D01*
X0338366Y0231395D01*
X0338405Y0231392D01*
X0338444Y0231385D01*
X0338481Y0231374D01*
X0338518Y0231360D01*
X0338553Y0231342D01*
X0338586Y0231321D01*
X0338617Y0231296D01*
X0338645Y0231269D01*
X0338670Y0231239D01*
X0338692Y0231206D01*
X0338711Y0231172D01*
X0338726Y0231136D01*
X0338738Y0231098D01*
X0338746Y0231060D01*
X0338750Y0231021D01*
X0338750Y0230981D01*
X0338746Y0230942D01*
X0338738Y0230904D01*
X0338726Y0230866D01*
X0338711Y0230830D01*
X0338692Y0230796D01*
X0338670Y0230763D01*
X0338645Y0230733D01*
X0338617Y0230706D01*
X0338586Y0230681D01*
X0338553Y0230660D01*
X0338518Y0230642D01*
X0338481Y0230628D01*
X0338444Y0230617D01*
X0338405Y0230610D01*
X0338366Y0230607D01*
X0338327Y0230608D01*
X0338288Y0230613D01*
X0338249Y0230622D01*
X0338212Y0230634D01*
X0338176Y0230650D01*
X0338142Y0230670D01*
X0338110Y0230693D01*
X0338081Y0230719D01*
X0338054Y0230748D01*
X0338030Y0230779D01*
X0338010Y0230813D01*
X0337993Y0230848D01*
X0337980Y0230885D01*
X0337970Y0230923D01*
X0337964Y0230962D01*
X0337962Y0231001D01*
X0368927Y0206555D02*
X0368929Y0206594D01*
X0368935Y0206633D01*
X0368945Y0206671D01*
X0368958Y0206708D01*
X0368975Y0206743D01*
X0368995Y0206777D01*
X0369019Y0206808D01*
X0369046Y0206837D01*
X0369075Y0206863D01*
X0369107Y0206886D01*
X0369141Y0206906D01*
X0369177Y0206922D01*
X0369214Y0206934D01*
X0369253Y0206943D01*
X0369292Y0206948D01*
X0369331Y0206949D01*
X0369370Y0206946D01*
X0369409Y0206939D01*
X0369446Y0206928D01*
X0369483Y0206914D01*
X0369518Y0206896D01*
X0369551Y0206875D01*
X0369582Y0206850D01*
X0369610Y0206823D01*
X0369635Y0206793D01*
X0369657Y0206760D01*
X0369676Y0206726D01*
X0369691Y0206690D01*
X0369703Y0206652D01*
X0369711Y0206614D01*
X0369715Y0206575D01*
X0369715Y0206535D01*
X0369711Y0206496D01*
X0369703Y0206458D01*
X0369691Y0206420D01*
X0369676Y0206384D01*
X0369657Y0206350D01*
X0369635Y0206317D01*
X0369610Y0206287D01*
X0369582Y0206260D01*
X0369551Y0206235D01*
X0369518Y0206214D01*
X0369483Y0206196D01*
X0369446Y0206182D01*
X0369409Y0206171D01*
X0369370Y0206164D01*
X0369331Y0206161D01*
X0369292Y0206162D01*
X0369253Y0206167D01*
X0369214Y0206176D01*
X0369177Y0206188D01*
X0369141Y0206204D01*
X0369107Y0206224D01*
X0369075Y0206247D01*
X0369046Y0206273D01*
X0369019Y0206302D01*
X0368995Y0206333D01*
X0368975Y0206367D01*
X0368958Y0206402D01*
X0368945Y0206439D01*
X0368935Y0206477D01*
X0368929Y0206516D01*
X0368927Y0206555D01*
X0632945Y0176435D02*
X0632947Y0176474D01*
X0632953Y0176513D01*
X0632963Y0176551D01*
X0632976Y0176588D01*
X0632993Y0176623D01*
X0633013Y0176657D01*
X0633037Y0176688D01*
X0633064Y0176717D01*
X0633093Y0176743D01*
X0633125Y0176766D01*
X0633159Y0176786D01*
X0633195Y0176802D01*
X0633232Y0176814D01*
X0633271Y0176823D01*
X0633310Y0176828D01*
X0633349Y0176829D01*
X0633388Y0176826D01*
X0633427Y0176819D01*
X0633464Y0176808D01*
X0633501Y0176794D01*
X0633536Y0176776D01*
X0633569Y0176755D01*
X0633600Y0176730D01*
X0633628Y0176703D01*
X0633653Y0176673D01*
X0633675Y0176640D01*
X0633694Y0176606D01*
X0633709Y0176570D01*
X0633721Y0176532D01*
X0633729Y0176494D01*
X0633733Y0176455D01*
X0633733Y0176415D01*
X0633729Y0176376D01*
X0633721Y0176338D01*
X0633709Y0176300D01*
X0633694Y0176264D01*
X0633675Y0176230D01*
X0633653Y0176197D01*
X0633628Y0176167D01*
X0633600Y0176140D01*
X0633569Y0176115D01*
X0633536Y0176094D01*
X0633501Y0176076D01*
X0633464Y0176062D01*
X0633427Y0176051D01*
X0633388Y0176044D01*
X0633349Y0176041D01*
X0633310Y0176042D01*
X0633271Y0176047D01*
X0633232Y0176056D01*
X0633195Y0176068D01*
X0633159Y0176084D01*
X0633125Y0176104D01*
X0633093Y0176127D01*
X0633064Y0176153D01*
X0633037Y0176182D01*
X0633013Y0176213D01*
X0632993Y0176247D01*
X0632976Y0176282D01*
X0632963Y0176319D01*
X0632953Y0176357D01*
X0632947Y0176396D01*
X0632945Y0176435D01*
X0656920Y0207124D02*
X0656922Y0207163D01*
X0656928Y0207202D01*
X0656938Y0207240D01*
X0656951Y0207277D01*
X0656968Y0207312D01*
X0656988Y0207346D01*
X0657012Y0207377D01*
X0657039Y0207406D01*
X0657068Y0207432D01*
X0657100Y0207455D01*
X0657134Y0207475D01*
X0657170Y0207491D01*
X0657207Y0207503D01*
X0657246Y0207512D01*
X0657285Y0207517D01*
X0657324Y0207518D01*
X0657363Y0207515D01*
X0657402Y0207508D01*
X0657439Y0207497D01*
X0657476Y0207483D01*
X0657511Y0207465D01*
X0657544Y0207444D01*
X0657575Y0207419D01*
X0657603Y0207392D01*
X0657628Y0207362D01*
X0657650Y0207329D01*
X0657669Y0207295D01*
X0657684Y0207259D01*
X0657696Y0207221D01*
X0657704Y0207183D01*
X0657708Y0207144D01*
X0657708Y0207104D01*
X0657704Y0207065D01*
X0657696Y0207027D01*
X0657684Y0206989D01*
X0657669Y0206953D01*
X0657650Y0206919D01*
X0657628Y0206886D01*
X0657603Y0206856D01*
X0657575Y0206829D01*
X0657544Y0206804D01*
X0657511Y0206783D01*
X0657476Y0206765D01*
X0657439Y0206751D01*
X0657402Y0206740D01*
X0657363Y0206733D01*
X0657324Y0206730D01*
X0657285Y0206731D01*
X0657246Y0206736D01*
X0657207Y0206745D01*
X0657170Y0206757D01*
X0657134Y0206773D01*
X0657100Y0206793D01*
X0657068Y0206816D01*
X0657039Y0206842D01*
X0657012Y0206871D01*
X0656988Y0206902D01*
X0656968Y0206936D01*
X0656951Y0206971D01*
X0656938Y0207008D01*
X0656928Y0207046D01*
X0656922Y0207085D01*
X0656920Y0207124D01*
D18*
X0689663Y0286332D02*
X0690149Y0286813D01*
X0690152Y0287297D01*
X0689670Y0287783D01*
X0687252Y0287796D01*
X0687249Y0287312D02*
X0687254Y0288280D01*
X0688227Y0289286D02*
X0687265Y0290259D01*
X0690167Y0290244D01*
X0690172Y0291211D02*
X0690162Y0289276D01*
X0430734Y0349852D02*
X0428799Y0349852D01*
X0429767Y0349852D02*
X0429767Y0352755D01*
X0428799Y0351787D01*
X0427788Y0349852D02*
X0425853Y0349852D01*
X0426820Y0349852D02*
X0426820Y0352755D01*
X0425853Y0351787D01*
X0424841Y0352271D02*
X0424357Y0352755D01*
X0423390Y0352755D01*
X0422906Y0352271D01*
X0422906Y0351787D01*
X0423390Y0351304D01*
X0424357Y0351304D01*
X0424841Y0350820D01*
X0424841Y0350336D01*
X0424357Y0349852D01*
X0423390Y0349852D01*
X0422906Y0350336D01*
X0421895Y0350336D02*
X0421895Y0352755D01*
X0419960Y0352755D02*
X0419960Y0350336D01*
X0420443Y0349852D01*
X0421411Y0349852D01*
X0421895Y0350336D01*
X0423874Y0349369D02*
X0423874Y0353239D01*
D19*
X0440060Y0371703D02*
X0440060Y0371713D01*
X0446438Y0371713D01*
X0446461Y0371703D01*
X0446438Y0375399D02*
X0446438Y0379224D01*
X0446438Y0382910D02*
X0440060Y0382910D01*
X0440084Y0379201D02*
X0440083Y0379163D01*
X0440084Y0375509D02*
X0440060Y0375400D01*
X0585575Y0391091D02*
X0586309Y0390357D01*
X0587777Y0390357D01*
X0588511Y0391091D01*
X0588511Y0394760D01*
X0590179Y0393293D02*
X0591647Y0394760D01*
X0591647Y0390357D01*
X0590179Y0390357D02*
X0593115Y0390357D01*
X0585575Y0391091D02*
X0585575Y0394760D01*
D20*
X0514316Y0347537D02*
X0514316Y0347354D01*
X0514132Y0347170D01*
X0514316Y0346987D01*
X0514316Y0346803D01*
X0514132Y0346620D01*
X0513765Y0346620D01*
X0513582Y0346803D01*
X0513211Y0346803D02*
X0513211Y0346987D01*
X0513027Y0347170D01*
X0512660Y0347170D01*
X0512477Y0347354D01*
X0512477Y0347537D01*
X0512660Y0347721D01*
X0513027Y0347721D01*
X0513211Y0347537D01*
X0513582Y0347537D02*
X0513765Y0347721D01*
X0514132Y0347721D01*
X0514316Y0347537D01*
X0514132Y0347170D02*
X0513949Y0347170D01*
X0513211Y0346803D02*
X0513027Y0346620D01*
X0512660Y0346620D01*
X0512477Y0346803D01*
X0512106Y0346803D02*
X0512106Y0347721D01*
X0511372Y0347721D02*
X0511372Y0346803D01*
X0511555Y0346620D01*
X0511922Y0346620D01*
X0512106Y0346803D01*
X0512844Y0346436D02*
X0512844Y0347904D01*
X0371205Y0442972D02*
X0370686Y0442453D01*
X0370686Y0443491D01*
X0370557Y0443621D01*
X0370297Y0443621D01*
X0370038Y0443361D01*
X0370038Y0443102D01*
X0369775Y0442840D02*
X0369516Y0442840D01*
X0369256Y0442580D01*
X0369256Y0442321D01*
X0369386Y0442191D01*
X0369645Y0442191D01*
X0369905Y0442450D01*
X0370164Y0442450D01*
X0370294Y0442321D01*
X0370294Y0442061D01*
X0370035Y0441802D01*
X0369775Y0441802D01*
X0369513Y0441539D02*
X0368864Y0442188D01*
X0368345Y0441669D02*
X0368994Y0441020D01*
X0369253Y0441020D01*
X0369513Y0441280D01*
X0369513Y0441539D01*
X0370294Y0441802D02*
X0369256Y0442840D01*
X0642548Y0476150D02*
X0642808Y0475891D01*
X0643067Y0475891D01*
X0643716Y0476539D01*
X0643849Y0476147D02*
X0644108Y0476147D01*
X0644368Y0475888D01*
X0644368Y0475628D01*
X0643978Y0475498D02*
X0643719Y0475758D01*
X0643719Y0476017D01*
X0643849Y0476147D01*
X0644368Y0476147D02*
X0643330Y0475109D01*
X0643589Y0475109D02*
X0643849Y0475109D01*
X0643978Y0475239D01*
X0643978Y0475498D01*
X0643589Y0475109D02*
X0643330Y0475369D01*
X0643330Y0475628D01*
X0642548Y0476150D02*
X0642548Y0476410D01*
X0643197Y0477058D01*
X0644760Y0475496D02*
X0644370Y0475106D01*
X0644760Y0474977D01*
X0644889Y0474847D01*
X0644889Y0474587D01*
X0644630Y0474328D01*
X0644370Y0474328D01*
X0644111Y0474587D01*
X0644111Y0474847D01*
X0644760Y0475496D02*
X0645279Y0474977D01*
X0375576Y0235612D02*
X0374538Y0234574D01*
X0374798Y0234574D02*
X0375057Y0234574D01*
X0375187Y0234704D01*
X0375187Y0234963D01*
X0374927Y0235223D01*
X0374927Y0235482D01*
X0375057Y0235612D01*
X0375317Y0235612D01*
X0375576Y0235353D01*
X0375576Y0235093D01*
X0375838Y0234831D02*
X0375709Y0234701D01*
X0375709Y0234442D01*
X0376098Y0234052D01*
X0375838Y0233793D02*
X0376357Y0234312D01*
X0376357Y0234571D01*
X0376098Y0234831D01*
X0375838Y0234831D01*
X0375319Y0234312D02*
X0375319Y0234052D01*
X0375579Y0233793D01*
X0375838Y0233793D01*
X0374798Y0234574D02*
X0374538Y0234834D01*
X0374538Y0235093D01*
X0374276Y0235355D02*
X0374925Y0236004D01*
X0374406Y0236523D02*
X0373757Y0235874D01*
X0373757Y0235615D01*
X0374016Y0235355D01*
X0374276Y0235355D01*
X0623723Y0212799D02*
X0624372Y0212150D01*
X0624631Y0212150D01*
X0624891Y0212410D01*
X0624891Y0212669D01*
X0624242Y0213318D01*
X0624634Y0213450D02*
X0624634Y0213710D01*
X0624893Y0213969D01*
X0625153Y0213969D01*
X0625283Y0213580D02*
X0625023Y0213321D01*
X0624764Y0213321D01*
X0624634Y0213450D01*
X0624634Y0213969D02*
X0625672Y0212932D01*
X0625672Y0213191D02*
X0625672Y0213450D01*
X0625542Y0213580D01*
X0625283Y0213580D01*
X0625672Y0213191D02*
X0625412Y0212932D01*
X0625153Y0212932D01*
X0625934Y0213713D02*
X0626064Y0213583D01*
X0625934Y0213713D02*
X0625934Y0214751D01*
X0625804Y0214881D01*
X0625285Y0214362D01*
D21*
X0510200Y0349330D02*
X0510202Y0349377D01*
X0510208Y0349423D01*
X0510218Y0349469D01*
X0510231Y0349514D01*
X0510248Y0349557D01*
X0510269Y0349599D01*
X0510293Y0349639D01*
X0510321Y0349677D01*
X0510352Y0349713D01*
X0510385Y0349745D01*
X0510421Y0349775D01*
X0510459Y0349802D01*
X0510500Y0349825D01*
X0510542Y0349845D01*
X0510586Y0349862D01*
X0510631Y0349874D01*
X0510677Y0349883D01*
X0510724Y0349888D01*
X0510771Y0349889D01*
X0510817Y0349886D01*
X0510864Y0349879D01*
X0510909Y0349868D01*
X0510954Y0349854D01*
X0510997Y0349836D01*
X0511038Y0349814D01*
X0511078Y0349789D01*
X0511115Y0349761D01*
X0511150Y0349729D01*
X0511182Y0349695D01*
X0511211Y0349659D01*
X0511237Y0349620D01*
X0511260Y0349579D01*
X0511279Y0349536D01*
X0511294Y0349492D01*
X0511306Y0349446D01*
X0511314Y0349400D01*
X0511318Y0349353D01*
X0511318Y0349307D01*
X0511314Y0349260D01*
X0511306Y0349214D01*
X0511294Y0349168D01*
X0511279Y0349124D01*
X0511260Y0349081D01*
X0511237Y0349040D01*
X0511211Y0349001D01*
X0511182Y0348965D01*
X0511150Y0348931D01*
X0511115Y0348899D01*
X0511078Y0348871D01*
X0511039Y0348846D01*
X0510997Y0348824D01*
X0510954Y0348806D01*
X0510909Y0348792D01*
X0510864Y0348781D01*
X0510817Y0348774D01*
X0510771Y0348771D01*
X0510724Y0348772D01*
X0510677Y0348777D01*
X0510631Y0348786D01*
X0510586Y0348798D01*
X0510542Y0348815D01*
X0510500Y0348835D01*
X0510459Y0348858D01*
X0510421Y0348885D01*
X0510385Y0348915D01*
X0510352Y0348947D01*
X0510321Y0348983D01*
X0510293Y0349021D01*
X0510269Y0349061D01*
X0510248Y0349103D01*
X0510231Y0349146D01*
X0510218Y0349191D01*
X0510208Y0349237D01*
X0510202Y0349283D01*
X0510200Y0349330D01*
D22*
X0510085Y0350025D02*
X0510085Y0342651D01*
X0518933Y0342651D01*
X0518933Y0350025D01*
X0510085Y0350025D01*
M02*
