G75*
%MOIN*%
%OFA0B0*%
%FSLAX25Y25*%
%IPPOS*%
%LPD*%
%AMOC8*
5,1,8,0,0,1.08239X$1,22.5*
%
%ADD10C,0.01600*%
%ADD11C,0.00500*%
%ADD12C,0.00400*%
%ADD13C,0.00000*%
D10*
X0248205Y0095800D02*
X0261832Y0109083D01*
X0246079Y0101552D02*
X0246269Y0100837D01*
X0246475Y0100126D01*
X0246697Y0099420D01*
X0246935Y0098720D01*
X0247188Y0098024D01*
X0247456Y0097335D01*
X0247740Y0096652D01*
X0248039Y0095975D01*
X0264076Y0079788D02*
X0277186Y0093454D01*
X0276017Y0076583D02*
X0275324Y0076663D01*
X0274633Y0076758D01*
X0273945Y0076869D01*
X0273259Y0076994D01*
X0272576Y0077136D01*
X0271896Y0077292D01*
X0271221Y0077464D01*
X0270549Y0077650D01*
X0269891Y0077607D02*
X0269144Y0077810D01*
X0268402Y0078031D01*
X0267665Y0078269D01*
X0266935Y0078524D01*
X0266210Y0078797D01*
X0265492Y0079086D01*
X0264781Y0079391D01*
X0264077Y0079714D01*
X0245780Y0102139D02*
X0245632Y0102770D01*
X0245497Y0103404D01*
X0245374Y0104040D01*
X0245263Y0104679D01*
X0261886Y0108905D02*
X0261862Y0109311D01*
X0261847Y0109718D01*
X0261843Y0110125D01*
X0261849Y0110532D01*
X0261864Y0110938D01*
X0261890Y0111345D01*
X0261925Y0111750D01*
X0261971Y0112154D01*
X0262026Y0112558D01*
X0262091Y0112959D01*
X0262166Y0113359D01*
X0262251Y0113758D01*
X0262345Y0114153D01*
X0262449Y0114547D01*
X0262563Y0114938D01*
X0262686Y0115326D01*
X0262819Y0115710D01*
X0262961Y0116092D01*
X0263112Y0116470D01*
X0263272Y0116844D01*
X0263442Y0117214D01*
X0263621Y0117579D01*
X0263808Y0117941D01*
X0264004Y0118297D01*
X0264209Y0118649D01*
X0264423Y0118995D01*
X0264645Y0119336D01*
X0264875Y0119672D01*
X0265113Y0120002D01*
X0265359Y0120326D01*
X0265614Y0120644D01*
X0265876Y0120955D01*
X0266145Y0121260D01*
X0266422Y0121559D01*
X0266706Y0121850D01*
X0266997Y0122135D01*
X0267295Y0122412D01*
X0267599Y0122682D01*
X0267911Y0122944D01*
X0268228Y0123199D01*
X0268552Y0123446D01*
X0268881Y0123685D01*
X0269217Y0123915D01*
X0269557Y0124138D01*
X0269904Y0124352D01*
X0270255Y0124557D01*
X0270611Y0124754D01*
X0270972Y0124942D01*
X0271337Y0125121D01*
X0271707Y0125291D01*
X0272081Y0125452D01*
X0272459Y0125604D01*
X0272840Y0125747D01*
X0273224Y0125880D01*
X0273612Y0126004D01*
X0274003Y0126118D01*
X0274396Y0126223D01*
X0274792Y0126318D01*
X0275190Y0126403D01*
X0275590Y0126479D01*
X0275991Y0126544D01*
X0276394Y0126600D01*
X0276799Y0126646D01*
X0277204Y0126682D01*
X0277610Y0126708D01*
X0278017Y0126725D01*
X0278424Y0126731D01*
X0278831Y0126727D01*
X0279238Y0126714D01*
X0279644Y0126690D01*
X0280050Y0126656D01*
X0280454Y0126613D01*
X0280858Y0126560D01*
X0281260Y0126496D01*
X0281660Y0126423D01*
X0282059Y0126341D01*
X0282455Y0126248D01*
X0282849Y0126146D01*
X0283240Y0126034D01*
X0283629Y0125913D01*
X0284014Y0125782D01*
X0284396Y0125642D01*
X0284775Y0125492D01*
X0285150Y0125333D01*
X0285520Y0125166D01*
X0285887Y0124989D01*
X0285848Y0125131D02*
X0297068Y0133989D01*
X0296832Y0134162D02*
X0301281Y0129871D01*
X0301241Y0129934D02*
X0292383Y0119107D01*
X0311891Y0113383D02*
X0311891Y0112457D01*
X0311891Y0113383D02*
X0311893Y0113448D01*
X0311899Y0113512D01*
X0311908Y0113576D01*
X0311921Y0113639D01*
X0311938Y0113701D01*
X0311958Y0113763D01*
X0311982Y0113823D01*
X0312009Y0113881D01*
X0312040Y0113938D01*
X0312074Y0113993D01*
X0312111Y0114046D01*
X0312151Y0114096D01*
X0312194Y0114145D01*
X0312239Y0114190D01*
X0312288Y0114233D01*
X0312338Y0114273D01*
X0312391Y0114310D01*
X0312446Y0114344D01*
X0312503Y0114375D01*
X0312561Y0114402D01*
X0312621Y0114426D01*
X0312683Y0114446D01*
X0312745Y0114463D01*
X0312808Y0114476D01*
X0312872Y0114485D01*
X0312936Y0114491D01*
X0313001Y0114493D01*
X0312816Y0114493D01*
X0312790Y0114495D01*
X0312764Y0114500D01*
X0312739Y0114510D01*
X0312716Y0114522D01*
X0312695Y0114538D01*
X0312676Y0114557D01*
X0312660Y0114578D01*
X0312648Y0114601D01*
X0312638Y0114626D01*
X0312633Y0114652D01*
X0312631Y0114678D01*
X0313086Y0114865D02*
X0376044Y0177823D01*
X0345923Y0207702D02*
X0282764Y0144543D01*
X0282599Y0144398D02*
X0282597Y0144355D01*
X0282592Y0144313D01*
X0282582Y0144271D01*
X0282569Y0144230D01*
X0282553Y0144190D01*
X0282533Y0144152D01*
X0282510Y0144116D01*
X0282484Y0144082D01*
X0282455Y0144050D01*
X0282423Y0144021D01*
X0282389Y0143995D01*
X0282353Y0143972D01*
X0282315Y0143952D01*
X0282275Y0143936D01*
X0282234Y0143923D01*
X0282192Y0143913D01*
X0282150Y0143908D01*
X0282107Y0143906D01*
X0281985Y0143906D01*
X0281983Y0143866D01*
X0281978Y0143826D01*
X0281968Y0143788D01*
X0281956Y0143750D01*
X0281940Y0143713D01*
X0281920Y0143678D01*
X0281898Y0143645D01*
X0281872Y0143614D01*
X0281844Y0143586D01*
X0281813Y0143560D01*
X0281780Y0143538D01*
X0281745Y0143518D01*
X0281708Y0143502D01*
X0281670Y0143490D01*
X0281632Y0143480D01*
X0281592Y0143475D01*
X0281552Y0143473D01*
X0280257Y0143473D01*
X0244907Y0108052D02*
X0244960Y0107315D01*
X0245030Y0106579D01*
X0245116Y0105845D01*
X0245218Y0105113D01*
X0245336Y0104384D01*
X0245469Y0103657D01*
X0245619Y0102933D01*
X0245785Y0102213D01*
X0277032Y0093528D02*
X0277435Y0093498D01*
X0277838Y0093477D01*
X0278242Y0093467D01*
X0278646Y0093466D01*
X0279049Y0093475D01*
X0279453Y0093494D01*
X0279856Y0093522D01*
X0280258Y0093561D01*
X0280659Y0093609D01*
X0281059Y0093667D01*
X0281457Y0093734D01*
X0281853Y0093811D01*
X0282248Y0093898D01*
X0282640Y0093995D01*
X0283030Y0094100D01*
X0283417Y0094216D01*
X0283801Y0094340D01*
X0284182Y0094474D01*
X0284560Y0094617D01*
X0284934Y0094770D01*
X0285304Y0094931D01*
X0285670Y0095101D01*
X0286032Y0095280D01*
X0286390Y0095468D01*
X0286743Y0095665D01*
X0287091Y0095870D01*
X0287434Y0096083D01*
X0287771Y0096305D01*
X0288103Y0096534D01*
X0288430Y0096772D01*
X0288751Y0097018D01*
X0289065Y0097271D01*
X0289373Y0097532D01*
X0289675Y0097800D01*
X0289971Y0098076D01*
X0290259Y0098359D01*
X0290541Y0098648D01*
X0290815Y0098944D01*
X0291082Y0099247D01*
X0291342Y0099557D01*
X0291594Y0099872D01*
X0291839Y0100194D01*
X0292075Y0100521D01*
X0292304Y0100854D01*
X0292524Y0101193D01*
X0292736Y0101536D01*
X0292940Y0101885D01*
X0293135Y0102239D01*
X0293322Y0102597D01*
X0293499Y0102960D01*
X0293668Y0103327D01*
X0293828Y0103697D01*
X0293979Y0104072D01*
X0294121Y0104450D01*
X0294253Y0104832D01*
X0294377Y0105216D01*
X0294490Y0105604D01*
X0294595Y0105994D01*
X0294690Y0106387D01*
X0294775Y0106781D01*
X0294851Y0107178D01*
X0294917Y0107577D01*
X0294973Y0107977D01*
X0295020Y0108378D01*
X0295057Y0108780D01*
X0295084Y0109183D01*
X0295101Y0109586D01*
X0295109Y0109990D01*
X0295106Y0110394D01*
X0295094Y0110798D01*
X0295072Y0111201D01*
X0295041Y0111604D01*
X0294999Y0112006D01*
X0294948Y0112406D01*
X0294887Y0112806D01*
X0294817Y0113203D01*
X0294736Y0113599D01*
X0294647Y0113993D01*
X0294547Y0114384D01*
X0294438Y0114773D01*
X0294320Y0115159D01*
X0294193Y0115543D01*
X0294056Y0115923D01*
X0293910Y0116299D01*
X0293755Y0116672D01*
X0293591Y0117041D01*
X0293417Y0117406D01*
X0293236Y0117767D01*
X0293045Y0118123D01*
X0292846Y0118474D01*
X0292638Y0118821D01*
X0292422Y0119162D01*
X0311987Y0112199D02*
X0312028Y0111387D01*
X0312050Y0110574D01*
X0312053Y0109761D01*
X0312035Y0108948D01*
X0311998Y0108136D01*
X0311941Y0107325D01*
X0311865Y0106516D01*
X0311768Y0105709D01*
X0311653Y0104904D01*
X0311518Y0104102D01*
X0311363Y0103304D01*
X0311189Y0102510D01*
X0310996Y0101720D01*
X0310784Y0100935D01*
X0310553Y0100156D01*
X0310303Y0099382D01*
X0310034Y0098615D01*
X0309747Y0097855D01*
X0309441Y0097101D01*
X0309118Y0096356D01*
X0308776Y0095618D01*
X0308416Y0094889D01*
X0308039Y0094169D01*
X0307645Y0093458D01*
X0307233Y0092757D01*
X0306805Y0092066D01*
X0306359Y0091385D01*
X0305898Y0090716D01*
X0305420Y0090058D01*
X0304927Y0089412D01*
X0304418Y0088778D01*
X0303894Y0088157D01*
X0303355Y0087548D01*
X0302801Y0086953D01*
X0302233Y0086371D01*
X0301651Y0085803D01*
X0301056Y0085250D01*
X0300447Y0084711D01*
X0299825Y0084187D01*
X0299191Y0083679D01*
X0298545Y0083185D01*
X0297887Y0082708D01*
X0297217Y0082247D01*
X0296537Y0081802D01*
X0295846Y0081374D01*
X0295144Y0080962D01*
X0294433Y0080568D01*
X0293713Y0080191D01*
X0292984Y0079832D01*
X0292246Y0079491D01*
X0291500Y0079167D01*
X0290747Y0078862D01*
X0289986Y0078575D01*
X0289219Y0078307D01*
X0288445Y0078057D01*
X0287665Y0077826D01*
X0286880Y0077614D01*
X0286091Y0077422D01*
X0285296Y0077248D01*
X0284498Y0077094D01*
X0283696Y0076959D01*
X0282892Y0076844D01*
X0282084Y0076748D01*
X0281275Y0076672D01*
X0280464Y0076615D01*
X0279652Y0076578D01*
X0278839Y0076561D01*
X0278026Y0076564D01*
X0277213Y0076586D01*
X0276401Y0076628D01*
X0245098Y0107876D02*
X0245055Y0108692D01*
X0245031Y0109508D01*
X0245027Y0110324D01*
X0245043Y0111141D01*
X0245079Y0111956D01*
X0245135Y0112771D01*
X0245210Y0113584D01*
X0245306Y0114395D01*
X0245421Y0115203D01*
X0245556Y0116008D01*
X0245710Y0116810D01*
X0245884Y0117608D01*
X0246077Y0118401D01*
X0246289Y0119189D01*
X0246521Y0119972D01*
X0246772Y0120749D01*
X0247041Y0121520D01*
X0247329Y0122284D01*
X0247636Y0123041D01*
X0247961Y0123790D01*
X0248304Y0124530D01*
X0248665Y0125263D01*
X0249044Y0125986D01*
X0249441Y0126700D01*
X0249854Y0127404D01*
X0250285Y0128097D01*
X0250732Y0128780D01*
X0251196Y0129452D01*
X0251676Y0130112D01*
X0252173Y0130761D01*
X0252684Y0131397D01*
X0253211Y0132021D01*
X0253754Y0132631D01*
X0254310Y0133228D01*
X0254882Y0133812D01*
X0255467Y0134381D01*
X0256066Y0134936D01*
X0256678Y0135476D01*
X0257304Y0136001D01*
X0257941Y0136510D01*
X0258592Y0137004D01*
X0259253Y0137482D01*
X0259927Y0137944D01*
X0260611Y0138389D01*
X0261306Y0138818D01*
X0262012Y0139229D01*
X0262727Y0139623D01*
X0263451Y0139999D01*
X0264185Y0140358D01*
X0264927Y0140699D01*
X0265677Y0141021D01*
X0266435Y0141325D01*
X0267199Y0141611D01*
X0267971Y0141878D01*
X0268749Y0142126D01*
X0269533Y0142355D01*
X0270322Y0142565D01*
X0271116Y0142755D01*
X0271914Y0142926D01*
X0272716Y0143078D01*
X0273522Y0143210D01*
X0274331Y0143323D01*
X0275142Y0143415D01*
X0275955Y0143488D01*
X0276770Y0143541D01*
X0277585Y0143574D01*
X0278402Y0143588D01*
X0279218Y0143581D01*
X0280034Y0143555D01*
X0279223Y0143581D01*
X0278411Y0143588D01*
X0277599Y0143575D01*
X0276788Y0143542D01*
X0275978Y0143490D01*
X0275169Y0143418D01*
X0274363Y0143327D01*
X0273558Y0143216D01*
X0272757Y0143085D01*
X0271959Y0142936D01*
X0271165Y0142766D01*
X0270375Y0142578D01*
X0269590Y0142371D01*
X0268811Y0142145D01*
X0268037Y0141900D01*
X0267269Y0141636D01*
X0266508Y0141354D01*
X0265753Y0141053D01*
X0265007Y0140734D01*
X0264268Y0140397D01*
X0263538Y0140043D01*
X0262816Y0139670D01*
X0262104Y0139281D01*
X0261401Y0138874D01*
X0260709Y0138451D01*
X0260027Y0138010D01*
X0259355Y0137554D01*
X0258695Y0137081D01*
X0258047Y0136592D01*
X0257411Y0136088D01*
X0256787Y0135569D01*
X0256175Y0135034D01*
X0255577Y0134485D01*
X0254993Y0133922D01*
X0254422Y0133344D01*
X0253865Y0132753D01*
X0253323Y0132149D01*
X0252796Y0131532D01*
X0252284Y0130902D01*
X0251787Y0130260D01*
X0251306Y0129606D01*
X0250841Y0128940D01*
X0250392Y0128264D01*
X0249960Y0127577D01*
X0249544Y0126879D01*
X0249145Y0126172D01*
X0248764Y0125455D01*
X0248400Y0124729D01*
X0248054Y0123995D01*
X0247726Y0123253D01*
X0247416Y0122502D01*
X0247124Y0121745D01*
X0246850Y0120980D01*
X0246595Y0120209D01*
X0246359Y0119433D01*
X0246142Y0118650D01*
X0245944Y0117863D01*
X0245765Y0117071D01*
X0245605Y0116275D01*
X0245464Y0115476D01*
X0245343Y0114673D01*
X0245241Y0113867D01*
X0245159Y0113060D01*
X0245097Y0112250D01*
X0245054Y0111440D01*
X0245031Y0110628D01*
X0245027Y0109816D01*
X0245043Y0109004D01*
X0245079Y0108193D01*
X0245134Y0107383D01*
X0245209Y0106575D01*
X0245304Y0105769D01*
X0345756Y0208315D02*
X0342459Y0212501D01*
X0339265Y0216765D01*
X0336176Y0221106D01*
X0333192Y0225521D01*
X0330317Y0230007D01*
X0327551Y0234561D01*
X0324897Y0239181D01*
X0322356Y0243864D01*
X0319929Y0248608D01*
X0317618Y0253409D01*
X0315425Y0258265D01*
X0313350Y0263172D01*
X0311395Y0268129D01*
X0309560Y0273131D01*
X0307848Y0278177D01*
X0306258Y0283263D01*
X0304793Y0288385D01*
X0303452Y0293542D01*
X0302237Y0298730D01*
X0301149Y0303946D01*
X0300187Y0309186D01*
X0299353Y0314449D01*
X0298647Y0319730D01*
X0298069Y0325027D01*
X0297620Y0330336D01*
X0297300Y0335655D01*
X0297109Y0340980D01*
X0297048Y0346308D01*
X0297116Y0351635D01*
X0297313Y0356960D01*
X0297640Y0362278D01*
X0298096Y0367587D01*
X0298680Y0372883D01*
X0299393Y0378163D01*
X0300234Y0383425D01*
X0301202Y0388664D01*
X0302297Y0393879D01*
X0303519Y0399065D01*
X0304866Y0404220D01*
X0306337Y0409341D01*
X0307933Y0414425D01*
X0309652Y0419468D01*
X0311493Y0424468D01*
X0313454Y0429422D01*
X0315535Y0434327D01*
X0317735Y0439180D01*
X0320052Y0443978D01*
X0322484Y0448719D01*
X0325031Y0453399D01*
X0327691Y0458016D01*
X0330463Y0462567D01*
X0333344Y0467049D01*
X0336332Y0471460D01*
X0339428Y0475797D01*
X0342627Y0480057D01*
X0345929Y0484239D01*
X0345878Y0484920D02*
X0282654Y0548143D01*
X0282210Y0548430D02*
X0282208Y0548475D01*
X0282203Y0548521D01*
X0282194Y0548565D01*
X0282182Y0548609D01*
X0282166Y0548652D01*
X0282147Y0548693D01*
X0282125Y0548733D01*
X0282099Y0548770D01*
X0282071Y0548806D01*
X0282040Y0548839D01*
X0282007Y0548870D01*
X0281971Y0548898D01*
X0281934Y0548924D01*
X0281894Y0548946D01*
X0281853Y0548965D01*
X0281810Y0548981D01*
X0281766Y0548993D01*
X0281722Y0549002D01*
X0281676Y0549007D01*
X0281631Y0549009D01*
X0281517Y0549009D01*
X0281515Y0549029D01*
X0281510Y0549048D01*
X0281502Y0549066D01*
X0281490Y0549082D01*
X0281476Y0549096D01*
X0281460Y0549108D01*
X0281442Y0549116D01*
X0281423Y0549121D01*
X0281403Y0549123D01*
X0279320Y0549123D01*
X0286753Y0568162D02*
X0298092Y0559225D01*
X0298210Y0558847D02*
X0302816Y0563650D01*
X0303131Y0563989D02*
X0292855Y0574540D01*
X0311828Y0578977D02*
X0311828Y0580828D01*
X0311828Y0578977D02*
X0311830Y0578957D01*
X0311835Y0578938D01*
X0311843Y0578920D01*
X0311855Y0578904D01*
X0311869Y0578890D01*
X0311885Y0578878D01*
X0311903Y0578870D01*
X0311922Y0578865D01*
X0311942Y0578863D01*
X0311942Y0578749D01*
X0311944Y0578708D01*
X0311949Y0578668D01*
X0311958Y0578629D01*
X0311970Y0578590D01*
X0311986Y0578552D01*
X0312004Y0578517D01*
X0312026Y0578482D01*
X0312051Y0578450D01*
X0312078Y0578420D01*
X0312108Y0578393D01*
X0312140Y0578368D01*
X0312175Y0578346D01*
X0312210Y0578328D01*
X0312248Y0578312D01*
X0312287Y0578300D01*
X0312326Y0578291D01*
X0312366Y0578286D01*
X0312407Y0578284D01*
X0312491Y0578306D02*
X0376062Y0514735D01*
X0245155Y0578501D02*
X0245082Y0579251D01*
X0245025Y0580002D01*
X0244986Y0580755D01*
X0244964Y0581508D01*
X0244958Y0582261D01*
X0244970Y0583015D01*
X0244998Y0583768D01*
X0245044Y0584520D01*
X0245106Y0585271D01*
X0248083Y0596984D02*
X0261792Y0584083D01*
X0263615Y0612560D02*
X0264330Y0612896D01*
X0265053Y0613215D01*
X0265784Y0613516D01*
X0266521Y0613800D01*
X0267265Y0614066D01*
X0268016Y0614315D01*
X0268771Y0614545D01*
X0269533Y0614758D01*
X0270299Y0614952D01*
X0271069Y0615128D01*
X0271843Y0615285D01*
X0272621Y0615424D01*
X0273402Y0615545D01*
X0274186Y0615646D01*
X0274972Y0615730D01*
X0275759Y0615794D01*
X0276548Y0615839D01*
X0263647Y0612426D02*
X0277304Y0599044D01*
X0248128Y0596976D02*
X0247806Y0596279D01*
X0247499Y0595575D01*
X0247210Y0594863D01*
X0246937Y0594145D01*
X0246680Y0593421D01*
X0246441Y0592691D01*
X0246218Y0591956D01*
X0246012Y0591216D01*
X0245824Y0590471D01*
X0245653Y0589723D01*
X0245499Y0588970D01*
X0245363Y0588214D01*
X0245245Y0587455D01*
X0245144Y0586694D01*
X0245060Y0585930D01*
X0277237Y0599044D02*
X0277641Y0599064D01*
X0278044Y0599075D01*
X0278448Y0599076D01*
X0278852Y0599067D01*
X0279256Y0599049D01*
X0279659Y0599020D01*
X0280061Y0598982D01*
X0280462Y0598934D01*
X0280862Y0598876D01*
X0281260Y0598808D01*
X0281657Y0598731D01*
X0282051Y0598644D01*
X0282444Y0598548D01*
X0282834Y0598442D01*
X0283221Y0598326D01*
X0283605Y0598201D01*
X0283986Y0598067D01*
X0284364Y0597923D01*
X0284738Y0597771D01*
X0285108Y0597609D01*
X0285474Y0597438D01*
X0285836Y0597258D01*
X0286193Y0597070D01*
X0286546Y0596873D01*
X0286894Y0596667D01*
X0287237Y0596453D01*
X0287574Y0596231D01*
X0287906Y0596001D01*
X0288232Y0595762D01*
X0288552Y0595516D01*
X0288866Y0595262D01*
X0289174Y0595000D01*
X0289475Y0594731D01*
X0289770Y0594454D01*
X0290058Y0594171D01*
X0290339Y0593881D01*
X0290612Y0593583D01*
X0290879Y0593280D01*
X0291138Y0592970D01*
X0291389Y0592653D01*
X0291632Y0592331D01*
X0291868Y0592002D01*
X0292095Y0591669D01*
X0292315Y0591329D01*
X0292526Y0590985D01*
X0292728Y0590635D01*
X0292922Y0590281D01*
X0293107Y0589921D01*
X0293283Y0589558D01*
X0293451Y0589190D01*
X0293609Y0588819D01*
X0293758Y0588443D01*
X0293899Y0588064D01*
X0294029Y0587682D01*
X0294151Y0587297D01*
X0294263Y0586909D01*
X0294365Y0586518D01*
X0294458Y0586125D01*
X0294542Y0585729D01*
X0294616Y0585332D01*
X0294680Y0584933D01*
X0294734Y0584533D01*
X0294778Y0584131D01*
X0294813Y0583729D01*
X0294838Y0583325D01*
X0294853Y0582922D01*
X0294858Y0582518D01*
X0294853Y0582114D01*
X0294839Y0581710D01*
X0294814Y0581307D01*
X0294780Y0580904D01*
X0294736Y0580503D01*
X0294682Y0580102D01*
X0294619Y0579703D01*
X0294546Y0579306D01*
X0294463Y0578910D01*
X0294370Y0578517D01*
X0294268Y0578126D01*
X0294157Y0577738D01*
X0294035Y0577352D01*
X0293905Y0576970D01*
X0293765Y0576591D01*
X0293617Y0576215D01*
X0293459Y0575844D01*
X0293292Y0575476D01*
X0293116Y0575112D01*
X0292931Y0574753D01*
X0292737Y0574398D01*
X0311623Y0585749D02*
X0311525Y0586554D01*
X0311408Y0587357D01*
X0311272Y0588156D01*
X0311116Y0588952D01*
X0310940Y0589744D01*
X0310746Y0590531D01*
X0310533Y0591313D01*
X0310300Y0592090D01*
X0310049Y0592862D01*
X0309779Y0593626D01*
X0309491Y0594384D01*
X0309185Y0595135D01*
X0308860Y0595878D01*
X0308517Y0596614D01*
X0308157Y0597340D01*
X0307779Y0598058D01*
X0307384Y0598766D01*
X0306972Y0599464D01*
X0306543Y0600153D01*
X0306097Y0600830D01*
X0305635Y0601497D01*
X0305157Y0602152D01*
X0304664Y0602795D01*
X0304155Y0603427D01*
X0303630Y0604045D01*
X0303091Y0604651D01*
X0302538Y0605244D01*
X0301970Y0605823D01*
X0301388Y0606388D01*
X0300793Y0606939D01*
X0300184Y0607475D01*
X0299563Y0607996D01*
X0298929Y0608502D01*
X0298283Y0608992D01*
X0297626Y0609467D01*
X0296957Y0609926D01*
X0296277Y0610368D01*
X0295586Y0610793D01*
X0294886Y0611202D01*
X0294176Y0611594D01*
X0293456Y0611968D01*
X0292728Y0612325D01*
X0291991Y0612664D01*
X0291246Y0612985D01*
X0290494Y0613287D01*
X0289735Y0613572D01*
X0288969Y0613838D01*
X0288196Y0614085D01*
X0287418Y0614314D01*
X0286635Y0614523D01*
X0285846Y0614714D01*
X0285054Y0614885D01*
X0284257Y0615037D01*
X0283457Y0615170D01*
X0282654Y0615283D01*
X0281848Y0615377D01*
X0281041Y0615451D01*
X0280231Y0615505D01*
X0279421Y0615540D01*
X0278610Y0615555D01*
X0277799Y0615551D01*
X0276989Y0615527D01*
X0276179Y0615483D01*
X0245057Y0578756D02*
X0245158Y0577950D01*
X0245279Y0577146D01*
X0245419Y0576345D01*
X0245579Y0575548D01*
X0245758Y0574755D01*
X0245956Y0573967D01*
X0246173Y0573184D01*
X0246409Y0572406D01*
X0246665Y0571634D01*
X0246938Y0570869D01*
X0247231Y0570110D01*
X0247541Y0569359D01*
X0247870Y0568616D01*
X0248217Y0567880D01*
X0248581Y0567154D01*
X0248963Y0566436D01*
X0249362Y0565728D01*
X0249779Y0565030D01*
X0250212Y0564342D01*
X0250662Y0563665D01*
X0251128Y0562999D01*
X0251610Y0562345D01*
X0252108Y0561702D01*
X0252621Y0561072D01*
X0253150Y0560454D01*
X0253693Y0559850D01*
X0254251Y0559259D01*
X0254823Y0558681D01*
X0255409Y0558118D01*
X0256009Y0557569D01*
X0256621Y0557034D01*
X0257247Y0556515D01*
X0257884Y0556011D01*
X0258534Y0555523D01*
X0259196Y0555051D01*
X0259869Y0554594D01*
X0260552Y0554155D01*
X0261247Y0553732D01*
X0261951Y0553326D01*
X0262665Y0552937D01*
X0263388Y0552566D01*
X0264120Y0552212D01*
X0264860Y0551876D01*
X0265608Y0551559D01*
X0266364Y0551259D01*
X0267127Y0550978D01*
X0267896Y0550716D01*
X0268672Y0550472D01*
X0269453Y0550248D01*
X0270239Y0550042D01*
X0271031Y0549856D01*
X0271826Y0549688D01*
X0272625Y0549541D01*
X0273428Y0549412D01*
X0274234Y0549303D01*
X0275042Y0549214D01*
X0275851Y0549145D01*
X0276663Y0549095D01*
X0277475Y0549064D01*
X0278288Y0549054D01*
X0279101Y0549063D01*
X0279913Y0549092D01*
X0286871Y0568335D02*
X0286524Y0568131D01*
X0286173Y0567935D01*
X0285816Y0567747D01*
X0285455Y0567569D01*
X0285090Y0567399D01*
X0284721Y0567238D01*
X0284348Y0567087D01*
X0283971Y0566944D01*
X0283591Y0566810D01*
X0283208Y0566686D01*
X0282822Y0566571D01*
X0282434Y0566466D01*
X0282043Y0566370D01*
X0281649Y0566283D01*
X0281254Y0566206D01*
X0280857Y0566139D01*
X0280459Y0566082D01*
X0280059Y0566034D01*
X0279658Y0565996D01*
X0279256Y0565967D01*
X0278854Y0565949D01*
X0278451Y0565940D01*
X0278049Y0565941D01*
X0277646Y0565951D01*
X0277244Y0565972D01*
X0276842Y0566002D01*
X0276442Y0566042D01*
X0276042Y0566092D01*
X0275644Y0566152D01*
X0275247Y0566221D01*
X0274852Y0566299D01*
X0274459Y0566388D01*
X0274069Y0566485D01*
X0273681Y0566593D01*
X0273295Y0566709D01*
X0272913Y0566835D01*
X0272533Y0566971D01*
X0272158Y0567115D01*
X0271785Y0567269D01*
X0271417Y0567431D01*
X0271053Y0567603D01*
X0270692Y0567783D01*
X0270337Y0567972D01*
X0269986Y0568170D01*
X0269640Y0568376D01*
X0269299Y0568590D01*
X0268964Y0568812D01*
X0268633Y0569043D01*
X0268309Y0569282D01*
X0267991Y0569528D01*
X0267678Y0569782D01*
X0267372Y0570044D01*
X0267072Y0570313D01*
X0266779Y0570589D01*
X0266493Y0570872D01*
X0266214Y0571162D01*
X0265942Y0571459D01*
X0265677Y0571763D01*
X0265419Y0572072D01*
X0265170Y0572388D01*
X0264928Y0572710D01*
X0264693Y0573037D01*
X0264467Y0573371D01*
X0264249Y0573709D01*
X0264040Y0574053D01*
X0263838Y0574402D01*
X0263646Y0574755D01*
X0263462Y0575113D01*
X0263286Y0575476D01*
X0263120Y0575843D01*
X0262962Y0576213D01*
X0262814Y0576588D01*
X0262675Y0576965D01*
X0262544Y0577346D01*
X0262424Y0577731D01*
X0262312Y0578118D01*
X0262210Y0578507D01*
X0262118Y0578899D01*
X0262035Y0579293D01*
X0261962Y0579689D01*
X0261898Y0580087D01*
X0261844Y0580486D01*
X0261800Y0580886D01*
X0261765Y0581287D01*
X0261740Y0581689D01*
X0261725Y0582091D01*
X0261720Y0582494D01*
X0261725Y0582897D01*
X0261739Y0583299D01*
X0261763Y0583701D01*
X0261797Y0584102D01*
X0311567Y0586288D02*
X0311642Y0585562D01*
X0311700Y0584835D01*
X0311742Y0584107D01*
X0311769Y0583378D01*
X0311780Y0582649D01*
X0311775Y0581920D01*
X0311754Y0581191D01*
X0683162Y0485126D02*
X0686474Y0480920D01*
X0689684Y0476635D01*
X0692788Y0472274D01*
X0695786Y0467838D01*
X0698675Y0463331D01*
X0701454Y0458755D01*
X0704121Y0454113D01*
X0706675Y0449408D01*
X0709114Y0444642D01*
X0711437Y0439819D01*
X0713641Y0434940D01*
X0715727Y0430010D01*
X0717693Y0425030D01*
X0719537Y0420004D01*
X0721259Y0414935D01*
X0722858Y0409826D01*
X0724332Y0404679D01*
X0725681Y0399498D01*
X0726903Y0394286D01*
X0727999Y0389046D01*
X0728968Y0383781D01*
X0729808Y0378494D01*
X0730520Y0373187D01*
X0731103Y0367866D01*
X0731557Y0362531D01*
X0731881Y0357188D01*
X0732075Y0351838D01*
X0732140Y0346484D01*
X0732075Y0341131D01*
X0731880Y0335781D01*
X0731555Y0330437D01*
X0731101Y0325103D01*
X0730517Y0319781D01*
X0729805Y0314475D01*
X0728964Y0309188D01*
X0727995Y0303923D01*
X0726898Y0298683D01*
X0725675Y0293471D01*
X0724326Y0288290D01*
X0722851Y0283144D01*
X0721252Y0278035D01*
X0719530Y0272966D01*
X0717685Y0267940D01*
X0715719Y0262961D01*
X0713632Y0258030D01*
X0711427Y0253152D01*
X0709104Y0248329D01*
X0706664Y0243563D01*
X0704110Y0238858D01*
X0701442Y0234217D01*
X0698663Y0229641D01*
X0695773Y0225134D01*
X0692775Y0220699D01*
X0689670Y0216338D01*
X0686460Y0212053D01*
X0683147Y0207848D01*
X0683004Y0207793D02*
X0747494Y0143303D01*
X0747619Y0143257D02*
X0748446Y0142469D01*
X0750533Y0142902D01*
X0743422Y0124950D02*
X0732123Y0133257D01*
X0732068Y0133020D02*
X0727816Y0128690D01*
X0727556Y0128335D02*
X0735706Y0117391D01*
X0783824Y0112603D02*
X0783885Y0111793D01*
X0783926Y0110981D01*
X0783947Y0110169D01*
X0783948Y0109357D01*
X0783930Y0108544D01*
X0783892Y0107733D01*
X0783834Y0106922D01*
X0783757Y0106114D01*
X0783659Y0105307D01*
X0783543Y0104503D01*
X0783407Y0103702D01*
X0783251Y0102905D01*
X0783076Y0102111D01*
X0782882Y0101322D01*
X0782669Y0100538D01*
X0782437Y0099760D01*
X0782186Y0098987D01*
X0781916Y0098221D01*
X0781627Y0097461D01*
X0781321Y0096709D01*
X0780996Y0095964D01*
X0780653Y0095227D01*
X0780782Y0095402D02*
X0767422Y0108257D01*
X0752764Y0093559D02*
X0752362Y0093521D01*
X0751958Y0093492D01*
X0751554Y0093474D01*
X0751150Y0093465D01*
X0750746Y0093466D01*
X0750342Y0093477D01*
X0749938Y0093497D01*
X0749535Y0093528D01*
X0749132Y0093568D01*
X0748731Y0093619D01*
X0748331Y0093679D01*
X0747933Y0093748D01*
X0747536Y0093827D01*
X0747142Y0093916D01*
X0746750Y0094015D01*
X0746360Y0094123D01*
X0745973Y0094240D01*
X0745589Y0094367D01*
X0745208Y0094503D01*
X0744831Y0094649D01*
X0744457Y0094803D01*
X0744088Y0094967D01*
X0743722Y0095140D01*
X0743360Y0095321D01*
X0743004Y0095511D01*
X0742651Y0095710D01*
X0742304Y0095917D01*
X0741962Y0096133D01*
X0741626Y0096357D01*
X0741294Y0096589D01*
X0740969Y0096829D01*
X0740650Y0097077D01*
X0740336Y0097332D01*
X0740029Y0097596D01*
X0739729Y0097866D01*
X0739435Y0098144D01*
X0739148Y0098429D01*
X0738868Y0098721D01*
X0738595Y0099019D01*
X0738330Y0099324D01*
X0738072Y0099636D01*
X0737822Y0099953D01*
X0737579Y0100277D01*
X0737345Y0100606D01*
X0737118Y0100941D01*
X0736900Y0101282D01*
X0736690Y0101627D01*
X0736489Y0101978D01*
X0736296Y0102333D01*
X0736112Y0102693D01*
X0735937Y0103058D01*
X0735770Y0103426D01*
X0735613Y0103799D01*
X0735465Y0104175D01*
X0735326Y0104555D01*
X0735196Y0104938D01*
X0735076Y0105324D01*
X0734965Y0105713D01*
X0734863Y0106104D01*
X0734771Y0106498D01*
X0734689Y0106894D01*
X0734617Y0107292D01*
X0734554Y0107691D01*
X0734501Y0108092D01*
X0734457Y0108494D01*
X0734424Y0108897D01*
X0734400Y0109301D01*
X0734386Y0109705D01*
X0734382Y0110109D01*
X0734388Y0110514D01*
X0734403Y0110918D01*
X0734429Y0111321D01*
X0734464Y0111724D01*
X0734509Y0112126D01*
X0734564Y0112526D01*
X0734629Y0112926D01*
X0734703Y0113323D01*
X0734787Y0113719D01*
X0734880Y0114112D01*
X0734983Y0114503D01*
X0735096Y0114891D01*
X0735218Y0115277D01*
X0735349Y0115659D01*
X0735490Y0116039D01*
X0735640Y0116414D01*
X0735799Y0116786D01*
X0735966Y0117154D01*
X0752954Y0076359D02*
X0753743Y0076426D01*
X0754529Y0076512D01*
X0755313Y0076616D01*
X0756095Y0076739D01*
X0756873Y0076880D01*
X0757648Y0077040D01*
X0758419Y0077218D01*
X0759185Y0077414D01*
X0759947Y0077628D01*
X0760703Y0077860D01*
X0761453Y0078110D01*
X0762198Y0078378D01*
X0762936Y0078663D01*
X0763667Y0078965D01*
X0764390Y0079285D01*
X0765106Y0079622D01*
X0765814Y0079975D01*
X0765646Y0079954D02*
X0752462Y0093572D01*
X0783788Y0113008D02*
X0783700Y0113812D01*
X0783592Y0114613D01*
X0783464Y0115411D01*
X0783318Y0116205D01*
X0783152Y0116996D01*
X0782966Y0117783D01*
X0782762Y0118565D01*
X0782539Y0119342D01*
X0782297Y0120113D01*
X0782036Y0120878D01*
X0781757Y0121636D01*
X0781459Y0122388D01*
X0781144Y0123132D01*
X0780810Y0123868D01*
X0780458Y0124596D01*
X0780089Y0125315D01*
X0779703Y0126024D01*
X0779299Y0126725D01*
X0778878Y0127415D01*
X0778441Y0128095D01*
X0777988Y0128764D01*
X0777518Y0129421D01*
X0777032Y0130067D01*
X0776531Y0130701D01*
X0776015Y0131323D01*
X0775484Y0131932D01*
X0774938Y0132528D01*
X0774377Y0133110D01*
X0773803Y0133679D01*
X0773215Y0134234D01*
X0772614Y0134774D01*
X0771999Y0135299D01*
X0771373Y0135809D01*
X0770734Y0136304D01*
X0770083Y0136783D01*
X0769420Y0137246D01*
X0768747Y0137693D01*
X0768063Y0138124D01*
X0767369Y0138537D01*
X0766665Y0138934D01*
X0765951Y0139314D01*
X0765228Y0139676D01*
X0764497Y0140020D01*
X0763758Y0140346D01*
X0763011Y0140655D01*
X0762256Y0140945D01*
X0761495Y0141217D01*
X0760728Y0141470D01*
X0759954Y0141704D01*
X0759175Y0141920D01*
X0758391Y0142116D01*
X0757603Y0142294D01*
X0756810Y0142452D01*
X0756014Y0142591D01*
X0755215Y0142710D01*
X0754413Y0142810D01*
X0753608Y0142891D01*
X0752803Y0142951D01*
X0751995Y0142993D01*
X0751187Y0143014D01*
X0750379Y0143016D01*
X0717379Y0113465D02*
X0717333Y0113467D01*
X0717286Y0113473D01*
X0717241Y0113482D01*
X0717196Y0113496D01*
X0717153Y0113512D01*
X0717111Y0113533D01*
X0717071Y0113557D01*
X0717033Y0113584D01*
X0716998Y0113614D01*
X0716965Y0113647D01*
X0716935Y0113682D01*
X0716908Y0113720D01*
X0716884Y0113760D01*
X0716863Y0113802D01*
X0716847Y0113845D01*
X0716833Y0113890D01*
X0716824Y0113935D01*
X0716818Y0113982D01*
X0716816Y0114028D01*
X0716765Y0114033D02*
X0653224Y0177573D01*
X0717379Y0113465D02*
X0717501Y0113465D01*
X0717487Y0113463D01*
X0717474Y0113459D01*
X0717462Y0113451D01*
X0717452Y0113441D01*
X0717444Y0113429D01*
X0717440Y0113416D01*
X0717438Y0113402D01*
X0717438Y0111162D01*
X0717488Y0111278D02*
X0717462Y0110487D01*
X0717454Y0109696D01*
X0717465Y0108905D01*
X0717495Y0108115D01*
X0717544Y0107325D01*
X0717612Y0106537D01*
X0717490Y0106193D02*
X0717590Y0105390D01*
X0717711Y0104590D01*
X0717850Y0103792D01*
X0718009Y0102999D01*
X0718187Y0102209D01*
X0718384Y0101424D01*
X0718600Y0100644D01*
X0718834Y0099869D01*
X0719088Y0099100D01*
X0719359Y0098338D01*
X0719650Y0097582D01*
X0719958Y0096834D01*
X0720285Y0096093D01*
X0720629Y0095360D01*
X0720991Y0094636D01*
X0721370Y0093921D01*
X0721766Y0093215D01*
X0722180Y0092519D01*
X0722610Y0091834D01*
X0723057Y0091159D01*
X0723519Y0090494D01*
X0723998Y0089842D01*
X0724492Y0089201D01*
X0725002Y0088572D01*
X0725527Y0087956D01*
X0726066Y0087352D01*
X0726620Y0086762D01*
X0727188Y0086185D01*
X0727770Y0085623D01*
X0728365Y0085074D01*
X0728974Y0084540D01*
X0729595Y0084021D01*
X0730228Y0083517D01*
X0730874Y0083029D01*
X0731531Y0082556D01*
X0732199Y0082099D01*
X0732879Y0081659D01*
X0733568Y0081235D01*
X0734268Y0080828D01*
X0734977Y0080438D01*
X0735696Y0080065D01*
X0736423Y0079710D01*
X0737159Y0079373D01*
X0737903Y0079053D01*
X0738654Y0078751D01*
X0739412Y0078468D01*
X0740177Y0078203D01*
X0740948Y0077957D01*
X0741725Y0077729D01*
X0742507Y0077521D01*
X0743294Y0077331D01*
X0744085Y0077160D01*
X0744880Y0077009D01*
X0745679Y0076877D01*
X0746480Y0076764D01*
X0747284Y0076670D01*
X0748090Y0076596D01*
X0748898Y0076542D01*
X0749707Y0076507D01*
X0750516Y0076492D01*
X0751326Y0076496D01*
X0752135Y0076520D01*
X0752943Y0076563D01*
X0767495Y0108188D02*
X0767536Y0108589D01*
X0767567Y0108991D01*
X0767588Y0109394D01*
X0767600Y0109797D01*
X0767602Y0110201D01*
X0767594Y0110604D01*
X0767576Y0111007D01*
X0767548Y0111410D01*
X0767511Y0111811D01*
X0767464Y0112212D01*
X0767407Y0112611D01*
X0767341Y0113009D01*
X0767265Y0113405D01*
X0767179Y0113799D01*
X0767084Y0114191D01*
X0766979Y0114581D01*
X0766865Y0114968D01*
X0766741Y0115352D01*
X0766608Y0115733D01*
X0766466Y0116110D01*
X0766315Y0116484D01*
X0766155Y0116854D01*
X0765986Y0117221D01*
X0765808Y0117583D01*
X0765621Y0117940D01*
X0765426Y0118293D01*
X0765222Y0118641D01*
X0765010Y0118984D01*
X0764789Y0119322D01*
X0764561Y0119654D01*
X0764324Y0119981D01*
X0764079Y0120302D01*
X0763827Y0120617D01*
X0763567Y0120925D01*
X0763300Y0121227D01*
X0763026Y0121523D01*
X0762744Y0121812D01*
X0762456Y0122094D01*
X0762160Y0122369D01*
X0761859Y0122636D01*
X0761550Y0122896D01*
X0761236Y0123149D01*
X0760915Y0123394D01*
X0760589Y0123631D01*
X0760257Y0123860D01*
X0759919Y0124081D01*
X0759576Y0124294D01*
X0759229Y0124498D01*
X0758876Y0124694D01*
X0758519Y0124881D01*
X0758157Y0125059D01*
X0757791Y0125229D01*
X0757421Y0125389D01*
X0757047Y0125541D01*
X0756670Y0125684D01*
X0756289Y0125817D01*
X0755905Y0125941D01*
X0755518Y0126055D01*
X0755129Y0126161D01*
X0754737Y0126256D01*
X0754343Y0126342D01*
X0753947Y0126419D01*
X0753549Y0126486D01*
X0753150Y0126543D01*
X0752749Y0126591D01*
X0752348Y0126629D01*
X0751945Y0126657D01*
X0751542Y0126675D01*
X0751139Y0126683D01*
X0750735Y0126682D01*
X0750332Y0126671D01*
X0749929Y0126650D01*
X0749527Y0126619D01*
X0749126Y0126579D01*
X0748726Y0126529D01*
X0748327Y0126469D01*
X0747929Y0126399D01*
X0747534Y0126320D01*
X0747140Y0126231D01*
X0746749Y0126133D01*
X0746360Y0126025D01*
X0745974Y0125908D01*
X0745591Y0125781D01*
X0745211Y0125646D01*
X0744835Y0125501D01*
X0744462Y0125347D01*
X0744093Y0125184D01*
X0743728Y0125012D01*
X0743368Y0124831D01*
X0652864Y0514443D02*
X0648788Y0517732D01*
X0644633Y0520921D01*
X0640402Y0524009D01*
X0636098Y0526994D01*
X0631723Y0529874D01*
X0627280Y0532648D01*
X0622772Y0535314D01*
X0618200Y0537870D01*
X0613568Y0540316D01*
X0608879Y0542648D01*
X0604134Y0544867D01*
X0599337Y0546971D01*
X0594491Y0548958D01*
X0589599Y0550828D01*
X0584662Y0552579D01*
X0579685Y0554211D01*
X0574670Y0555722D01*
X0569620Y0557111D01*
X0564538Y0558378D01*
X0559426Y0559523D01*
X0554289Y0560543D01*
X0549128Y0561440D01*
X0543948Y0562211D01*
X0538750Y0562857D01*
X0533538Y0563378D01*
X0528315Y0563773D01*
X0523084Y0564041D01*
X0517849Y0564183D01*
X0512611Y0564199D01*
X0507374Y0564089D01*
X0502142Y0563852D01*
X0496917Y0563489D01*
X0491702Y0562999D01*
X0486500Y0562385D01*
X0481315Y0561644D01*
X0476149Y0560779D01*
X0471006Y0559790D01*
X0465888Y0558677D01*
X0460798Y0557440D01*
X0455739Y0556081D01*
X0450715Y0554600D01*
X0445728Y0552999D01*
X0440782Y0551278D01*
X0435878Y0549437D01*
X0431020Y0547479D01*
X0426210Y0545405D01*
X0421452Y0543215D01*
X0416749Y0540910D01*
X0412102Y0538493D01*
X0407515Y0535965D01*
X0402990Y0533326D01*
X0398531Y0530579D01*
X0394139Y0527725D01*
X0389817Y0524766D01*
X0385568Y0521704D01*
X0381393Y0518540D01*
X0377297Y0515276D01*
X0377350Y0177780D02*
X0381517Y0174486D01*
X0385763Y0171294D01*
X0390085Y0168205D01*
X0394480Y0165222D01*
X0398946Y0162346D01*
X0403481Y0159579D01*
X0408081Y0156923D01*
X0412744Y0154378D01*
X0417468Y0151948D01*
X0422248Y0149632D01*
X0427084Y0147433D01*
X0431971Y0145352D01*
X0436907Y0143389D01*
X0441890Y0141546D01*
X0446915Y0139825D01*
X0451981Y0138226D01*
X0457084Y0136750D01*
X0462221Y0135397D01*
X0467389Y0134170D01*
X0472586Y0133068D01*
X0477807Y0132092D01*
X0483051Y0131243D01*
X0488314Y0130521D01*
X0493592Y0129926D01*
X0498884Y0129460D01*
X0504185Y0129121D01*
X0509493Y0128911D01*
X0514805Y0128830D01*
X0520117Y0128877D01*
X0525426Y0129053D01*
X0530729Y0129357D01*
X0536024Y0129790D01*
X0541306Y0130351D01*
X0546573Y0131039D01*
X0551822Y0131854D01*
X0557050Y0132797D01*
X0562254Y0133865D01*
X0567430Y0135060D01*
X0572575Y0136379D01*
X0577688Y0137822D01*
X0582763Y0139389D01*
X0587800Y0141078D01*
X0592794Y0142889D01*
X0597743Y0144820D01*
X0602643Y0146870D01*
X0607493Y0149038D01*
X0612288Y0151323D01*
X0617027Y0153723D01*
X0621706Y0156237D01*
X0626324Y0158864D01*
X0630876Y0161602D01*
X0635360Y0164449D01*
X0639775Y0167404D01*
X0644116Y0170465D01*
X0648383Y0173630D01*
X0652571Y0176897D01*
X0683029Y0484808D02*
X0746544Y0548323D01*
X0746808Y0548682D02*
X0746810Y0548731D01*
X0746816Y0548780D01*
X0746825Y0548828D01*
X0746839Y0548875D01*
X0746856Y0548922D01*
X0746876Y0548966D01*
X0746900Y0549009D01*
X0746928Y0549050D01*
X0746958Y0549089D01*
X0746991Y0549125D01*
X0747027Y0549158D01*
X0747066Y0549188D01*
X0747107Y0549216D01*
X0747150Y0549240D01*
X0747194Y0549260D01*
X0747241Y0549277D01*
X0747288Y0549291D01*
X0747336Y0549300D01*
X0747385Y0549306D01*
X0747434Y0549308D01*
X0747749Y0549308D01*
X0747751Y0549293D01*
X0747755Y0549278D01*
X0747762Y0549264D01*
X0747772Y0549252D01*
X0747784Y0549242D01*
X0747798Y0549235D01*
X0747813Y0549231D01*
X0747828Y0549229D01*
X0749115Y0549229D01*
X0732934Y0558532D02*
X0729115Y0561643D01*
X0728958Y0561784D02*
X0737304Y0572729D01*
X0743265Y0567627D02*
X0732915Y0558568D01*
X0716783Y0578562D02*
X0652993Y0514773D01*
X0716942Y0578725D02*
X0716960Y0578727D01*
X0716977Y0578732D01*
X0716993Y0578740D01*
X0717006Y0578752D01*
X0717018Y0578765D01*
X0717026Y0578781D01*
X0717031Y0578798D01*
X0717033Y0578816D01*
X0717304Y0580887D01*
X0753245Y0615406D02*
X0754027Y0615330D01*
X0754807Y0615236D01*
X0755584Y0615124D01*
X0756359Y0614993D01*
X0757130Y0614844D01*
X0757897Y0614676D01*
X0758661Y0614491D01*
X0759419Y0614287D01*
X0760173Y0614066D01*
X0760921Y0613826D01*
X0761663Y0613569D01*
X0762399Y0613295D01*
X0763129Y0613003D01*
X0763851Y0612694D01*
X0764566Y0612368D01*
X0764540Y0612054D02*
X0752107Y0599320D01*
X0767741Y0583859D02*
X0767769Y0583450D01*
X0767787Y0583041D01*
X0767795Y0582631D01*
X0767792Y0582221D01*
X0767780Y0581812D01*
X0767758Y0581402D01*
X0767726Y0580994D01*
X0767684Y0580586D01*
X0767632Y0580180D01*
X0767570Y0579775D01*
X0767498Y0579371D01*
X0767416Y0578970D01*
X0767325Y0578570D01*
X0767224Y0578173D01*
X0767113Y0577779D01*
X0766993Y0577387D01*
X0766863Y0576999D01*
X0766723Y0576613D01*
X0766575Y0576231D01*
X0766417Y0575853D01*
X0766250Y0575479D01*
X0766074Y0575109D01*
X0765888Y0574744D01*
X0765694Y0574383D01*
X0765492Y0574027D01*
X0765280Y0573676D01*
X0765060Y0573330D01*
X0764832Y0572989D01*
X0764596Y0572655D01*
X0764351Y0572326D01*
X0764099Y0572003D01*
X0763838Y0571687D01*
X0763570Y0571377D01*
X0763295Y0571074D01*
X0763012Y0570777D01*
X0762722Y0570487D01*
X0762425Y0570205D01*
X0762122Y0569930D01*
X0761811Y0569662D01*
X0761495Y0569402D01*
X0761172Y0569150D01*
X0760843Y0568906D01*
X0760508Y0568670D01*
X0760167Y0568442D01*
X0759821Y0568222D01*
X0759470Y0568011D01*
X0759114Y0567809D01*
X0758753Y0567615D01*
X0758387Y0567431D01*
X0758017Y0567255D01*
X0757642Y0567088D01*
X0757264Y0566931D01*
X0756882Y0566782D01*
X0756497Y0566643D01*
X0756108Y0566514D01*
X0755716Y0566394D01*
X0755321Y0566284D01*
X0754924Y0566183D01*
X0754525Y0566092D01*
X0754123Y0566011D01*
X0753719Y0565939D01*
X0753314Y0565878D01*
X0752908Y0565826D01*
X0752500Y0565785D01*
X0752092Y0565753D01*
X0751683Y0565731D01*
X0751273Y0565719D01*
X0750863Y0565718D01*
X0750453Y0565726D01*
X0750044Y0565744D01*
X0749635Y0565772D01*
X0749227Y0565810D01*
X0748820Y0565858D01*
X0748415Y0565916D01*
X0748011Y0565984D01*
X0747608Y0566062D01*
X0747208Y0566149D01*
X0746810Y0566247D01*
X0746414Y0566354D01*
X0746022Y0566470D01*
X0745632Y0566596D01*
X0745245Y0566732D01*
X0744862Y0566877D01*
X0744482Y0567031D01*
X0744106Y0567194D01*
X0743735Y0567367D01*
X0743367Y0567548D01*
X0783757Y0586036D02*
X0783639Y0586794D01*
X0783504Y0587548D01*
X0783352Y0588300D01*
X0783182Y0589047D01*
X0782995Y0589791D01*
X0782792Y0590530D01*
X0782571Y0591264D01*
X0782334Y0591993D01*
X0782080Y0592716D01*
X0781810Y0593434D01*
X0781523Y0594145D01*
X0781220Y0594849D01*
X0780901Y0595546D01*
X0780566Y0596236D01*
X0780317Y0596276D02*
X0767974Y0583965D01*
X0752064Y0599283D02*
X0751654Y0599304D01*
X0751244Y0599315D01*
X0750833Y0599316D01*
X0750423Y0599307D01*
X0750013Y0599288D01*
X0749603Y0599259D01*
X0749194Y0599220D01*
X0748787Y0599171D01*
X0748381Y0599112D01*
X0747976Y0599043D01*
X0747573Y0598965D01*
X0747172Y0598876D01*
X0746773Y0598778D01*
X0746377Y0598670D01*
X0745984Y0598552D01*
X0745594Y0598425D01*
X0745207Y0598288D01*
X0744823Y0598142D01*
X0744443Y0597987D01*
X0744067Y0597822D01*
X0743695Y0597648D01*
X0743328Y0597465D01*
X0742965Y0597273D01*
X0742606Y0597073D01*
X0742253Y0596864D01*
X0741905Y0596646D01*
X0741563Y0596419D01*
X0741226Y0596185D01*
X0740895Y0595942D01*
X0740570Y0595691D01*
X0740251Y0595432D01*
X0739939Y0595166D01*
X0739633Y0594892D01*
X0739334Y0594611D01*
X0739042Y0594322D01*
X0738757Y0594027D01*
X0738479Y0593724D01*
X0738209Y0593415D01*
X0737947Y0593099D01*
X0737692Y0592777D01*
X0737445Y0592449D01*
X0737207Y0592115D01*
X0736976Y0591775D01*
X0736754Y0591430D01*
X0736541Y0591080D01*
X0736336Y0590724D01*
X0736140Y0590363D01*
X0735953Y0589998D01*
X0735774Y0589628D01*
X0735605Y0589254D01*
X0735445Y0588876D01*
X0735294Y0588494D01*
X0735153Y0588109D01*
X0735021Y0587720D01*
X0734899Y0587328D01*
X0734786Y0586933D01*
X0734683Y0586536D01*
X0734589Y0586136D01*
X0734506Y0585734D01*
X0734432Y0585330D01*
X0734368Y0584925D01*
X0734315Y0584518D01*
X0734271Y0584110D01*
X0734237Y0583701D01*
X0734213Y0583291D01*
X0734199Y0582880D01*
X0734195Y0582470D01*
X0734201Y0582059D01*
X0734217Y0581649D01*
X0734244Y0581240D01*
X0734280Y0580831D01*
X0734326Y0580423D01*
X0734382Y0580016D01*
X0734448Y0579611D01*
X0734524Y0579207D01*
X0734610Y0578806D01*
X0734706Y0578407D01*
X0734811Y0578010D01*
X0734926Y0577616D01*
X0735050Y0577225D01*
X0735184Y0576837D01*
X0735328Y0576452D01*
X0735481Y0576071D01*
X0735643Y0575694D01*
X0735814Y0575321D01*
X0735995Y0574952D01*
X0736184Y0574588D01*
X0736382Y0574228D01*
X0736589Y0573874D01*
X0736805Y0573524D01*
X0737029Y0573180D01*
X0737261Y0572842D01*
X0737501Y0572509D01*
X0717391Y0581591D02*
X0717387Y0582407D01*
X0717402Y0583223D01*
X0717438Y0584038D01*
X0717493Y0584853D01*
X0717569Y0585665D01*
X0717664Y0586476D01*
X0717779Y0587284D01*
X0717914Y0588089D01*
X0718068Y0588890D01*
X0718243Y0589688D01*
X0718436Y0590480D01*
X0718649Y0591268D01*
X0718881Y0592051D01*
X0719133Y0592827D01*
X0719403Y0593597D01*
X0719692Y0594361D01*
X0720000Y0595117D01*
X0720326Y0595865D01*
X0720670Y0596605D01*
X0721033Y0597336D01*
X0721413Y0598058D01*
X0721811Y0598771D01*
X0722226Y0599474D01*
X0722658Y0600166D01*
X0723107Y0600848D01*
X0723573Y0601518D01*
X0724054Y0602177D01*
X0724552Y0602823D01*
X0725066Y0603458D01*
X0725595Y0604079D01*
X0726139Y0604688D01*
X0726698Y0605283D01*
X0727271Y0605864D01*
X0727858Y0606430D01*
X0728459Y0606983D01*
X0729073Y0607520D01*
X0729701Y0608042D01*
X0730341Y0608549D01*
X0730993Y0609040D01*
X0731657Y0609514D01*
X0732332Y0609973D01*
X0733018Y0610414D01*
X0733715Y0610839D01*
X0734423Y0611246D01*
X0735140Y0611636D01*
X0735866Y0612009D01*
X0736601Y0612363D01*
X0737345Y0612699D01*
X0738096Y0613017D01*
X0738856Y0613317D01*
X0739622Y0613597D01*
X0740395Y0613859D01*
X0741174Y0614102D01*
X0741959Y0614326D01*
X0742749Y0614530D01*
X0743544Y0614715D01*
X0744343Y0614881D01*
X0745147Y0615026D01*
X0745953Y0615153D01*
X0746762Y0615259D01*
X0747574Y0615345D01*
X0748387Y0615412D01*
X0749202Y0615458D01*
X0750018Y0615485D01*
X0750834Y0615492D01*
X0751650Y0615478D01*
X0752465Y0615445D01*
X0753280Y0615392D01*
X0783847Y0586308D02*
X0783929Y0585500D01*
X0783991Y0584690D01*
X0784033Y0583880D01*
X0784056Y0583068D01*
X0784059Y0582256D01*
X0784042Y0581444D01*
X0784006Y0580633D01*
X0783949Y0579823D01*
X0783874Y0579015D01*
X0783778Y0578209D01*
X0783663Y0577405D01*
X0783529Y0576604D01*
X0783375Y0575807D01*
X0783202Y0575014D01*
X0783010Y0574225D01*
X0782799Y0573441D01*
X0782569Y0572663D01*
X0782320Y0571890D01*
X0782052Y0571123D01*
X0781766Y0570364D01*
X0781461Y0569611D01*
X0781138Y0568866D01*
X0780798Y0568129D01*
X0780439Y0567401D01*
X0780063Y0566681D01*
X0779670Y0565971D01*
X0779259Y0565270D01*
X0778832Y0564580D01*
X0778388Y0563900D01*
X0777927Y0563232D01*
X0777451Y0562574D01*
X0776959Y0561929D01*
X0776451Y0561295D01*
X0775928Y0560674D01*
X0775390Y0560066D01*
X0774837Y0559471D01*
X0774271Y0558890D01*
X0773690Y0558322D01*
X0773096Y0557769D01*
X0772488Y0557231D01*
X0771868Y0556707D01*
X0771235Y0556198D01*
X0770590Y0555705D01*
X0769933Y0555228D01*
X0769264Y0554767D01*
X0768585Y0554322D01*
X0767895Y0553894D01*
X0767195Y0553483D01*
X0766486Y0553089D01*
X0765766Y0552712D01*
X0765038Y0552352D01*
X0764302Y0552011D01*
X0763557Y0551687D01*
X0762805Y0551382D01*
X0762046Y0551095D01*
X0761279Y0550826D01*
X0760507Y0550576D01*
X0759729Y0550345D01*
X0758945Y0550133D01*
X0758156Y0549940D01*
X0757363Y0549766D01*
X0756566Y0549612D01*
X0755766Y0549476D01*
X0754962Y0549361D01*
X0754156Y0549264D01*
X0753348Y0549188D01*
X0752538Y0549131D01*
X0751727Y0549093D01*
X0750915Y0549076D01*
X0750103Y0549078D01*
X0749291Y0549099D01*
D11*
X0551911Y0425028D02*
X0557816Y0411249D01*
X0557816Y0379753D01*
X0561753Y0379753D01*
X0557816Y0379753D02*
X0557816Y0370894D01*
X0561753Y0370894D01*
X0557816Y0370894D02*
X0557816Y0334477D01*
X0524352Y0322666D01*
X0524352Y0365973D01*
X0557816Y0377784D01*
X0561753Y0379753D02*
X0561884Y0379751D01*
X0562015Y0379745D01*
X0562146Y0379736D01*
X0562277Y0379722D01*
X0562407Y0379704D01*
X0562536Y0379683D01*
X0562665Y0379658D01*
X0562793Y0379629D01*
X0562920Y0379596D01*
X0563047Y0379560D01*
X0563171Y0379520D01*
X0563295Y0379476D01*
X0563418Y0379428D01*
X0563538Y0379377D01*
X0563658Y0379322D01*
X0563775Y0379264D01*
X0563891Y0379203D01*
X0564005Y0379138D01*
X0564117Y0379069D01*
X0564227Y0378997D01*
X0564335Y0378923D01*
X0564441Y0378844D01*
X0564544Y0378763D01*
X0564644Y0378679D01*
X0564742Y0378592D01*
X0564838Y0378502D01*
X0564931Y0378409D01*
X0565021Y0378313D01*
X0565108Y0378215D01*
X0565192Y0378115D01*
X0565273Y0378012D01*
X0565352Y0377906D01*
X0565426Y0377798D01*
X0565498Y0377688D01*
X0565567Y0377576D01*
X0565632Y0377462D01*
X0565693Y0377346D01*
X0565751Y0377229D01*
X0565806Y0377109D01*
X0565857Y0376989D01*
X0565905Y0376866D01*
X0565949Y0376742D01*
X0565989Y0376618D01*
X0566025Y0376491D01*
X0566058Y0376364D01*
X0566087Y0376236D01*
X0566112Y0376107D01*
X0566133Y0375978D01*
X0566151Y0375848D01*
X0566165Y0375717D01*
X0566174Y0375586D01*
X0566180Y0375455D01*
X0566182Y0375324D01*
X0566180Y0375193D01*
X0566174Y0375062D01*
X0566165Y0374931D01*
X0566151Y0374800D01*
X0566133Y0374670D01*
X0566112Y0374541D01*
X0566087Y0374412D01*
X0566058Y0374284D01*
X0566025Y0374157D01*
X0565989Y0374030D01*
X0565949Y0373906D01*
X0565905Y0373782D01*
X0565857Y0373659D01*
X0565806Y0373539D01*
X0565751Y0373419D01*
X0565693Y0373302D01*
X0565632Y0373186D01*
X0565567Y0373072D01*
X0565498Y0372960D01*
X0565426Y0372850D01*
X0565352Y0372742D01*
X0565273Y0372636D01*
X0565192Y0372533D01*
X0565108Y0372433D01*
X0565021Y0372335D01*
X0564931Y0372239D01*
X0564838Y0372146D01*
X0564742Y0372056D01*
X0564644Y0371969D01*
X0564544Y0371885D01*
X0564441Y0371804D01*
X0564335Y0371725D01*
X0564227Y0371651D01*
X0564117Y0371579D01*
X0564005Y0371510D01*
X0563891Y0371445D01*
X0563775Y0371384D01*
X0563658Y0371326D01*
X0563538Y0371271D01*
X0563418Y0371220D01*
X0563295Y0371172D01*
X0563171Y0371128D01*
X0563047Y0371088D01*
X0562920Y0371052D01*
X0562793Y0371019D01*
X0562665Y0370990D01*
X0562536Y0370965D01*
X0562407Y0370944D01*
X0562277Y0370926D01*
X0562146Y0370912D01*
X0562015Y0370903D01*
X0561884Y0370897D01*
X0561753Y0370895D01*
X0557816Y0393532D02*
X0524352Y0381721D01*
X0504666Y0381721D01*
X0471202Y0393532D01*
X0471202Y0379753D02*
X0467265Y0379753D01*
X0471202Y0379753D02*
X0471202Y0370894D01*
X0471202Y0334477D01*
X0471202Y0321682D01*
X0471202Y0318729D01*
X0471202Y0312824D01*
X0467265Y0312824D01*
X0471202Y0312824D02*
X0471202Y0266111D01*
X0471204Y0266013D01*
X0471210Y0265915D01*
X0471219Y0265817D01*
X0471233Y0265720D01*
X0471250Y0265623D01*
X0471271Y0265527D01*
X0471296Y0265432D01*
X0471324Y0265338D01*
X0471357Y0265246D01*
X0471392Y0265154D01*
X0471432Y0265064D01*
X0471474Y0264976D01*
X0471521Y0264889D01*
X0471570Y0264805D01*
X0471623Y0264722D01*
X0471679Y0264642D01*
X0471739Y0264563D01*
X0471801Y0264487D01*
X0471866Y0264414D01*
X0471934Y0264343D01*
X0472005Y0264275D01*
X0472078Y0264210D01*
X0472154Y0264148D01*
X0472233Y0264088D01*
X0472313Y0264032D01*
X0472396Y0263979D01*
X0472480Y0263930D01*
X0472567Y0263883D01*
X0472655Y0263841D01*
X0472745Y0263801D01*
X0472837Y0263766D01*
X0472929Y0263733D01*
X0473023Y0263705D01*
X0473118Y0263680D01*
X0473214Y0263659D01*
X0473311Y0263642D01*
X0473408Y0263628D01*
X0473506Y0263619D01*
X0473604Y0263613D01*
X0473702Y0263611D01*
X0494824Y0263611D01*
X0494824Y0253769D01*
X0508603Y0253769D01*
X0508603Y0249831D01*
X0520415Y0249831D01*
X0520415Y0253769D01*
X0508603Y0253769D01*
X0520415Y0253769D02*
X0534194Y0253769D01*
X0534194Y0263611D01*
X0494824Y0263611D01*
X0484981Y0265580D02*
X0475670Y0265580D01*
X0475572Y0265582D01*
X0475474Y0265588D01*
X0475376Y0265597D01*
X0475279Y0265611D01*
X0475182Y0265628D01*
X0475086Y0265649D01*
X0474991Y0265674D01*
X0474897Y0265702D01*
X0474805Y0265735D01*
X0474713Y0265770D01*
X0474623Y0265810D01*
X0474535Y0265852D01*
X0474448Y0265899D01*
X0474364Y0265948D01*
X0474281Y0266001D01*
X0474201Y0266057D01*
X0474122Y0266117D01*
X0474046Y0266179D01*
X0473973Y0266244D01*
X0473902Y0266312D01*
X0473834Y0266383D01*
X0473769Y0266456D01*
X0473707Y0266532D01*
X0473647Y0266611D01*
X0473591Y0266691D01*
X0473538Y0266774D01*
X0473489Y0266858D01*
X0473442Y0266945D01*
X0473400Y0267033D01*
X0473360Y0267123D01*
X0473325Y0267215D01*
X0473292Y0267307D01*
X0473264Y0267401D01*
X0473239Y0267496D01*
X0473218Y0267592D01*
X0473201Y0267689D01*
X0473187Y0267786D01*
X0473178Y0267884D01*
X0473172Y0267982D01*
X0473170Y0268080D01*
X0473170Y0277391D01*
X0484981Y0265580D01*
X0534194Y0263611D02*
X0555316Y0263611D01*
X0555414Y0263613D01*
X0555512Y0263619D01*
X0555610Y0263628D01*
X0555707Y0263642D01*
X0555804Y0263659D01*
X0555900Y0263680D01*
X0555995Y0263705D01*
X0556089Y0263733D01*
X0556181Y0263766D01*
X0556273Y0263801D01*
X0556363Y0263841D01*
X0556451Y0263883D01*
X0556538Y0263930D01*
X0556622Y0263979D01*
X0556705Y0264032D01*
X0556785Y0264088D01*
X0556864Y0264148D01*
X0556940Y0264210D01*
X0557013Y0264275D01*
X0557084Y0264343D01*
X0557152Y0264414D01*
X0557217Y0264487D01*
X0557279Y0264563D01*
X0557339Y0264642D01*
X0557395Y0264722D01*
X0557448Y0264805D01*
X0557497Y0264889D01*
X0557544Y0264976D01*
X0557586Y0265064D01*
X0557626Y0265154D01*
X0557661Y0265246D01*
X0557694Y0265338D01*
X0557722Y0265432D01*
X0557747Y0265527D01*
X0557768Y0265623D01*
X0557785Y0265720D01*
X0557799Y0265817D01*
X0557808Y0265915D01*
X0557814Y0266013D01*
X0557816Y0266111D01*
X0557816Y0312824D01*
X0561753Y0312824D01*
X0557816Y0312824D02*
X0557816Y0318729D01*
X0557816Y0321682D01*
X0561753Y0321682D01*
X0557816Y0321682D02*
X0557816Y0334477D01*
X0557816Y0318729D02*
X0524352Y0306918D01*
X0504666Y0306918D01*
X0471202Y0318729D01*
X0471202Y0321682D02*
X0467265Y0321682D01*
X0467134Y0321680D01*
X0467003Y0321674D01*
X0466872Y0321665D01*
X0466741Y0321651D01*
X0466611Y0321633D01*
X0466482Y0321612D01*
X0466353Y0321587D01*
X0466225Y0321558D01*
X0466098Y0321525D01*
X0465971Y0321489D01*
X0465847Y0321449D01*
X0465723Y0321405D01*
X0465600Y0321357D01*
X0465480Y0321306D01*
X0465360Y0321251D01*
X0465243Y0321193D01*
X0465127Y0321132D01*
X0465013Y0321067D01*
X0464901Y0320998D01*
X0464791Y0320926D01*
X0464683Y0320852D01*
X0464577Y0320773D01*
X0464474Y0320692D01*
X0464374Y0320608D01*
X0464276Y0320521D01*
X0464180Y0320431D01*
X0464087Y0320338D01*
X0463997Y0320242D01*
X0463910Y0320144D01*
X0463826Y0320044D01*
X0463745Y0319941D01*
X0463666Y0319835D01*
X0463592Y0319727D01*
X0463520Y0319617D01*
X0463451Y0319505D01*
X0463386Y0319391D01*
X0463325Y0319275D01*
X0463267Y0319158D01*
X0463212Y0319038D01*
X0463161Y0318918D01*
X0463113Y0318795D01*
X0463069Y0318671D01*
X0463029Y0318547D01*
X0462993Y0318420D01*
X0462960Y0318293D01*
X0462931Y0318165D01*
X0462906Y0318036D01*
X0462885Y0317907D01*
X0462867Y0317777D01*
X0462853Y0317646D01*
X0462844Y0317515D01*
X0462838Y0317384D01*
X0462836Y0317253D01*
X0462838Y0317122D01*
X0462844Y0316991D01*
X0462853Y0316860D01*
X0462867Y0316729D01*
X0462885Y0316599D01*
X0462906Y0316470D01*
X0462931Y0316341D01*
X0462960Y0316213D01*
X0462993Y0316086D01*
X0463029Y0315959D01*
X0463069Y0315835D01*
X0463113Y0315711D01*
X0463161Y0315588D01*
X0463212Y0315468D01*
X0463267Y0315348D01*
X0463325Y0315231D01*
X0463386Y0315115D01*
X0463451Y0315001D01*
X0463520Y0314889D01*
X0463592Y0314779D01*
X0463666Y0314671D01*
X0463745Y0314565D01*
X0463826Y0314462D01*
X0463910Y0314362D01*
X0463997Y0314264D01*
X0464087Y0314168D01*
X0464180Y0314075D01*
X0464276Y0313985D01*
X0464374Y0313898D01*
X0464474Y0313814D01*
X0464577Y0313733D01*
X0464683Y0313654D01*
X0464791Y0313580D01*
X0464901Y0313508D01*
X0465013Y0313439D01*
X0465127Y0313374D01*
X0465243Y0313313D01*
X0465360Y0313255D01*
X0465480Y0313200D01*
X0465600Y0313149D01*
X0465723Y0313101D01*
X0465847Y0313057D01*
X0465971Y0313017D01*
X0466098Y0312981D01*
X0466225Y0312948D01*
X0466353Y0312919D01*
X0466482Y0312894D01*
X0466611Y0312873D01*
X0466741Y0312855D01*
X0466872Y0312841D01*
X0467003Y0312832D01*
X0467134Y0312826D01*
X0467265Y0312824D01*
X0471202Y0334477D02*
X0504666Y0322666D01*
X0504666Y0365973D01*
X0471202Y0377784D01*
X0471202Y0379753D02*
X0471202Y0411249D01*
X0477107Y0425028D01*
X0497777Y0425028D01*
X0497777Y0407312D01*
X0498761Y0407312D01*
X0498761Y0436308D01*
X0498763Y0436406D01*
X0498769Y0436504D01*
X0498778Y0436602D01*
X0498792Y0436699D01*
X0498809Y0436796D01*
X0498830Y0436892D01*
X0498855Y0436987D01*
X0498883Y0437081D01*
X0498916Y0437173D01*
X0498951Y0437265D01*
X0498991Y0437355D01*
X0499033Y0437443D01*
X0499080Y0437530D01*
X0499129Y0437614D01*
X0499182Y0437697D01*
X0499238Y0437777D01*
X0499298Y0437856D01*
X0499360Y0437932D01*
X0499425Y0438005D01*
X0499493Y0438076D01*
X0499564Y0438144D01*
X0499637Y0438209D01*
X0499713Y0438271D01*
X0499792Y0438331D01*
X0499872Y0438387D01*
X0499955Y0438440D01*
X0500039Y0438489D01*
X0500126Y0438536D01*
X0500214Y0438578D01*
X0500304Y0438618D01*
X0500396Y0438653D01*
X0500488Y0438686D01*
X0500582Y0438714D01*
X0500677Y0438739D01*
X0500773Y0438760D01*
X0500870Y0438777D01*
X0500967Y0438791D01*
X0501065Y0438800D01*
X0501163Y0438806D01*
X0501261Y0438808D01*
X0527757Y0438808D01*
X0527855Y0438806D01*
X0527953Y0438800D01*
X0528051Y0438791D01*
X0528148Y0438777D01*
X0528245Y0438760D01*
X0528341Y0438739D01*
X0528436Y0438714D01*
X0528530Y0438686D01*
X0528622Y0438653D01*
X0528714Y0438618D01*
X0528804Y0438578D01*
X0528892Y0438536D01*
X0528979Y0438489D01*
X0529063Y0438440D01*
X0529146Y0438387D01*
X0529226Y0438331D01*
X0529305Y0438271D01*
X0529381Y0438209D01*
X0529454Y0438144D01*
X0529525Y0438076D01*
X0529593Y0438005D01*
X0529658Y0437932D01*
X0529720Y0437856D01*
X0529780Y0437777D01*
X0529836Y0437697D01*
X0529889Y0437614D01*
X0529938Y0437530D01*
X0529985Y0437443D01*
X0530027Y0437355D01*
X0530067Y0437265D01*
X0530102Y0437173D01*
X0530135Y0437081D01*
X0530163Y0436987D01*
X0530188Y0436892D01*
X0530209Y0436796D01*
X0530226Y0436699D01*
X0530240Y0436602D01*
X0530249Y0436504D01*
X0530255Y0436406D01*
X0530257Y0436308D01*
X0530257Y0407312D01*
X0531241Y0407312D01*
X0531241Y0425028D01*
X0551911Y0425028D01*
X0471202Y0370894D02*
X0467265Y0370894D01*
X0467265Y0370895D02*
X0467134Y0370897D01*
X0467003Y0370903D01*
X0466872Y0370912D01*
X0466741Y0370926D01*
X0466611Y0370944D01*
X0466482Y0370965D01*
X0466353Y0370990D01*
X0466225Y0371019D01*
X0466098Y0371052D01*
X0465971Y0371088D01*
X0465847Y0371128D01*
X0465723Y0371172D01*
X0465600Y0371220D01*
X0465480Y0371271D01*
X0465360Y0371326D01*
X0465243Y0371384D01*
X0465127Y0371445D01*
X0465013Y0371510D01*
X0464901Y0371579D01*
X0464791Y0371651D01*
X0464683Y0371725D01*
X0464577Y0371804D01*
X0464474Y0371885D01*
X0464374Y0371969D01*
X0464276Y0372056D01*
X0464180Y0372146D01*
X0464087Y0372239D01*
X0463997Y0372335D01*
X0463910Y0372433D01*
X0463826Y0372533D01*
X0463745Y0372636D01*
X0463666Y0372742D01*
X0463592Y0372850D01*
X0463520Y0372960D01*
X0463451Y0373072D01*
X0463386Y0373186D01*
X0463325Y0373302D01*
X0463267Y0373419D01*
X0463212Y0373539D01*
X0463161Y0373659D01*
X0463113Y0373782D01*
X0463069Y0373906D01*
X0463029Y0374030D01*
X0462993Y0374157D01*
X0462960Y0374284D01*
X0462931Y0374412D01*
X0462906Y0374541D01*
X0462885Y0374670D01*
X0462867Y0374800D01*
X0462853Y0374931D01*
X0462844Y0375062D01*
X0462838Y0375193D01*
X0462836Y0375324D01*
X0462838Y0375455D01*
X0462844Y0375586D01*
X0462853Y0375717D01*
X0462867Y0375848D01*
X0462885Y0375978D01*
X0462906Y0376107D01*
X0462931Y0376236D01*
X0462960Y0376364D01*
X0462993Y0376491D01*
X0463029Y0376618D01*
X0463069Y0376742D01*
X0463113Y0376866D01*
X0463161Y0376989D01*
X0463212Y0377109D01*
X0463267Y0377229D01*
X0463325Y0377346D01*
X0463386Y0377462D01*
X0463451Y0377576D01*
X0463520Y0377688D01*
X0463592Y0377798D01*
X0463666Y0377906D01*
X0463745Y0378012D01*
X0463826Y0378115D01*
X0463910Y0378215D01*
X0463997Y0378313D01*
X0464087Y0378409D01*
X0464180Y0378502D01*
X0464276Y0378592D01*
X0464374Y0378679D01*
X0464474Y0378763D01*
X0464577Y0378844D01*
X0464683Y0378923D01*
X0464791Y0378997D01*
X0464901Y0379069D01*
X0465013Y0379138D01*
X0465127Y0379203D01*
X0465243Y0379264D01*
X0465360Y0379322D01*
X0465480Y0379377D01*
X0465600Y0379428D01*
X0465723Y0379476D01*
X0465847Y0379520D01*
X0465971Y0379560D01*
X0466098Y0379596D01*
X0466225Y0379629D01*
X0466353Y0379658D01*
X0466482Y0379683D01*
X0466611Y0379704D01*
X0466741Y0379722D01*
X0466872Y0379736D01*
X0467003Y0379745D01*
X0467134Y0379751D01*
X0467265Y0379753D01*
X0385509Y0346288D02*
X0385548Y0349454D01*
X0385664Y0352618D01*
X0385859Y0355778D01*
X0386130Y0358932D01*
X0386479Y0362079D01*
X0386905Y0365216D01*
X0387408Y0368342D01*
X0387988Y0371455D01*
X0388643Y0374552D01*
X0389375Y0377632D01*
X0390182Y0380694D01*
X0391064Y0383735D01*
X0392020Y0386753D01*
X0393050Y0389747D01*
X0394153Y0392714D01*
X0395329Y0395654D01*
X0396576Y0398564D01*
X0397894Y0401443D01*
X0399283Y0404288D01*
X0400741Y0407098D01*
X0402268Y0409872D01*
X0403862Y0412607D01*
X0405523Y0415303D01*
X0407249Y0417957D01*
X0409041Y0420567D01*
X0410895Y0423133D01*
X0412812Y0425653D01*
X0414791Y0428125D01*
X0416829Y0430547D01*
X0418926Y0432919D01*
X0421081Y0435239D01*
X0423292Y0437505D01*
X0425558Y0439716D01*
X0427878Y0441871D01*
X0430250Y0443968D01*
X0432672Y0446006D01*
X0435144Y0447985D01*
X0437664Y0449902D01*
X0440230Y0451756D01*
X0442840Y0453548D01*
X0445494Y0455274D01*
X0448190Y0456935D01*
X0450925Y0458529D01*
X0453699Y0460056D01*
X0456509Y0461514D01*
X0459354Y0462903D01*
X0462233Y0464221D01*
X0465143Y0465468D01*
X0468083Y0466644D01*
X0471050Y0467747D01*
X0474044Y0468777D01*
X0477062Y0469733D01*
X0480103Y0470615D01*
X0483165Y0471422D01*
X0486245Y0472154D01*
X0489342Y0472809D01*
X0492455Y0473389D01*
X0495581Y0473892D01*
X0498718Y0474318D01*
X0501865Y0474667D01*
X0505019Y0474938D01*
X0508179Y0475133D01*
X0511343Y0475249D01*
X0514509Y0475288D01*
X0517675Y0475249D01*
X0520839Y0475133D01*
X0523999Y0474938D01*
X0527153Y0474667D01*
X0530300Y0474318D01*
X0533437Y0473892D01*
X0536563Y0473389D01*
X0539676Y0472809D01*
X0542773Y0472154D01*
X0545853Y0471422D01*
X0548915Y0470615D01*
X0551956Y0469733D01*
X0554974Y0468777D01*
X0557968Y0467747D01*
X0560935Y0466644D01*
X0563875Y0465468D01*
X0566785Y0464221D01*
X0569664Y0462903D01*
X0572509Y0461514D01*
X0575319Y0460056D01*
X0578093Y0458529D01*
X0580828Y0456935D01*
X0583524Y0455274D01*
X0586178Y0453548D01*
X0588788Y0451756D01*
X0591354Y0449902D01*
X0593874Y0447985D01*
X0596346Y0446006D01*
X0598768Y0443968D01*
X0601140Y0441871D01*
X0603460Y0439716D01*
X0605726Y0437505D01*
X0607937Y0435239D01*
X0610092Y0432919D01*
X0612189Y0430547D01*
X0614227Y0428125D01*
X0616206Y0425653D01*
X0618123Y0423133D01*
X0619977Y0420567D01*
X0621769Y0417957D01*
X0623495Y0415303D01*
X0625156Y0412607D01*
X0626750Y0409872D01*
X0628277Y0407098D01*
X0629735Y0404288D01*
X0631124Y0401443D01*
X0632442Y0398564D01*
X0633689Y0395654D01*
X0634865Y0392714D01*
X0635968Y0389747D01*
X0636998Y0386753D01*
X0637954Y0383735D01*
X0638836Y0380694D01*
X0639643Y0377632D01*
X0640375Y0374552D01*
X0641030Y0371455D01*
X0641610Y0368342D01*
X0642113Y0365216D01*
X0642539Y0362079D01*
X0642888Y0358932D01*
X0643159Y0355778D01*
X0643354Y0352618D01*
X0643470Y0349454D01*
X0643509Y0346288D01*
X0643470Y0343122D01*
X0643354Y0339958D01*
X0643159Y0336798D01*
X0642888Y0333644D01*
X0642539Y0330497D01*
X0642113Y0327360D01*
X0641610Y0324234D01*
X0641030Y0321121D01*
X0640375Y0318024D01*
X0639643Y0314944D01*
X0638836Y0311882D01*
X0637954Y0308841D01*
X0636998Y0305823D01*
X0635968Y0302829D01*
X0634865Y0299862D01*
X0633689Y0296922D01*
X0632442Y0294012D01*
X0631124Y0291133D01*
X0629735Y0288288D01*
X0628277Y0285478D01*
X0626750Y0282704D01*
X0625156Y0279969D01*
X0623495Y0277273D01*
X0621769Y0274619D01*
X0619977Y0272009D01*
X0618123Y0269443D01*
X0616206Y0266923D01*
X0614227Y0264451D01*
X0612189Y0262029D01*
X0610092Y0259657D01*
X0607937Y0257337D01*
X0605726Y0255071D01*
X0603460Y0252860D01*
X0601140Y0250705D01*
X0598768Y0248608D01*
X0596346Y0246570D01*
X0593874Y0244591D01*
X0591354Y0242674D01*
X0588788Y0240820D01*
X0586178Y0239028D01*
X0583524Y0237302D01*
X0580828Y0235641D01*
X0578093Y0234047D01*
X0575319Y0232520D01*
X0572509Y0231062D01*
X0569664Y0229673D01*
X0566785Y0228355D01*
X0563875Y0227108D01*
X0560935Y0225932D01*
X0557968Y0224829D01*
X0554974Y0223799D01*
X0551956Y0222843D01*
X0548915Y0221961D01*
X0545853Y0221154D01*
X0542773Y0220422D01*
X0539676Y0219767D01*
X0536563Y0219187D01*
X0533437Y0218684D01*
X0530300Y0218258D01*
X0527153Y0217909D01*
X0523999Y0217638D01*
X0520839Y0217443D01*
X0517675Y0217327D01*
X0514509Y0217288D01*
X0511343Y0217327D01*
X0508179Y0217443D01*
X0505019Y0217638D01*
X0501865Y0217909D01*
X0498718Y0218258D01*
X0495581Y0218684D01*
X0492455Y0219187D01*
X0489342Y0219767D01*
X0486245Y0220422D01*
X0483165Y0221154D01*
X0480103Y0221961D01*
X0477062Y0222843D01*
X0474044Y0223799D01*
X0471050Y0224829D01*
X0468083Y0225932D01*
X0465143Y0227108D01*
X0462233Y0228355D01*
X0459354Y0229673D01*
X0456509Y0231062D01*
X0453699Y0232520D01*
X0450925Y0234047D01*
X0448190Y0235641D01*
X0445494Y0237302D01*
X0442840Y0239028D01*
X0440230Y0240820D01*
X0437664Y0242674D01*
X0435144Y0244591D01*
X0432672Y0246570D01*
X0430250Y0248608D01*
X0427878Y0250705D01*
X0425558Y0252860D01*
X0423292Y0255071D01*
X0421081Y0257337D01*
X0418926Y0259657D01*
X0416829Y0262029D01*
X0414791Y0264451D01*
X0412812Y0266923D01*
X0410895Y0269443D01*
X0409041Y0272009D01*
X0407249Y0274619D01*
X0405523Y0277273D01*
X0403862Y0279969D01*
X0402268Y0282704D01*
X0400741Y0285478D01*
X0399283Y0288288D01*
X0397894Y0291133D01*
X0396576Y0294012D01*
X0395329Y0296922D01*
X0394153Y0299862D01*
X0393050Y0302829D01*
X0392020Y0305823D01*
X0391064Y0308841D01*
X0390182Y0311882D01*
X0389375Y0314944D01*
X0388643Y0318024D01*
X0387988Y0321121D01*
X0387408Y0324234D01*
X0386905Y0327360D01*
X0386479Y0330497D01*
X0386130Y0333644D01*
X0385859Y0336798D01*
X0385664Y0339958D01*
X0385548Y0343122D01*
X0385509Y0346288D01*
X0411509Y0346288D02*
X0411540Y0348816D01*
X0411633Y0351342D01*
X0411788Y0353865D01*
X0412005Y0356384D01*
X0412284Y0358896D01*
X0412624Y0361401D01*
X0413025Y0363897D01*
X0413488Y0366382D01*
X0414012Y0368855D01*
X0414596Y0371315D01*
X0415240Y0373759D01*
X0415944Y0376187D01*
X0416708Y0378597D01*
X0417530Y0380988D01*
X0418411Y0383357D01*
X0419349Y0385704D01*
X0420345Y0388028D01*
X0421398Y0390326D01*
X0422507Y0392598D01*
X0423671Y0394842D01*
X0424890Y0397057D01*
X0426163Y0399241D01*
X0427489Y0401393D01*
X0428868Y0403512D01*
X0430298Y0405596D01*
X0431779Y0407645D01*
X0433309Y0409657D01*
X0434889Y0411631D01*
X0436516Y0413565D01*
X0438191Y0415459D01*
X0439912Y0417311D01*
X0441677Y0419120D01*
X0443486Y0420885D01*
X0445338Y0422606D01*
X0447232Y0424281D01*
X0449166Y0425908D01*
X0451140Y0427488D01*
X0453152Y0429018D01*
X0455201Y0430499D01*
X0457285Y0431929D01*
X0459404Y0433308D01*
X0461556Y0434634D01*
X0463740Y0435907D01*
X0465955Y0437126D01*
X0468199Y0438290D01*
X0470471Y0439399D01*
X0472769Y0440452D01*
X0475093Y0441448D01*
X0477440Y0442386D01*
X0479809Y0443267D01*
X0482200Y0444089D01*
X0484610Y0444853D01*
X0487038Y0445557D01*
X0489482Y0446201D01*
X0491942Y0446785D01*
X0494415Y0447309D01*
X0496900Y0447772D01*
X0499396Y0448173D01*
X0501901Y0448513D01*
X0504413Y0448792D01*
X0506932Y0449009D01*
X0509455Y0449164D01*
X0511981Y0449257D01*
X0514509Y0449288D01*
X0517037Y0449257D01*
X0519563Y0449164D01*
X0522086Y0449009D01*
X0524605Y0448792D01*
X0527117Y0448513D01*
X0529622Y0448173D01*
X0532118Y0447772D01*
X0534603Y0447309D01*
X0537076Y0446785D01*
X0539536Y0446201D01*
X0541980Y0445557D01*
X0544408Y0444853D01*
X0546818Y0444089D01*
X0549209Y0443267D01*
X0551578Y0442386D01*
X0553925Y0441448D01*
X0556249Y0440452D01*
X0558547Y0439399D01*
X0560819Y0438290D01*
X0563063Y0437126D01*
X0565278Y0435907D01*
X0567462Y0434634D01*
X0569614Y0433308D01*
X0571733Y0431929D01*
X0573817Y0430499D01*
X0575866Y0429018D01*
X0577878Y0427488D01*
X0579852Y0425908D01*
X0581786Y0424281D01*
X0583680Y0422606D01*
X0585532Y0420885D01*
X0587341Y0419120D01*
X0589106Y0417311D01*
X0590827Y0415459D01*
X0592502Y0413565D01*
X0594129Y0411631D01*
X0595709Y0409657D01*
X0597239Y0407645D01*
X0598720Y0405596D01*
X0600150Y0403512D01*
X0601529Y0401393D01*
X0602855Y0399241D01*
X0604128Y0397057D01*
X0605347Y0394842D01*
X0606511Y0392598D01*
X0607620Y0390326D01*
X0608673Y0388028D01*
X0609669Y0385704D01*
X0610607Y0383357D01*
X0611488Y0380988D01*
X0612310Y0378597D01*
X0613074Y0376187D01*
X0613778Y0373759D01*
X0614422Y0371315D01*
X0615006Y0368855D01*
X0615530Y0366382D01*
X0615993Y0363897D01*
X0616394Y0361401D01*
X0616734Y0358896D01*
X0617013Y0356384D01*
X0617230Y0353865D01*
X0617385Y0351342D01*
X0617478Y0348816D01*
X0617509Y0346288D01*
X0617478Y0343760D01*
X0617385Y0341234D01*
X0617230Y0338711D01*
X0617013Y0336192D01*
X0616734Y0333680D01*
X0616394Y0331175D01*
X0615993Y0328679D01*
X0615530Y0326194D01*
X0615006Y0323721D01*
X0614422Y0321261D01*
X0613778Y0318817D01*
X0613074Y0316389D01*
X0612310Y0313979D01*
X0611488Y0311588D01*
X0610607Y0309219D01*
X0609669Y0306872D01*
X0608673Y0304548D01*
X0607620Y0302250D01*
X0606511Y0299978D01*
X0605347Y0297734D01*
X0604128Y0295519D01*
X0602855Y0293335D01*
X0601529Y0291183D01*
X0600150Y0289064D01*
X0598720Y0286980D01*
X0597239Y0284931D01*
X0595709Y0282919D01*
X0594129Y0280945D01*
X0592502Y0279011D01*
X0590827Y0277117D01*
X0589106Y0275265D01*
X0587341Y0273456D01*
X0585532Y0271691D01*
X0583680Y0269970D01*
X0581786Y0268295D01*
X0579852Y0266668D01*
X0577878Y0265088D01*
X0575866Y0263558D01*
X0573817Y0262077D01*
X0571733Y0260647D01*
X0569614Y0259268D01*
X0567462Y0257942D01*
X0565278Y0256669D01*
X0563063Y0255450D01*
X0560819Y0254286D01*
X0558547Y0253177D01*
X0556249Y0252124D01*
X0553925Y0251128D01*
X0551578Y0250190D01*
X0549209Y0249309D01*
X0546818Y0248487D01*
X0544408Y0247723D01*
X0541980Y0247019D01*
X0539536Y0246375D01*
X0537076Y0245791D01*
X0534603Y0245267D01*
X0532118Y0244804D01*
X0529622Y0244403D01*
X0527117Y0244063D01*
X0524605Y0243784D01*
X0522086Y0243567D01*
X0519563Y0243412D01*
X0517037Y0243319D01*
X0514509Y0243288D01*
X0511981Y0243319D01*
X0509455Y0243412D01*
X0506932Y0243567D01*
X0504413Y0243784D01*
X0501901Y0244063D01*
X0499396Y0244403D01*
X0496900Y0244804D01*
X0494415Y0245267D01*
X0491942Y0245791D01*
X0489482Y0246375D01*
X0487038Y0247019D01*
X0484610Y0247723D01*
X0482200Y0248487D01*
X0479809Y0249309D01*
X0477440Y0250190D01*
X0475093Y0251128D01*
X0472769Y0252124D01*
X0470471Y0253177D01*
X0468199Y0254286D01*
X0465955Y0255450D01*
X0463740Y0256669D01*
X0461556Y0257942D01*
X0459404Y0259268D01*
X0457285Y0260647D01*
X0455201Y0262077D01*
X0453152Y0263558D01*
X0451140Y0265088D01*
X0449166Y0266668D01*
X0447232Y0268295D01*
X0445338Y0269970D01*
X0443486Y0271691D01*
X0441677Y0273456D01*
X0439912Y0275265D01*
X0438191Y0277117D01*
X0436516Y0279011D01*
X0434889Y0280945D01*
X0433309Y0282919D01*
X0431779Y0284931D01*
X0430298Y0286980D01*
X0428868Y0289064D01*
X0427489Y0291183D01*
X0426163Y0293335D01*
X0424890Y0295519D01*
X0423671Y0297734D01*
X0422507Y0299978D01*
X0421398Y0302250D01*
X0420345Y0304548D01*
X0419349Y0306872D01*
X0418411Y0309219D01*
X0417530Y0311588D01*
X0416708Y0313979D01*
X0415944Y0316389D01*
X0415240Y0318817D01*
X0414596Y0321261D01*
X0414012Y0323721D01*
X0413488Y0326194D01*
X0413025Y0328679D01*
X0412624Y0331175D01*
X0412284Y0333680D01*
X0412005Y0336192D01*
X0411788Y0338711D01*
X0411633Y0341234D01*
X0411540Y0343760D01*
X0411509Y0346288D01*
X0544037Y0265580D02*
X0553348Y0265580D01*
X0553446Y0265582D01*
X0553544Y0265588D01*
X0553642Y0265597D01*
X0553739Y0265611D01*
X0553836Y0265628D01*
X0553932Y0265649D01*
X0554027Y0265674D01*
X0554121Y0265702D01*
X0554213Y0265735D01*
X0554305Y0265770D01*
X0554395Y0265810D01*
X0554483Y0265852D01*
X0554570Y0265899D01*
X0554654Y0265948D01*
X0554737Y0266001D01*
X0554817Y0266057D01*
X0554896Y0266117D01*
X0554972Y0266179D01*
X0555045Y0266244D01*
X0555116Y0266312D01*
X0555184Y0266383D01*
X0555249Y0266456D01*
X0555311Y0266532D01*
X0555371Y0266611D01*
X0555427Y0266691D01*
X0555480Y0266774D01*
X0555529Y0266858D01*
X0555576Y0266945D01*
X0555618Y0267033D01*
X0555658Y0267123D01*
X0555693Y0267215D01*
X0555726Y0267307D01*
X0555754Y0267401D01*
X0555779Y0267496D01*
X0555800Y0267592D01*
X0555817Y0267689D01*
X0555831Y0267786D01*
X0555840Y0267884D01*
X0555846Y0267982D01*
X0555848Y0268080D01*
X0555848Y0277391D01*
X0544037Y0265580D01*
X0561753Y0312824D02*
X0561884Y0312826D01*
X0562015Y0312832D01*
X0562146Y0312841D01*
X0562277Y0312855D01*
X0562407Y0312873D01*
X0562536Y0312894D01*
X0562665Y0312919D01*
X0562793Y0312948D01*
X0562920Y0312981D01*
X0563047Y0313017D01*
X0563171Y0313057D01*
X0563295Y0313101D01*
X0563418Y0313149D01*
X0563538Y0313200D01*
X0563658Y0313255D01*
X0563775Y0313313D01*
X0563891Y0313374D01*
X0564005Y0313439D01*
X0564117Y0313508D01*
X0564227Y0313580D01*
X0564335Y0313654D01*
X0564441Y0313733D01*
X0564544Y0313814D01*
X0564644Y0313898D01*
X0564742Y0313985D01*
X0564838Y0314075D01*
X0564931Y0314168D01*
X0565021Y0314264D01*
X0565108Y0314362D01*
X0565192Y0314462D01*
X0565273Y0314565D01*
X0565352Y0314671D01*
X0565426Y0314779D01*
X0565498Y0314889D01*
X0565567Y0315001D01*
X0565632Y0315115D01*
X0565693Y0315231D01*
X0565751Y0315348D01*
X0565806Y0315468D01*
X0565857Y0315588D01*
X0565905Y0315711D01*
X0565949Y0315835D01*
X0565989Y0315959D01*
X0566025Y0316086D01*
X0566058Y0316213D01*
X0566087Y0316341D01*
X0566112Y0316470D01*
X0566133Y0316599D01*
X0566151Y0316729D01*
X0566165Y0316860D01*
X0566174Y0316991D01*
X0566180Y0317122D01*
X0566182Y0317253D01*
X0566180Y0317384D01*
X0566174Y0317515D01*
X0566165Y0317646D01*
X0566151Y0317777D01*
X0566133Y0317907D01*
X0566112Y0318036D01*
X0566087Y0318165D01*
X0566058Y0318293D01*
X0566025Y0318420D01*
X0565989Y0318547D01*
X0565949Y0318671D01*
X0565905Y0318795D01*
X0565857Y0318918D01*
X0565806Y0319038D01*
X0565751Y0319158D01*
X0565693Y0319275D01*
X0565632Y0319391D01*
X0565567Y0319505D01*
X0565498Y0319617D01*
X0565426Y0319727D01*
X0565352Y0319835D01*
X0565273Y0319941D01*
X0565192Y0320044D01*
X0565108Y0320144D01*
X0565021Y0320242D01*
X0564931Y0320338D01*
X0564838Y0320431D01*
X0564742Y0320521D01*
X0564644Y0320608D01*
X0564544Y0320692D01*
X0564441Y0320773D01*
X0564335Y0320852D01*
X0564227Y0320926D01*
X0564117Y0320998D01*
X0564005Y0321067D01*
X0563891Y0321132D01*
X0563775Y0321193D01*
X0563658Y0321251D01*
X0563538Y0321306D01*
X0563418Y0321357D01*
X0563295Y0321405D01*
X0563171Y0321449D01*
X0563047Y0321489D01*
X0562920Y0321525D01*
X0562793Y0321558D01*
X0562665Y0321587D01*
X0562536Y0321612D01*
X0562407Y0321633D01*
X0562277Y0321651D01*
X0562146Y0321665D01*
X0562015Y0321674D01*
X0561884Y0321680D01*
X0561753Y0321682D01*
X0658034Y0311538D02*
X0662105Y0311538D01*
X0664112Y0311538D02*
X0666147Y0313573D01*
X0665129Y0313573D02*
X0668182Y0313573D01*
X0668182Y0311538D02*
X0668182Y0317643D01*
X0665129Y0317643D01*
X0664112Y0316626D01*
X0664112Y0314591D01*
X0665129Y0313573D01*
X0662105Y0315608D02*
X0660070Y0317643D01*
X0660070Y0311538D01*
X0670189Y0311538D02*
X0674259Y0311538D01*
X0674259Y0317643D01*
D12*
X0566813Y0334978D02*
X0566813Y0337280D01*
X0566046Y0338048D01*
X0565278Y0338048D01*
X0564511Y0337280D01*
X0564511Y0334978D01*
X0562209Y0334978D02*
X0566813Y0334978D01*
X0564511Y0337280D02*
X0563744Y0338048D01*
X0562976Y0338048D01*
X0562209Y0337280D01*
X0562209Y0334978D01*
X0562209Y0339582D02*
X0565278Y0339582D01*
X0566813Y0341117D01*
X0565278Y0342652D01*
X0562209Y0342652D01*
X0564511Y0342652D02*
X0564511Y0339582D01*
X0566813Y0344186D02*
X0566813Y0347255D01*
X0566813Y0345721D02*
X0562209Y0345721D01*
X0562209Y0350325D02*
X0566813Y0350325D01*
X0566813Y0351859D02*
X0566813Y0348790D01*
X0565278Y0353394D02*
X0566813Y0354929D01*
X0562209Y0354929D01*
X0562209Y0356463D02*
X0562209Y0353394D01*
X0448546Y0355919D02*
X0445476Y0355919D01*
X0447011Y0354384D02*
X0447011Y0357454D01*
X0447011Y0344954D02*
X0447011Y0341884D01*
X0460195Y0241092D02*
X0462497Y0241092D01*
X0462497Y0236488D01*
X0460195Y0236488D01*
X0459428Y0237255D01*
X0459428Y0240325D01*
X0460195Y0241092D01*
X0464032Y0241092D02*
X0464032Y0236488D01*
X0467101Y0241092D01*
X0467101Y0236488D01*
X0468636Y0237255D02*
X0468636Y0238790D01*
X0470170Y0238790D01*
X0468636Y0237255D02*
X0469403Y0236488D01*
X0470938Y0236488D01*
X0471705Y0237255D01*
X0471705Y0240325D01*
X0470938Y0241092D01*
X0469403Y0241092D01*
X0468636Y0240325D01*
X0473240Y0238790D02*
X0476309Y0236488D01*
X0473240Y0238790D02*
X0476309Y0241092D01*
X0523428Y0232325D02*
X0523428Y0230790D01*
X0524195Y0230023D01*
X0526497Y0230023D01*
X0524963Y0230023D02*
X0523428Y0228488D01*
X0526497Y0228488D02*
X0526497Y0233092D01*
X0524195Y0233092D01*
X0523428Y0232325D01*
X0528032Y0233092D02*
X0528032Y0228488D01*
X0529567Y0230023D01*
X0531101Y0228488D01*
X0531101Y0233092D01*
X0532636Y0232325D02*
X0532636Y0230790D01*
X0533403Y0230023D01*
X0535705Y0230023D01*
X0535705Y0228488D02*
X0535705Y0233092D01*
X0533403Y0233092D01*
X0532636Y0232325D01*
X0537240Y0230790D02*
X0540309Y0228488D01*
X0537240Y0230790D02*
X0540309Y0233092D01*
X0539547Y0450488D02*
X0539547Y0453557D01*
X0538012Y0453557D02*
X0536478Y0453557D01*
X0537245Y0454325D02*
X0537245Y0451255D01*
X0536478Y0450488D01*
X0539547Y0450488D02*
X0541849Y0450488D01*
X0542616Y0451255D01*
X0542616Y0453557D01*
X0544151Y0454325D02*
X0544918Y0455092D01*
X0546453Y0455092D01*
X0547220Y0454325D01*
X0547220Y0451255D01*
X0546453Y0450488D01*
X0544918Y0450488D01*
X0544151Y0451255D01*
X0544151Y0454325D01*
X0553359Y0452790D02*
X0553359Y0450488D01*
X0555661Y0450488D01*
X0556428Y0451255D01*
X0555661Y0452023D01*
X0553359Y0452023D01*
X0553359Y0452790D02*
X0554126Y0453557D01*
X0555661Y0453557D01*
X0557963Y0453557D02*
X0559497Y0453557D01*
X0558730Y0454325D02*
X0558730Y0451255D01*
X0557963Y0450488D01*
X0561032Y0450488D02*
X0563334Y0450488D01*
X0564101Y0451255D01*
X0563334Y0452023D01*
X0561032Y0452023D01*
X0561032Y0452790D02*
X0561032Y0450488D01*
X0561032Y0452790D02*
X0561799Y0453557D01*
X0563334Y0453557D01*
X0565636Y0454325D02*
X0566403Y0455092D01*
X0568705Y0455092D01*
X0568705Y0450488D01*
X0566403Y0450488D01*
X0565636Y0451255D01*
X0565636Y0454325D01*
X0570240Y0452790D02*
X0573309Y0450488D01*
X0570240Y0452790D02*
X0573309Y0455092D01*
X0510309Y0457488D02*
X0507240Y0459790D01*
X0510309Y0462092D01*
X0505705Y0462092D02*
X0503403Y0462092D01*
X0502636Y0461325D01*
X0502636Y0458255D01*
X0503403Y0457488D01*
X0505705Y0457488D01*
X0505705Y0462092D01*
X0500334Y0460557D02*
X0498799Y0460557D01*
X0498032Y0459790D01*
X0498032Y0457488D01*
X0500334Y0457488D01*
X0501101Y0458255D01*
X0500334Y0459023D01*
X0498032Y0459023D01*
X0496497Y0460557D02*
X0494963Y0460557D01*
X0495730Y0461325D02*
X0495730Y0458255D01*
X0494963Y0457488D01*
X0493428Y0458255D02*
X0493428Y0459790D01*
X0492661Y0460557D01*
X0491126Y0460557D01*
X0490359Y0459790D01*
X0490359Y0459023D01*
X0493428Y0459023D01*
X0493428Y0458255D02*
X0492661Y0457488D01*
X0491126Y0457488D01*
X0484220Y0457488D02*
X0482685Y0457488D01*
X0483453Y0457488D02*
X0483453Y0460557D01*
X0484220Y0460557D01*
X0483453Y0462092D02*
X0483453Y0462859D01*
X0481151Y0460557D02*
X0478849Y0460557D01*
X0478082Y0459790D01*
X0478082Y0457488D01*
X0481151Y0457488D02*
X0481151Y0460557D01*
D13*
X0464312Y0375225D02*
X0464314Y0375330D01*
X0464320Y0375435D01*
X0464330Y0375539D01*
X0464344Y0375643D01*
X0464362Y0375747D01*
X0464384Y0375849D01*
X0464409Y0375951D01*
X0464439Y0376052D01*
X0464472Y0376151D01*
X0464509Y0376249D01*
X0464550Y0376346D01*
X0464595Y0376441D01*
X0464643Y0376534D01*
X0464694Y0376626D01*
X0464750Y0376715D01*
X0464808Y0376802D01*
X0464870Y0376887D01*
X0464934Y0376970D01*
X0465002Y0377050D01*
X0465073Y0377127D01*
X0465147Y0377201D01*
X0465224Y0377273D01*
X0465303Y0377342D01*
X0465385Y0377407D01*
X0465469Y0377470D01*
X0465556Y0377529D01*
X0465645Y0377585D01*
X0465736Y0377638D01*
X0465829Y0377687D01*
X0465923Y0377732D01*
X0466019Y0377774D01*
X0466117Y0377812D01*
X0466216Y0377846D01*
X0466317Y0377877D01*
X0466418Y0377903D01*
X0466521Y0377926D01*
X0466624Y0377945D01*
X0466728Y0377960D01*
X0466832Y0377971D01*
X0466937Y0377978D01*
X0467042Y0377981D01*
X0467147Y0377980D01*
X0467252Y0377975D01*
X0467356Y0377966D01*
X0467460Y0377953D01*
X0467564Y0377936D01*
X0467667Y0377915D01*
X0467769Y0377890D01*
X0467870Y0377862D01*
X0467969Y0377829D01*
X0468068Y0377793D01*
X0468165Y0377753D01*
X0468260Y0377710D01*
X0468354Y0377662D01*
X0468446Y0377612D01*
X0468536Y0377558D01*
X0468624Y0377500D01*
X0468709Y0377439D01*
X0468792Y0377375D01*
X0468873Y0377308D01*
X0468951Y0377238D01*
X0469026Y0377164D01*
X0469098Y0377089D01*
X0469168Y0377010D01*
X0469234Y0376929D01*
X0469298Y0376845D01*
X0469358Y0376759D01*
X0469414Y0376671D01*
X0469468Y0376580D01*
X0469518Y0376488D01*
X0469564Y0376394D01*
X0469607Y0376298D01*
X0469646Y0376200D01*
X0469681Y0376102D01*
X0469712Y0376001D01*
X0469740Y0375900D01*
X0469764Y0375798D01*
X0469784Y0375695D01*
X0469800Y0375591D01*
X0469812Y0375487D01*
X0469820Y0375382D01*
X0469824Y0375277D01*
X0469824Y0375173D01*
X0469820Y0375068D01*
X0469812Y0374963D01*
X0469800Y0374859D01*
X0469784Y0374755D01*
X0469764Y0374652D01*
X0469740Y0374550D01*
X0469712Y0374449D01*
X0469681Y0374348D01*
X0469646Y0374250D01*
X0469607Y0374152D01*
X0469564Y0374056D01*
X0469518Y0373962D01*
X0469468Y0373870D01*
X0469414Y0373779D01*
X0469358Y0373691D01*
X0469298Y0373605D01*
X0469234Y0373521D01*
X0469168Y0373440D01*
X0469098Y0373361D01*
X0469026Y0373286D01*
X0468951Y0373212D01*
X0468873Y0373142D01*
X0468792Y0373075D01*
X0468709Y0373011D01*
X0468624Y0372950D01*
X0468536Y0372892D01*
X0468446Y0372838D01*
X0468354Y0372788D01*
X0468260Y0372740D01*
X0468165Y0372697D01*
X0468068Y0372657D01*
X0467969Y0372621D01*
X0467870Y0372588D01*
X0467769Y0372560D01*
X0467667Y0372535D01*
X0467564Y0372514D01*
X0467460Y0372497D01*
X0467356Y0372484D01*
X0467252Y0372475D01*
X0467147Y0372470D01*
X0467042Y0372469D01*
X0466937Y0372472D01*
X0466832Y0372479D01*
X0466728Y0372490D01*
X0466624Y0372505D01*
X0466521Y0372524D01*
X0466418Y0372547D01*
X0466317Y0372573D01*
X0466216Y0372604D01*
X0466117Y0372638D01*
X0466019Y0372676D01*
X0465923Y0372718D01*
X0465829Y0372763D01*
X0465736Y0372812D01*
X0465645Y0372865D01*
X0465556Y0372921D01*
X0465469Y0372980D01*
X0465385Y0373043D01*
X0465303Y0373108D01*
X0465224Y0373177D01*
X0465147Y0373249D01*
X0465073Y0373323D01*
X0465002Y0373400D01*
X0464934Y0373480D01*
X0464870Y0373563D01*
X0464808Y0373648D01*
X0464750Y0373735D01*
X0464694Y0373824D01*
X0464643Y0373916D01*
X0464595Y0374009D01*
X0464550Y0374104D01*
X0464509Y0374201D01*
X0464472Y0374299D01*
X0464439Y0374398D01*
X0464409Y0374499D01*
X0464384Y0374601D01*
X0464362Y0374703D01*
X0464344Y0374807D01*
X0464330Y0374911D01*
X0464320Y0375015D01*
X0464314Y0375120D01*
X0464312Y0375225D01*
X0464312Y0317351D02*
X0464314Y0317456D01*
X0464320Y0317561D01*
X0464330Y0317665D01*
X0464344Y0317769D01*
X0464362Y0317873D01*
X0464384Y0317975D01*
X0464409Y0318077D01*
X0464439Y0318178D01*
X0464472Y0318277D01*
X0464509Y0318375D01*
X0464550Y0318472D01*
X0464595Y0318567D01*
X0464643Y0318660D01*
X0464694Y0318752D01*
X0464750Y0318841D01*
X0464808Y0318928D01*
X0464870Y0319013D01*
X0464934Y0319096D01*
X0465002Y0319176D01*
X0465073Y0319253D01*
X0465147Y0319327D01*
X0465224Y0319399D01*
X0465303Y0319468D01*
X0465385Y0319533D01*
X0465469Y0319596D01*
X0465556Y0319655D01*
X0465645Y0319711D01*
X0465736Y0319764D01*
X0465829Y0319813D01*
X0465923Y0319858D01*
X0466019Y0319900D01*
X0466117Y0319938D01*
X0466216Y0319972D01*
X0466317Y0320003D01*
X0466418Y0320029D01*
X0466521Y0320052D01*
X0466624Y0320071D01*
X0466728Y0320086D01*
X0466832Y0320097D01*
X0466937Y0320104D01*
X0467042Y0320107D01*
X0467147Y0320106D01*
X0467252Y0320101D01*
X0467356Y0320092D01*
X0467460Y0320079D01*
X0467564Y0320062D01*
X0467667Y0320041D01*
X0467769Y0320016D01*
X0467870Y0319988D01*
X0467969Y0319955D01*
X0468068Y0319919D01*
X0468165Y0319879D01*
X0468260Y0319836D01*
X0468354Y0319788D01*
X0468446Y0319738D01*
X0468536Y0319684D01*
X0468624Y0319626D01*
X0468709Y0319565D01*
X0468792Y0319501D01*
X0468873Y0319434D01*
X0468951Y0319364D01*
X0469026Y0319290D01*
X0469098Y0319215D01*
X0469168Y0319136D01*
X0469234Y0319055D01*
X0469298Y0318971D01*
X0469358Y0318885D01*
X0469414Y0318797D01*
X0469468Y0318706D01*
X0469518Y0318614D01*
X0469564Y0318520D01*
X0469607Y0318424D01*
X0469646Y0318326D01*
X0469681Y0318228D01*
X0469712Y0318127D01*
X0469740Y0318026D01*
X0469764Y0317924D01*
X0469784Y0317821D01*
X0469800Y0317717D01*
X0469812Y0317613D01*
X0469820Y0317508D01*
X0469824Y0317403D01*
X0469824Y0317299D01*
X0469820Y0317194D01*
X0469812Y0317089D01*
X0469800Y0316985D01*
X0469784Y0316881D01*
X0469764Y0316778D01*
X0469740Y0316676D01*
X0469712Y0316575D01*
X0469681Y0316474D01*
X0469646Y0316376D01*
X0469607Y0316278D01*
X0469564Y0316182D01*
X0469518Y0316088D01*
X0469468Y0315996D01*
X0469414Y0315905D01*
X0469358Y0315817D01*
X0469298Y0315731D01*
X0469234Y0315647D01*
X0469168Y0315566D01*
X0469098Y0315487D01*
X0469026Y0315412D01*
X0468951Y0315338D01*
X0468873Y0315268D01*
X0468792Y0315201D01*
X0468709Y0315137D01*
X0468624Y0315076D01*
X0468536Y0315018D01*
X0468446Y0314964D01*
X0468354Y0314914D01*
X0468260Y0314866D01*
X0468165Y0314823D01*
X0468068Y0314783D01*
X0467969Y0314747D01*
X0467870Y0314714D01*
X0467769Y0314686D01*
X0467667Y0314661D01*
X0467564Y0314640D01*
X0467460Y0314623D01*
X0467356Y0314610D01*
X0467252Y0314601D01*
X0467147Y0314596D01*
X0467042Y0314595D01*
X0466937Y0314598D01*
X0466832Y0314605D01*
X0466728Y0314616D01*
X0466624Y0314631D01*
X0466521Y0314650D01*
X0466418Y0314673D01*
X0466317Y0314699D01*
X0466216Y0314730D01*
X0466117Y0314764D01*
X0466019Y0314802D01*
X0465923Y0314844D01*
X0465829Y0314889D01*
X0465736Y0314938D01*
X0465645Y0314991D01*
X0465556Y0315047D01*
X0465469Y0315106D01*
X0465385Y0315169D01*
X0465303Y0315234D01*
X0465224Y0315303D01*
X0465147Y0315375D01*
X0465073Y0315449D01*
X0465002Y0315526D01*
X0464934Y0315606D01*
X0464870Y0315689D01*
X0464808Y0315774D01*
X0464750Y0315861D01*
X0464694Y0315950D01*
X0464643Y0316042D01*
X0464595Y0316135D01*
X0464550Y0316230D01*
X0464509Y0316327D01*
X0464472Y0316425D01*
X0464439Y0316524D01*
X0464409Y0316625D01*
X0464384Y0316727D01*
X0464362Y0316829D01*
X0464344Y0316933D01*
X0464330Y0317037D01*
X0464320Y0317141D01*
X0464314Y0317246D01*
X0464312Y0317351D01*
X0559194Y0317351D02*
X0559196Y0317456D01*
X0559202Y0317561D01*
X0559212Y0317665D01*
X0559226Y0317769D01*
X0559244Y0317873D01*
X0559266Y0317975D01*
X0559291Y0318077D01*
X0559321Y0318178D01*
X0559354Y0318277D01*
X0559391Y0318375D01*
X0559432Y0318472D01*
X0559477Y0318567D01*
X0559525Y0318660D01*
X0559576Y0318752D01*
X0559632Y0318841D01*
X0559690Y0318928D01*
X0559752Y0319013D01*
X0559816Y0319096D01*
X0559884Y0319176D01*
X0559955Y0319253D01*
X0560029Y0319327D01*
X0560106Y0319399D01*
X0560185Y0319468D01*
X0560267Y0319533D01*
X0560351Y0319596D01*
X0560438Y0319655D01*
X0560527Y0319711D01*
X0560618Y0319764D01*
X0560711Y0319813D01*
X0560805Y0319858D01*
X0560901Y0319900D01*
X0560999Y0319938D01*
X0561098Y0319972D01*
X0561199Y0320003D01*
X0561300Y0320029D01*
X0561403Y0320052D01*
X0561506Y0320071D01*
X0561610Y0320086D01*
X0561714Y0320097D01*
X0561819Y0320104D01*
X0561924Y0320107D01*
X0562029Y0320106D01*
X0562134Y0320101D01*
X0562238Y0320092D01*
X0562342Y0320079D01*
X0562446Y0320062D01*
X0562549Y0320041D01*
X0562651Y0320016D01*
X0562752Y0319988D01*
X0562851Y0319955D01*
X0562950Y0319919D01*
X0563047Y0319879D01*
X0563142Y0319836D01*
X0563236Y0319788D01*
X0563328Y0319738D01*
X0563418Y0319684D01*
X0563506Y0319626D01*
X0563591Y0319565D01*
X0563674Y0319501D01*
X0563755Y0319434D01*
X0563833Y0319364D01*
X0563908Y0319290D01*
X0563980Y0319215D01*
X0564050Y0319136D01*
X0564116Y0319055D01*
X0564180Y0318971D01*
X0564240Y0318885D01*
X0564296Y0318797D01*
X0564350Y0318706D01*
X0564400Y0318614D01*
X0564446Y0318520D01*
X0564489Y0318424D01*
X0564528Y0318326D01*
X0564563Y0318228D01*
X0564594Y0318127D01*
X0564622Y0318026D01*
X0564646Y0317924D01*
X0564666Y0317821D01*
X0564682Y0317717D01*
X0564694Y0317613D01*
X0564702Y0317508D01*
X0564706Y0317403D01*
X0564706Y0317299D01*
X0564702Y0317194D01*
X0564694Y0317089D01*
X0564682Y0316985D01*
X0564666Y0316881D01*
X0564646Y0316778D01*
X0564622Y0316676D01*
X0564594Y0316575D01*
X0564563Y0316474D01*
X0564528Y0316376D01*
X0564489Y0316278D01*
X0564446Y0316182D01*
X0564400Y0316088D01*
X0564350Y0315996D01*
X0564296Y0315905D01*
X0564240Y0315817D01*
X0564180Y0315731D01*
X0564116Y0315647D01*
X0564050Y0315566D01*
X0563980Y0315487D01*
X0563908Y0315412D01*
X0563833Y0315338D01*
X0563755Y0315268D01*
X0563674Y0315201D01*
X0563591Y0315137D01*
X0563506Y0315076D01*
X0563418Y0315018D01*
X0563328Y0314964D01*
X0563236Y0314914D01*
X0563142Y0314866D01*
X0563047Y0314823D01*
X0562950Y0314783D01*
X0562851Y0314747D01*
X0562752Y0314714D01*
X0562651Y0314686D01*
X0562549Y0314661D01*
X0562446Y0314640D01*
X0562342Y0314623D01*
X0562238Y0314610D01*
X0562134Y0314601D01*
X0562029Y0314596D01*
X0561924Y0314595D01*
X0561819Y0314598D01*
X0561714Y0314605D01*
X0561610Y0314616D01*
X0561506Y0314631D01*
X0561403Y0314650D01*
X0561300Y0314673D01*
X0561199Y0314699D01*
X0561098Y0314730D01*
X0560999Y0314764D01*
X0560901Y0314802D01*
X0560805Y0314844D01*
X0560711Y0314889D01*
X0560618Y0314938D01*
X0560527Y0314991D01*
X0560438Y0315047D01*
X0560351Y0315106D01*
X0560267Y0315169D01*
X0560185Y0315234D01*
X0560106Y0315303D01*
X0560029Y0315375D01*
X0559955Y0315449D01*
X0559884Y0315526D01*
X0559816Y0315606D01*
X0559752Y0315689D01*
X0559690Y0315774D01*
X0559632Y0315861D01*
X0559576Y0315950D01*
X0559525Y0316042D01*
X0559477Y0316135D01*
X0559432Y0316230D01*
X0559391Y0316327D01*
X0559354Y0316425D01*
X0559321Y0316524D01*
X0559291Y0316625D01*
X0559266Y0316727D01*
X0559244Y0316829D01*
X0559226Y0316933D01*
X0559212Y0317037D01*
X0559202Y0317141D01*
X0559196Y0317246D01*
X0559194Y0317351D01*
X0559194Y0375225D02*
X0559196Y0375330D01*
X0559202Y0375435D01*
X0559212Y0375539D01*
X0559226Y0375643D01*
X0559244Y0375747D01*
X0559266Y0375849D01*
X0559291Y0375951D01*
X0559321Y0376052D01*
X0559354Y0376151D01*
X0559391Y0376249D01*
X0559432Y0376346D01*
X0559477Y0376441D01*
X0559525Y0376534D01*
X0559576Y0376626D01*
X0559632Y0376715D01*
X0559690Y0376802D01*
X0559752Y0376887D01*
X0559816Y0376970D01*
X0559884Y0377050D01*
X0559955Y0377127D01*
X0560029Y0377201D01*
X0560106Y0377273D01*
X0560185Y0377342D01*
X0560267Y0377407D01*
X0560351Y0377470D01*
X0560438Y0377529D01*
X0560527Y0377585D01*
X0560618Y0377638D01*
X0560711Y0377687D01*
X0560805Y0377732D01*
X0560901Y0377774D01*
X0560999Y0377812D01*
X0561098Y0377846D01*
X0561199Y0377877D01*
X0561300Y0377903D01*
X0561403Y0377926D01*
X0561506Y0377945D01*
X0561610Y0377960D01*
X0561714Y0377971D01*
X0561819Y0377978D01*
X0561924Y0377981D01*
X0562029Y0377980D01*
X0562134Y0377975D01*
X0562238Y0377966D01*
X0562342Y0377953D01*
X0562446Y0377936D01*
X0562549Y0377915D01*
X0562651Y0377890D01*
X0562752Y0377862D01*
X0562851Y0377829D01*
X0562950Y0377793D01*
X0563047Y0377753D01*
X0563142Y0377710D01*
X0563236Y0377662D01*
X0563328Y0377612D01*
X0563418Y0377558D01*
X0563506Y0377500D01*
X0563591Y0377439D01*
X0563674Y0377375D01*
X0563755Y0377308D01*
X0563833Y0377238D01*
X0563908Y0377164D01*
X0563980Y0377089D01*
X0564050Y0377010D01*
X0564116Y0376929D01*
X0564180Y0376845D01*
X0564240Y0376759D01*
X0564296Y0376671D01*
X0564350Y0376580D01*
X0564400Y0376488D01*
X0564446Y0376394D01*
X0564489Y0376298D01*
X0564528Y0376200D01*
X0564563Y0376102D01*
X0564594Y0376001D01*
X0564622Y0375900D01*
X0564646Y0375798D01*
X0564666Y0375695D01*
X0564682Y0375591D01*
X0564694Y0375487D01*
X0564702Y0375382D01*
X0564706Y0375277D01*
X0564706Y0375173D01*
X0564702Y0375068D01*
X0564694Y0374963D01*
X0564682Y0374859D01*
X0564666Y0374755D01*
X0564646Y0374652D01*
X0564622Y0374550D01*
X0564594Y0374449D01*
X0564563Y0374348D01*
X0564528Y0374250D01*
X0564489Y0374152D01*
X0564446Y0374056D01*
X0564400Y0373962D01*
X0564350Y0373870D01*
X0564296Y0373779D01*
X0564240Y0373691D01*
X0564180Y0373605D01*
X0564116Y0373521D01*
X0564050Y0373440D01*
X0563980Y0373361D01*
X0563908Y0373286D01*
X0563833Y0373212D01*
X0563755Y0373142D01*
X0563674Y0373075D01*
X0563591Y0373011D01*
X0563506Y0372950D01*
X0563418Y0372892D01*
X0563328Y0372838D01*
X0563236Y0372788D01*
X0563142Y0372740D01*
X0563047Y0372697D01*
X0562950Y0372657D01*
X0562851Y0372621D01*
X0562752Y0372588D01*
X0562651Y0372560D01*
X0562549Y0372535D01*
X0562446Y0372514D01*
X0562342Y0372497D01*
X0562238Y0372484D01*
X0562134Y0372475D01*
X0562029Y0372470D01*
X0561924Y0372469D01*
X0561819Y0372472D01*
X0561714Y0372479D01*
X0561610Y0372490D01*
X0561506Y0372505D01*
X0561403Y0372524D01*
X0561300Y0372547D01*
X0561199Y0372573D01*
X0561098Y0372604D01*
X0560999Y0372638D01*
X0560901Y0372676D01*
X0560805Y0372718D01*
X0560711Y0372763D01*
X0560618Y0372812D01*
X0560527Y0372865D01*
X0560438Y0372921D01*
X0560351Y0372980D01*
X0560267Y0373043D01*
X0560185Y0373108D01*
X0560106Y0373177D01*
X0560029Y0373249D01*
X0559955Y0373323D01*
X0559884Y0373400D01*
X0559816Y0373480D01*
X0559752Y0373563D01*
X0559690Y0373648D01*
X0559632Y0373735D01*
X0559576Y0373824D01*
X0559525Y0373916D01*
X0559477Y0374009D01*
X0559432Y0374104D01*
X0559391Y0374201D01*
X0559354Y0374299D01*
X0559321Y0374398D01*
X0559291Y0374499D01*
X0559266Y0374601D01*
X0559244Y0374703D01*
X0559226Y0374807D01*
X0559212Y0374911D01*
X0559202Y0375015D01*
X0559196Y0375120D01*
X0559194Y0375225D01*
M02*
