G75*
%MOIN*%
%OFA0B0*%
%FSLAX25Y25*%
%IPPOS*%
%LPD*%
%AMOC8*
5,1,8,0,0,1.08239X$1,22.5*
%
%ADD10C,0.06312*%
%ADD11C,0.06737*%
%ADD12C,0.00039*%
%ADD13R,0.08200X0.08200*%
%ADD14C,0.01640*%
%ADD15C,0.08200*%
%ADD16R,0.05950X0.05950*%
%ADD17C,0.07296*%
%ADD18C,0.05950*%
%ADD19C,0.05300*%
%ADD20C,0.05375*%
D10*
X0467068Y0317351D03*
X0467068Y0375225D03*
X0561950Y0375225D03*
X0561950Y0317351D03*
D11*
X0459978Y0346288D02*
X0454041Y0346288D01*
X0454041Y0356288D02*
X0459978Y0356288D01*
D12*
X0462640Y0384965D02*
X0462993Y0384965D01*
X0462816Y0384950D02*
X0462255Y0384999D01*
X0461712Y0385144D01*
X0461202Y0385382D01*
X0460741Y0385705D01*
X0460343Y0386103D01*
X0460020Y0386564D01*
X0459783Y0387074D01*
X0459637Y0387617D01*
X0465995Y0387617D01*
X0466044Y0388178D01*
X0465995Y0388739D01*
X0465850Y0389282D01*
X0465612Y0389792D01*
X0465289Y0390253D01*
X0464891Y0390651D01*
X0464430Y0390974D01*
X0463920Y0391211D01*
X0463377Y0391357D01*
X0462816Y0391406D01*
X0462255Y0391357D01*
X0461712Y0391211D01*
X0461202Y0390974D01*
X0460741Y0390651D01*
X0460343Y0390253D01*
X0460020Y0389792D01*
X0459783Y0389282D01*
X0459637Y0388739D01*
X0459588Y0388178D01*
X0459637Y0387617D01*
X0459634Y0387655D02*
X0465998Y0387655D01*
X0466002Y0387693D02*
X0459630Y0387693D01*
X0459627Y0387730D02*
X0466005Y0387730D01*
X0466008Y0387768D02*
X0459624Y0387768D01*
X0459620Y0387806D02*
X0466012Y0387806D01*
X0466015Y0387844D02*
X0459617Y0387844D01*
X0459614Y0387882D02*
X0466018Y0387882D01*
X0466022Y0387920D02*
X0459610Y0387920D01*
X0459607Y0387958D02*
X0466025Y0387958D01*
X0466028Y0387996D02*
X0459604Y0387996D01*
X0459600Y0388033D02*
X0466032Y0388033D01*
X0466035Y0388071D02*
X0459597Y0388071D01*
X0459594Y0388109D02*
X0466038Y0388109D01*
X0466042Y0388147D02*
X0459590Y0388147D01*
X0459588Y0388185D02*
X0466044Y0388185D01*
X0466041Y0388223D02*
X0459592Y0388223D01*
X0459595Y0388261D02*
X0466037Y0388261D01*
X0466034Y0388299D02*
X0459598Y0388299D01*
X0459602Y0388337D02*
X0466031Y0388337D01*
X0466027Y0388374D02*
X0459605Y0388374D01*
X0459608Y0388412D02*
X0466024Y0388412D01*
X0466021Y0388450D02*
X0459612Y0388450D01*
X0459615Y0388488D02*
X0466017Y0388488D01*
X0466014Y0388526D02*
X0459618Y0388526D01*
X0459622Y0388564D02*
X0466011Y0388564D01*
X0466007Y0388602D02*
X0459625Y0388602D01*
X0459628Y0388640D02*
X0466004Y0388640D01*
X0466001Y0388677D02*
X0459632Y0388677D01*
X0459635Y0388715D02*
X0465997Y0388715D01*
X0465991Y0388753D02*
X0459641Y0388753D01*
X0459651Y0388791D02*
X0465981Y0388791D01*
X0465971Y0388829D02*
X0459661Y0388829D01*
X0459671Y0388867D02*
X0465961Y0388867D01*
X0465951Y0388905D02*
X0459681Y0388905D01*
X0459692Y0388943D02*
X0465941Y0388943D01*
X0465930Y0388981D02*
X0459702Y0388981D01*
X0459712Y0389018D02*
X0465920Y0389018D01*
X0465910Y0389056D02*
X0459722Y0389056D01*
X0459732Y0389094D02*
X0465900Y0389094D01*
X0465890Y0389132D02*
X0459742Y0389132D01*
X0459753Y0389170D02*
X0465880Y0389170D01*
X0465870Y0389208D02*
X0459763Y0389208D01*
X0459773Y0389246D02*
X0465859Y0389246D01*
X0465849Y0389284D02*
X0459783Y0389284D01*
X0459801Y0389321D02*
X0465831Y0389321D01*
X0465814Y0389359D02*
X0459819Y0389359D01*
X0459836Y0389397D02*
X0465796Y0389397D01*
X0465778Y0389435D02*
X0459854Y0389435D01*
X0459872Y0389473D02*
X0465761Y0389473D01*
X0465743Y0389511D02*
X0459889Y0389511D01*
X0459907Y0389549D02*
X0465725Y0389549D01*
X0465708Y0389587D02*
X0459925Y0389587D01*
X0459942Y0389625D02*
X0465690Y0389625D01*
X0465672Y0389662D02*
X0459960Y0389662D01*
X0459978Y0389700D02*
X0465655Y0389700D01*
X0465637Y0389738D02*
X0459995Y0389738D01*
X0460013Y0389776D02*
X0465619Y0389776D01*
X0465597Y0389814D02*
X0460036Y0389814D01*
X0460062Y0389852D02*
X0465570Y0389852D01*
X0465544Y0389890D02*
X0460089Y0389890D01*
X0460115Y0389928D02*
X0465517Y0389928D01*
X0465491Y0389965D02*
X0460142Y0389965D01*
X0460168Y0390003D02*
X0465464Y0390003D01*
X0465438Y0390041D02*
X0460195Y0390041D01*
X0460221Y0390079D02*
X0465411Y0390079D01*
X0465385Y0390117D02*
X0460248Y0390117D01*
X0460274Y0390155D02*
X0465358Y0390155D01*
X0465332Y0390193D02*
X0460301Y0390193D01*
X0460327Y0390231D02*
X0465305Y0390231D01*
X0465274Y0390268D02*
X0460358Y0390268D01*
X0460396Y0390306D02*
X0465236Y0390306D01*
X0465198Y0390344D02*
X0460434Y0390344D01*
X0460472Y0390382D02*
X0465160Y0390382D01*
X0465122Y0390420D02*
X0460510Y0390420D01*
X0460548Y0390458D02*
X0465085Y0390458D01*
X0465047Y0390496D02*
X0460585Y0390496D01*
X0460623Y0390534D02*
X0465009Y0390534D01*
X0464971Y0390572D02*
X0460661Y0390572D01*
X0460699Y0390609D02*
X0464933Y0390609D01*
X0464895Y0390647D02*
X0460737Y0390647D01*
X0460790Y0390685D02*
X0464843Y0390685D01*
X0464789Y0390723D02*
X0460844Y0390723D01*
X0460898Y0390761D02*
X0464734Y0390761D01*
X0464680Y0390799D02*
X0460952Y0390799D01*
X0461006Y0390837D02*
X0464626Y0390837D01*
X0464572Y0390875D02*
X0461060Y0390875D01*
X0461114Y0390912D02*
X0464518Y0390912D01*
X0464464Y0390950D02*
X0461169Y0390950D01*
X0461233Y0390988D02*
X0464399Y0390988D01*
X0464318Y0391026D02*
X0461314Y0391026D01*
X0461396Y0391064D02*
X0464236Y0391064D01*
X0464155Y0391102D02*
X0461477Y0391102D01*
X0461558Y0391140D02*
X0464074Y0391140D01*
X0463993Y0391178D02*
X0461639Y0391178D01*
X0461727Y0391216D02*
X0463905Y0391216D01*
X0463764Y0391253D02*
X0461868Y0391253D01*
X0462010Y0391291D02*
X0463622Y0391291D01*
X0463481Y0391329D02*
X0462151Y0391329D01*
X0462369Y0391367D02*
X0463263Y0391367D01*
X0462832Y0391405D02*
X0462801Y0391405D01*
X0459568Y0394930D02*
X0459568Y0401426D01*
X0466064Y0401426D01*
X0466064Y0394930D01*
X0459568Y0394930D01*
X0459568Y0394966D02*
X0466064Y0394966D01*
X0466064Y0395004D02*
X0459568Y0395004D01*
X0459568Y0395042D02*
X0466064Y0395042D01*
X0466064Y0395079D02*
X0459568Y0395079D01*
X0459568Y0395117D02*
X0466064Y0395117D01*
X0466064Y0395155D02*
X0459568Y0395155D01*
X0459568Y0395193D02*
X0466064Y0395193D01*
X0466064Y0395231D02*
X0459568Y0395231D01*
X0459568Y0395269D02*
X0466064Y0395269D01*
X0466064Y0395307D02*
X0459568Y0395307D01*
X0459568Y0395345D02*
X0466064Y0395345D01*
X0466064Y0395382D02*
X0459568Y0395382D01*
X0459568Y0395420D02*
X0466064Y0395420D01*
X0466064Y0395458D02*
X0459568Y0395458D01*
X0459568Y0395496D02*
X0466064Y0395496D01*
X0466064Y0395534D02*
X0459568Y0395534D01*
X0459568Y0395572D02*
X0466064Y0395572D01*
X0466064Y0395610D02*
X0459568Y0395610D01*
X0459568Y0395648D02*
X0466064Y0395648D01*
X0466064Y0395686D02*
X0459568Y0395686D01*
X0459568Y0395723D02*
X0466064Y0395723D01*
X0466064Y0395761D02*
X0459568Y0395761D01*
X0459568Y0395799D02*
X0466064Y0395799D01*
X0466064Y0395837D02*
X0459568Y0395837D01*
X0459568Y0395875D02*
X0466064Y0395875D01*
X0466064Y0395913D02*
X0459568Y0395913D01*
X0459568Y0395951D02*
X0466064Y0395951D01*
X0466064Y0395989D02*
X0459568Y0395989D01*
X0459568Y0396026D02*
X0466064Y0396026D01*
X0466064Y0396064D02*
X0459568Y0396064D01*
X0459568Y0396102D02*
X0466064Y0396102D01*
X0466064Y0396140D02*
X0459568Y0396140D01*
X0459568Y0396178D02*
X0466064Y0396178D01*
X0466064Y0396216D02*
X0459568Y0396216D01*
X0459568Y0396254D02*
X0466064Y0396254D01*
X0466064Y0396292D02*
X0459568Y0396292D01*
X0459568Y0396330D02*
X0466064Y0396330D01*
X0466064Y0396367D02*
X0459568Y0396367D01*
X0459568Y0396405D02*
X0466064Y0396405D01*
X0466064Y0396443D02*
X0459568Y0396443D01*
X0459568Y0396481D02*
X0466064Y0396481D01*
X0466064Y0396519D02*
X0459568Y0396519D01*
X0459568Y0396557D02*
X0466064Y0396557D01*
X0466064Y0396595D02*
X0459568Y0396595D01*
X0459568Y0396633D02*
X0466064Y0396633D01*
X0466064Y0396670D02*
X0459568Y0396670D01*
X0459568Y0396708D02*
X0466064Y0396708D01*
X0466064Y0396746D02*
X0459568Y0396746D01*
X0459568Y0396784D02*
X0466064Y0396784D01*
X0466064Y0396822D02*
X0459568Y0396822D01*
X0459568Y0396860D02*
X0466064Y0396860D01*
X0466064Y0396898D02*
X0459568Y0396898D01*
X0459568Y0396936D02*
X0466064Y0396936D01*
X0466064Y0396973D02*
X0459568Y0396973D01*
X0459568Y0397011D02*
X0466064Y0397011D01*
X0466064Y0397049D02*
X0459568Y0397049D01*
X0459568Y0397087D02*
X0466064Y0397087D01*
X0466064Y0397125D02*
X0459568Y0397125D01*
X0459568Y0397163D02*
X0466064Y0397163D01*
X0466064Y0397201D02*
X0459568Y0397201D01*
X0459568Y0397239D02*
X0466064Y0397239D01*
X0466064Y0397277D02*
X0459568Y0397277D01*
X0459568Y0397314D02*
X0466064Y0397314D01*
X0466064Y0397352D02*
X0459568Y0397352D01*
X0459568Y0397390D02*
X0466064Y0397390D01*
X0466064Y0397428D02*
X0459568Y0397428D01*
X0459568Y0397466D02*
X0466064Y0397466D01*
X0466064Y0397504D02*
X0459568Y0397504D01*
X0459568Y0397542D02*
X0466064Y0397542D01*
X0466064Y0397580D02*
X0459568Y0397580D01*
X0459568Y0397617D02*
X0466064Y0397617D01*
X0466064Y0397655D02*
X0459568Y0397655D01*
X0459568Y0397693D02*
X0466064Y0397693D01*
X0466064Y0397731D02*
X0459568Y0397731D01*
X0459568Y0397769D02*
X0466064Y0397769D01*
X0466064Y0397807D02*
X0459568Y0397807D01*
X0459568Y0397845D02*
X0466064Y0397845D01*
X0466064Y0397883D02*
X0459568Y0397883D01*
X0459568Y0397921D02*
X0466064Y0397921D01*
X0466064Y0397958D02*
X0459568Y0397958D01*
X0459568Y0397996D02*
X0466064Y0397996D01*
X0466064Y0398034D02*
X0459568Y0398034D01*
X0459568Y0398072D02*
X0466064Y0398072D01*
X0466064Y0398110D02*
X0459568Y0398110D01*
X0459568Y0398148D02*
X0466064Y0398148D01*
X0466064Y0398186D02*
X0459568Y0398186D01*
X0459568Y0398224D02*
X0466064Y0398224D01*
X0466064Y0398261D02*
X0459568Y0398261D01*
X0459568Y0398299D02*
X0466064Y0398299D01*
X0466064Y0398337D02*
X0459568Y0398337D01*
X0459568Y0398375D02*
X0466064Y0398375D01*
X0466064Y0398413D02*
X0459568Y0398413D01*
X0459568Y0398451D02*
X0466064Y0398451D01*
X0466064Y0398489D02*
X0459568Y0398489D01*
X0459568Y0398527D02*
X0466064Y0398527D01*
X0466064Y0398565D02*
X0459568Y0398565D01*
X0459568Y0398602D02*
X0466064Y0398602D01*
X0466064Y0398640D02*
X0459568Y0398640D01*
X0459568Y0398678D02*
X0466064Y0398678D01*
X0466064Y0398716D02*
X0459568Y0398716D01*
X0459568Y0398754D02*
X0466064Y0398754D01*
X0466064Y0398792D02*
X0459568Y0398792D01*
X0459568Y0398830D02*
X0466064Y0398830D01*
X0466064Y0398868D02*
X0459568Y0398868D01*
X0459568Y0398905D02*
X0466064Y0398905D01*
X0466064Y0398943D02*
X0459568Y0398943D01*
X0459568Y0398981D02*
X0466064Y0398981D01*
X0466064Y0399019D02*
X0459568Y0399019D01*
X0459568Y0399057D02*
X0466064Y0399057D01*
X0466064Y0399095D02*
X0459568Y0399095D01*
X0459568Y0399133D02*
X0466064Y0399133D01*
X0466064Y0399171D02*
X0459568Y0399171D01*
X0459568Y0399209D02*
X0466064Y0399209D01*
X0466064Y0399246D02*
X0459568Y0399246D01*
X0459568Y0399284D02*
X0466064Y0399284D01*
X0466064Y0399322D02*
X0459568Y0399322D01*
X0459568Y0399360D02*
X0466064Y0399360D01*
X0466064Y0399398D02*
X0459568Y0399398D01*
X0459568Y0399436D02*
X0466064Y0399436D01*
X0466064Y0399474D02*
X0459568Y0399474D01*
X0459568Y0399512D02*
X0466064Y0399512D01*
X0466064Y0399549D02*
X0459568Y0399549D01*
X0459568Y0399587D02*
X0466064Y0399587D01*
X0466064Y0399625D02*
X0459568Y0399625D01*
X0459568Y0399663D02*
X0466064Y0399663D01*
X0466064Y0399701D02*
X0459568Y0399701D01*
X0459568Y0399739D02*
X0466064Y0399739D01*
X0466064Y0399777D02*
X0459568Y0399777D01*
X0459568Y0399815D02*
X0466064Y0399815D01*
X0466064Y0399852D02*
X0459568Y0399852D01*
X0459568Y0399890D02*
X0466064Y0399890D01*
X0466064Y0399928D02*
X0459568Y0399928D01*
X0459568Y0399966D02*
X0466064Y0399966D01*
X0466064Y0400004D02*
X0459568Y0400004D01*
X0459568Y0400042D02*
X0466064Y0400042D01*
X0466064Y0400080D02*
X0459568Y0400080D01*
X0459568Y0400118D02*
X0466064Y0400118D01*
X0466064Y0400156D02*
X0459568Y0400156D01*
X0459568Y0400193D02*
X0466064Y0400193D01*
X0466064Y0400231D02*
X0459568Y0400231D01*
X0459568Y0400269D02*
X0466064Y0400269D01*
X0466064Y0400307D02*
X0459568Y0400307D01*
X0459568Y0400345D02*
X0466064Y0400345D01*
X0466064Y0400383D02*
X0459568Y0400383D01*
X0459568Y0400421D02*
X0466064Y0400421D01*
X0466064Y0400459D02*
X0459568Y0400459D01*
X0459568Y0400496D02*
X0466064Y0400496D01*
X0466064Y0400534D02*
X0459568Y0400534D01*
X0459568Y0400572D02*
X0466064Y0400572D01*
X0466064Y0400610D02*
X0459568Y0400610D01*
X0459568Y0400648D02*
X0466064Y0400648D01*
X0466064Y0400686D02*
X0459568Y0400686D01*
X0459568Y0400724D02*
X0466064Y0400724D01*
X0466064Y0400762D02*
X0459568Y0400762D01*
X0459568Y0400800D02*
X0466064Y0400800D01*
X0466064Y0400837D02*
X0459568Y0400837D01*
X0459568Y0400875D02*
X0466064Y0400875D01*
X0466064Y0400913D02*
X0459568Y0400913D01*
X0459568Y0400951D02*
X0466064Y0400951D01*
X0466064Y0400989D02*
X0459568Y0400989D01*
X0459568Y0401027D02*
X0466064Y0401027D01*
X0466064Y0401065D02*
X0459568Y0401065D01*
X0459568Y0401103D02*
X0466064Y0401103D01*
X0466064Y0401140D02*
X0459568Y0401140D01*
X0459568Y0401178D02*
X0466064Y0401178D01*
X0466064Y0401216D02*
X0459568Y0401216D01*
X0459568Y0401254D02*
X0466064Y0401254D01*
X0466064Y0401292D02*
X0459568Y0401292D01*
X0459568Y0401330D02*
X0466064Y0401330D01*
X0466064Y0401368D02*
X0459568Y0401368D01*
X0459568Y0401406D02*
X0466064Y0401406D01*
X0465995Y0387617D02*
X0465850Y0387074D01*
X0465612Y0386564D01*
X0465289Y0386103D01*
X0464891Y0385705D01*
X0464430Y0385382D01*
X0463920Y0385144D01*
X0463377Y0384999D01*
X0462816Y0384950D01*
X0462240Y0385003D02*
X0463392Y0385003D01*
X0463534Y0385041D02*
X0462099Y0385041D01*
X0461957Y0385079D02*
X0463675Y0385079D01*
X0463816Y0385117D02*
X0461816Y0385117D01*
X0461690Y0385155D02*
X0463942Y0385155D01*
X0464023Y0385192D02*
X0461609Y0385192D01*
X0461528Y0385230D02*
X0464104Y0385230D01*
X0464186Y0385268D02*
X0461447Y0385268D01*
X0461365Y0385306D02*
X0464267Y0385306D01*
X0464348Y0385344D02*
X0461284Y0385344D01*
X0461203Y0385382D02*
X0464429Y0385382D01*
X0464484Y0385420D02*
X0461148Y0385420D01*
X0461094Y0385458D02*
X0464538Y0385458D01*
X0464592Y0385495D02*
X0461040Y0385495D01*
X0460986Y0385533D02*
X0464646Y0385533D01*
X0464700Y0385571D02*
X0460932Y0385571D01*
X0460878Y0385609D02*
X0464755Y0385609D01*
X0464809Y0385647D02*
X0460823Y0385647D01*
X0460769Y0385685D02*
X0464863Y0385685D01*
X0464909Y0385723D02*
X0460723Y0385723D01*
X0460685Y0385761D02*
X0464947Y0385761D01*
X0464985Y0385798D02*
X0460647Y0385798D01*
X0460609Y0385836D02*
X0465023Y0385836D01*
X0465061Y0385874D02*
X0460571Y0385874D01*
X0460533Y0385912D02*
X0465099Y0385912D01*
X0465137Y0385950D02*
X0460496Y0385950D01*
X0460458Y0385988D02*
X0465174Y0385988D01*
X0465212Y0386026D02*
X0460420Y0386026D01*
X0460382Y0386064D02*
X0465250Y0386064D01*
X0465288Y0386102D02*
X0460344Y0386102D01*
X0460317Y0386139D02*
X0465315Y0386139D01*
X0465341Y0386177D02*
X0460291Y0386177D01*
X0460264Y0386215D02*
X0465368Y0386215D01*
X0465394Y0386253D02*
X0460238Y0386253D01*
X0460211Y0386291D02*
X0465421Y0386291D01*
X0465447Y0386329D02*
X0460185Y0386329D01*
X0460158Y0386367D02*
X0465474Y0386367D01*
X0465500Y0386405D02*
X0460132Y0386405D01*
X0460105Y0386442D02*
X0465527Y0386442D01*
X0465553Y0386480D02*
X0460079Y0386480D01*
X0460052Y0386518D02*
X0465580Y0386518D01*
X0465606Y0386556D02*
X0460026Y0386556D01*
X0460006Y0386594D02*
X0465626Y0386594D01*
X0465644Y0386632D02*
X0459989Y0386632D01*
X0459971Y0386670D02*
X0465661Y0386670D01*
X0465679Y0386708D02*
X0459953Y0386708D01*
X0459936Y0386746D02*
X0465697Y0386746D01*
X0465714Y0386783D02*
X0459918Y0386783D01*
X0459900Y0386821D02*
X0465732Y0386821D01*
X0465750Y0386859D02*
X0459883Y0386859D01*
X0459865Y0386897D02*
X0465767Y0386897D01*
X0465785Y0386935D02*
X0459847Y0386935D01*
X0459830Y0386973D02*
X0465803Y0386973D01*
X0465820Y0387011D02*
X0459812Y0387011D01*
X0459794Y0387049D02*
X0465838Y0387049D01*
X0465853Y0387086D02*
X0459779Y0387086D01*
X0459769Y0387124D02*
X0465863Y0387124D01*
X0465873Y0387162D02*
X0459759Y0387162D01*
X0459749Y0387200D02*
X0465883Y0387200D01*
X0465894Y0387238D02*
X0459739Y0387238D01*
X0459728Y0387276D02*
X0465904Y0387276D01*
X0465914Y0387314D02*
X0459718Y0387314D01*
X0459708Y0387352D02*
X0465924Y0387352D01*
X0465934Y0387390D02*
X0459698Y0387390D01*
X0459688Y0387427D02*
X0465944Y0387427D01*
X0465954Y0387465D02*
X0459678Y0387465D01*
X0459668Y0387503D02*
X0465965Y0387503D01*
X0465975Y0387541D02*
X0459657Y0387541D01*
X0459647Y0387579D02*
X0465985Y0387579D01*
X0331911Y0388217D02*
X0331861Y0387657D01*
X0331716Y0387113D01*
X0331478Y0386603D01*
X0331155Y0386142D01*
X0330757Y0385744D01*
X0330296Y0385422D01*
X0329787Y0385184D01*
X0329243Y0385038D01*
X0328682Y0384989D01*
X0328122Y0385038D01*
X0327578Y0385184D01*
X0327068Y0385422D01*
X0326607Y0385744D01*
X0326209Y0386142D01*
X0325887Y0386603D01*
X0325649Y0387113D01*
X0325503Y0387657D01*
X0325454Y0388217D01*
X0325503Y0388778D01*
X0325649Y0389322D01*
X0325887Y0389831D01*
X0326209Y0390293D01*
X0326607Y0390691D01*
X0327068Y0391013D01*
X0327578Y0391251D01*
X0328122Y0391396D01*
X0328682Y0391446D01*
X0329243Y0391396D01*
X0329787Y0391251D01*
X0330296Y0391013D01*
X0330757Y0390691D01*
X0331155Y0390293D01*
X0331478Y0389831D01*
X0331716Y0389322D01*
X0331861Y0388778D01*
X0331911Y0388217D01*
X0331910Y0388223D02*
X0325454Y0388223D01*
X0325458Y0388261D02*
X0331907Y0388261D01*
X0331903Y0388299D02*
X0325461Y0388299D01*
X0325464Y0388337D02*
X0331900Y0388337D01*
X0331897Y0388374D02*
X0325468Y0388374D01*
X0325471Y0388412D02*
X0331893Y0388412D01*
X0331890Y0388450D02*
X0325474Y0388450D01*
X0325478Y0388488D02*
X0331887Y0388488D01*
X0331884Y0388526D02*
X0325481Y0388526D01*
X0325484Y0388564D02*
X0331880Y0388564D01*
X0331877Y0388602D02*
X0325488Y0388602D01*
X0325491Y0388640D02*
X0331874Y0388640D01*
X0331870Y0388677D02*
X0325494Y0388677D01*
X0325498Y0388715D02*
X0331867Y0388715D01*
X0331864Y0388753D02*
X0325501Y0388753D01*
X0325507Y0388791D02*
X0331858Y0388791D01*
X0331848Y0388829D02*
X0325517Y0388829D01*
X0325527Y0388867D02*
X0331838Y0388867D01*
X0331827Y0388905D02*
X0325537Y0388905D01*
X0325547Y0388943D02*
X0331817Y0388943D01*
X0331807Y0388981D02*
X0325557Y0388981D01*
X0325568Y0389018D02*
X0331797Y0389018D01*
X0331787Y0389056D02*
X0325578Y0389056D01*
X0325588Y0389094D02*
X0331777Y0389094D01*
X0331766Y0389132D02*
X0325598Y0389132D01*
X0325608Y0389170D02*
X0331756Y0389170D01*
X0331746Y0389208D02*
X0325618Y0389208D01*
X0325628Y0389246D02*
X0331736Y0389246D01*
X0331726Y0389284D02*
X0325639Y0389284D01*
X0325649Y0389321D02*
X0331716Y0389321D01*
X0331698Y0389359D02*
X0325666Y0389359D01*
X0325684Y0389397D02*
X0331680Y0389397D01*
X0331663Y0389435D02*
X0325702Y0389435D01*
X0325719Y0389473D02*
X0331645Y0389473D01*
X0331627Y0389511D02*
X0325737Y0389511D01*
X0325755Y0389549D02*
X0331610Y0389549D01*
X0331592Y0389587D02*
X0325772Y0389587D01*
X0325790Y0389625D02*
X0331574Y0389625D01*
X0331557Y0389662D02*
X0325808Y0389662D01*
X0325825Y0389700D02*
X0331539Y0389700D01*
X0331521Y0389738D02*
X0325843Y0389738D01*
X0325861Y0389776D02*
X0331504Y0389776D01*
X0331486Y0389814D02*
X0325878Y0389814D01*
X0325901Y0389852D02*
X0331464Y0389852D01*
X0331437Y0389890D02*
X0325927Y0389890D01*
X0325954Y0389928D02*
X0331411Y0389928D01*
X0331384Y0389965D02*
X0325980Y0389965D01*
X0326007Y0390003D02*
X0331358Y0390003D01*
X0331331Y0390041D02*
X0326033Y0390041D01*
X0326060Y0390079D02*
X0331305Y0390079D01*
X0331278Y0390117D02*
X0326086Y0390117D01*
X0326113Y0390155D02*
X0331252Y0390155D01*
X0331225Y0390193D02*
X0326139Y0390193D01*
X0326166Y0390231D02*
X0331199Y0390231D01*
X0331172Y0390268D02*
X0326192Y0390268D01*
X0326223Y0390306D02*
X0331142Y0390306D01*
X0331104Y0390344D02*
X0326261Y0390344D01*
X0326299Y0390382D02*
X0331066Y0390382D01*
X0331028Y0390420D02*
X0326337Y0390420D01*
X0326374Y0390458D02*
X0330990Y0390458D01*
X0330952Y0390496D02*
X0326412Y0390496D01*
X0326450Y0390534D02*
X0330914Y0390534D01*
X0330876Y0390572D02*
X0326488Y0390572D01*
X0326526Y0390609D02*
X0330839Y0390609D01*
X0330801Y0390647D02*
X0326564Y0390647D01*
X0326602Y0390685D02*
X0330763Y0390685D01*
X0330711Y0390723D02*
X0326654Y0390723D01*
X0326708Y0390761D02*
X0330657Y0390761D01*
X0330603Y0390799D02*
X0326762Y0390799D01*
X0326816Y0390837D02*
X0330548Y0390837D01*
X0330494Y0390875D02*
X0326870Y0390875D01*
X0326924Y0390912D02*
X0330440Y0390912D01*
X0330386Y0390950D02*
X0326979Y0390950D01*
X0327033Y0390988D02*
X0330332Y0390988D01*
X0330268Y0391026D02*
X0327096Y0391026D01*
X0327177Y0391064D02*
X0330187Y0391064D01*
X0330106Y0391102D02*
X0327259Y0391102D01*
X0327340Y0391140D02*
X0330025Y0391140D01*
X0329943Y0391178D02*
X0327421Y0391178D01*
X0327502Y0391216D02*
X0329862Y0391216D01*
X0329777Y0391253D02*
X0327588Y0391253D01*
X0327729Y0391291D02*
X0329635Y0391291D01*
X0329494Y0391329D02*
X0327870Y0391329D01*
X0328012Y0391367D02*
X0329353Y0391367D01*
X0329146Y0391405D02*
X0328218Y0391405D01*
X0328650Y0391443D02*
X0328715Y0391443D01*
X0331908Y0388185D02*
X0325457Y0388185D01*
X0325460Y0388147D02*
X0331904Y0388147D01*
X0331901Y0388109D02*
X0325463Y0388109D01*
X0325467Y0388071D02*
X0331898Y0388071D01*
X0331894Y0388033D02*
X0325470Y0388033D01*
X0325473Y0387996D02*
X0331891Y0387996D01*
X0331888Y0387958D02*
X0325477Y0387958D01*
X0325480Y0387920D02*
X0331884Y0387920D01*
X0331881Y0387882D02*
X0325483Y0387882D01*
X0325487Y0387844D02*
X0331878Y0387844D01*
X0331874Y0387806D02*
X0325490Y0387806D01*
X0325493Y0387768D02*
X0331871Y0387768D01*
X0331868Y0387730D02*
X0325497Y0387730D01*
X0325500Y0387693D02*
X0331865Y0387693D01*
X0331861Y0387655D02*
X0325504Y0387655D01*
X0325514Y0387617D02*
X0331851Y0387617D01*
X0331841Y0387579D02*
X0325524Y0387579D01*
X0325534Y0387541D02*
X0331830Y0387541D01*
X0331820Y0387503D02*
X0325544Y0387503D01*
X0325554Y0387465D02*
X0331810Y0387465D01*
X0331800Y0387427D02*
X0325565Y0387427D01*
X0325575Y0387390D02*
X0331790Y0387390D01*
X0331780Y0387352D02*
X0325585Y0387352D01*
X0325595Y0387314D02*
X0331769Y0387314D01*
X0331759Y0387276D02*
X0325605Y0387276D01*
X0325615Y0387238D02*
X0331749Y0387238D01*
X0331739Y0387200D02*
X0325625Y0387200D01*
X0325636Y0387162D02*
X0331729Y0387162D01*
X0331719Y0387124D02*
X0325646Y0387124D01*
X0325661Y0387086D02*
X0331703Y0387086D01*
X0331686Y0387049D02*
X0325679Y0387049D01*
X0325696Y0387011D02*
X0331668Y0387011D01*
X0331650Y0386973D02*
X0325714Y0386973D01*
X0325732Y0386935D02*
X0331633Y0386935D01*
X0331615Y0386897D02*
X0325749Y0386897D01*
X0325767Y0386859D02*
X0331597Y0386859D01*
X0331580Y0386821D02*
X0325785Y0386821D01*
X0325802Y0386783D02*
X0331562Y0386783D01*
X0331544Y0386746D02*
X0325820Y0386746D01*
X0325838Y0386708D02*
X0331527Y0386708D01*
X0331509Y0386670D02*
X0325855Y0386670D01*
X0325873Y0386632D02*
X0331491Y0386632D01*
X0331471Y0386594D02*
X0325893Y0386594D01*
X0325919Y0386556D02*
X0331445Y0386556D01*
X0331419Y0386518D02*
X0325946Y0386518D01*
X0325972Y0386480D02*
X0331392Y0386480D01*
X0331366Y0386442D02*
X0325999Y0386442D01*
X0326025Y0386405D02*
X0331339Y0386405D01*
X0331313Y0386367D02*
X0326052Y0386367D01*
X0326078Y0386329D02*
X0331286Y0386329D01*
X0331260Y0386291D02*
X0326105Y0386291D01*
X0326131Y0386253D02*
X0331233Y0386253D01*
X0331207Y0386215D02*
X0326158Y0386215D01*
X0326184Y0386177D02*
X0331180Y0386177D01*
X0331153Y0386139D02*
X0326212Y0386139D01*
X0326250Y0386102D02*
X0331115Y0386102D01*
X0331077Y0386064D02*
X0326287Y0386064D01*
X0326325Y0386026D02*
X0331039Y0386026D01*
X0331001Y0385988D02*
X0326363Y0385988D01*
X0326401Y0385950D02*
X0330963Y0385950D01*
X0330925Y0385912D02*
X0326439Y0385912D01*
X0326477Y0385874D02*
X0330888Y0385874D01*
X0330850Y0385836D02*
X0326515Y0385836D01*
X0326553Y0385798D02*
X0330812Y0385798D01*
X0330774Y0385761D02*
X0326591Y0385761D01*
X0326638Y0385723D02*
X0330727Y0385723D01*
X0330673Y0385685D02*
X0326692Y0385685D01*
X0326746Y0385647D02*
X0330619Y0385647D01*
X0330564Y0385609D02*
X0326800Y0385609D01*
X0326854Y0385571D02*
X0330510Y0385571D01*
X0330456Y0385533D02*
X0326908Y0385533D01*
X0326963Y0385495D02*
X0330402Y0385495D01*
X0330348Y0385458D02*
X0327017Y0385458D01*
X0327072Y0385420D02*
X0330292Y0385420D01*
X0330211Y0385382D02*
X0327154Y0385382D01*
X0327235Y0385344D02*
X0330130Y0385344D01*
X0330048Y0385306D02*
X0327316Y0385306D01*
X0327397Y0385268D02*
X0329967Y0385268D01*
X0329886Y0385230D02*
X0327478Y0385230D01*
X0327560Y0385192D02*
X0329805Y0385192D01*
X0329677Y0385155D02*
X0327687Y0385155D01*
X0327829Y0385117D02*
X0329536Y0385117D01*
X0329394Y0385079D02*
X0327970Y0385079D01*
X0328112Y0385041D02*
X0329253Y0385041D01*
X0328842Y0385003D02*
X0328523Y0385003D01*
X0328682Y0381446D02*
X0329243Y0381396D01*
X0329787Y0381251D01*
X0330296Y0381013D01*
X0330757Y0380691D01*
X0331155Y0380293D01*
X0331478Y0379831D01*
X0331716Y0379322D01*
X0331861Y0378778D01*
X0331911Y0378217D01*
X0331861Y0377657D01*
X0331716Y0377113D01*
X0331478Y0376603D01*
X0331155Y0376142D01*
X0330757Y0375744D01*
X0330296Y0375422D01*
X0329787Y0375184D01*
X0329243Y0375038D01*
X0328682Y0374989D01*
X0328122Y0375038D01*
X0327578Y0375184D01*
X0327068Y0375422D01*
X0326607Y0375744D01*
X0326209Y0376142D01*
X0325887Y0376603D01*
X0325649Y0377113D01*
X0325503Y0377657D01*
X0325454Y0378217D01*
X0325503Y0378778D01*
X0325649Y0379322D01*
X0325887Y0379831D01*
X0326209Y0380293D01*
X0326607Y0380691D01*
X0327068Y0381013D01*
X0327578Y0381251D01*
X0328122Y0381396D01*
X0328682Y0381446D01*
X0328642Y0381442D02*
X0328723Y0381442D01*
X0329154Y0381404D02*
X0328210Y0381404D01*
X0328009Y0381366D02*
X0329355Y0381366D01*
X0329497Y0381328D02*
X0327868Y0381328D01*
X0327727Y0381291D02*
X0329638Y0381291D01*
X0329779Y0381253D02*
X0327585Y0381253D01*
X0327501Y0381215D02*
X0329864Y0381215D01*
X0329945Y0381177D02*
X0327420Y0381177D01*
X0327338Y0381139D02*
X0330026Y0381139D01*
X0330107Y0381101D02*
X0327257Y0381101D01*
X0327176Y0381063D02*
X0330189Y0381063D01*
X0330270Y0381025D02*
X0327095Y0381025D01*
X0327032Y0380988D02*
X0330333Y0380988D01*
X0330387Y0380950D02*
X0326978Y0380950D01*
X0326923Y0380912D02*
X0330441Y0380912D01*
X0330495Y0380874D02*
X0326869Y0380874D01*
X0326815Y0380836D02*
X0330549Y0380836D01*
X0330604Y0380798D02*
X0326761Y0380798D01*
X0326707Y0380760D02*
X0330658Y0380760D01*
X0330712Y0380722D02*
X0326653Y0380722D01*
X0326601Y0380684D02*
X0330763Y0380684D01*
X0330801Y0380647D02*
X0326563Y0380647D01*
X0326525Y0380609D02*
X0330839Y0380609D01*
X0330877Y0380571D02*
X0326487Y0380571D01*
X0326449Y0380533D02*
X0330915Y0380533D01*
X0330953Y0380495D02*
X0326412Y0380495D01*
X0326374Y0380457D02*
X0330991Y0380457D01*
X0331029Y0380419D02*
X0326336Y0380419D01*
X0326298Y0380381D02*
X0331067Y0380381D01*
X0331104Y0380344D02*
X0326260Y0380344D01*
X0326222Y0380306D02*
X0331142Y0380306D01*
X0331173Y0380268D02*
X0326192Y0380268D01*
X0326165Y0380230D02*
X0331199Y0380230D01*
X0331226Y0380192D02*
X0326139Y0380192D01*
X0326112Y0380154D02*
X0331252Y0380154D01*
X0331279Y0380116D02*
X0326086Y0380116D01*
X0326059Y0380078D02*
X0331305Y0380078D01*
X0331332Y0380041D02*
X0326033Y0380041D01*
X0326006Y0380003D02*
X0331358Y0380003D01*
X0331385Y0379965D02*
X0325980Y0379965D01*
X0325953Y0379927D02*
X0331411Y0379927D01*
X0331438Y0379889D02*
X0325927Y0379889D01*
X0325900Y0379851D02*
X0331464Y0379851D01*
X0331486Y0379813D02*
X0325878Y0379813D01*
X0325860Y0379775D02*
X0331504Y0379775D01*
X0331522Y0379737D02*
X0325843Y0379737D01*
X0325825Y0379700D02*
X0331539Y0379700D01*
X0331557Y0379662D02*
X0325807Y0379662D01*
X0325790Y0379624D02*
X0331575Y0379624D01*
X0331592Y0379586D02*
X0325772Y0379586D01*
X0325754Y0379548D02*
X0331610Y0379548D01*
X0331628Y0379510D02*
X0325737Y0379510D01*
X0325719Y0379472D02*
X0331645Y0379472D01*
X0331663Y0379434D02*
X0325701Y0379434D01*
X0325684Y0379397D02*
X0331681Y0379397D01*
X0331698Y0379359D02*
X0325666Y0379359D01*
X0325649Y0379321D02*
X0331716Y0379321D01*
X0331726Y0379283D02*
X0325638Y0379283D01*
X0325628Y0379245D02*
X0331736Y0379245D01*
X0331746Y0379207D02*
X0325618Y0379207D01*
X0325608Y0379169D02*
X0331757Y0379169D01*
X0331767Y0379131D02*
X0325598Y0379131D01*
X0325588Y0379093D02*
X0331777Y0379093D01*
X0331787Y0379056D02*
X0325577Y0379056D01*
X0325567Y0379018D02*
X0331797Y0379018D01*
X0331807Y0378980D02*
X0325557Y0378980D01*
X0325547Y0378942D02*
X0331817Y0378942D01*
X0331828Y0378904D02*
X0325537Y0378904D01*
X0325527Y0378866D02*
X0331838Y0378866D01*
X0331848Y0378828D02*
X0325517Y0378828D01*
X0325506Y0378790D02*
X0331858Y0378790D01*
X0331864Y0378753D02*
X0325501Y0378753D01*
X0325498Y0378715D02*
X0331867Y0378715D01*
X0331870Y0378677D02*
X0325494Y0378677D01*
X0325491Y0378639D02*
X0331874Y0378639D01*
X0331877Y0378601D02*
X0325488Y0378601D01*
X0325484Y0378563D02*
X0331880Y0378563D01*
X0331884Y0378525D02*
X0325481Y0378525D01*
X0325478Y0378487D02*
X0331887Y0378487D01*
X0331890Y0378449D02*
X0325474Y0378449D01*
X0325471Y0378412D02*
X0331894Y0378412D01*
X0331897Y0378374D02*
X0325468Y0378374D01*
X0325464Y0378336D02*
X0331900Y0378336D01*
X0331904Y0378298D02*
X0325461Y0378298D01*
X0325458Y0378260D02*
X0331907Y0378260D01*
X0331910Y0378222D02*
X0325454Y0378222D01*
X0325457Y0378184D02*
X0331908Y0378184D01*
X0331904Y0378146D02*
X0325460Y0378146D01*
X0325463Y0378109D02*
X0331901Y0378109D01*
X0331898Y0378071D02*
X0325467Y0378071D01*
X0325470Y0378033D02*
X0331894Y0378033D01*
X0331891Y0377995D02*
X0325473Y0377995D01*
X0325477Y0377957D02*
X0331888Y0377957D01*
X0331884Y0377919D02*
X0325480Y0377919D01*
X0325483Y0377881D02*
X0331881Y0377881D01*
X0331878Y0377843D02*
X0325487Y0377843D01*
X0325490Y0377806D02*
X0331874Y0377806D01*
X0331871Y0377768D02*
X0325493Y0377768D01*
X0325497Y0377730D02*
X0331868Y0377730D01*
X0331864Y0377692D02*
X0325500Y0377692D01*
X0325504Y0377654D02*
X0331861Y0377654D01*
X0331850Y0377616D02*
X0325514Y0377616D01*
X0325524Y0377578D02*
X0331840Y0377578D01*
X0331830Y0377540D02*
X0325534Y0377540D01*
X0325544Y0377502D02*
X0331820Y0377502D01*
X0331810Y0377465D02*
X0325555Y0377465D01*
X0325565Y0377427D02*
X0331800Y0377427D01*
X0331790Y0377389D02*
X0325575Y0377389D01*
X0325585Y0377351D02*
X0331779Y0377351D01*
X0331769Y0377313D02*
X0325595Y0377313D01*
X0325605Y0377275D02*
X0331759Y0377275D01*
X0331749Y0377237D02*
X0325615Y0377237D01*
X0325626Y0377199D02*
X0331739Y0377199D01*
X0331729Y0377162D02*
X0325636Y0377162D01*
X0325646Y0377124D02*
X0331719Y0377124D01*
X0331703Y0377086D02*
X0325661Y0377086D01*
X0325679Y0377048D02*
X0331685Y0377048D01*
X0331668Y0377010D02*
X0325697Y0377010D01*
X0325714Y0376972D02*
X0331650Y0376972D01*
X0331632Y0376934D02*
X0325732Y0376934D01*
X0325750Y0376896D02*
X0331615Y0376896D01*
X0331597Y0376858D02*
X0325767Y0376858D01*
X0325785Y0376821D02*
X0331579Y0376821D01*
X0331562Y0376783D02*
X0325803Y0376783D01*
X0325820Y0376745D02*
X0331544Y0376745D01*
X0331526Y0376707D02*
X0325838Y0376707D01*
X0325856Y0376669D02*
X0331509Y0376669D01*
X0331491Y0376631D02*
X0325873Y0376631D01*
X0325893Y0376593D02*
X0331471Y0376593D01*
X0331445Y0376555D02*
X0325920Y0376555D01*
X0325946Y0376518D02*
X0331418Y0376518D01*
X0331392Y0376480D02*
X0325973Y0376480D01*
X0325999Y0376442D02*
X0331365Y0376442D01*
X0331339Y0376404D02*
X0326026Y0376404D01*
X0326052Y0376366D02*
X0331312Y0376366D01*
X0331286Y0376328D02*
X0326079Y0376328D01*
X0326105Y0376290D02*
X0331259Y0376290D01*
X0331233Y0376252D02*
X0326132Y0376252D01*
X0326158Y0376214D02*
X0331206Y0376214D01*
X0331180Y0376177D02*
X0326185Y0376177D01*
X0326212Y0376139D02*
X0331152Y0376139D01*
X0331114Y0376101D02*
X0326250Y0376101D01*
X0326288Y0376063D02*
X0331076Y0376063D01*
X0331038Y0376025D02*
X0326326Y0376025D01*
X0326364Y0375987D02*
X0331001Y0375987D01*
X0330963Y0375949D02*
X0326402Y0375949D01*
X0326440Y0375911D02*
X0330925Y0375911D01*
X0330887Y0375874D02*
X0326478Y0375874D01*
X0326515Y0375836D02*
X0330849Y0375836D01*
X0330811Y0375798D02*
X0326553Y0375798D01*
X0326591Y0375760D02*
X0330773Y0375760D01*
X0330726Y0375722D02*
X0326639Y0375722D01*
X0326693Y0375684D02*
X0330672Y0375684D01*
X0330618Y0375646D02*
X0326747Y0375646D01*
X0326801Y0375608D02*
X0330563Y0375608D01*
X0330509Y0375571D02*
X0326855Y0375571D01*
X0326909Y0375533D02*
X0330455Y0375533D01*
X0330401Y0375495D02*
X0326964Y0375495D01*
X0327018Y0375457D02*
X0330347Y0375457D01*
X0330291Y0375419D02*
X0327074Y0375419D01*
X0327155Y0375381D02*
X0330209Y0375381D01*
X0330128Y0375343D02*
X0327236Y0375343D01*
X0327317Y0375305D02*
X0330047Y0375305D01*
X0329966Y0375267D02*
X0327399Y0375267D01*
X0327480Y0375230D02*
X0329885Y0375230D01*
X0329803Y0375192D02*
X0327561Y0375192D01*
X0327690Y0375154D02*
X0329674Y0375154D01*
X0329533Y0375116D02*
X0327831Y0375116D01*
X0327973Y0375078D02*
X0329392Y0375078D01*
X0329250Y0375040D02*
X0328114Y0375040D01*
X0328531Y0375002D02*
X0328834Y0375002D01*
X0328682Y0371446D02*
X0329243Y0371396D01*
X0329787Y0371251D01*
X0330296Y0371013D01*
X0330757Y0370691D01*
X0331155Y0370293D01*
X0331478Y0369831D01*
X0331716Y0369322D01*
X0331861Y0368778D01*
X0331911Y0368217D01*
X0331861Y0367657D01*
X0331716Y0367113D01*
X0331478Y0366603D01*
X0331155Y0366142D01*
X0330757Y0365744D01*
X0330296Y0365422D01*
X0329787Y0365184D01*
X0329243Y0365038D01*
X0328682Y0364989D01*
X0328122Y0365038D01*
X0327578Y0365184D01*
X0327068Y0365422D01*
X0326607Y0365744D01*
X0326209Y0366142D01*
X0325887Y0366603D01*
X0325649Y0367113D01*
X0325503Y0367657D01*
X0325454Y0368217D01*
X0325503Y0368778D01*
X0325649Y0369322D01*
X0325887Y0369831D01*
X0326209Y0370293D01*
X0326607Y0370691D01*
X0327068Y0371013D01*
X0327578Y0371251D01*
X0328122Y0371396D01*
X0328682Y0371446D01*
X0328634Y0371441D02*
X0328730Y0371441D01*
X0329162Y0371404D02*
X0328202Y0371404D01*
X0328007Y0371366D02*
X0329358Y0371366D01*
X0329499Y0371328D02*
X0327865Y0371328D01*
X0327724Y0371290D02*
X0329641Y0371290D01*
X0329782Y0371252D02*
X0327583Y0371252D01*
X0327499Y0371214D02*
X0329865Y0371214D01*
X0329946Y0371176D02*
X0327418Y0371176D01*
X0327337Y0371138D02*
X0330028Y0371138D01*
X0330109Y0371101D02*
X0327256Y0371101D01*
X0327174Y0371063D02*
X0330190Y0371063D01*
X0330271Y0371025D02*
X0327093Y0371025D01*
X0327031Y0370987D02*
X0330334Y0370987D01*
X0330388Y0370949D02*
X0326977Y0370949D01*
X0326922Y0370911D02*
X0330442Y0370911D01*
X0330496Y0370873D02*
X0326868Y0370873D01*
X0326814Y0370835D02*
X0330550Y0370835D01*
X0330605Y0370797D02*
X0326760Y0370797D01*
X0326706Y0370760D02*
X0330659Y0370760D01*
X0330713Y0370722D02*
X0326652Y0370722D01*
X0326600Y0370684D02*
X0330764Y0370684D01*
X0330802Y0370646D02*
X0326562Y0370646D01*
X0326525Y0370608D02*
X0330840Y0370608D01*
X0330878Y0370570D02*
X0326487Y0370570D01*
X0326449Y0370532D02*
X0330916Y0370532D01*
X0330954Y0370494D02*
X0326411Y0370494D01*
X0326373Y0370457D02*
X0330991Y0370457D01*
X0331029Y0370419D02*
X0326335Y0370419D01*
X0326297Y0370381D02*
X0331067Y0370381D01*
X0331105Y0370343D02*
X0326259Y0370343D01*
X0326221Y0370305D02*
X0331143Y0370305D01*
X0331173Y0370267D02*
X0326191Y0370267D01*
X0326165Y0370229D02*
X0331200Y0370229D01*
X0331226Y0370191D02*
X0326138Y0370191D01*
X0326112Y0370153D02*
X0331253Y0370153D01*
X0331279Y0370116D02*
X0326085Y0370116D01*
X0326059Y0370078D02*
X0331306Y0370078D01*
X0331332Y0370040D02*
X0326032Y0370040D01*
X0326006Y0370002D02*
X0331359Y0370002D01*
X0331385Y0369964D02*
X0325979Y0369964D01*
X0325953Y0369926D02*
X0331412Y0369926D01*
X0331438Y0369888D02*
X0325926Y0369888D01*
X0325900Y0369850D02*
X0331465Y0369850D01*
X0331487Y0369813D02*
X0325878Y0369813D01*
X0325860Y0369775D02*
X0331504Y0369775D01*
X0331522Y0369737D02*
X0325842Y0369737D01*
X0325825Y0369699D02*
X0331540Y0369699D01*
X0331557Y0369661D02*
X0325807Y0369661D01*
X0325789Y0369623D02*
X0331575Y0369623D01*
X0331593Y0369585D02*
X0325772Y0369585D01*
X0325754Y0369547D02*
X0331610Y0369547D01*
X0331628Y0369509D02*
X0325736Y0369509D01*
X0325719Y0369472D02*
X0331646Y0369472D01*
X0331663Y0369434D02*
X0325701Y0369434D01*
X0325683Y0369396D02*
X0331681Y0369396D01*
X0331699Y0369358D02*
X0325666Y0369358D01*
X0325648Y0369320D02*
X0331716Y0369320D01*
X0331726Y0369282D02*
X0325638Y0369282D01*
X0325628Y0369244D02*
X0331736Y0369244D01*
X0331747Y0369206D02*
X0325618Y0369206D01*
X0325608Y0369169D02*
X0331757Y0369169D01*
X0331767Y0369131D02*
X0325598Y0369131D01*
X0325587Y0369093D02*
X0331777Y0369093D01*
X0331787Y0369055D02*
X0325577Y0369055D01*
X0325567Y0369017D02*
X0331797Y0369017D01*
X0331807Y0368979D02*
X0325557Y0368979D01*
X0325547Y0368941D02*
X0331818Y0368941D01*
X0331828Y0368903D02*
X0325537Y0368903D01*
X0325527Y0368866D02*
X0331838Y0368866D01*
X0331848Y0368828D02*
X0325516Y0368828D01*
X0325506Y0368790D02*
X0331858Y0368790D01*
X0331864Y0368752D02*
X0325501Y0368752D01*
X0325497Y0368714D02*
X0331867Y0368714D01*
X0331870Y0368676D02*
X0325494Y0368676D01*
X0325491Y0368638D02*
X0331874Y0368638D01*
X0331877Y0368600D02*
X0325488Y0368600D01*
X0325484Y0368562D02*
X0331880Y0368562D01*
X0331884Y0368525D02*
X0325481Y0368525D01*
X0325478Y0368487D02*
X0331887Y0368487D01*
X0331890Y0368449D02*
X0325474Y0368449D01*
X0325471Y0368411D02*
X0331894Y0368411D01*
X0331897Y0368373D02*
X0325468Y0368373D01*
X0325464Y0368335D02*
X0331900Y0368335D01*
X0331904Y0368297D02*
X0325461Y0368297D01*
X0325458Y0368259D02*
X0331907Y0368259D01*
X0331910Y0368222D02*
X0325454Y0368222D01*
X0325457Y0368184D02*
X0331908Y0368184D01*
X0331904Y0368146D02*
X0325460Y0368146D01*
X0325463Y0368108D02*
X0331901Y0368108D01*
X0331898Y0368070D02*
X0325467Y0368070D01*
X0325470Y0368032D02*
X0331894Y0368032D01*
X0331891Y0367994D02*
X0325473Y0367994D01*
X0325477Y0367956D02*
X0331888Y0367956D01*
X0331884Y0367918D02*
X0325480Y0367918D01*
X0325483Y0367881D02*
X0331881Y0367881D01*
X0331878Y0367843D02*
X0325487Y0367843D01*
X0325490Y0367805D02*
X0331874Y0367805D01*
X0331871Y0367767D02*
X0325493Y0367767D01*
X0325497Y0367729D02*
X0331868Y0367729D01*
X0331864Y0367691D02*
X0325500Y0367691D01*
X0325504Y0367653D02*
X0331860Y0367653D01*
X0331850Y0367615D02*
X0325514Y0367615D01*
X0325524Y0367578D02*
X0331840Y0367578D01*
X0331830Y0367540D02*
X0325534Y0367540D01*
X0325545Y0367502D02*
X0331820Y0367502D01*
X0331810Y0367464D02*
X0325555Y0367464D01*
X0325565Y0367426D02*
X0331800Y0367426D01*
X0331789Y0367388D02*
X0325575Y0367388D01*
X0325585Y0367350D02*
X0331779Y0367350D01*
X0331769Y0367312D02*
X0325595Y0367312D01*
X0325605Y0367274D02*
X0331759Y0367274D01*
X0331749Y0367237D02*
X0325616Y0367237D01*
X0325626Y0367199D02*
X0331739Y0367199D01*
X0331729Y0367161D02*
X0325636Y0367161D01*
X0325646Y0367123D02*
X0331718Y0367123D01*
X0331703Y0367085D02*
X0325662Y0367085D01*
X0325679Y0367047D02*
X0331685Y0367047D01*
X0331667Y0367009D02*
X0325697Y0367009D01*
X0325715Y0366971D02*
X0331650Y0366971D01*
X0331632Y0366934D02*
X0325732Y0366934D01*
X0325750Y0366896D02*
X0331614Y0366896D01*
X0331597Y0366858D02*
X0325768Y0366858D01*
X0325785Y0366820D02*
X0331579Y0366820D01*
X0331561Y0366782D02*
X0325803Y0366782D01*
X0325821Y0366744D02*
X0331544Y0366744D01*
X0331526Y0366706D02*
X0325838Y0366706D01*
X0325856Y0366668D02*
X0331508Y0366668D01*
X0331491Y0366630D02*
X0325874Y0366630D01*
X0325894Y0366593D02*
X0331471Y0366593D01*
X0331444Y0366555D02*
X0325920Y0366555D01*
X0325947Y0366517D02*
X0331418Y0366517D01*
X0331391Y0366479D02*
X0325973Y0366479D01*
X0326000Y0366441D02*
X0331365Y0366441D01*
X0331338Y0366403D02*
X0326026Y0366403D01*
X0326053Y0366365D02*
X0331312Y0366365D01*
X0331285Y0366327D02*
X0326079Y0366327D01*
X0326106Y0366290D02*
X0331259Y0366290D01*
X0331232Y0366252D02*
X0326132Y0366252D01*
X0326159Y0366214D02*
X0331206Y0366214D01*
X0331179Y0366176D02*
X0326185Y0366176D01*
X0326213Y0366138D02*
X0331151Y0366138D01*
X0331113Y0366100D02*
X0326251Y0366100D01*
X0326289Y0366062D02*
X0331076Y0366062D01*
X0331038Y0366024D02*
X0326327Y0366024D01*
X0326365Y0365987D02*
X0331000Y0365987D01*
X0330962Y0365949D02*
X0326402Y0365949D01*
X0326440Y0365911D02*
X0330924Y0365911D01*
X0330886Y0365873D02*
X0326478Y0365873D01*
X0326516Y0365835D02*
X0330848Y0365835D01*
X0330810Y0365797D02*
X0326554Y0365797D01*
X0326592Y0365759D02*
X0330773Y0365759D01*
X0330725Y0365721D02*
X0326640Y0365721D01*
X0326694Y0365683D02*
X0330671Y0365683D01*
X0330617Y0365646D02*
X0326748Y0365646D01*
X0326802Y0365608D02*
X0330562Y0365608D01*
X0330508Y0365570D02*
X0326856Y0365570D01*
X0326910Y0365532D02*
X0330454Y0365532D01*
X0330400Y0365494D02*
X0326965Y0365494D01*
X0327019Y0365456D02*
X0330346Y0365456D01*
X0330289Y0365418D02*
X0327075Y0365418D01*
X0327156Y0365380D02*
X0330208Y0365380D01*
X0330127Y0365343D02*
X0327238Y0365343D01*
X0327319Y0365305D02*
X0330046Y0365305D01*
X0329964Y0365267D02*
X0327400Y0365267D01*
X0327481Y0365229D02*
X0329883Y0365229D01*
X0329802Y0365191D02*
X0327563Y0365191D01*
X0327693Y0365153D02*
X0329672Y0365153D01*
X0329530Y0365115D02*
X0327834Y0365115D01*
X0327975Y0365077D02*
X0329389Y0365077D01*
X0329248Y0365039D02*
X0328117Y0365039D01*
X0328538Y0365002D02*
X0328826Y0365002D01*
X0328682Y0361446D02*
X0329243Y0361396D01*
X0329787Y0361251D01*
X0330296Y0361013D01*
X0330757Y0360691D01*
X0331155Y0360293D01*
X0331478Y0359831D01*
X0331716Y0359322D01*
X0331861Y0358778D01*
X0331911Y0358217D01*
X0331861Y0357657D01*
X0331716Y0357113D01*
X0331478Y0356603D01*
X0331155Y0356142D01*
X0330757Y0355744D01*
X0330296Y0355422D01*
X0329787Y0355184D01*
X0329243Y0355038D01*
X0328682Y0354989D01*
X0328122Y0355038D01*
X0327578Y0355184D01*
X0327068Y0355422D01*
X0326607Y0355744D01*
X0326209Y0356142D01*
X0325887Y0356603D01*
X0325649Y0357113D01*
X0325503Y0357657D01*
X0325454Y0358217D01*
X0325503Y0358778D01*
X0325649Y0359322D01*
X0325887Y0359831D01*
X0326209Y0360293D01*
X0326607Y0360691D01*
X0327068Y0361013D01*
X0327578Y0361251D01*
X0328122Y0361396D01*
X0328682Y0361446D01*
X0328626Y0361441D02*
X0328738Y0361441D01*
X0329170Y0361403D02*
X0328195Y0361403D01*
X0328004Y0361365D02*
X0329360Y0361365D01*
X0329502Y0361327D02*
X0327863Y0361327D01*
X0327721Y0361289D02*
X0329643Y0361289D01*
X0329785Y0361251D02*
X0327580Y0361251D01*
X0327498Y0361213D02*
X0329867Y0361213D01*
X0329948Y0361176D02*
X0327417Y0361176D01*
X0327335Y0361138D02*
X0330029Y0361138D01*
X0330110Y0361100D02*
X0327254Y0361100D01*
X0327173Y0361062D02*
X0330191Y0361062D01*
X0330273Y0361024D02*
X0327092Y0361024D01*
X0327030Y0360986D02*
X0330335Y0360986D01*
X0330389Y0360948D02*
X0326976Y0360948D01*
X0326921Y0360910D02*
X0330443Y0360910D01*
X0330497Y0360873D02*
X0326867Y0360873D01*
X0326813Y0360835D02*
X0330551Y0360835D01*
X0330606Y0360797D02*
X0326759Y0360797D01*
X0326705Y0360759D02*
X0330660Y0360759D01*
X0330714Y0360721D02*
X0326651Y0360721D01*
X0326600Y0360683D02*
X0330765Y0360683D01*
X0330803Y0360645D02*
X0326562Y0360645D01*
X0326524Y0360607D02*
X0330841Y0360607D01*
X0330879Y0360569D02*
X0326486Y0360569D01*
X0326448Y0360532D02*
X0330916Y0360532D01*
X0330954Y0360494D02*
X0326410Y0360494D01*
X0326372Y0360456D02*
X0330992Y0360456D01*
X0331030Y0360418D02*
X0326334Y0360418D01*
X0326297Y0360380D02*
X0331068Y0360380D01*
X0331106Y0360342D02*
X0326259Y0360342D01*
X0326221Y0360304D02*
X0331144Y0360304D01*
X0331174Y0360266D02*
X0326191Y0360266D01*
X0326164Y0360229D02*
X0331200Y0360229D01*
X0331227Y0360191D02*
X0326138Y0360191D01*
X0326111Y0360153D02*
X0331253Y0360153D01*
X0331280Y0360115D02*
X0326085Y0360115D01*
X0326058Y0360077D02*
X0331306Y0360077D01*
X0331333Y0360039D02*
X0326032Y0360039D01*
X0326005Y0360001D02*
X0331359Y0360001D01*
X0331386Y0359963D02*
X0325979Y0359963D01*
X0325952Y0359925D02*
X0331412Y0359925D01*
X0331439Y0359888D02*
X0325926Y0359888D01*
X0325899Y0359850D02*
X0331465Y0359850D01*
X0331487Y0359812D02*
X0325877Y0359812D01*
X0325860Y0359774D02*
X0331505Y0359774D01*
X0331522Y0359736D02*
X0325842Y0359736D01*
X0325824Y0359698D02*
X0331540Y0359698D01*
X0331558Y0359660D02*
X0325807Y0359660D01*
X0325789Y0359622D02*
X0331575Y0359622D01*
X0331593Y0359585D02*
X0325771Y0359585D01*
X0325754Y0359547D02*
X0331611Y0359547D01*
X0331628Y0359509D02*
X0325736Y0359509D01*
X0325718Y0359471D02*
X0331646Y0359471D01*
X0331664Y0359433D02*
X0325701Y0359433D01*
X0325683Y0359395D02*
X0331681Y0359395D01*
X0331699Y0359357D02*
X0325665Y0359357D01*
X0325648Y0359319D02*
X0331716Y0359319D01*
X0331726Y0359282D02*
X0325638Y0359282D01*
X0325628Y0359244D02*
X0331737Y0359244D01*
X0331747Y0359206D02*
X0325618Y0359206D01*
X0325608Y0359168D02*
X0331757Y0359168D01*
X0331767Y0359130D02*
X0325597Y0359130D01*
X0325587Y0359092D02*
X0331777Y0359092D01*
X0331787Y0359054D02*
X0325577Y0359054D01*
X0325567Y0359016D02*
X0331798Y0359016D01*
X0331808Y0358978D02*
X0325557Y0358978D01*
X0325547Y0358941D02*
X0331818Y0358941D01*
X0331828Y0358903D02*
X0325537Y0358903D01*
X0325526Y0358865D02*
X0331838Y0358865D01*
X0331848Y0358827D02*
X0325516Y0358827D01*
X0325506Y0358789D02*
X0331858Y0358789D01*
X0331864Y0358751D02*
X0325501Y0358751D01*
X0325497Y0358713D02*
X0331867Y0358713D01*
X0331870Y0358675D02*
X0325494Y0358675D01*
X0325491Y0358638D02*
X0331874Y0358638D01*
X0331877Y0358600D02*
X0325487Y0358600D01*
X0325484Y0358562D02*
X0331880Y0358562D01*
X0331884Y0358524D02*
X0325481Y0358524D01*
X0325477Y0358486D02*
X0331887Y0358486D01*
X0331890Y0358448D02*
X0325474Y0358448D01*
X0325471Y0358410D02*
X0331894Y0358410D01*
X0331897Y0358372D02*
X0325468Y0358372D01*
X0325464Y0358334D02*
X0331900Y0358334D01*
X0331904Y0358297D02*
X0325461Y0358297D01*
X0325458Y0358259D02*
X0331907Y0358259D01*
X0331910Y0358221D02*
X0325454Y0358221D01*
X0325457Y0358183D02*
X0331908Y0358183D01*
X0331904Y0358145D02*
X0325460Y0358145D01*
X0325464Y0358107D02*
X0331901Y0358107D01*
X0331898Y0358069D02*
X0325467Y0358069D01*
X0325470Y0358031D02*
X0331894Y0358031D01*
X0331891Y0357994D02*
X0325474Y0357994D01*
X0325477Y0357956D02*
X0331888Y0357956D01*
X0331884Y0357918D02*
X0325480Y0357918D01*
X0325484Y0357880D02*
X0331881Y0357880D01*
X0331878Y0357842D02*
X0325487Y0357842D01*
X0325490Y0357804D02*
X0331874Y0357804D01*
X0331871Y0357766D02*
X0325493Y0357766D01*
X0325497Y0357728D02*
X0331868Y0357728D01*
X0331864Y0357690D02*
X0325500Y0357690D01*
X0325504Y0357653D02*
X0331860Y0357653D01*
X0331850Y0357615D02*
X0325514Y0357615D01*
X0325524Y0357577D02*
X0331840Y0357577D01*
X0331830Y0357539D02*
X0325535Y0357539D01*
X0325545Y0357501D02*
X0331820Y0357501D01*
X0331810Y0357463D02*
X0325555Y0357463D01*
X0325565Y0357425D02*
X0331799Y0357425D01*
X0331789Y0357387D02*
X0325575Y0357387D01*
X0325585Y0357350D02*
X0331779Y0357350D01*
X0331769Y0357312D02*
X0325596Y0357312D01*
X0325606Y0357274D02*
X0331759Y0357274D01*
X0331749Y0357236D02*
X0325616Y0357236D01*
X0325626Y0357198D02*
X0331738Y0357198D01*
X0331728Y0357160D02*
X0325636Y0357160D01*
X0325646Y0357122D02*
X0331718Y0357122D01*
X0331702Y0357084D02*
X0325662Y0357084D01*
X0325680Y0357047D02*
X0331685Y0357047D01*
X0331667Y0357009D02*
X0325697Y0357009D01*
X0325715Y0356971D02*
X0331649Y0356971D01*
X0331632Y0356933D02*
X0325733Y0356933D01*
X0325750Y0356895D02*
X0331614Y0356895D01*
X0331596Y0356857D02*
X0325768Y0356857D01*
X0325786Y0356819D02*
X0331579Y0356819D01*
X0331561Y0356781D02*
X0325803Y0356781D01*
X0325821Y0356743D02*
X0331543Y0356743D01*
X0331526Y0356706D02*
X0325839Y0356706D01*
X0325856Y0356668D02*
X0331508Y0356668D01*
X0331490Y0356630D02*
X0325874Y0356630D01*
X0325894Y0356592D02*
X0331470Y0356592D01*
X0331444Y0356554D02*
X0325921Y0356554D01*
X0325947Y0356516D02*
X0331417Y0356516D01*
X0331391Y0356478D02*
X0325974Y0356478D01*
X0326000Y0356440D02*
X0331364Y0356440D01*
X0331338Y0356403D02*
X0326027Y0356403D01*
X0326053Y0356365D02*
X0331311Y0356365D01*
X0331285Y0356327D02*
X0326080Y0356327D01*
X0326106Y0356289D02*
X0331258Y0356289D01*
X0331232Y0356251D02*
X0326133Y0356251D01*
X0326159Y0356213D02*
X0331205Y0356213D01*
X0331179Y0356175D02*
X0326186Y0356175D01*
X0326214Y0356137D02*
X0331151Y0356137D01*
X0331113Y0356099D02*
X0326252Y0356099D01*
X0326290Y0356062D02*
X0331075Y0356062D01*
X0331037Y0356024D02*
X0326327Y0356024D01*
X0326365Y0355986D02*
X0330999Y0355986D01*
X0330961Y0355948D02*
X0326403Y0355948D01*
X0326441Y0355910D02*
X0330923Y0355910D01*
X0330886Y0355872D02*
X0326479Y0355872D01*
X0326517Y0355834D02*
X0330848Y0355834D01*
X0330810Y0355796D02*
X0326555Y0355796D01*
X0326593Y0355759D02*
X0330772Y0355759D01*
X0330724Y0355721D02*
X0326641Y0355721D01*
X0326695Y0355683D02*
X0330670Y0355683D01*
X0330616Y0355645D02*
X0326749Y0355645D01*
X0326803Y0355607D02*
X0330561Y0355607D01*
X0330507Y0355569D02*
X0326857Y0355569D01*
X0326911Y0355531D02*
X0330453Y0355531D01*
X0330399Y0355493D02*
X0326966Y0355493D01*
X0327020Y0355455D02*
X0330345Y0355455D01*
X0330288Y0355418D02*
X0327077Y0355418D01*
X0327158Y0355380D02*
X0330207Y0355380D01*
X0330125Y0355342D02*
X0327239Y0355342D01*
X0327320Y0355304D02*
X0330044Y0355304D01*
X0329963Y0355266D02*
X0327402Y0355266D01*
X0327483Y0355228D02*
X0329882Y0355228D01*
X0329800Y0355190D02*
X0327564Y0355190D01*
X0327695Y0355152D02*
X0329669Y0355152D01*
X0329528Y0355115D02*
X0327837Y0355115D01*
X0327978Y0355077D02*
X0329387Y0355077D01*
X0329245Y0355039D02*
X0328119Y0355039D01*
X0328546Y0355001D02*
X0328818Y0355001D01*
X0328682Y0351446D02*
X0329243Y0351396D01*
X0329787Y0351251D01*
X0327578Y0351251D01*
X0327068Y0351013D01*
X0326607Y0350691D01*
X0326209Y0350293D01*
X0325887Y0349831D01*
X0325649Y0349322D01*
X0325503Y0348778D01*
X0325454Y0348217D01*
X0325503Y0347657D01*
X0325649Y0347113D01*
X0325887Y0346603D01*
X0326209Y0346142D01*
X0326607Y0345744D01*
X0327068Y0345422D01*
X0327578Y0345184D01*
X0328122Y0345038D01*
X0328682Y0344989D01*
X0329243Y0345038D01*
X0329787Y0345184D01*
X0330296Y0345422D01*
X0330757Y0345744D01*
X0331155Y0346142D01*
X0331478Y0346603D01*
X0331716Y0347113D01*
X0331861Y0347657D01*
X0331911Y0348217D01*
X0331861Y0348778D01*
X0331716Y0349322D01*
X0331478Y0349831D01*
X0331155Y0350293D01*
X0330757Y0350691D01*
X0330296Y0351013D01*
X0329787Y0351251D01*
X0329868Y0351213D02*
X0327496Y0351213D01*
X0327415Y0351175D02*
X0329949Y0351175D01*
X0330031Y0351137D02*
X0327334Y0351137D01*
X0327253Y0351099D02*
X0330112Y0351099D01*
X0330193Y0351061D02*
X0327172Y0351061D01*
X0327090Y0351023D02*
X0330274Y0351023D01*
X0330336Y0350985D02*
X0327029Y0350985D01*
X0326975Y0350948D02*
X0330390Y0350948D01*
X0330444Y0350910D02*
X0326920Y0350910D01*
X0326866Y0350872D02*
X0330498Y0350872D01*
X0330552Y0350834D02*
X0326812Y0350834D01*
X0326758Y0350796D02*
X0330607Y0350796D01*
X0330661Y0350758D02*
X0326704Y0350758D01*
X0326650Y0350720D02*
X0330715Y0350720D01*
X0330766Y0350682D02*
X0326599Y0350682D01*
X0326561Y0350645D02*
X0330803Y0350645D01*
X0330841Y0350607D02*
X0326523Y0350607D01*
X0326485Y0350569D02*
X0330879Y0350569D01*
X0330917Y0350531D02*
X0326447Y0350531D01*
X0326410Y0350493D02*
X0330955Y0350493D01*
X0330993Y0350455D02*
X0326372Y0350455D01*
X0326334Y0350417D02*
X0331031Y0350417D01*
X0331069Y0350379D02*
X0326296Y0350379D01*
X0326258Y0350341D02*
X0331106Y0350341D01*
X0331144Y0350304D02*
X0326220Y0350304D01*
X0326190Y0350266D02*
X0331174Y0350266D01*
X0331201Y0350228D02*
X0326164Y0350228D01*
X0326137Y0350190D02*
X0331227Y0350190D01*
X0331254Y0350152D02*
X0326111Y0350152D01*
X0326084Y0350114D02*
X0331280Y0350114D01*
X0331307Y0350076D02*
X0326058Y0350076D01*
X0326031Y0350038D02*
X0331333Y0350038D01*
X0331360Y0350001D02*
X0326005Y0350001D01*
X0325978Y0349963D02*
X0331386Y0349963D01*
X0331413Y0349925D02*
X0325952Y0349925D01*
X0325925Y0349887D02*
X0331439Y0349887D01*
X0331466Y0349849D02*
X0325899Y0349849D01*
X0325877Y0349811D02*
X0331487Y0349811D01*
X0331505Y0349773D02*
X0325859Y0349773D01*
X0325842Y0349735D02*
X0331523Y0349735D01*
X0331540Y0349698D02*
X0325824Y0349698D01*
X0325806Y0349660D02*
X0331558Y0349660D01*
X0331576Y0349622D02*
X0325789Y0349622D01*
X0325771Y0349584D02*
X0331593Y0349584D01*
X0331611Y0349546D02*
X0325753Y0349546D01*
X0325736Y0349508D02*
X0331629Y0349508D01*
X0331646Y0349470D02*
X0325718Y0349470D01*
X0325700Y0349432D02*
X0331664Y0349432D01*
X0331682Y0349394D02*
X0325683Y0349394D01*
X0325665Y0349357D02*
X0331699Y0349357D01*
X0331716Y0349319D02*
X0325648Y0349319D01*
X0325638Y0349281D02*
X0331727Y0349281D01*
X0331737Y0349243D02*
X0325628Y0349243D01*
X0325618Y0349205D02*
X0331747Y0349205D01*
X0331757Y0349167D02*
X0325607Y0349167D01*
X0325597Y0349129D02*
X0331767Y0349129D01*
X0331777Y0349091D02*
X0325587Y0349091D01*
X0325577Y0349054D02*
X0331788Y0349054D01*
X0331798Y0349016D02*
X0325567Y0349016D01*
X0325557Y0348978D02*
X0331808Y0348978D01*
X0331818Y0348940D02*
X0325546Y0348940D01*
X0325536Y0348902D02*
X0331828Y0348902D01*
X0331838Y0348864D02*
X0325526Y0348864D01*
X0325516Y0348826D02*
X0331848Y0348826D01*
X0331859Y0348788D02*
X0325506Y0348788D01*
X0325501Y0348750D02*
X0331864Y0348750D01*
X0331867Y0348713D02*
X0325497Y0348713D01*
X0325494Y0348675D02*
X0331870Y0348675D01*
X0331874Y0348637D02*
X0325491Y0348637D01*
X0325487Y0348599D02*
X0331877Y0348599D01*
X0331880Y0348561D02*
X0325484Y0348561D01*
X0325481Y0348523D02*
X0331884Y0348523D01*
X0331887Y0348485D02*
X0325477Y0348485D01*
X0325474Y0348447D02*
X0331890Y0348447D01*
X0331894Y0348410D02*
X0325471Y0348410D01*
X0325467Y0348372D02*
X0331897Y0348372D01*
X0331900Y0348334D02*
X0325464Y0348334D01*
X0325461Y0348296D02*
X0331904Y0348296D01*
X0331907Y0348258D02*
X0325457Y0348258D01*
X0325454Y0348220D02*
X0331910Y0348220D01*
X0331907Y0348182D02*
X0325457Y0348182D01*
X0325460Y0348144D02*
X0331904Y0348144D01*
X0331901Y0348106D02*
X0325464Y0348106D01*
X0325467Y0348069D02*
X0331898Y0348069D01*
X0331894Y0348031D02*
X0325470Y0348031D01*
X0325474Y0347993D02*
X0331891Y0347993D01*
X0331888Y0347955D02*
X0325477Y0347955D01*
X0325480Y0347917D02*
X0331884Y0347917D01*
X0331881Y0347879D02*
X0325484Y0347879D01*
X0325487Y0347841D02*
X0331878Y0347841D01*
X0331874Y0347803D02*
X0325490Y0347803D01*
X0325494Y0347766D02*
X0331871Y0347766D01*
X0331868Y0347728D02*
X0325497Y0347728D01*
X0325500Y0347690D02*
X0331864Y0347690D01*
X0331860Y0347652D02*
X0325504Y0347652D01*
X0325515Y0347614D02*
X0331850Y0347614D01*
X0331840Y0347576D02*
X0325525Y0347576D01*
X0325535Y0347538D02*
X0331830Y0347538D01*
X0331819Y0347500D02*
X0325545Y0347500D01*
X0325555Y0347463D02*
X0331809Y0347463D01*
X0331799Y0347425D02*
X0325565Y0347425D01*
X0325575Y0347387D02*
X0331789Y0347387D01*
X0331779Y0347349D02*
X0325586Y0347349D01*
X0325596Y0347311D02*
X0331769Y0347311D01*
X0331759Y0347273D02*
X0325606Y0347273D01*
X0325616Y0347235D02*
X0331748Y0347235D01*
X0331738Y0347197D02*
X0325626Y0347197D01*
X0325636Y0347159D02*
X0331728Y0347159D01*
X0331718Y0347122D02*
X0325646Y0347122D01*
X0325662Y0347084D02*
X0331702Y0347084D01*
X0331684Y0347046D02*
X0325680Y0347046D01*
X0325698Y0347008D02*
X0331667Y0347008D01*
X0331649Y0346970D02*
X0325715Y0346970D01*
X0325733Y0346932D02*
X0331631Y0346932D01*
X0331614Y0346894D02*
X0325751Y0346894D01*
X0325768Y0346856D02*
X0331596Y0346856D01*
X0331578Y0346819D02*
X0325786Y0346819D01*
X0325804Y0346781D02*
X0331561Y0346781D01*
X0331543Y0346743D02*
X0325821Y0346743D01*
X0325839Y0346705D02*
X0331525Y0346705D01*
X0331508Y0346667D02*
X0325857Y0346667D01*
X0325874Y0346629D02*
X0331490Y0346629D01*
X0331470Y0346591D02*
X0325895Y0346591D01*
X0325921Y0346553D02*
X0331443Y0346553D01*
X0331417Y0346515D02*
X0325948Y0346515D01*
X0325974Y0346478D02*
X0331390Y0346478D01*
X0331364Y0346440D02*
X0326001Y0346440D01*
X0326027Y0346402D02*
X0331337Y0346402D01*
X0331311Y0346364D02*
X0326054Y0346364D01*
X0326080Y0346326D02*
X0331284Y0346326D01*
X0331258Y0346288D02*
X0326107Y0346288D01*
X0326133Y0346250D02*
X0331231Y0346250D01*
X0331205Y0346212D02*
X0326160Y0346212D01*
X0326186Y0346175D02*
X0331178Y0346175D01*
X0331150Y0346137D02*
X0326214Y0346137D01*
X0326252Y0346099D02*
X0331112Y0346099D01*
X0331074Y0346061D02*
X0326290Y0346061D01*
X0326328Y0346023D02*
X0331036Y0346023D01*
X0330998Y0345985D02*
X0326366Y0345985D01*
X0326404Y0345947D02*
X0330961Y0345947D01*
X0330923Y0345909D02*
X0326442Y0345909D01*
X0326480Y0345871D02*
X0330885Y0345871D01*
X0330847Y0345834D02*
X0326518Y0345834D01*
X0326555Y0345796D02*
X0330809Y0345796D01*
X0330771Y0345758D02*
X0326593Y0345758D01*
X0326642Y0345720D02*
X0330723Y0345720D01*
X0330669Y0345682D02*
X0326696Y0345682D01*
X0326750Y0345644D02*
X0330615Y0345644D01*
X0330560Y0345606D02*
X0326804Y0345606D01*
X0326858Y0345568D02*
X0330506Y0345568D01*
X0330452Y0345531D02*
X0326912Y0345531D01*
X0326966Y0345493D02*
X0330398Y0345493D01*
X0330344Y0345455D02*
X0327021Y0345455D01*
X0327078Y0345417D02*
X0330286Y0345417D01*
X0330205Y0345379D02*
X0327159Y0345379D01*
X0327241Y0345341D02*
X0330124Y0345341D01*
X0330043Y0345303D02*
X0327322Y0345303D01*
X0327403Y0345265D02*
X0329961Y0345265D01*
X0329880Y0345228D02*
X0327484Y0345228D01*
X0327566Y0345190D02*
X0329799Y0345190D01*
X0329667Y0345152D02*
X0327698Y0345152D01*
X0327839Y0345114D02*
X0329525Y0345114D01*
X0329384Y0345076D02*
X0327981Y0345076D01*
X0328123Y0345038D02*
X0329242Y0345038D01*
X0328810Y0345000D02*
X0328554Y0345000D01*
X0328682Y0341446D02*
X0329243Y0341396D01*
X0329787Y0341251D01*
X0330296Y0341013D01*
X0330757Y0340691D01*
X0331155Y0340293D01*
X0331478Y0339831D01*
X0331716Y0339322D01*
X0331861Y0338778D01*
X0331911Y0338217D01*
X0331861Y0337657D01*
X0331716Y0337113D01*
X0331478Y0336603D01*
X0331155Y0336142D01*
X0330757Y0335744D01*
X0330296Y0335422D01*
X0329787Y0335184D01*
X0329243Y0335038D01*
X0328682Y0334989D01*
X0328122Y0335038D01*
X0327578Y0335184D01*
X0327068Y0335422D01*
X0326607Y0335744D01*
X0326209Y0336142D01*
X0325887Y0336603D01*
X0325649Y0337113D01*
X0325503Y0337657D01*
X0325454Y0338217D01*
X0325503Y0338778D01*
X0325649Y0339322D01*
X0325887Y0339831D01*
X0326209Y0340293D01*
X0326607Y0340691D01*
X0327068Y0341013D01*
X0327578Y0341251D01*
X0328122Y0341396D01*
X0328682Y0341446D01*
X0328610Y0341439D02*
X0328754Y0341439D01*
X0329186Y0341401D02*
X0328179Y0341401D01*
X0327999Y0341364D02*
X0329365Y0341364D01*
X0329507Y0341326D02*
X0327858Y0341326D01*
X0327716Y0341288D02*
X0329648Y0341288D01*
X0329788Y0341250D02*
X0327576Y0341250D01*
X0327495Y0341212D02*
X0329870Y0341212D01*
X0329951Y0341174D02*
X0327414Y0341174D01*
X0327332Y0341136D02*
X0330032Y0341136D01*
X0330113Y0341098D02*
X0327251Y0341098D01*
X0327170Y0341061D02*
X0330194Y0341061D01*
X0330276Y0341023D02*
X0327089Y0341023D01*
X0327028Y0340985D02*
X0330337Y0340985D01*
X0330391Y0340947D02*
X0326974Y0340947D01*
X0326919Y0340909D02*
X0330445Y0340909D01*
X0330499Y0340871D02*
X0326865Y0340871D01*
X0326811Y0340833D02*
X0330553Y0340833D01*
X0330608Y0340795D02*
X0326757Y0340795D01*
X0326703Y0340758D02*
X0330662Y0340758D01*
X0330716Y0340720D02*
X0326649Y0340720D01*
X0326598Y0340682D02*
X0330766Y0340682D01*
X0330804Y0340644D02*
X0326560Y0340644D01*
X0326522Y0340606D02*
X0330842Y0340606D01*
X0330880Y0340568D02*
X0326485Y0340568D01*
X0326447Y0340530D02*
X0330918Y0340530D01*
X0330956Y0340492D02*
X0326409Y0340492D01*
X0326371Y0340454D02*
X0330994Y0340454D01*
X0331031Y0340417D02*
X0326333Y0340417D01*
X0326295Y0340379D02*
X0331069Y0340379D01*
X0331107Y0340341D02*
X0326257Y0340341D01*
X0326219Y0340303D02*
X0331145Y0340303D01*
X0331175Y0340265D02*
X0326190Y0340265D01*
X0326163Y0340227D02*
X0331201Y0340227D01*
X0331228Y0340189D02*
X0326137Y0340189D01*
X0326110Y0340151D02*
X0331254Y0340151D01*
X0331281Y0340114D02*
X0326084Y0340114D01*
X0326057Y0340076D02*
X0331307Y0340076D01*
X0331334Y0340038D02*
X0326031Y0340038D01*
X0326004Y0340000D02*
X0331360Y0340000D01*
X0331387Y0339962D02*
X0325978Y0339962D01*
X0325951Y0339924D02*
X0331413Y0339924D01*
X0331440Y0339886D02*
X0325925Y0339886D01*
X0325898Y0339848D02*
X0331466Y0339848D01*
X0331488Y0339810D02*
X0325877Y0339810D01*
X0325859Y0339773D02*
X0331505Y0339773D01*
X0331523Y0339735D02*
X0325841Y0339735D01*
X0325824Y0339697D02*
X0331541Y0339697D01*
X0331558Y0339659D02*
X0325806Y0339659D01*
X0325788Y0339621D02*
X0331576Y0339621D01*
X0331594Y0339583D02*
X0325771Y0339583D01*
X0325753Y0339545D02*
X0331611Y0339545D01*
X0331629Y0339507D02*
X0325735Y0339507D01*
X0325718Y0339470D02*
X0331647Y0339470D01*
X0331664Y0339432D02*
X0325700Y0339432D01*
X0325682Y0339394D02*
X0331682Y0339394D01*
X0331700Y0339356D02*
X0325665Y0339356D01*
X0325648Y0339318D02*
X0331717Y0339318D01*
X0331727Y0339280D02*
X0325638Y0339280D01*
X0325627Y0339242D02*
X0331737Y0339242D01*
X0331747Y0339204D02*
X0325617Y0339204D01*
X0325607Y0339166D02*
X0331757Y0339166D01*
X0331767Y0339129D02*
X0325597Y0339129D01*
X0325587Y0339091D02*
X0331778Y0339091D01*
X0331788Y0339053D02*
X0325577Y0339053D01*
X0325567Y0339015D02*
X0331798Y0339015D01*
X0331808Y0338977D02*
X0325556Y0338977D01*
X0325546Y0338939D02*
X0331818Y0338939D01*
X0331828Y0338901D02*
X0325536Y0338901D01*
X0325526Y0338863D02*
X0331838Y0338863D01*
X0331849Y0338826D02*
X0325516Y0338826D01*
X0325506Y0338788D02*
X0331859Y0338788D01*
X0331864Y0338750D02*
X0325501Y0338750D01*
X0325497Y0338712D02*
X0331867Y0338712D01*
X0331870Y0338674D02*
X0325494Y0338674D01*
X0325491Y0338636D02*
X0331874Y0338636D01*
X0331877Y0338598D02*
X0325487Y0338598D01*
X0325484Y0338560D02*
X0331880Y0338560D01*
X0331884Y0338523D02*
X0325481Y0338523D01*
X0325477Y0338485D02*
X0331887Y0338485D01*
X0331890Y0338447D02*
X0325474Y0338447D01*
X0325471Y0338409D02*
X0331894Y0338409D01*
X0331897Y0338371D02*
X0325467Y0338371D01*
X0325464Y0338333D02*
X0331900Y0338333D01*
X0331904Y0338295D02*
X0325461Y0338295D01*
X0325457Y0338257D02*
X0331907Y0338257D01*
X0331910Y0338219D02*
X0325454Y0338219D01*
X0325457Y0338182D02*
X0331907Y0338182D01*
X0331904Y0338144D02*
X0325460Y0338144D01*
X0325464Y0338106D02*
X0331901Y0338106D01*
X0331897Y0338068D02*
X0325467Y0338068D01*
X0325470Y0338030D02*
X0331894Y0338030D01*
X0331891Y0337992D02*
X0325474Y0337992D01*
X0325477Y0337954D02*
X0331887Y0337954D01*
X0331884Y0337916D02*
X0325480Y0337916D01*
X0325484Y0337879D02*
X0331881Y0337879D01*
X0331878Y0337841D02*
X0325487Y0337841D01*
X0325490Y0337803D02*
X0331874Y0337803D01*
X0331871Y0337765D02*
X0325494Y0337765D01*
X0325497Y0337727D02*
X0331868Y0337727D01*
X0331864Y0337689D02*
X0325500Y0337689D01*
X0325505Y0337651D02*
X0331860Y0337651D01*
X0331850Y0337613D02*
X0325515Y0337613D01*
X0325525Y0337575D02*
X0331840Y0337575D01*
X0331829Y0337538D02*
X0325535Y0337538D01*
X0325545Y0337500D02*
X0331819Y0337500D01*
X0331809Y0337462D02*
X0325555Y0337462D01*
X0325565Y0337424D02*
X0331799Y0337424D01*
X0331789Y0337386D02*
X0325576Y0337386D01*
X0325586Y0337348D02*
X0331779Y0337348D01*
X0331769Y0337310D02*
X0325596Y0337310D01*
X0325606Y0337272D02*
X0331758Y0337272D01*
X0331748Y0337235D02*
X0325616Y0337235D01*
X0325626Y0337197D02*
X0331738Y0337197D01*
X0331728Y0337159D02*
X0325637Y0337159D01*
X0325647Y0337121D02*
X0331718Y0337121D01*
X0331702Y0337083D02*
X0325663Y0337083D01*
X0325680Y0337045D02*
X0331684Y0337045D01*
X0331666Y0337007D02*
X0325698Y0337007D01*
X0325716Y0336969D02*
X0331649Y0336969D01*
X0331631Y0336931D02*
X0325733Y0336931D01*
X0325751Y0336894D02*
X0331613Y0336894D01*
X0331596Y0336856D02*
X0325769Y0336856D01*
X0325786Y0336818D02*
X0331578Y0336818D01*
X0331560Y0336780D02*
X0325804Y0336780D01*
X0325822Y0336742D02*
X0331543Y0336742D01*
X0331525Y0336704D02*
X0325839Y0336704D01*
X0325857Y0336666D02*
X0331507Y0336666D01*
X0331490Y0336628D02*
X0325875Y0336628D01*
X0325895Y0336591D02*
X0331469Y0336591D01*
X0331443Y0336553D02*
X0325922Y0336553D01*
X0325948Y0336515D02*
X0331416Y0336515D01*
X0331390Y0336477D02*
X0325975Y0336477D01*
X0326001Y0336439D02*
X0331363Y0336439D01*
X0331337Y0336401D02*
X0326028Y0336401D01*
X0326054Y0336363D02*
X0331310Y0336363D01*
X0331284Y0336325D02*
X0326081Y0336325D01*
X0326107Y0336288D02*
X0331257Y0336288D01*
X0331231Y0336250D02*
X0326134Y0336250D01*
X0326160Y0336212D02*
X0331204Y0336212D01*
X0331178Y0336174D02*
X0326187Y0336174D01*
X0326215Y0336136D02*
X0331149Y0336136D01*
X0331111Y0336098D02*
X0326253Y0336098D01*
X0326291Y0336060D02*
X0331074Y0336060D01*
X0331036Y0336022D02*
X0326329Y0336022D01*
X0326367Y0335984D02*
X0330998Y0335984D01*
X0330960Y0335947D02*
X0326405Y0335947D01*
X0326442Y0335909D02*
X0330922Y0335909D01*
X0330884Y0335871D02*
X0326480Y0335871D01*
X0326518Y0335833D02*
X0330846Y0335833D01*
X0330808Y0335795D02*
X0326556Y0335795D01*
X0326594Y0335757D02*
X0330770Y0335757D01*
X0330722Y0335719D02*
X0326643Y0335719D01*
X0326697Y0335681D02*
X0330668Y0335681D01*
X0330614Y0335644D02*
X0326751Y0335644D01*
X0326805Y0335606D02*
X0330559Y0335606D01*
X0330505Y0335568D02*
X0326859Y0335568D01*
X0326913Y0335530D02*
X0330451Y0335530D01*
X0330397Y0335492D02*
X0326967Y0335492D01*
X0327022Y0335454D02*
X0330343Y0335454D01*
X0330285Y0335416D02*
X0327080Y0335416D01*
X0327161Y0335378D02*
X0330204Y0335378D01*
X0330122Y0335340D02*
X0327242Y0335340D01*
X0327323Y0335303D02*
X0330041Y0335303D01*
X0329960Y0335265D02*
X0327405Y0335265D01*
X0327486Y0335227D02*
X0329879Y0335227D01*
X0329797Y0335189D02*
X0327567Y0335189D01*
X0327700Y0335151D02*
X0329664Y0335151D01*
X0329523Y0335113D02*
X0327842Y0335113D01*
X0327983Y0335075D02*
X0329381Y0335075D01*
X0329234Y0335037D02*
X0328130Y0335037D01*
X0328562Y0335000D02*
X0328802Y0335000D01*
X0328682Y0331446D02*
X0329243Y0331396D01*
X0329787Y0331251D01*
X0330296Y0331013D01*
X0330757Y0330691D01*
X0331155Y0330293D01*
X0331478Y0329831D01*
X0331716Y0329322D01*
X0331861Y0328778D01*
X0331911Y0328217D01*
X0331861Y0327657D01*
X0331716Y0327113D01*
X0331478Y0326603D01*
X0331155Y0326142D01*
X0330757Y0325744D01*
X0330296Y0325422D01*
X0329787Y0325184D01*
X0329243Y0325038D01*
X0328682Y0324989D01*
X0328122Y0325038D01*
X0327578Y0325184D01*
X0327068Y0325422D01*
X0326607Y0325744D01*
X0326209Y0326142D01*
X0325887Y0326603D01*
X0325649Y0327113D01*
X0325503Y0327657D01*
X0325454Y0328217D01*
X0325503Y0328778D01*
X0325649Y0329322D01*
X0325887Y0329831D01*
X0326209Y0330293D01*
X0326607Y0330691D01*
X0327068Y0331013D01*
X0327578Y0331251D01*
X0328122Y0331396D01*
X0328682Y0331446D01*
X0328603Y0331439D02*
X0328762Y0331439D01*
X0329193Y0331401D02*
X0328171Y0331401D01*
X0327996Y0331363D02*
X0329368Y0331363D01*
X0329509Y0331325D02*
X0327855Y0331325D01*
X0327714Y0331287D02*
X0329651Y0331287D01*
X0329790Y0331249D02*
X0327575Y0331249D01*
X0327493Y0331211D02*
X0329871Y0331211D01*
X0329952Y0331174D02*
X0327412Y0331174D01*
X0327331Y0331136D02*
X0330033Y0331136D01*
X0330115Y0331098D02*
X0327250Y0331098D01*
X0327169Y0331060D02*
X0330196Y0331060D01*
X0330277Y0331022D02*
X0327087Y0331022D01*
X0327027Y0330984D02*
X0330338Y0330984D01*
X0330392Y0330946D02*
X0326973Y0330946D01*
X0326918Y0330908D02*
X0330446Y0330908D01*
X0330500Y0330870D02*
X0326864Y0330870D01*
X0326810Y0330833D02*
X0330554Y0330833D01*
X0330609Y0330795D02*
X0326756Y0330795D01*
X0326702Y0330757D02*
X0330663Y0330757D01*
X0330717Y0330719D02*
X0326648Y0330719D01*
X0326598Y0330681D02*
X0330767Y0330681D01*
X0330805Y0330643D02*
X0326560Y0330643D01*
X0326522Y0330605D02*
X0330843Y0330605D01*
X0330881Y0330567D02*
X0326484Y0330567D01*
X0326446Y0330530D02*
X0330918Y0330530D01*
X0330956Y0330492D02*
X0326408Y0330492D01*
X0326370Y0330454D02*
X0330994Y0330454D01*
X0331032Y0330416D02*
X0326332Y0330416D01*
X0326294Y0330378D02*
X0331070Y0330378D01*
X0331108Y0330340D02*
X0326257Y0330340D01*
X0326219Y0330302D02*
X0331146Y0330302D01*
X0331175Y0330264D02*
X0326189Y0330264D01*
X0326163Y0330226D02*
X0331202Y0330226D01*
X0331228Y0330189D02*
X0326136Y0330189D01*
X0326110Y0330151D02*
X0331255Y0330151D01*
X0331281Y0330113D02*
X0326083Y0330113D01*
X0326057Y0330075D02*
X0331308Y0330075D01*
X0331334Y0330037D02*
X0326030Y0330037D01*
X0326004Y0329999D02*
X0331361Y0329999D01*
X0331387Y0329961D02*
X0325977Y0329961D01*
X0325951Y0329923D02*
X0331414Y0329923D01*
X0331440Y0329886D02*
X0325924Y0329886D01*
X0325898Y0329848D02*
X0331467Y0329848D01*
X0331488Y0329810D02*
X0325876Y0329810D01*
X0325859Y0329772D02*
X0331506Y0329772D01*
X0331523Y0329734D02*
X0325841Y0329734D01*
X0325823Y0329696D02*
X0331541Y0329696D01*
X0331559Y0329658D02*
X0325806Y0329658D01*
X0325788Y0329620D02*
X0331576Y0329620D01*
X0331594Y0329582D02*
X0325770Y0329582D01*
X0325753Y0329545D02*
X0331612Y0329545D01*
X0331629Y0329507D02*
X0325735Y0329507D01*
X0325717Y0329469D02*
X0331647Y0329469D01*
X0331665Y0329431D02*
X0325700Y0329431D01*
X0325682Y0329393D02*
X0331682Y0329393D01*
X0331700Y0329355D02*
X0325664Y0329355D01*
X0325648Y0329317D02*
X0331717Y0329317D01*
X0331727Y0329279D02*
X0325637Y0329279D01*
X0325627Y0329242D02*
X0331737Y0329242D01*
X0331747Y0329204D02*
X0325617Y0329204D01*
X0325607Y0329166D02*
X0331757Y0329166D01*
X0331768Y0329128D02*
X0325597Y0329128D01*
X0325587Y0329090D02*
X0331778Y0329090D01*
X0331788Y0329052D02*
X0325577Y0329052D01*
X0325566Y0329014D02*
X0331798Y0329014D01*
X0331808Y0328976D02*
X0325556Y0328976D01*
X0325546Y0328939D02*
X0331818Y0328939D01*
X0331829Y0328901D02*
X0325536Y0328901D01*
X0325526Y0328863D02*
X0331839Y0328863D01*
X0331849Y0328825D02*
X0325516Y0328825D01*
X0325506Y0328787D02*
X0331859Y0328787D01*
X0331864Y0328749D02*
X0325501Y0328749D01*
X0325497Y0328711D02*
X0331867Y0328711D01*
X0331871Y0328673D02*
X0325494Y0328673D01*
X0325491Y0328635D02*
X0331874Y0328635D01*
X0331877Y0328598D02*
X0325487Y0328598D01*
X0325484Y0328560D02*
X0331881Y0328560D01*
X0331884Y0328522D02*
X0325481Y0328522D01*
X0325477Y0328484D02*
X0331887Y0328484D01*
X0331891Y0328446D02*
X0325474Y0328446D01*
X0325471Y0328408D02*
X0331894Y0328408D01*
X0331897Y0328370D02*
X0325467Y0328370D01*
X0325464Y0328332D02*
X0331900Y0328332D01*
X0331904Y0328295D02*
X0325461Y0328295D01*
X0325457Y0328257D02*
X0331907Y0328257D01*
X0331910Y0328219D02*
X0325454Y0328219D01*
X0325457Y0328181D02*
X0331907Y0328181D01*
X0331904Y0328143D02*
X0325460Y0328143D01*
X0325464Y0328105D02*
X0331901Y0328105D01*
X0331897Y0328067D02*
X0325467Y0328067D01*
X0325470Y0328029D02*
X0331894Y0328029D01*
X0331891Y0327991D02*
X0325474Y0327991D01*
X0325477Y0327954D02*
X0331887Y0327954D01*
X0331884Y0327916D02*
X0325480Y0327916D01*
X0325484Y0327878D02*
X0331881Y0327878D01*
X0331877Y0327840D02*
X0325487Y0327840D01*
X0325490Y0327802D02*
X0331874Y0327802D01*
X0331871Y0327764D02*
X0325494Y0327764D01*
X0325497Y0327726D02*
X0331867Y0327726D01*
X0331864Y0327688D02*
X0325500Y0327688D01*
X0325505Y0327651D02*
X0331860Y0327651D01*
X0331850Y0327613D02*
X0325515Y0327613D01*
X0325525Y0327575D02*
X0331839Y0327575D01*
X0331829Y0327537D02*
X0325535Y0327537D01*
X0325545Y0327499D02*
X0331819Y0327499D01*
X0331809Y0327461D02*
X0325555Y0327461D01*
X0325566Y0327423D02*
X0331799Y0327423D01*
X0331789Y0327385D02*
X0325576Y0327385D01*
X0325586Y0327347D02*
X0331779Y0327347D01*
X0331768Y0327310D02*
X0325596Y0327310D01*
X0325606Y0327272D02*
X0331758Y0327272D01*
X0331748Y0327234D02*
X0325616Y0327234D01*
X0325627Y0327196D02*
X0331738Y0327196D01*
X0331728Y0327158D02*
X0325637Y0327158D01*
X0325647Y0327120D02*
X0331718Y0327120D01*
X0331701Y0327082D02*
X0325663Y0327082D01*
X0325681Y0327044D02*
X0331684Y0327044D01*
X0331666Y0327007D02*
X0325698Y0327007D01*
X0325716Y0326969D02*
X0331648Y0326969D01*
X0331631Y0326931D02*
X0325734Y0326931D01*
X0325751Y0326893D02*
X0331613Y0326893D01*
X0331595Y0326855D02*
X0325769Y0326855D01*
X0325787Y0326817D02*
X0331578Y0326817D01*
X0331560Y0326779D02*
X0325804Y0326779D01*
X0325822Y0326741D02*
X0331542Y0326741D01*
X0331525Y0326704D02*
X0325840Y0326704D01*
X0325857Y0326666D02*
X0331507Y0326666D01*
X0331489Y0326628D02*
X0325875Y0326628D01*
X0325896Y0326590D02*
X0331469Y0326590D01*
X0331442Y0326552D02*
X0325922Y0326552D01*
X0325949Y0326514D02*
X0331416Y0326514D01*
X0331389Y0326476D02*
X0325975Y0326476D01*
X0326002Y0326438D02*
X0331363Y0326438D01*
X0331336Y0326400D02*
X0326028Y0326400D01*
X0326055Y0326363D02*
X0331310Y0326363D01*
X0331283Y0326325D02*
X0326081Y0326325D01*
X0326108Y0326287D02*
X0331257Y0326287D01*
X0331230Y0326249D02*
X0326134Y0326249D01*
X0326161Y0326211D02*
X0331204Y0326211D01*
X0331177Y0326173D02*
X0326187Y0326173D01*
X0326216Y0326135D02*
X0331149Y0326135D01*
X0331111Y0326097D02*
X0326254Y0326097D01*
X0326292Y0326060D02*
X0331073Y0326060D01*
X0331035Y0326022D02*
X0326329Y0326022D01*
X0326367Y0325984D02*
X0330997Y0325984D01*
X0330959Y0325946D02*
X0326405Y0325946D01*
X0326443Y0325908D02*
X0330921Y0325908D01*
X0330883Y0325870D02*
X0326481Y0325870D01*
X0326519Y0325832D02*
X0330846Y0325832D01*
X0330808Y0325794D02*
X0326557Y0325794D01*
X0326595Y0325756D02*
X0330770Y0325756D01*
X0330721Y0325719D02*
X0326643Y0325719D01*
X0326698Y0325681D02*
X0330667Y0325681D01*
X0330613Y0325643D02*
X0326752Y0325643D01*
X0326806Y0325605D02*
X0330558Y0325605D01*
X0330504Y0325567D02*
X0326860Y0325567D01*
X0326914Y0325529D02*
X0330450Y0325529D01*
X0330396Y0325491D02*
X0326968Y0325491D01*
X0327023Y0325453D02*
X0330342Y0325453D01*
X0330283Y0325416D02*
X0327081Y0325416D01*
X0327162Y0325378D02*
X0330202Y0325378D01*
X0330121Y0325340D02*
X0327244Y0325340D01*
X0327325Y0325302D02*
X0330040Y0325302D01*
X0329958Y0325264D02*
X0327406Y0325264D01*
X0327487Y0325226D02*
X0329877Y0325226D01*
X0329796Y0325188D02*
X0327568Y0325188D01*
X0327703Y0325150D02*
X0329662Y0325150D01*
X0329520Y0325112D02*
X0327844Y0325112D01*
X0327986Y0325075D02*
X0329379Y0325075D01*
X0329226Y0325037D02*
X0328138Y0325037D01*
X0328570Y0324999D02*
X0328795Y0324999D01*
X0328682Y0321446D02*
X0329243Y0321396D01*
X0329787Y0321251D01*
X0330296Y0321013D01*
X0330757Y0320691D01*
X0331155Y0320293D01*
X0331478Y0319831D01*
X0331716Y0319322D01*
X0331861Y0318778D01*
X0331911Y0318217D01*
X0331861Y0317657D01*
X0331716Y0317113D01*
X0331478Y0316603D01*
X0331155Y0316142D01*
X0330757Y0315744D01*
X0330296Y0315422D01*
X0329787Y0315184D01*
X0329243Y0315038D01*
X0328682Y0314989D01*
X0328122Y0315038D01*
X0327578Y0315184D01*
X0327068Y0315422D01*
X0326607Y0315744D01*
X0326209Y0316142D01*
X0325887Y0316603D01*
X0325649Y0317113D01*
X0325503Y0317657D01*
X0325454Y0318217D01*
X0325503Y0318778D01*
X0325649Y0319322D01*
X0325887Y0319831D01*
X0326209Y0320293D01*
X0326607Y0320691D01*
X0327068Y0321013D01*
X0327578Y0321251D01*
X0328122Y0321396D01*
X0328682Y0321446D01*
X0328595Y0321438D02*
X0328770Y0321438D01*
X0329201Y0321400D02*
X0328163Y0321400D01*
X0327994Y0321362D02*
X0329371Y0321362D01*
X0329512Y0321324D02*
X0327852Y0321324D01*
X0327711Y0321286D02*
X0329653Y0321286D01*
X0329791Y0321249D02*
X0327573Y0321249D01*
X0327492Y0321211D02*
X0329873Y0321211D01*
X0329954Y0321173D02*
X0327411Y0321173D01*
X0327330Y0321135D02*
X0330035Y0321135D01*
X0330116Y0321097D02*
X0327248Y0321097D01*
X0327167Y0321059D02*
X0330197Y0321059D01*
X0330279Y0321021D02*
X0327086Y0321021D01*
X0327026Y0320983D02*
X0330339Y0320983D01*
X0330393Y0320946D02*
X0326972Y0320946D01*
X0326917Y0320908D02*
X0330447Y0320908D01*
X0330501Y0320870D02*
X0326863Y0320870D01*
X0326809Y0320832D02*
X0330555Y0320832D01*
X0330610Y0320794D02*
X0326755Y0320794D01*
X0326701Y0320756D02*
X0330664Y0320756D01*
X0330718Y0320718D02*
X0326647Y0320718D01*
X0326597Y0320680D02*
X0330768Y0320680D01*
X0330805Y0320642D02*
X0326559Y0320642D01*
X0326521Y0320605D02*
X0330843Y0320605D01*
X0330881Y0320567D02*
X0326483Y0320567D01*
X0326445Y0320529D02*
X0330919Y0320529D01*
X0330957Y0320491D02*
X0326407Y0320491D01*
X0326370Y0320453D02*
X0330995Y0320453D01*
X0331033Y0320415D02*
X0326332Y0320415D01*
X0326294Y0320377D02*
X0331071Y0320377D01*
X0331109Y0320339D02*
X0326256Y0320339D01*
X0326218Y0320302D02*
X0331146Y0320302D01*
X0331176Y0320264D02*
X0326189Y0320264D01*
X0326162Y0320226D02*
X0331202Y0320226D01*
X0331229Y0320188D02*
X0326136Y0320188D01*
X0326109Y0320150D02*
X0331255Y0320150D01*
X0331282Y0320112D02*
X0326083Y0320112D01*
X0326056Y0320074D02*
X0331308Y0320074D01*
X0331335Y0320036D02*
X0326030Y0320036D01*
X0326003Y0319998D02*
X0331361Y0319998D01*
X0331388Y0319961D02*
X0325977Y0319961D01*
X0325950Y0319923D02*
X0331414Y0319923D01*
X0331441Y0319885D02*
X0325924Y0319885D01*
X0325897Y0319847D02*
X0331467Y0319847D01*
X0331488Y0319809D02*
X0325876Y0319809D01*
X0325858Y0319771D02*
X0331506Y0319771D01*
X0331524Y0319733D02*
X0325841Y0319733D01*
X0325823Y0319695D02*
X0331541Y0319695D01*
X0331559Y0319658D02*
X0325805Y0319658D01*
X0325788Y0319620D02*
X0331577Y0319620D01*
X0331594Y0319582D02*
X0325770Y0319582D01*
X0325752Y0319544D02*
X0331612Y0319544D01*
X0331630Y0319506D02*
X0325735Y0319506D01*
X0325717Y0319468D02*
X0331647Y0319468D01*
X0331665Y0319430D02*
X0325699Y0319430D01*
X0325682Y0319392D02*
X0331683Y0319392D01*
X0331700Y0319355D02*
X0325664Y0319355D01*
X0325647Y0319317D02*
X0331717Y0319317D01*
X0331727Y0319279D02*
X0325637Y0319279D01*
X0325627Y0319241D02*
X0331737Y0319241D01*
X0331748Y0319203D02*
X0325617Y0319203D01*
X0325607Y0319165D02*
X0331758Y0319165D01*
X0331768Y0319127D02*
X0325597Y0319127D01*
X0325587Y0319089D02*
X0331778Y0319089D01*
X0331788Y0319051D02*
X0325576Y0319051D01*
X0325566Y0319014D02*
X0331798Y0319014D01*
X0331808Y0318976D02*
X0325556Y0318976D01*
X0325546Y0318938D02*
X0331819Y0318938D01*
X0331829Y0318900D02*
X0325536Y0318900D01*
X0325526Y0318862D02*
X0331839Y0318862D01*
X0331849Y0318824D02*
X0325515Y0318824D01*
X0325505Y0318786D02*
X0331859Y0318786D01*
X0331864Y0318748D02*
X0325501Y0318748D01*
X0325497Y0318711D02*
X0331867Y0318711D01*
X0331871Y0318673D02*
X0325494Y0318673D01*
X0325491Y0318635D02*
X0331874Y0318635D01*
X0331877Y0318597D02*
X0325487Y0318597D01*
X0325484Y0318559D02*
X0331881Y0318559D01*
X0331884Y0318521D02*
X0325481Y0318521D01*
X0325477Y0318483D02*
X0331887Y0318483D01*
X0331891Y0318445D02*
X0325474Y0318445D01*
X0325471Y0318407D02*
X0331894Y0318407D01*
X0331897Y0318370D02*
X0325467Y0318370D01*
X0325464Y0318332D02*
X0331901Y0318332D01*
X0331904Y0318294D02*
X0325461Y0318294D01*
X0325457Y0318256D02*
X0331907Y0318256D01*
X0331911Y0318218D02*
X0325454Y0318218D01*
X0325457Y0318180D02*
X0331907Y0318180D01*
X0331904Y0318142D02*
X0325460Y0318142D01*
X0325464Y0318104D02*
X0331901Y0318104D01*
X0331897Y0318067D02*
X0325467Y0318067D01*
X0325470Y0318029D02*
X0331894Y0318029D01*
X0331891Y0317991D02*
X0325474Y0317991D01*
X0325477Y0317953D02*
X0331887Y0317953D01*
X0331884Y0317915D02*
X0325480Y0317915D01*
X0325484Y0317877D02*
X0331881Y0317877D01*
X0331877Y0317839D02*
X0325487Y0317839D01*
X0325490Y0317801D02*
X0331874Y0317801D01*
X0331871Y0317763D02*
X0325494Y0317763D01*
X0325497Y0317726D02*
X0331867Y0317726D01*
X0331864Y0317688D02*
X0325500Y0317688D01*
X0325505Y0317650D02*
X0331860Y0317650D01*
X0331849Y0317612D02*
X0325515Y0317612D01*
X0325525Y0317574D02*
X0331839Y0317574D01*
X0331829Y0317536D02*
X0325535Y0317536D01*
X0325546Y0317498D02*
X0331819Y0317498D01*
X0331809Y0317460D02*
X0325556Y0317460D01*
X0325566Y0317423D02*
X0331799Y0317423D01*
X0331788Y0317385D02*
X0325576Y0317385D01*
X0325586Y0317347D02*
X0331778Y0317347D01*
X0331768Y0317309D02*
X0325596Y0317309D01*
X0325606Y0317271D02*
X0331758Y0317271D01*
X0331748Y0317233D02*
X0325617Y0317233D01*
X0325627Y0317195D02*
X0331738Y0317195D01*
X0331728Y0317157D02*
X0325637Y0317157D01*
X0325647Y0317120D02*
X0331717Y0317120D01*
X0331701Y0317082D02*
X0325663Y0317082D01*
X0325681Y0317044D02*
X0331683Y0317044D01*
X0331666Y0317006D02*
X0325699Y0317006D01*
X0325716Y0316968D02*
X0331648Y0316968D01*
X0331630Y0316930D02*
X0325734Y0316930D01*
X0325752Y0316892D02*
X0331613Y0316892D01*
X0331595Y0316854D02*
X0325769Y0316854D01*
X0325787Y0316816D02*
X0331577Y0316816D01*
X0331560Y0316779D02*
X0325805Y0316779D01*
X0325822Y0316741D02*
X0331542Y0316741D01*
X0331524Y0316703D02*
X0325840Y0316703D01*
X0325858Y0316665D02*
X0331507Y0316665D01*
X0331489Y0316627D02*
X0325875Y0316627D01*
X0325896Y0316589D02*
X0331468Y0316589D01*
X0331442Y0316551D02*
X0325923Y0316551D01*
X0325949Y0316513D02*
X0331415Y0316513D01*
X0331389Y0316476D02*
X0325976Y0316476D01*
X0326002Y0316438D02*
X0331362Y0316438D01*
X0331336Y0316400D02*
X0326029Y0316400D01*
X0326055Y0316362D02*
X0331309Y0316362D01*
X0331283Y0316324D02*
X0326082Y0316324D01*
X0326108Y0316286D02*
X0331256Y0316286D01*
X0331230Y0316248D02*
X0326135Y0316248D01*
X0326161Y0316210D02*
X0331203Y0316210D01*
X0331177Y0316172D02*
X0326188Y0316172D01*
X0326217Y0316135D02*
X0331148Y0316135D01*
X0331110Y0316097D02*
X0326254Y0316097D01*
X0326292Y0316059D02*
X0331072Y0316059D01*
X0331034Y0316021D02*
X0326330Y0316021D01*
X0326368Y0315983D02*
X0330996Y0315983D01*
X0330959Y0315945D02*
X0326406Y0315945D01*
X0326444Y0315907D02*
X0330921Y0315907D01*
X0330883Y0315869D02*
X0326482Y0315869D01*
X0326520Y0315832D02*
X0330845Y0315832D01*
X0330807Y0315794D02*
X0326557Y0315794D01*
X0326595Y0315756D02*
X0330769Y0315756D01*
X0330720Y0315718D02*
X0326644Y0315718D01*
X0326699Y0315680D02*
X0330666Y0315680D01*
X0330612Y0315642D02*
X0326753Y0315642D01*
X0326807Y0315604D02*
X0330557Y0315604D01*
X0330503Y0315566D02*
X0326861Y0315566D01*
X0326915Y0315528D02*
X0330449Y0315528D01*
X0330395Y0315491D02*
X0326969Y0315491D01*
X0327024Y0315453D02*
X0330341Y0315453D01*
X0330282Y0315415D02*
X0327083Y0315415D01*
X0327164Y0315377D02*
X0330201Y0315377D01*
X0330119Y0315339D02*
X0327245Y0315339D01*
X0327326Y0315301D02*
X0330038Y0315301D01*
X0329957Y0315263D02*
X0327408Y0315263D01*
X0327489Y0315225D02*
X0329876Y0315225D01*
X0329795Y0315188D02*
X0327570Y0315188D01*
X0327705Y0315150D02*
X0329659Y0315150D01*
X0329518Y0315112D02*
X0327847Y0315112D01*
X0327988Y0315074D02*
X0329376Y0315074D01*
X0329218Y0315036D02*
X0328146Y0315036D01*
X0328578Y0314998D02*
X0328787Y0314998D01*
X0328682Y0311446D02*
X0329243Y0311396D01*
X0329787Y0311251D01*
X0330296Y0311013D01*
X0330757Y0310691D01*
X0331155Y0310293D01*
X0331478Y0309831D01*
X0331716Y0309322D01*
X0331861Y0308778D01*
X0331911Y0308217D01*
X0331861Y0307657D01*
X0331716Y0307113D01*
X0331478Y0306603D01*
X0331155Y0306142D01*
X0330757Y0305744D01*
X0330296Y0305422D01*
X0329787Y0305184D01*
X0329243Y0305038D01*
X0328682Y0304989D01*
X0328122Y0305038D01*
X0327578Y0305184D01*
X0327068Y0305422D01*
X0326607Y0305744D01*
X0326209Y0306142D01*
X0325887Y0306603D01*
X0325649Y0307113D01*
X0325503Y0307657D01*
X0325454Y0308217D01*
X0325503Y0308778D01*
X0325649Y0309322D01*
X0325887Y0309831D01*
X0326209Y0310293D01*
X0326607Y0310691D01*
X0327068Y0311013D01*
X0327578Y0311251D01*
X0328122Y0311396D01*
X0328682Y0311446D01*
X0328587Y0311437D02*
X0328778Y0311437D01*
X0329209Y0311399D02*
X0328155Y0311399D01*
X0327991Y0311362D02*
X0329373Y0311362D01*
X0329515Y0311324D02*
X0327850Y0311324D01*
X0327709Y0311286D02*
X0329656Y0311286D01*
X0329793Y0311248D02*
X0327572Y0311248D01*
X0327490Y0311210D02*
X0329874Y0311210D01*
X0329955Y0311172D02*
X0327409Y0311172D01*
X0327328Y0311134D02*
X0330036Y0311134D01*
X0330118Y0311096D02*
X0327247Y0311096D01*
X0327166Y0311058D02*
X0330199Y0311058D01*
X0330280Y0311021D02*
X0327084Y0311021D01*
X0327025Y0310983D02*
X0330340Y0310983D01*
X0330394Y0310945D02*
X0326971Y0310945D01*
X0326916Y0310907D02*
X0330448Y0310907D01*
X0330502Y0310869D02*
X0326862Y0310869D01*
X0326808Y0310831D02*
X0330556Y0310831D01*
X0330610Y0310793D02*
X0326754Y0310793D01*
X0326700Y0310755D02*
X0330665Y0310755D01*
X0330719Y0310718D02*
X0326646Y0310718D01*
X0326596Y0310680D02*
X0330768Y0310680D01*
X0330806Y0310642D02*
X0326558Y0310642D01*
X0326520Y0310604D02*
X0330844Y0310604D01*
X0330882Y0310566D02*
X0326483Y0310566D01*
X0326445Y0310528D02*
X0330920Y0310528D01*
X0330958Y0310490D02*
X0326407Y0310490D01*
X0326369Y0310452D02*
X0330996Y0310452D01*
X0331033Y0310415D02*
X0326331Y0310415D01*
X0326293Y0310377D02*
X0331071Y0310377D01*
X0331109Y0310339D02*
X0326255Y0310339D01*
X0326217Y0310301D02*
X0331147Y0310301D01*
X0331176Y0310263D02*
X0326188Y0310263D01*
X0326162Y0310225D02*
X0331203Y0310225D01*
X0331229Y0310187D02*
X0326135Y0310187D01*
X0326109Y0310149D02*
X0331256Y0310149D01*
X0331282Y0310111D02*
X0326082Y0310111D01*
X0326056Y0310074D02*
X0331309Y0310074D01*
X0331335Y0310036D02*
X0326029Y0310036D01*
X0326003Y0309998D02*
X0331362Y0309998D01*
X0331388Y0309960D02*
X0325976Y0309960D01*
X0325950Y0309922D02*
X0331415Y0309922D01*
X0331441Y0309884D02*
X0325923Y0309884D01*
X0325897Y0309846D02*
X0331468Y0309846D01*
X0331489Y0309808D02*
X0325876Y0309808D01*
X0325858Y0309771D02*
X0331506Y0309771D01*
X0331524Y0309733D02*
X0325840Y0309733D01*
X0325823Y0309695D02*
X0331542Y0309695D01*
X0331559Y0309657D02*
X0325805Y0309657D01*
X0325787Y0309619D02*
X0331577Y0309619D01*
X0331595Y0309581D02*
X0325770Y0309581D01*
X0325752Y0309543D02*
X0331612Y0309543D01*
X0331630Y0309505D02*
X0325734Y0309505D01*
X0325717Y0309467D02*
X0331648Y0309467D01*
X0331665Y0309430D02*
X0325699Y0309430D01*
X0325681Y0309392D02*
X0331683Y0309392D01*
X0331701Y0309354D02*
X0325664Y0309354D01*
X0325647Y0309316D02*
X0331717Y0309316D01*
X0331727Y0309278D02*
X0325637Y0309278D01*
X0325627Y0309240D02*
X0331738Y0309240D01*
X0331748Y0309202D02*
X0325617Y0309202D01*
X0325607Y0309164D02*
X0331758Y0309164D01*
X0331768Y0309127D02*
X0325597Y0309127D01*
X0325586Y0309089D02*
X0331778Y0309089D01*
X0331788Y0309051D02*
X0325576Y0309051D01*
X0325566Y0309013D02*
X0331798Y0309013D01*
X0331809Y0308975D02*
X0325556Y0308975D01*
X0325546Y0308937D02*
X0331819Y0308937D01*
X0331829Y0308899D02*
X0325536Y0308899D01*
X0325525Y0308861D02*
X0331839Y0308861D01*
X0331849Y0308823D02*
X0325515Y0308823D01*
X0325505Y0308786D02*
X0331859Y0308786D01*
X0331864Y0308748D02*
X0325500Y0308748D01*
X0325497Y0308710D02*
X0331867Y0308710D01*
X0331871Y0308672D02*
X0325494Y0308672D01*
X0325490Y0308634D02*
X0331874Y0308634D01*
X0331877Y0308596D02*
X0325487Y0308596D01*
X0325484Y0308558D02*
X0331881Y0308558D01*
X0331884Y0308520D02*
X0325480Y0308520D01*
X0325477Y0308483D02*
X0331887Y0308483D01*
X0331891Y0308445D02*
X0325474Y0308445D01*
X0325471Y0308407D02*
X0331894Y0308407D01*
X0331897Y0308369D02*
X0325467Y0308369D01*
X0325464Y0308331D02*
X0331901Y0308331D01*
X0331904Y0308293D02*
X0325461Y0308293D01*
X0325457Y0308255D02*
X0331907Y0308255D01*
X0331911Y0308217D02*
X0325454Y0308217D01*
X0325457Y0308180D02*
X0331907Y0308180D01*
X0331904Y0308142D02*
X0325461Y0308142D01*
X0325464Y0308104D02*
X0331901Y0308104D01*
X0331897Y0308066D02*
X0325467Y0308066D01*
X0325470Y0308028D02*
X0331894Y0308028D01*
X0331891Y0307990D02*
X0325474Y0307990D01*
X0325477Y0307952D02*
X0331887Y0307952D01*
X0331884Y0307914D02*
X0325480Y0307914D01*
X0325484Y0307876D02*
X0331881Y0307876D01*
X0331877Y0307839D02*
X0325487Y0307839D01*
X0325490Y0307801D02*
X0331874Y0307801D01*
X0331871Y0307763D02*
X0325494Y0307763D01*
X0325497Y0307725D02*
X0331867Y0307725D01*
X0331864Y0307687D02*
X0325500Y0307687D01*
X0325505Y0307649D02*
X0331859Y0307649D01*
X0331849Y0307611D02*
X0325515Y0307611D01*
X0325525Y0307573D02*
X0331839Y0307573D01*
X0331829Y0307536D02*
X0325536Y0307536D01*
X0325546Y0307498D02*
X0331819Y0307498D01*
X0331809Y0307460D02*
X0325556Y0307460D01*
X0325566Y0307422D02*
X0331798Y0307422D01*
X0331788Y0307384D02*
X0325576Y0307384D01*
X0325586Y0307346D02*
X0331778Y0307346D01*
X0331768Y0307308D02*
X0325596Y0307308D01*
X0325607Y0307270D02*
X0331758Y0307270D01*
X0331748Y0307232D02*
X0325617Y0307232D01*
X0325627Y0307195D02*
X0331738Y0307195D01*
X0331727Y0307157D02*
X0325637Y0307157D01*
X0325647Y0307119D02*
X0331717Y0307119D01*
X0331701Y0307081D02*
X0325664Y0307081D01*
X0325681Y0307043D02*
X0331683Y0307043D01*
X0331665Y0307005D02*
X0325699Y0307005D01*
X0325717Y0306967D02*
X0331648Y0306967D01*
X0331630Y0306929D02*
X0325734Y0306929D01*
X0325752Y0306892D02*
X0331612Y0306892D01*
X0331595Y0306854D02*
X0325770Y0306854D01*
X0325787Y0306816D02*
X0331577Y0306816D01*
X0331559Y0306778D02*
X0325805Y0306778D01*
X0325823Y0306740D02*
X0331542Y0306740D01*
X0331524Y0306702D02*
X0325840Y0306702D01*
X0325858Y0306664D02*
X0331506Y0306664D01*
X0331489Y0306626D02*
X0325876Y0306626D01*
X0325897Y0306588D02*
X0331468Y0306588D01*
X0331441Y0306551D02*
X0325923Y0306551D01*
X0325950Y0306513D02*
X0331415Y0306513D01*
X0331388Y0306475D02*
X0325976Y0306475D01*
X0326003Y0306437D02*
X0331362Y0306437D01*
X0331335Y0306399D02*
X0326029Y0306399D01*
X0326056Y0306361D02*
X0331309Y0306361D01*
X0331282Y0306323D02*
X0326082Y0306323D01*
X0326109Y0306285D02*
X0331256Y0306285D01*
X0331229Y0306248D02*
X0326135Y0306248D01*
X0326162Y0306210D02*
X0331203Y0306210D01*
X0331176Y0306172D02*
X0326188Y0306172D01*
X0326217Y0306134D02*
X0331147Y0306134D01*
X0331109Y0306096D02*
X0326255Y0306096D01*
X0326293Y0306058D02*
X0331071Y0306058D01*
X0331034Y0306020D02*
X0326331Y0306020D01*
X0326369Y0305982D02*
X0330996Y0305982D01*
X0330958Y0305945D02*
X0326407Y0305945D01*
X0326445Y0305907D02*
X0330920Y0305907D01*
X0330882Y0305869D02*
X0326482Y0305869D01*
X0326520Y0305831D02*
X0330844Y0305831D01*
X0330806Y0305793D02*
X0326558Y0305793D01*
X0326596Y0305755D02*
X0330768Y0305755D01*
X0330719Y0305717D02*
X0326645Y0305717D01*
X0326700Y0305679D02*
X0330665Y0305679D01*
X0330611Y0305641D02*
X0326754Y0305641D01*
X0326808Y0305604D02*
X0330556Y0305604D01*
X0330502Y0305566D02*
X0326862Y0305566D01*
X0326916Y0305528D02*
X0330448Y0305528D01*
X0330394Y0305490D02*
X0326970Y0305490D01*
X0327025Y0305452D02*
X0330340Y0305452D01*
X0330280Y0305414D02*
X0327084Y0305414D01*
X0327165Y0305376D02*
X0330199Y0305376D01*
X0330118Y0305338D02*
X0327247Y0305338D01*
X0327328Y0305301D02*
X0330037Y0305301D01*
X0329955Y0305263D02*
X0327409Y0305263D01*
X0327490Y0305225D02*
X0329874Y0305225D01*
X0329793Y0305187D02*
X0327571Y0305187D01*
X0327708Y0305149D02*
X0329656Y0305149D01*
X0329515Y0305111D02*
X0327849Y0305111D01*
X0327991Y0305073D02*
X0329374Y0305073D01*
X0329210Y0305035D02*
X0328154Y0305035D01*
X0328586Y0304997D02*
X0328779Y0304997D01*
X0331930Y0301465D02*
X0331930Y0294969D01*
X0325434Y0294969D01*
X0325434Y0301465D01*
X0331930Y0301465D01*
X0331930Y0301437D02*
X0325434Y0301437D01*
X0325434Y0301399D02*
X0331930Y0301399D01*
X0331930Y0301361D02*
X0325434Y0301361D01*
X0325434Y0301323D02*
X0331930Y0301323D01*
X0331930Y0301285D02*
X0325434Y0301285D01*
X0325434Y0301247D02*
X0331930Y0301247D01*
X0331930Y0301209D02*
X0325434Y0301209D01*
X0325434Y0301171D02*
X0331930Y0301171D01*
X0331930Y0301134D02*
X0325434Y0301134D01*
X0325434Y0301096D02*
X0331930Y0301096D01*
X0331930Y0301058D02*
X0325434Y0301058D01*
X0325434Y0301020D02*
X0331930Y0301020D01*
X0331930Y0300982D02*
X0325434Y0300982D01*
X0325434Y0300944D02*
X0331930Y0300944D01*
X0331930Y0300906D02*
X0325434Y0300906D01*
X0325434Y0300868D02*
X0331930Y0300868D01*
X0331930Y0300831D02*
X0325434Y0300831D01*
X0325434Y0300793D02*
X0331930Y0300793D01*
X0331930Y0300755D02*
X0325434Y0300755D01*
X0325434Y0300717D02*
X0331930Y0300717D01*
X0331930Y0300679D02*
X0325434Y0300679D01*
X0325434Y0300641D02*
X0331930Y0300641D01*
X0331930Y0300603D02*
X0325434Y0300603D01*
X0325434Y0300565D02*
X0331930Y0300565D01*
X0331930Y0300527D02*
X0325434Y0300527D01*
X0325434Y0300490D02*
X0331930Y0300490D01*
X0331930Y0300452D02*
X0325434Y0300452D01*
X0325434Y0300414D02*
X0331930Y0300414D01*
X0331930Y0300376D02*
X0325434Y0300376D01*
X0325434Y0300338D02*
X0331930Y0300338D01*
X0331930Y0300300D02*
X0325434Y0300300D01*
X0325434Y0300262D02*
X0331930Y0300262D01*
X0331930Y0300224D02*
X0325434Y0300224D01*
X0325434Y0300187D02*
X0331930Y0300187D01*
X0331930Y0300149D02*
X0325434Y0300149D01*
X0325434Y0300111D02*
X0331930Y0300111D01*
X0331930Y0300073D02*
X0325434Y0300073D01*
X0325434Y0300035D02*
X0331930Y0300035D01*
X0331930Y0299997D02*
X0325434Y0299997D01*
X0325434Y0299959D02*
X0331930Y0299959D01*
X0331930Y0299921D02*
X0325434Y0299921D01*
X0325434Y0299883D02*
X0331930Y0299883D01*
X0331930Y0299846D02*
X0325434Y0299846D01*
X0325434Y0299808D02*
X0331930Y0299808D01*
X0331930Y0299770D02*
X0325434Y0299770D01*
X0325434Y0299732D02*
X0331930Y0299732D01*
X0331930Y0299694D02*
X0325434Y0299694D01*
X0325434Y0299656D02*
X0331930Y0299656D01*
X0331930Y0299618D02*
X0325434Y0299618D01*
X0325434Y0299580D02*
X0331930Y0299580D01*
X0331930Y0299543D02*
X0325434Y0299543D01*
X0325434Y0299505D02*
X0331930Y0299505D01*
X0331930Y0299467D02*
X0325434Y0299467D01*
X0325434Y0299429D02*
X0331930Y0299429D01*
X0331930Y0299391D02*
X0325434Y0299391D01*
X0325434Y0299353D02*
X0331930Y0299353D01*
X0331930Y0299315D02*
X0325434Y0299315D01*
X0325434Y0299277D02*
X0331930Y0299277D01*
X0331930Y0299239D02*
X0325434Y0299239D01*
X0325434Y0299202D02*
X0331930Y0299202D01*
X0331930Y0299164D02*
X0325434Y0299164D01*
X0325434Y0299126D02*
X0331930Y0299126D01*
X0331930Y0299088D02*
X0325434Y0299088D01*
X0325434Y0299050D02*
X0331930Y0299050D01*
X0331930Y0299012D02*
X0325434Y0299012D01*
X0325434Y0298974D02*
X0331930Y0298974D01*
X0331930Y0298936D02*
X0325434Y0298936D01*
X0325434Y0298899D02*
X0331930Y0298899D01*
X0331930Y0298861D02*
X0325434Y0298861D01*
X0325434Y0298823D02*
X0331930Y0298823D01*
X0331930Y0298785D02*
X0325434Y0298785D01*
X0325434Y0298747D02*
X0331930Y0298747D01*
X0331930Y0298709D02*
X0325434Y0298709D01*
X0325434Y0298671D02*
X0331930Y0298671D01*
X0331930Y0298633D02*
X0325434Y0298633D01*
X0325434Y0298596D02*
X0331930Y0298596D01*
X0331930Y0298558D02*
X0325434Y0298558D01*
X0325434Y0298520D02*
X0331930Y0298520D01*
X0331930Y0298482D02*
X0325434Y0298482D01*
X0325434Y0298444D02*
X0331930Y0298444D01*
X0331930Y0298406D02*
X0325434Y0298406D01*
X0325434Y0298368D02*
X0331930Y0298368D01*
X0331930Y0298330D02*
X0325434Y0298330D01*
X0325434Y0298292D02*
X0331930Y0298292D01*
X0331930Y0298255D02*
X0325434Y0298255D01*
X0325434Y0298217D02*
X0331930Y0298217D01*
X0331930Y0298179D02*
X0325434Y0298179D01*
X0325434Y0298141D02*
X0331930Y0298141D01*
X0331930Y0298103D02*
X0325434Y0298103D01*
X0325434Y0298065D02*
X0331930Y0298065D01*
X0331930Y0298027D02*
X0325434Y0298027D01*
X0325434Y0297989D02*
X0331930Y0297989D01*
X0331930Y0297952D02*
X0325434Y0297952D01*
X0325434Y0297914D02*
X0331930Y0297914D01*
X0331930Y0297876D02*
X0325434Y0297876D01*
X0325434Y0297838D02*
X0331930Y0297838D01*
X0331930Y0297800D02*
X0325434Y0297800D01*
X0325434Y0297762D02*
X0331930Y0297762D01*
X0331930Y0297724D02*
X0325434Y0297724D01*
X0325434Y0297686D02*
X0331930Y0297686D01*
X0331930Y0297648D02*
X0325434Y0297648D01*
X0325434Y0297611D02*
X0331930Y0297611D01*
X0331930Y0297573D02*
X0325434Y0297573D01*
X0325434Y0297535D02*
X0331930Y0297535D01*
X0331930Y0297497D02*
X0325434Y0297497D01*
X0325434Y0297459D02*
X0331930Y0297459D01*
X0331930Y0297421D02*
X0325434Y0297421D01*
X0325434Y0297383D02*
X0331930Y0297383D01*
X0331930Y0297345D02*
X0325434Y0297345D01*
X0325434Y0297308D02*
X0331930Y0297308D01*
X0331930Y0297270D02*
X0325434Y0297270D01*
X0325434Y0297232D02*
X0331930Y0297232D01*
X0331930Y0297194D02*
X0325434Y0297194D01*
X0325434Y0297156D02*
X0331930Y0297156D01*
X0331930Y0297118D02*
X0325434Y0297118D01*
X0325434Y0297080D02*
X0331930Y0297080D01*
X0331930Y0297042D02*
X0325434Y0297042D01*
X0325434Y0297004D02*
X0331930Y0297004D01*
X0331930Y0296967D02*
X0325434Y0296967D01*
X0325434Y0296929D02*
X0331930Y0296929D01*
X0331930Y0296891D02*
X0325434Y0296891D01*
X0325434Y0296853D02*
X0331930Y0296853D01*
X0331930Y0296815D02*
X0325434Y0296815D01*
X0325434Y0296777D02*
X0331930Y0296777D01*
X0331930Y0296739D02*
X0325434Y0296739D01*
X0325434Y0296701D02*
X0331930Y0296701D01*
X0331930Y0296664D02*
X0325434Y0296664D01*
X0325434Y0296626D02*
X0331930Y0296626D01*
X0331930Y0296588D02*
X0325434Y0296588D01*
X0325434Y0296550D02*
X0331930Y0296550D01*
X0331930Y0296512D02*
X0325434Y0296512D01*
X0325434Y0296474D02*
X0331930Y0296474D01*
X0331930Y0296436D02*
X0325434Y0296436D01*
X0325434Y0296398D02*
X0331930Y0296398D01*
X0331930Y0296361D02*
X0325434Y0296361D01*
X0325434Y0296323D02*
X0331930Y0296323D01*
X0331930Y0296285D02*
X0325434Y0296285D01*
X0325434Y0296247D02*
X0331930Y0296247D01*
X0331930Y0296209D02*
X0325434Y0296209D01*
X0325434Y0296171D02*
X0331930Y0296171D01*
X0331930Y0296133D02*
X0325434Y0296133D01*
X0325434Y0296095D02*
X0331930Y0296095D01*
X0331930Y0296057D02*
X0325434Y0296057D01*
X0325434Y0296020D02*
X0331930Y0296020D01*
X0331930Y0295982D02*
X0325434Y0295982D01*
X0325434Y0295944D02*
X0331930Y0295944D01*
X0331930Y0295906D02*
X0325434Y0295906D01*
X0325434Y0295868D02*
X0331930Y0295868D01*
X0331930Y0295830D02*
X0325434Y0295830D01*
X0325434Y0295792D02*
X0331930Y0295792D01*
X0331930Y0295754D02*
X0325434Y0295754D01*
X0325434Y0295717D02*
X0331930Y0295717D01*
X0331930Y0295679D02*
X0325434Y0295679D01*
X0325434Y0295641D02*
X0331930Y0295641D01*
X0331930Y0295603D02*
X0325434Y0295603D01*
X0325434Y0295565D02*
X0331930Y0295565D01*
X0331930Y0295527D02*
X0325434Y0295527D01*
X0325434Y0295489D02*
X0331930Y0295489D01*
X0331930Y0295451D02*
X0325434Y0295451D01*
X0325434Y0295413D02*
X0331930Y0295413D01*
X0331930Y0295376D02*
X0325434Y0295376D01*
X0325434Y0295338D02*
X0331930Y0295338D01*
X0331930Y0295300D02*
X0325434Y0295300D01*
X0325434Y0295262D02*
X0331930Y0295262D01*
X0331930Y0295224D02*
X0325434Y0295224D01*
X0325434Y0295186D02*
X0331930Y0295186D01*
X0331930Y0295148D02*
X0325434Y0295148D01*
X0325434Y0295110D02*
X0331930Y0295110D01*
X0331930Y0295073D02*
X0325434Y0295073D01*
X0325434Y0295035D02*
X0331930Y0295035D01*
X0331930Y0294997D02*
X0325434Y0294997D01*
X0327578Y0351251D02*
X0328122Y0351396D01*
X0328682Y0351446D01*
X0328618Y0351440D02*
X0328746Y0351440D01*
X0329178Y0351402D02*
X0328187Y0351402D01*
X0328002Y0351364D02*
X0329363Y0351364D01*
X0329504Y0351326D02*
X0327860Y0351326D01*
X0327719Y0351289D02*
X0329646Y0351289D01*
D13*
G36*
X0670007Y0441843D02*
X0670050Y0450042D01*
X0678249Y0449999D01*
X0678206Y0441800D01*
X0670007Y0441843D01*
G37*
D14*
X0673521Y0433469D02*
X0672701Y0432649D01*
X0670789Y0434581D01*
X0670804Y0437296D01*
X0672736Y0439208D01*
X0675451Y0439193D01*
X0677363Y0437261D01*
X0677348Y0434546D01*
X0675416Y0432634D01*
X0672701Y0432649D01*
X0673217Y0433876D01*
X0672022Y0435083D01*
X0672031Y0436780D01*
X0673238Y0437975D01*
X0674935Y0437966D01*
X0676130Y0436759D01*
X0676121Y0435062D01*
X0674914Y0433867D01*
X0673217Y0433876D01*
X0673733Y0435103D01*
X0673255Y0435587D01*
X0673258Y0436264D01*
X0673742Y0436742D01*
X0674419Y0436739D01*
X0674897Y0436255D01*
X0674894Y0435578D01*
X0674410Y0435100D01*
X0673733Y0435103D01*
X0673469Y0423469D02*
X0672649Y0422649D01*
X0670737Y0424581D01*
X0670752Y0427296D01*
X0672684Y0429208D01*
X0675399Y0429193D01*
X0677311Y0427261D01*
X0677296Y0424546D01*
X0675364Y0422634D01*
X0672649Y0422649D01*
X0673165Y0423876D01*
X0671970Y0425083D01*
X0671979Y0426780D01*
X0673186Y0427975D01*
X0674883Y0427966D01*
X0676078Y0426759D01*
X0676069Y0425062D01*
X0674862Y0423867D01*
X0673165Y0423876D01*
X0673681Y0425103D01*
X0673203Y0425587D01*
X0673206Y0426264D01*
X0673690Y0426742D01*
X0674367Y0426739D01*
X0674845Y0426255D01*
X0674842Y0425578D01*
X0674358Y0425100D01*
X0673681Y0425103D01*
X0683468Y0423416D02*
X0682648Y0422596D01*
X0680736Y0424528D01*
X0680751Y0427243D01*
X0682683Y0429155D01*
X0685398Y0429140D01*
X0687310Y0427208D01*
X0687295Y0424493D01*
X0685363Y0422581D01*
X0682648Y0422596D01*
X0683164Y0423823D01*
X0681969Y0425030D01*
X0681978Y0426727D01*
X0683185Y0427922D01*
X0684882Y0427913D01*
X0686077Y0426706D01*
X0686068Y0425009D01*
X0684861Y0423814D01*
X0683164Y0423823D01*
X0683680Y0425050D01*
X0683202Y0425534D01*
X0683205Y0426211D01*
X0683689Y0426689D01*
X0684366Y0426686D01*
X0684844Y0426202D01*
X0684841Y0425525D01*
X0684357Y0425047D01*
X0683680Y0425050D01*
X0683521Y0433416D02*
X0682701Y0432596D01*
X0680789Y0434528D01*
X0680804Y0437243D01*
X0682736Y0439155D01*
X0685451Y0439140D01*
X0687363Y0437208D01*
X0687348Y0434493D01*
X0685416Y0432581D01*
X0682701Y0432596D01*
X0683217Y0433823D01*
X0682022Y0435030D01*
X0682031Y0436727D01*
X0683238Y0437922D01*
X0684935Y0437913D01*
X0686130Y0436706D01*
X0686121Y0435009D01*
X0684914Y0433814D01*
X0683217Y0433823D01*
X0683733Y0435050D01*
X0683255Y0435534D01*
X0683258Y0436211D01*
X0683742Y0436689D01*
X0684419Y0436686D01*
X0684897Y0436202D01*
X0684894Y0435525D01*
X0684410Y0435047D01*
X0683733Y0435050D01*
X0683573Y0443416D02*
X0682753Y0442596D01*
X0680841Y0444528D01*
X0680856Y0447243D01*
X0682788Y0449155D01*
X0685503Y0449140D01*
X0687415Y0447208D01*
X0687400Y0444493D01*
X0685468Y0442581D01*
X0682753Y0442596D01*
X0683269Y0443823D01*
X0682074Y0445030D01*
X0682083Y0446727D01*
X0683290Y0447922D01*
X0684987Y0447913D01*
X0686182Y0446706D01*
X0686173Y0445009D01*
X0684966Y0443814D01*
X0683269Y0443823D01*
X0683785Y0445050D01*
X0683307Y0445534D01*
X0683310Y0446211D01*
X0683794Y0446689D01*
X0684471Y0446686D01*
X0684949Y0446202D01*
X0684946Y0445525D01*
X0684462Y0445047D01*
X0683785Y0445050D01*
D15*
X0432588Y0168873D03*
X0441651Y0164647D03*
X0450714Y0160421D03*
X0459777Y0156194D03*
X0468840Y0151968D03*
X0519627Y0148454D03*
X0529623Y0148750D03*
X0539618Y0149047D03*
X0549614Y0149344D03*
X0559610Y0149640D03*
X0569605Y0149937D03*
X0423525Y0173099D03*
D16*
X0466909Y0231388D03*
D17*
X0530809Y0222988D03*
D18*
X0562009Y0461288D03*
X0498209Y0469588D03*
D19*
X0345009Y0231688D03*
X0400182Y0211891D03*
X0531009Y0210988D03*
X0533109Y0204088D03*
X0636309Y0180988D03*
X0642609Y0222088D03*
X0553509Y0293788D03*
X0602409Y0335488D03*
X0607209Y0347488D03*
X0597909Y0348688D03*
X0607509Y0359488D03*
X0624909Y0359488D03*
X0602709Y0380488D03*
X0590409Y0385588D03*
X0597609Y0394888D03*
X0605109Y0399388D03*
X0609309Y0402688D03*
X0615009Y0398188D03*
X0574809Y0360088D03*
X0530487Y0353188D03*
X0504909Y0352588D03*
X0497109Y0353188D03*
X0501009Y0342988D03*
X0484809Y0340888D03*
X0479709Y0342088D03*
X0476409Y0322288D03*
X0431409Y0336688D03*
X0431409Y0364288D03*
X0423909Y0392488D03*
X0365709Y0445888D03*
X0345009Y0463888D03*
X0398238Y0474635D03*
X0503409Y0371488D03*
X0645309Y0449488D03*
X0669009Y0461188D03*
X0622209Y0490588D03*
D20*
X0669470Y0390068D03*
X0669548Y0381446D03*
X0681084Y0393965D03*
X0698840Y0381288D03*
X0696753Y0355304D03*
X0689391Y0351013D03*
X0679666Y0351170D03*
X0669824Y0351288D03*
X0669666Y0359910D03*
M02*
