G75*
%MOIN*%
%OFA0B0*%
%FSLAX25Y25*%
%IPPOS*%
%LPD*%
%AMOC8*
5,1,8,0,0,1.08239X$1,22.5*
%
%ADD10C,0.05937*%
%ADD11R,0.06496X0.06496*%
%ADD12C,0.06496*%
%ADD13R,0.07400X0.07400*%
%ADD14C,0.01480*%
%ADD15C,0.07400*%
%ADD16R,0.05150X0.05150*%
%ADD17C,0.05150*%
%ADD18C,0.00600*%
%ADD19C,0.04500*%
%ADD20C,0.05362*%
%ADD21C,0.04575*%
%ADD22C,0.04969*%
%ADD23C,0.01800*%
%ADD24C,0.05756*%
%ADD25C,0.01600*%
D10*
X0454041Y0346288D02*
X0459978Y0346288D01*
X0459978Y0356288D02*
X0454041Y0356288D01*
D11*
X0462816Y0398178D03*
X0328682Y0298217D03*
D12*
X0328682Y0308217D03*
X0328682Y0318217D03*
X0328682Y0328217D03*
X0328682Y0338217D03*
X0328682Y0348217D03*
X0328682Y0358217D03*
X0328682Y0368217D03*
X0328682Y0378217D03*
X0328682Y0388217D03*
X0462816Y0388178D03*
X0530809Y0222988D03*
D13*
G36*
X0665882Y0283500D02*
X0665921Y0290899D01*
X0673320Y0290860D01*
X0673281Y0283461D01*
X0665882Y0283500D01*
G37*
D14*
X0669047Y0274967D02*
X0668307Y0274227D01*
X0666582Y0275970D01*
X0666595Y0278421D01*
X0668338Y0280146D01*
X0670789Y0280133D01*
X0672514Y0278390D01*
X0672501Y0275939D01*
X0670758Y0274214D01*
X0668307Y0274227D01*
X0668773Y0275335D01*
X0667695Y0276424D01*
X0667703Y0277955D01*
X0668792Y0279033D01*
X0670323Y0279025D01*
X0671401Y0277936D01*
X0671393Y0276405D01*
X0670304Y0275327D01*
X0668773Y0275335D01*
X0669239Y0276442D01*
X0668807Y0276878D01*
X0668810Y0277489D01*
X0669246Y0277921D01*
X0669857Y0277918D01*
X0670289Y0277482D01*
X0670286Y0276871D01*
X0669850Y0276439D01*
X0669239Y0276442D01*
X0668995Y0264968D02*
X0668255Y0264228D01*
X0666530Y0265971D01*
X0666543Y0268422D01*
X0668286Y0270147D01*
X0670737Y0270134D01*
X0672462Y0268391D01*
X0672449Y0265940D01*
X0670706Y0264215D01*
X0668255Y0264228D01*
X0668721Y0265336D01*
X0667643Y0266425D01*
X0667651Y0267956D01*
X0668740Y0269034D01*
X0670271Y0269026D01*
X0671349Y0267937D01*
X0671341Y0266406D01*
X0670252Y0265328D01*
X0668721Y0265336D01*
X0669187Y0266443D01*
X0668755Y0266879D01*
X0668758Y0267490D01*
X0669194Y0267922D01*
X0669805Y0267919D01*
X0670237Y0267483D01*
X0670234Y0266872D01*
X0669798Y0266440D01*
X0669187Y0266443D01*
X0678995Y0264915D02*
X0678255Y0264175D01*
X0676530Y0265918D01*
X0676543Y0268369D01*
X0678286Y0270094D01*
X0680737Y0270081D01*
X0682462Y0268338D01*
X0682449Y0265887D01*
X0680706Y0264162D01*
X0678255Y0264175D01*
X0678721Y0265283D01*
X0677643Y0266372D01*
X0677651Y0267903D01*
X0678740Y0268981D01*
X0680271Y0268973D01*
X0681349Y0267884D01*
X0681341Y0266353D01*
X0680252Y0265275D01*
X0678721Y0265283D01*
X0679187Y0266390D01*
X0678755Y0266826D01*
X0678758Y0267437D01*
X0679194Y0267869D01*
X0679805Y0267866D01*
X0680237Y0267430D01*
X0680234Y0266819D01*
X0679798Y0266387D01*
X0679187Y0266390D01*
X0679047Y0274915D02*
X0678307Y0274175D01*
X0676582Y0275918D01*
X0676595Y0278369D01*
X0678338Y0280094D01*
X0680789Y0280081D01*
X0682514Y0278338D01*
X0682501Y0275887D01*
X0680758Y0274162D01*
X0678307Y0274175D01*
X0678773Y0275283D01*
X0677695Y0276372D01*
X0677703Y0277903D01*
X0678792Y0278981D01*
X0680323Y0278973D01*
X0681401Y0277884D01*
X0681393Y0276353D01*
X0680304Y0275275D01*
X0678773Y0275283D01*
X0679239Y0276390D01*
X0678807Y0276826D01*
X0678810Y0277437D01*
X0679246Y0277869D01*
X0679857Y0277866D01*
X0680289Y0277430D01*
X0680286Y0276819D01*
X0679850Y0276387D01*
X0679239Y0276390D01*
X0679100Y0284915D02*
X0678360Y0284175D01*
X0676635Y0285918D01*
X0676648Y0288369D01*
X0678391Y0290094D01*
X0680842Y0290081D01*
X0682567Y0288338D01*
X0682554Y0285887D01*
X0680811Y0284162D01*
X0678360Y0284175D01*
X0678826Y0285283D01*
X0677748Y0286372D01*
X0677756Y0287903D01*
X0678845Y0288981D01*
X0680376Y0288973D01*
X0681454Y0287884D01*
X0681446Y0286353D01*
X0680357Y0285275D01*
X0678826Y0285283D01*
X0679292Y0286390D01*
X0678860Y0286826D01*
X0678863Y0287437D01*
X0679299Y0287869D01*
X0679910Y0287866D01*
X0680342Y0287430D01*
X0680339Y0286819D01*
X0679903Y0286387D01*
X0679292Y0286390D01*
D15*
X0569605Y0149937D03*
X0559610Y0149640D03*
X0549614Y0149344D03*
X0539618Y0149047D03*
X0529623Y0148750D03*
X0519627Y0148454D03*
X0468840Y0151968D03*
X0459777Y0156194D03*
X0450714Y0160421D03*
X0441651Y0164647D03*
X0432588Y0168873D03*
X0423525Y0173099D03*
D16*
X0466909Y0231388D03*
D17*
X0562009Y0461288D03*
X0498209Y0469588D03*
D18*
X0498309Y0469588D01*
X0498309Y0451288D01*
X0576347Y0371124D01*
X0627716Y0370652D01*
X0630009Y0373888D02*
X0632109Y0371788D01*
X0632109Y0241588D01*
X0539709Y0149188D01*
X0539618Y0149047D01*
X0541809Y0144388D02*
X0534009Y0144388D01*
X0529809Y0148588D01*
X0529623Y0148750D01*
X0541809Y0144388D02*
X0544509Y0147088D01*
X0544509Y0150988D01*
X0633309Y0239788D01*
X0633466Y0378499D01*
X0632032Y0380052D01*
X0627810Y0383713D01*
X0629589Y0388881D02*
X0651321Y0363235D01*
X0646793Y0347902D01*
X0649706Y0341918D02*
X0657462Y0342351D01*
X0657462Y0360383D01*
X0652774Y0367457D02*
X0644655Y0374472D01*
X0639415Y0394866D01*
X0620114Y0405072D01*
X0603750Y0408537D01*
X0596798Y0414426D02*
X0616815Y0411906D01*
X0619463Y0410755D01*
X0620715Y0409535D01*
X0612009Y0402057D02*
X0580809Y0396388D01*
X0574439Y0380569D01*
X0587541Y0349713D02*
X0605139Y0359083D01*
X0605431Y0363067D02*
X0500863Y0359483D01*
X0492892Y0353263D01*
X0439492Y0299745D01*
X0328809Y0298288D01*
X0328682Y0298217D01*
X0324309Y0294688D02*
X0324309Y0301888D01*
X0328509Y0306088D01*
X0328509Y0308188D01*
X0328682Y0308217D01*
X0324309Y0294688D02*
X0325209Y0293788D01*
X0455409Y0293788D01*
X0500092Y0328354D01*
X0499785Y0343690D01*
X0500092Y0328354D02*
X0527503Y0314259D01*
X0575236Y0328212D01*
X0620568Y0337582D01*
X0626674Y0335735D02*
X0441909Y0164788D01*
X0441651Y0164647D01*
X0432588Y0168873D02*
X0432609Y0168988D01*
X0572109Y0308488D01*
X0568918Y0316170D02*
X0552777Y0304044D01*
X0525257Y0303493D01*
X0511832Y0304123D01*
X0495139Y0302509D01*
X0453603Y0289083D01*
X0451478Y0288808D01*
X0429037Y0288926D01*
X0409470Y0261170D01*
X0415454Y0351131D02*
X0415415Y0356800D01*
X0423407Y0384950D01*
X0568918Y0316170D02*
X0575336Y0322942D01*
X0605431Y0363067D02*
X0620062Y0362201D01*
X0630009Y0373888D02*
X0625954Y0377884D01*
X0619627Y0376721D02*
X0614470Y0382706D01*
X0619641Y0395089D02*
X0629589Y0388881D01*
X0619641Y0395089D02*
X0612009Y0402057D01*
X0637265Y0415973D02*
X0657304Y0415894D01*
X0657265Y0404950D01*
X0669155Y0397745D02*
X0650296Y0387076D01*
X0650100Y0374753D01*
X0652774Y0367457D02*
X0678412Y0365488D01*
X0658603Y0370934D02*
X0658879Y0377312D01*
X0658407Y0386013D01*
X0669155Y0397745D02*
X0669233Y0418257D01*
X0643682Y0443887D01*
X0612816Y0450343D01*
X0539233Y0489123D01*
X0460178Y0488887D01*
X0433682Y0489083D01*
X0673210Y0411170D02*
X0678013Y0411136D01*
X0678047Y0405422D01*
X0677929Y0398003D01*
X0677838Y0393383D01*
X0677888Y0392583D01*
X0677768Y0391927D01*
X0677774Y0391711D01*
X0677777Y0387430D01*
D19*
X0678412Y0365488D03*
X0651321Y0363235D03*
X0646793Y0347902D03*
X0626674Y0335735D03*
X0620568Y0337582D03*
X0620062Y0362201D03*
X0627716Y0370652D03*
X0625954Y0377884D03*
X0627810Y0383713D03*
X0612009Y0402057D03*
X0603750Y0408537D03*
X0596798Y0414426D03*
X0620715Y0409535D03*
X0606088Y0444720D03*
X0672946Y0462451D03*
X0574439Y0380569D03*
X0523822Y0418204D03*
X0500863Y0359483D03*
X0500092Y0328354D03*
X0572109Y0308488D03*
X0683668Y0307067D03*
X0531009Y0192988D03*
X0422330Y0446003D03*
X0340697Y0469200D03*
D20*
X0433682Y0489083D03*
X0423407Y0384950D03*
X0415454Y0351131D03*
X0650100Y0374753D03*
X0670729Y0385934D03*
X0677777Y0387430D03*
X0691714Y0396839D03*
X0700572Y0386721D03*
X0699824Y0354635D03*
X0681202Y0344162D03*
X0669627Y0347587D03*
X0673210Y0411170D03*
D21*
X0499785Y0343690D03*
X0340415Y0259162D03*
D22*
X0409470Y0261170D03*
X0575336Y0322942D03*
X0587541Y0349713D03*
X0605139Y0359083D03*
X0619627Y0376721D03*
X0614470Y0382706D03*
X0658407Y0386013D03*
X0658603Y0370934D03*
X0657462Y0360383D03*
X0649706Y0341918D03*
X0645454Y0321328D03*
D23*
X0664209Y0291388D02*
X0664209Y0272488D01*
X0669309Y0267388D01*
X0669496Y0267181D01*
X0664209Y0291388D02*
X0679809Y0306988D01*
X0683668Y0307067D01*
X0523822Y0418204D02*
X0414412Y0419346D01*
X0328809Y0318388D01*
X0328682Y0318217D01*
D24*
X0637265Y0415973D03*
X0657265Y0404950D03*
D25*
X0327737Y0269989D02*
X0327422Y0259280D01*
X0340415Y0259162D01*
X0327737Y0269989D02*
X0317383Y0279044D01*
X0316517Y0367391D01*
X0328682Y0368217D01*
X0645454Y0321328D02*
X0664209Y0291388D01*
X0682422Y0350107D02*
X0694863Y0350107D01*
X0694942Y0364753D01*
X0695178Y0390894D01*
X0682068Y0390894D01*
X0681871Y0390894D02*
X0682422Y0350107D01*
M02*
