G75*
%MOIN*%
%OFA0B0*%
%FSLAX25Y25*%
%IPPOS*%
%LPD*%
%AMOC8*
5,1,8,0,0,1.08239X$1,22.5*
%
%ADD10R,0.04000X0.10000*%
%ADD11R,0.01378X0.03150*%
%ADD12C,0.05937*%
%ADD13R,0.06496X0.06496*%
%ADD14C,0.06496*%
%ADD15C,0.01956*%
%ADD16C,0.01959*%
%ADD17C,0.01575*%
%ADD18R,0.07400X0.07400*%
%ADD19C,0.01480*%
%ADD20C,0.07400*%
%ADD21R,0.05150X0.05150*%
%ADD22C,0.05150*%
%ADD23C,0.01811*%
%ADD24R,0.07874X0.07874*%
%ADD25R,0.04724X0.02165*%
%ADD26R,0.02201X0.06787*%
%ADD27R,0.01102X0.05512*%
%ADD28R,0.05512X0.01102*%
%ADD29R,0.06150X0.01102*%
%ADD30R,0.01102X0.06150*%
%ADD31R,0.07480X0.04331*%
%ADD32R,0.05600X0.02800*%
%ADD33C,0.00600*%
%ADD34C,0.04500*%
%ADD35C,0.01800*%
%ADD36C,0.01600*%
%ADD37C,0.05362*%
%ADD38C,0.04969*%
%ADD39C,0.05756*%
D10*
X0699383Y0366524D03*
X0725383Y0366524D03*
D11*
X0691163Y0365422D03*
X0688603Y0365422D03*
X0686044Y0365422D03*
X0686044Y0371721D03*
X0688603Y0371721D03*
X0691163Y0371721D03*
D12*
X0459978Y0356288D02*
X0454041Y0356288D01*
X0454041Y0346288D02*
X0459978Y0346288D01*
D13*
X0462816Y0398178D03*
X0328682Y0298217D03*
D14*
X0328682Y0308217D03*
X0328682Y0318217D03*
X0328682Y0328217D03*
X0328682Y0338217D03*
X0328682Y0348217D03*
X0328682Y0358217D03*
X0328682Y0368217D03*
X0328682Y0378217D03*
X0328682Y0388217D03*
X0462816Y0388178D03*
X0530809Y0222988D03*
D15*
X0527409Y0166164D02*
X0525113Y0166164D01*
X0525113Y0169798D01*
X0527409Y0169798D01*
X0527409Y0166164D01*
X0527409Y0168119D02*
X0525113Y0168119D01*
X0520362Y0169798D02*
X0518066Y0169798D01*
X0520362Y0169798D02*
X0520362Y0166164D01*
X0518066Y0166164D01*
X0518066Y0169798D01*
X0518066Y0168119D02*
X0520362Y0168119D01*
X0394923Y0226693D02*
X0393300Y0225070D01*
X0390731Y0227639D01*
X0392354Y0229262D01*
X0394923Y0226693D01*
X0394591Y0227025D02*
X0391345Y0227025D01*
X0392072Y0228980D02*
X0392636Y0228980D01*
X0387371Y0224278D02*
X0385748Y0222655D01*
X0387371Y0224278D02*
X0389940Y0221709D01*
X0388317Y0220086D01*
X0385748Y0222655D01*
X0386362Y0222041D02*
X0389608Y0222041D01*
X0387653Y0223996D02*
X0387089Y0223996D01*
X0429641Y0344798D02*
X0431937Y0344798D01*
X0431937Y0341164D01*
X0429641Y0341164D01*
X0429641Y0344798D01*
X0429641Y0343119D02*
X0431937Y0343119D01*
X0436688Y0341164D02*
X0438984Y0341164D01*
X0436688Y0341164D02*
X0436688Y0344798D01*
X0438984Y0344798D01*
X0438984Y0341164D01*
X0438984Y0343119D02*
X0436688Y0343119D01*
X0437515Y0356361D02*
X0439811Y0356361D01*
X0437515Y0356361D02*
X0437515Y0359995D01*
X0439811Y0359995D01*
X0439811Y0356361D01*
X0439811Y0358316D02*
X0437515Y0358316D01*
X0432763Y0359995D02*
X0430467Y0359995D01*
X0432763Y0359995D02*
X0432763Y0356361D01*
X0430467Y0356361D01*
X0430467Y0359995D01*
X0430467Y0358316D02*
X0432763Y0358316D01*
X0434562Y0399916D02*
X0436858Y0399916D01*
X0436858Y0396282D01*
X0434562Y0396282D01*
X0434562Y0399916D01*
X0434562Y0398237D02*
X0436858Y0398237D01*
X0441609Y0396282D02*
X0443905Y0396282D01*
X0441609Y0396282D02*
X0441609Y0399916D01*
X0443905Y0399916D01*
X0443905Y0396282D01*
X0443905Y0398237D02*
X0441609Y0398237D01*
X0497192Y0381196D02*
X0497192Y0378900D01*
X0493558Y0378900D01*
X0493558Y0381196D01*
X0497192Y0381196D01*
X0497192Y0380855D02*
X0493558Y0380855D01*
X0493558Y0374149D02*
X0493558Y0371853D01*
X0493558Y0374149D02*
X0497192Y0374149D01*
X0497192Y0371853D01*
X0493558Y0371853D01*
X0493558Y0373808D02*
X0497192Y0373808D01*
X0502692Y0374424D02*
X0502692Y0372128D01*
X0502692Y0374424D02*
X0506326Y0374424D01*
X0506326Y0372128D01*
X0502692Y0372128D01*
X0502692Y0374083D02*
X0506326Y0374083D01*
X0506326Y0379176D02*
X0506326Y0381472D01*
X0506326Y0379176D02*
X0502692Y0379176D01*
X0502692Y0381472D01*
X0506326Y0381472D01*
X0506326Y0381131D02*
X0502692Y0381131D01*
X0516090Y0381354D02*
X0516090Y0379058D01*
X0512456Y0379058D01*
X0512456Y0381354D01*
X0516090Y0381354D01*
X0516090Y0381013D02*
X0512456Y0381013D01*
X0525932Y0381932D02*
X0525932Y0384228D01*
X0525932Y0381932D02*
X0522298Y0381932D01*
X0522298Y0384228D01*
X0525932Y0384228D01*
X0525932Y0383887D02*
X0522298Y0383887D01*
X0522298Y0377180D02*
X0522298Y0374884D01*
X0522298Y0377180D02*
X0525932Y0377180D01*
X0525932Y0374884D01*
X0522298Y0374884D01*
X0522298Y0376839D02*
X0525932Y0376839D01*
X0512456Y0374306D02*
X0512456Y0372010D01*
X0512456Y0374306D02*
X0516090Y0374306D01*
X0516090Y0372010D01*
X0512456Y0372010D01*
X0512456Y0373965D02*
X0516090Y0373965D01*
X0535499Y0364424D02*
X0535499Y0362128D01*
X0531865Y0362128D01*
X0531865Y0364424D01*
X0535499Y0364424D01*
X0535499Y0364083D02*
X0531865Y0364083D01*
X0531865Y0357377D02*
X0531865Y0355081D01*
X0531865Y0357377D02*
X0535499Y0357377D01*
X0535499Y0355081D01*
X0531865Y0355081D01*
X0531865Y0357036D02*
X0535499Y0357036D01*
X0565625Y0363263D02*
X0567921Y0363263D01*
X0567921Y0359629D01*
X0565625Y0359629D01*
X0565625Y0363263D01*
X0565625Y0361584D02*
X0567921Y0361584D01*
X0572672Y0359629D02*
X0574968Y0359629D01*
X0572672Y0359629D02*
X0572672Y0363263D01*
X0574968Y0363263D01*
X0574968Y0359629D01*
X0574968Y0361584D02*
X0572672Y0361584D01*
X0573472Y0386479D02*
X0571176Y0386479D01*
X0571176Y0390113D01*
X0573472Y0390113D01*
X0573472Y0386479D01*
X0573472Y0388434D02*
X0571176Y0388434D01*
X0566425Y0390113D02*
X0564129Y0390113D01*
X0566425Y0390113D02*
X0566425Y0386479D01*
X0564129Y0386479D01*
X0564129Y0390113D01*
X0564129Y0388434D02*
X0566425Y0388434D01*
X0590467Y0423932D02*
X0592763Y0423932D01*
X0592763Y0420298D01*
X0590467Y0420298D01*
X0590467Y0423932D01*
X0590467Y0422253D02*
X0592763Y0422253D01*
X0597515Y0420298D02*
X0599811Y0420298D01*
X0597515Y0420298D02*
X0597515Y0423932D01*
X0599811Y0423932D01*
X0599811Y0420298D01*
X0599811Y0422253D02*
X0597515Y0422253D01*
X0599286Y0436963D02*
X0601582Y0436963D01*
X0601582Y0433329D01*
X0599286Y0433329D01*
X0599286Y0436963D01*
X0599286Y0435284D02*
X0601582Y0435284D01*
X0606333Y0433329D02*
X0608629Y0433329D01*
X0606333Y0433329D02*
X0606333Y0436963D01*
X0608629Y0436963D01*
X0608629Y0433329D01*
X0608629Y0435284D02*
X0606333Y0435284D01*
X0613381Y0440074D02*
X0615677Y0440074D01*
X0615677Y0436440D01*
X0613381Y0436440D01*
X0613381Y0440074D01*
X0613381Y0438395D02*
X0615677Y0438395D01*
X0620428Y0436440D02*
X0622724Y0436440D01*
X0620428Y0436440D02*
X0620428Y0440074D01*
X0622724Y0440074D01*
X0622724Y0436440D01*
X0622724Y0438395D02*
X0620428Y0438395D01*
X0624410Y0483915D02*
X0626033Y0485538D01*
X0628602Y0482969D01*
X0626979Y0481346D01*
X0624410Y0483915D01*
X0625024Y0483301D02*
X0628270Y0483301D01*
X0626315Y0485256D02*
X0625751Y0485256D01*
X0631962Y0486329D02*
X0633585Y0487952D01*
X0631962Y0486329D02*
X0629393Y0488898D01*
X0631016Y0490521D01*
X0633585Y0487952D01*
X0633253Y0488284D02*
X0630007Y0488284D01*
X0630734Y0490239D02*
X0631298Y0490239D01*
X0683026Y0381452D02*
X0685322Y0381452D01*
X0685322Y0377818D01*
X0683026Y0377818D01*
X0683026Y0381452D01*
X0683026Y0379773D02*
X0685322Y0379773D01*
X0690074Y0377818D02*
X0692370Y0377818D01*
X0690074Y0377818D02*
X0690074Y0381452D01*
X0692370Y0381452D01*
X0692370Y0377818D01*
X0692370Y0379773D02*
X0690074Y0379773D01*
X0691097Y0352345D02*
X0693393Y0352345D01*
X0691097Y0352345D02*
X0691097Y0355979D01*
X0693393Y0355979D01*
X0693393Y0352345D01*
X0693393Y0354300D02*
X0691097Y0354300D01*
X0686346Y0355979D02*
X0684050Y0355979D01*
X0686346Y0355979D02*
X0686346Y0352345D01*
X0684050Y0352345D01*
X0684050Y0355979D01*
X0684050Y0354300D02*
X0686346Y0354300D01*
X0614594Y0329857D02*
X0614594Y0327561D01*
X0610960Y0327561D01*
X0610960Y0329857D01*
X0614594Y0329857D01*
X0614594Y0329516D02*
X0610960Y0329516D01*
X0610960Y0322810D02*
X0610960Y0320514D01*
X0610960Y0322810D02*
X0614594Y0322810D01*
X0614594Y0320514D01*
X0610960Y0320514D01*
X0610960Y0322469D02*
X0614594Y0322469D01*
X0647215Y0237726D02*
X0648838Y0236103D01*
X0646269Y0233534D01*
X0644646Y0235157D01*
X0647215Y0237726D01*
X0648224Y0235489D02*
X0644978Y0235489D01*
X0646933Y0237444D02*
X0647497Y0237444D01*
X0649629Y0230174D02*
X0651252Y0228551D01*
X0649629Y0230174D02*
X0652198Y0232743D01*
X0653821Y0231120D01*
X0651252Y0228551D01*
X0649961Y0230506D02*
X0653207Y0230506D01*
X0652480Y0232461D02*
X0651916Y0232461D01*
X0391173Y0457724D02*
X0389550Y0459347D01*
X0392119Y0461916D01*
X0393742Y0460293D01*
X0391173Y0457724D01*
X0389882Y0459679D02*
X0393128Y0459679D01*
X0392401Y0461634D02*
X0391837Y0461634D01*
X0388759Y0465276D02*
X0387136Y0466899D01*
X0388759Y0465276D02*
X0386190Y0462707D01*
X0384567Y0464330D01*
X0387136Y0466899D01*
X0388145Y0464662D02*
X0384899Y0464662D01*
X0386854Y0466617D02*
X0387418Y0466617D01*
D16*
X0374267Y0486780D02*
X0379480Y0491993D01*
X0384859Y0486614D01*
X0379646Y0481401D01*
X0374267Y0486780D01*
X0377688Y0483359D02*
X0381604Y0483359D01*
X0383562Y0485317D02*
X0375730Y0485317D01*
X0374762Y0487275D02*
X0384198Y0487275D01*
X0382240Y0489233D02*
X0376720Y0489233D01*
X0378678Y0491191D02*
X0380282Y0491191D01*
X0397018Y0498772D02*
X0402231Y0503985D01*
X0397018Y0498772D02*
X0391639Y0504151D01*
X0396852Y0509364D01*
X0402231Y0503985D01*
X0398976Y0500730D02*
X0395060Y0500730D01*
X0393102Y0502688D02*
X0400934Y0502688D01*
X0401570Y0504646D02*
X0392134Y0504646D01*
X0394092Y0506604D02*
X0399612Y0506604D01*
X0397654Y0508562D02*
X0396050Y0508562D01*
X0629961Y0517160D02*
X0635174Y0511947D01*
X0629795Y0506568D01*
X0624582Y0511781D01*
X0629961Y0517160D01*
X0631753Y0508526D02*
X0627837Y0508526D01*
X0625879Y0510484D02*
X0633711Y0510484D01*
X0634679Y0512442D02*
X0625243Y0512442D01*
X0627201Y0514400D02*
X0632721Y0514400D01*
X0630763Y0516358D02*
X0629159Y0516358D01*
X0641954Y0494409D02*
X0647167Y0489196D01*
X0641954Y0494409D02*
X0647333Y0499788D01*
X0652546Y0494575D01*
X0647167Y0489196D01*
X0649125Y0491154D02*
X0645209Y0491154D01*
X0643251Y0493112D02*
X0651083Y0493112D01*
X0652051Y0495070D02*
X0642615Y0495070D01*
X0644573Y0497028D02*
X0650093Y0497028D01*
X0648135Y0498986D02*
X0646531Y0498986D01*
X0684672Y0229104D02*
X0679459Y0223891D01*
X0674080Y0229270D01*
X0679293Y0234483D01*
X0684672Y0229104D01*
X0681417Y0225849D02*
X0677501Y0225849D01*
X0675543Y0227807D02*
X0683375Y0227807D01*
X0684011Y0229765D02*
X0674575Y0229765D01*
X0676533Y0231723D02*
X0682053Y0231723D01*
X0680095Y0233681D02*
X0678491Y0233681D01*
X0661921Y0217111D02*
X0656708Y0211898D01*
X0661921Y0217111D02*
X0667300Y0211732D01*
X0662087Y0206519D01*
X0656708Y0211898D01*
X0660129Y0208477D02*
X0664045Y0208477D01*
X0666003Y0210435D02*
X0658171Y0210435D01*
X0657203Y0212393D02*
X0666639Y0212393D01*
X0664681Y0214351D02*
X0659161Y0214351D01*
X0661119Y0216309D02*
X0662723Y0216309D01*
X0391301Y0179196D02*
X0386088Y0184409D01*
X0391467Y0189788D01*
X0396680Y0184575D01*
X0391301Y0179196D01*
X0393259Y0181154D02*
X0389343Y0181154D01*
X0387385Y0183112D02*
X0395217Y0183112D01*
X0396185Y0185070D02*
X0386749Y0185070D01*
X0388707Y0187028D02*
X0394227Y0187028D01*
X0392269Y0188986D02*
X0390665Y0188986D01*
X0379308Y0201947D02*
X0374095Y0207160D01*
X0379308Y0201947D02*
X0373929Y0196568D01*
X0368716Y0201781D01*
X0374095Y0207160D01*
X0375887Y0198526D02*
X0371971Y0198526D01*
X0370013Y0200484D02*
X0377845Y0200484D01*
X0378813Y0202442D02*
X0369377Y0202442D01*
X0371335Y0204400D02*
X0376855Y0204400D01*
X0374897Y0206358D02*
X0373293Y0206358D01*
D17*
X0342113Y0235873D02*
X0339748Y0233508D01*
X0342113Y0235873D02*
X0343228Y0234758D01*
X0340863Y0232393D01*
X0339748Y0233508D01*
X0340207Y0233967D02*
X0342437Y0233967D01*
X0342445Y0235541D02*
X0341781Y0235541D01*
X0350133Y0241664D02*
X0352498Y0244029D01*
X0350133Y0241664D02*
X0349018Y0242779D01*
X0351383Y0245144D01*
X0352498Y0244029D01*
X0351707Y0243238D02*
X0349477Y0243238D01*
X0351051Y0244812D02*
X0351715Y0244812D01*
X0620312Y0190577D02*
X0622677Y0188212D01*
X0621562Y0187097D01*
X0619197Y0189462D01*
X0620312Y0190577D01*
X0619988Y0188671D02*
X0622218Y0188671D01*
X0620644Y0190245D02*
X0619980Y0190245D01*
X0628467Y0180191D02*
X0630832Y0177826D01*
X0628467Y0180191D02*
X0629582Y0181306D01*
X0631947Y0178941D01*
X0630832Y0177826D01*
X0631488Y0179400D02*
X0629258Y0179400D01*
X0629250Y0180974D02*
X0629914Y0180974D01*
X0652858Y0456185D02*
X0655223Y0458550D01*
X0656338Y0457435D01*
X0653973Y0455070D01*
X0652858Y0456185D01*
X0653317Y0456644D02*
X0655547Y0456644D01*
X0655555Y0458218D02*
X0654891Y0458218D01*
X0663244Y0464341D02*
X0665609Y0466706D01*
X0663244Y0464341D02*
X0662129Y0465456D01*
X0664494Y0467821D01*
X0665609Y0466706D01*
X0664818Y0465915D02*
X0662588Y0465915D01*
X0664162Y0467489D02*
X0664826Y0467489D01*
X0348194Y0449480D02*
X0345829Y0451845D01*
X0346944Y0452960D01*
X0349309Y0450595D01*
X0348194Y0449480D01*
X0348850Y0451054D02*
X0346620Y0451054D01*
X0346612Y0452628D02*
X0347276Y0452628D01*
X0340039Y0459865D02*
X0337674Y0462230D01*
X0340039Y0459865D02*
X0338924Y0458750D01*
X0336559Y0461115D01*
X0337674Y0462230D01*
X0337350Y0460324D02*
X0339580Y0460324D01*
X0338006Y0461898D02*
X0337342Y0461898D01*
D18*
G36*
X0665882Y0283500D02*
X0665921Y0290899D01*
X0673320Y0290860D01*
X0673281Y0283461D01*
X0665882Y0283500D01*
G37*
D19*
X0669047Y0274967D02*
X0668307Y0274227D01*
X0666582Y0275970D01*
X0666595Y0278421D01*
X0668338Y0280146D01*
X0670789Y0280133D01*
X0672514Y0278390D01*
X0672501Y0275939D01*
X0670758Y0274214D01*
X0668307Y0274227D01*
X0668773Y0275335D01*
X0667695Y0276424D01*
X0667703Y0277955D01*
X0668792Y0279033D01*
X0670323Y0279025D01*
X0671401Y0277936D01*
X0671393Y0276405D01*
X0670304Y0275327D01*
X0668773Y0275335D01*
X0669239Y0276442D01*
X0668807Y0276878D01*
X0668810Y0277489D01*
X0669246Y0277921D01*
X0669857Y0277918D01*
X0670289Y0277482D01*
X0670286Y0276871D01*
X0669850Y0276439D01*
X0669239Y0276442D01*
X0668995Y0264968D02*
X0668255Y0264228D01*
X0666530Y0265971D01*
X0666543Y0268422D01*
X0668286Y0270147D01*
X0670737Y0270134D01*
X0672462Y0268391D01*
X0672449Y0265940D01*
X0670706Y0264215D01*
X0668255Y0264228D01*
X0668721Y0265336D01*
X0667643Y0266425D01*
X0667651Y0267956D01*
X0668740Y0269034D01*
X0670271Y0269026D01*
X0671349Y0267937D01*
X0671341Y0266406D01*
X0670252Y0265328D01*
X0668721Y0265336D01*
X0669187Y0266443D01*
X0668755Y0266879D01*
X0668758Y0267490D01*
X0669194Y0267922D01*
X0669805Y0267919D01*
X0670237Y0267483D01*
X0670234Y0266872D01*
X0669798Y0266440D01*
X0669187Y0266443D01*
X0678995Y0264915D02*
X0678255Y0264175D01*
X0676530Y0265918D01*
X0676543Y0268369D01*
X0678286Y0270094D01*
X0680737Y0270081D01*
X0682462Y0268338D01*
X0682449Y0265887D01*
X0680706Y0264162D01*
X0678255Y0264175D01*
X0678721Y0265283D01*
X0677643Y0266372D01*
X0677651Y0267903D01*
X0678740Y0268981D01*
X0680271Y0268973D01*
X0681349Y0267884D01*
X0681341Y0266353D01*
X0680252Y0265275D01*
X0678721Y0265283D01*
X0679187Y0266390D01*
X0678755Y0266826D01*
X0678758Y0267437D01*
X0679194Y0267869D01*
X0679805Y0267866D01*
X0680237Y0267430D01*
X0680234Y0266819D01*
X0679798Y0266387D01*
X0679187Y0266390D01*
X0679047Y0274915D02*
X0678307Y0274175D01*
X0676582Y0275918D01*
X0676595Y0278369D01*
X0678338Y0280094D01*
X0680789Y0280081D01*
X0682514Y0278338D01*
X0682501Y0275887D01*
X0680758Y0274162D01*
X0678307Y0274175D01*
X0678773Y0275283D01*
X0677695Y0276372D01*
X0677703Y0277903D01*
X0678792Y0278981D01*
X0680323Y0278973D01*
X0681401Y0277884D01*
X0681393Y0276353D01*
X0680304Y0275275D01*
X0678773Y0275283D01*
X0679239Y0276390D01*
X0678807Y0276826D01*
X0678810Y0277437D01*
X0679246Y0277869D01*
X0679857Y0277866D01*
X0680289Y0277430D01*
X0680286Y0276819D01*
X0679850Y0276387D01*
X0679239Y0276390D01*
X0679100Y0284915D02*
X0678360Y0284175D01*
X0676635Y0285918D01*
X0676648Y0288369D01*
X0678391Y0290094D01*
X0680842Y0290081D01*
X0682567Y0288338D01*
X0682554Y0285887D01*
X0680811Y0284162D01*
X0678360Y0284175D01*
X0678826Y0285283D01*
X0677748Y0286372D01*
X0677756Y0287903D01*
X0678845Y0288981D01*
X0680376Y0288973D01*
X0681454Y0287884D01*
X0681446Y0286353D01*
X0680357Y0285275D01*
X0678826Y0285283D01*
X0679292Y0286390D01*
X0678860Y0286826D01*
X0678863Y0287437D01*
X0679299Y0287869D01*
X0679910Y0287866D01*
X0680342Y0287430D01*
X0680339Y0286819D01*
X0679903Y0286387D01*
X0679292Y0286390D01*
D20*
X0569605Y0149937D03*
X0559610Y0149640D03*
X0549614Y0149344D03*
X0539618Y0149047D03*
X0529623Y0148750D03*
X0519627Y0148454D03*
X0468840Y0151968D03*
X0459777Y0156194D03*
X0450714Y0160421D03*
X0441651Y0164647D03*
X0432588Y0168873D03*
X0423525Y0173099D03*
D21*
X0466909Y0231388D03*
D22*
X0562009Y0461288D03*
X0498209Y0469588D03*
D23*
X0430348Y0478244D02*
X0429066Y0479526D01*
X0431626Y0482086D01*
X0432908Y0480804D01*
X0430348Y0478244D01*
X0429594Y0480054D02*
X0432158Y0480054D01*
X0431848Y0481864D02*
X0431404Y0481864D01*
X0427590Y0486121D02*
X0426308Y0487403D01*
X0427590Y0486121D02*
X0425030Y0483561D01*
X0423748Y0484843D01*
X0426308Y0487403D01*
X0426840Y0485371D02*
X0424276Y0485371D01*
X0426086Y0487181D02*
X0426530Y0487181D01*
X0408458Y0473795D02*
X0407176Y0475077D01*
X0409736Y0477637D01*
X0411018Y0476355D01*
X0408458Y0473795D01*
X0407704Y0475605D02*
X0410268Y0475605D01*
X0409958Y0477415D02*
X0409514Y0477415D01*
X0405701Y0481672D02*
X0404419Y0482954D01*
X0405701Y0481672D02*
X0403141Y0479112D01*
X0401859Y0480394D01*
X0404419Y0482954D01*
X0404951Y0480922D02*
X0402387Y0480922D01*
X0404197Y0482732D02*
X0404641Y0482732D01*
X0492619Y0355127D02*
X0492619Y0353315D01*
X0488997Y0353315D01*
X0488997Y0355127D01*
X0492619Y0355127D01*
X0492619Y0355125D02*
X0488997Y0355125D01*
X0488997Y0347608D02*
X0488997Y0345796D01*
X0488997Y0347608D02*
X0492619Y0347608D01*
X0492619Y0345796D01*
X0488997Y0345796D01*
X0488997Y0347606D02*
X0492619Y0347606D01*
X0496989Y0339537D02*
X0496989Y0337725D01*
X0493367Y0337725D01*
X0493367Y0339537D01*
X0496989Y0339537D01*
X0496989Y0339535D02*
X0493367Y0339535D01*
X0493367Y0332017D02*
X0493367Y0330205D01*
X0493367Y0332017D02*
X0496989Y0332017D01*
X0496989Y0330205D01*
X0493367Y0330205D01*
X0493367Y0332015D02*
X0496989Y0332015D01*
X0399167Y0250867D02*
X0397885Y0249585D01*
X0395325Y0252145D01*
X0396607Y0253427D01*
X0399167Y0250867D01*
X0398639Y0251395D02*
X0396075Y0251395D01*
X0396385Y0253205D02*
X0396829Y0253205D01*
X0391290Y0248110D02*
X0390008Y0246828D01*
X0391290Y0248110D02*
X0393850Y0245550D01*
X0392568Y0244268D01*
X0390008Y0246828D01*
X0390758Y0246078D02*
X0393322Y0246078D01*
X0391512Y0247888D02*
X0391068Y0247888D01*
X0409522Y0226536D02*
X0408240Y0225254D01*
X0405680Y0227814D01*
X0406962Y0229096D01*
X0409522Y0226536D01*
X0408994Y0227064D02*
X0406430Y0227064D01*
X0406740Y0228874D02*
X0407184Y0228874D01*
X0401644Y0223779D02*
X0400362Y0222497D01*
X0401644Y0223779D02*
X0404204Y0221219D01*
X0402922Y0219937D01*
X0400362Y0222497D01*
X0401112Y0221747D02*
X0403676Y0221747D01*
X0401866Y0223557D02*
X0401422Y0223557D01*
X0628513Y0220277D02*
X0629795Y0218995D01*
X0627235Y0216435D01*
X0625953Y0217717D01*
X0628513Y0220277D01*
X0629045Y0218245D02*
X0626481Y0218245D01*
X0628291Y0220055D02*
X0628735Y0220055D01*
X0631270Y0212400D02*
X0632552Y0211118D01*
X0631270Y0212400D02*
X0633830Y0214960D01*
X0635112Y0213678D01*
X0632552Y0211118D01*
X0631798Y0212928D02*
X0634362Y0212928D01*
X0634052Y0214738D02*
X0633608Y0214738D01*
X0633261Y0224858D02*
X0631979Y0226140D01*
X0634539Y0228700D01*
X0635821Y0227418D01*
X0633261Y0224858D01*
X0632507Y0226668D02*
X0635071Y0226668D01*
X0634761Y0228478D02*
X0634317Y0228478D01*
X0630504Y0232735D02*
X0629222Y0234017D01*
X0630504Y0232735D02*
X0627944Y0230175D01*
X0626662Y0231457D01*
X0629222Y0234017D01*
X0629754Y0231985D02*
X0627190Y0231985D01*
X0629000Y0233795D02*
X0629444Y0233795D01*
X0689233Y0306268D02*
X0689233Y0308080D01*
X0692855Y0308080D01*
X0692855Y0306268D01*
X0689233Y0306268D01*
X0689233Y0308078D02*
X0692855Y0308078D01*
X0692855Y0313788D02*
X0692855Y0315600D01*
X0692855Y0313788D02*
X0689233Y0313788D01*
X0689233Y0315600D01*
X0692855Y0315600D01*
X0692855Y0315598D02*
X0689233Y0315598D01*
X0637395Y0458913D02*
X0636113Y0460195D01*
X0638673Y0462755D01*
X0639955Y0461473D01*
X0637395Y0458913D01*
X0636641Y0460723D02*
X0639205Y0460723D01*
X0638895Y0462533D02*
X0638451Y0462533D01*
X0634638Y0466791D02*
X0633356Y0468073D01*
X0634638Y0466791D02*
X0632078Y0464231D01*
X0630796Y0465513D01*
X0633356Y0468073D01*
X0633888Y0466041D02*
X0631324Y0466041D01*
X0633134Y0467851D02*
X0633578Y0467851D01*
X0614063Y0493363D02*
X0615345Y0494645D01*
X0617905Y0492085D01*
X0616623Y0490803D01*
X0614063Y0493363D01*
X0614813Y0492613D02*
X0617377Y0492613D01*
X0615567Y0494423D02*
X0615123Y0494423D01*
X0621940Y0496120D02*
X0623222Y0497402D01*
X0621940Y0496120D02*
X0619380Y0498680D01*
X0620662Y0499962D01*
X0623222Y0497402D01*
X0622694Y0497930D02*
X0620130Y0497930D01*
X0620440Y0499740D02*
X0620884Y0499740D01*
D24*
G36*
X0660146Y0484651D02*
X0665713Y0490218D01*
X0671280Y0484651D01*
X0665713Y0479084D01*
X0660146Y0484651D01*
G37*
G36*
X0668498Y0476300D02*
X0674065Y0481867D01*
X0679632Y0476300D01*
X0674065Y0470733D01*
X0668498Y0476300D01*
G37*
G36*
X0362490Y0472088D02*
X0356923Y0477655D01*
X0362490Y0483222D01*
X0368057Y0477655D01*
X0362490Y0472088D01*
G37*
G36*
X0354138Y0463736D02*
X0348571Y0469303D01*
X0354138Y0474870D01*
X0359705Y0469303D01*
X0354138Y0463736D01*
G37*
G36*
X0356702Y0225647D02*
X0351135Y0220080D01*
X0345568Y0225647D01*
X0351135Y0231214D01*
X0356702Y0225647D01*
G37*
G36*
X0365053Y0217295D02*
X0359486Y0211728D01*
X0353919Y0217295D01*
X0359486Y0222862D01*
X0365053Y0217295D01*
G37*
G36*
X0640555Y0184209D02*
X0634988Y0189776D01*
X0640555Y0195343D01*
X0646122Y0189776D01*
X0640555Y0184209D01*
G37*
G36*
X0648907Y0192560D02*
X0643340Y0198127D01*
X0648907Y0203694D01*
X0654474Y0198127D01*
X0648907Y0192560D01*
G37*
D25*
X0448367Y0373572D03*
X0438131Y0373572D03*
X0438131Y0377312D03*
X0438131Y0381052D03*
X0448367Y0381052D03*
D26*
G36*
X0375937Y0446414D02*
X0377493Y0447970D01*
X0382291Y0443172D01*
X0380735Y0441616D01*
X0375937Y0446414D01*
G37*
G36*
X0365027Y0452035D02*
X0366583Y0453591D01*
X0371381Y0448793D01*
X0369825Y0447237D01*
X0365027Y0452035D01*
G37*
G36*
X0370316Y0457324D02*
X0371872Y0458880D01*
X0376670Y0454082D01*
X0375114Y0452526D01*
X0370316Y0457324D01*
G37*
G36*
X0647942Y0469466D02*
X0649498Y0467910D01*
X0644700Y0463112D01*
X0643144Y0464668D01*
X0647942Y0469466D01*
G37*
G36*
X0653563Y0480376D02*
X0655119Y0478820D01*
X0650321Y0474022D01*
X0648765Y0475578D01*
X0653563Y0480376D01*
G37*
G36*
X0658852Y0475087D02*
X0660408Y0473531D01*
X0655610Y0468733D01*
X0654054Y0470289D01*
X0658852Y0475087D01*
G37*
G36*
X0371155Y0241063D02*
X0369599Y0242619D01*
X0374397Y0247417D01*
X0375953Y0245861D01*
X0371155Y0241063D01*
G37*
G36*
X0365534Y0230153D02*
X0363978Y0231709D01*
X0368776Y0236507D01*
X0370332Y0234951D01*
X0365534Y0230153D01*
G37*
G36*
X0360244Y0235442D02*
X0358688Y0236998D01*
X0363486Y0241796D01*
X0365042Y0240240D01*
X0360244Y0235442D01*
G37*
G36*
X0619183Y0209548D02*
X0617627Y0207992D01*
X0612829Y0212790D01*
X0614385Y0214346D01*
X0619183Y0209548D01*
G37*
G36*
X0630093Y0203927D02*
X0628537Y0202371D01*
X0623739Y0207169D01*
X0625295Y0208725D01*
X0630093Y0203927D01*
G37*
G36*
X0624804Y0198638D02*
X0623248Y0197082D01*
X0618450Y0201880D01*
X0620006Y0203436D01*
X0624804Y0198638D01*
G37*
D27*
X0520533Y0339300D03*
X0518812Y0339300D03*
X0517092Y0339300D03*
X0515371Y0339300D03*
X0513651Y0339300D03*
X0511930Y0339300D03*
X0510210Y0339300D03*
X0508485Y0339300D03*
X0508485Y0353276D03*
X0510210Y0353276D03*
X0511930Y0353276D03*
X0513651Y0353276D03*
X0515371Y0353276D03*
X0517092Y0353276D03*
X0518812Y0353276D03*
X0520533Y0353276D03*
D28*
X0522265Y0348926D03*
X0522265Y0347194D03*
X0522265Y0345383D03*
X0522265Y0343650D03*
X0506753Y0343650D03*
X0506753Y0345383D03*
X0506753Y0347194D03*
X0506753Y0348926D03*
D29*
X0596907Y0356957D03*
X0596907Y0358926D03*
X0596907Y0360894D03*
X0596907Y0362863D03*
X0596907Y0364831D03*
X0596907Y0366800D03*
X0596907Y0368769D03*
X0596907Y0370737D03*
X0596907Y0372706D03*
X0596907Y0374674D03*
X0596907Y0376643D03*
X0596907Y0378611D03*
X0596907Y0380580D03*
X0596907Y0382548D03*
X0596907Y0384517D03*
X0596907Y0386485D03*
X0635340Y0386485D03*
X0635340Y0384517D03*
X0635340Y0382548D03*
X0635340Y0380580D03*
X0635340Y0378611D03*
X0635340Y0376643D03*
X0635340Y0374674D03*
X0635340Y0372706D03*
X0635340Y0370737D03*
X0635340Y0368769D03*
X0635340Y0366800D03*
X0635340Y0364831D03*
X0635340Y0362863D03*
X0635340Y0360894D03*
X0635340Y0358926D03*
X0635340Y0356957D03*
D30*
X0630887Y0352505D03*
X0628918Y0352505D03*
X0626950Y0352505D03*
X0624981Y0352505D03*
X0623013Y0352505D03*
X0621044Y0352505D03*
X0619076Y0352505D03*
X0617107Y0352505D03*
X0615139Y0352505D03*
X0613170Y0352505D03*
X0611202Y0352505D03*
X0609233Y0352505D03*
X0607265Y0352505D03*
X0605296Y0352505D03*
X0603328Y0352505D03*
X0601359Y0352505D03*
X0601359Y0390938D03*
X0603328Y0390938D03*
X0605296Y0390938D03*
X0607265Y0390938D03*
X0609233Y0390938D03*
X0611202Y0390938D03*
X0613170Y0390938D03*
X0615139Y0390938D03*
X0617107Y0390938D03*
X0619076Y0390938D03*
X0621044Y0390938D03*
X0623013Y0390938D03*
X0624981Y0390938D03*
X0626950Y0390938D03*
X0628918Y0390938D03*
X0630887Y0390938D03*
D31*
X0627029Y0416879D03*
X0627029Y0425934D03*
X0612462Y0425934D03*
X0612462Y0416879D03*
D32*
X0438596Y0350902D03*
X0435596Y0350902D03*
D33*
X0426241Y0350934D01*
X0423013Y0350894D01*
X0415454Y0351131D01*
X0407138Y0351013D02*
X0407217Y0346764D01*
X0439635Y0347279D01*
X0448126Y0347709D01*
X0456909Y0346288D01*
X0457009Y0346288D01*
X0457009Y0350658D01*
X0452678Y0350855D01*
X0438596Y0350902D01*
X0443387Y0354028D02*
X0432213Y0354035D01*
X0431615Y0358178D01*
X0429772Y0358460D01*
X0407178Y0358456D01*
X0407138Y0351013D01*
X0407217Y0346764D02*
X0407178Y0342785D01*
X0430789Y0342981D01*
X0437836Y0342981D02*
X0437778Y0338548D01*
X0437761Y0335893D01*
X0393133Y0335972D01*
X0393094Y0343137D01*
X0379278Y0343140D01*
X0327009Y0343298D01*
X0324309Y0346588D01*
X0324309Y0349888D01*
X0328509Y0354088D01*
X0328509Y0357988D01*
X0328682Y0358217D01*
X0328509Y0378088D02*
X0328682Y0378217D01*
X0328809Y0378388D01*
X0393101Y0371120D02*
X0393180Y0354311D01*
X0393094Y0343137D01*
X0393101Y0371120D02*
X0428998Y0370994D01*
X0436242Y0371101D01*
X0443590Y0371087D01*
X0443629Y0380648D01*
X0448367Y0381052D01*
X0453292Y0382637D02*
X0453290Y0368737D01*
X0443355Y0365351D01*
X0443426Y0360894D01*
X0443387Y0354028D01*
X0438663Y0358178D02*
X0438601Y0368720D01*
X0448393Y0368867D01*
X0448354Y0370195D01*
X0448367Y0373572D01*
X0441643Y0377269D02*
X0438131Y0377312D01*
X0441643Y0377269D02*
X0441671Y0383135D01*
X0444655Y0386473D01*
X0448244Y0386513D01*
X0453253Y0386424D01*
X0453292Y0382637D01*
X0457170Y0381815D02*
X0461552Y0385331D01*
X0462816Y0388178D01*
X0457170Y0381815D02*
X0457209Y0356488D01*
X0457009Y0356288D01*
X0442960Y0342957D02*
X0437836Y0342981D01*
X0442960Y0342957D02*
X0442998Y0333668D01*
X0484838Y0333510D01*
X0488492Y0333439D01*
X0488500Y0331320D01*
X0488460Y0327850D01*
X0490448Y0327791D01*
X0502209Y0327870D01*
X0510009Y0335788D01*
X0512109Y0335788D01*
X0512259Y0335938D01*
X0512709Y0335488D01*
X0519609Y0335488D01*
X0520509Y0336388D01*
X0520509Y0339088D01*
X0520533Y0339300D01*
X0522265Y0343650D02*
X0522309Y0343888D01*
X0522309Y0345088D01*
X0522265Y0345383D01*
X0522309Y0345688D01*
X0522309Y0346888D01*
X0522265Y0347194D01*
X0522309Y0347488D01*
X0522309Y0348688D01*
X0522265Y0348926D01*
X0522009Y0348988D01*
X0522009Y0351388D01*
X0520509Y0352888D01*
X0520533Y0353276D01*
X0520809Y0353488D01*
X0523509Y0356188D01*
X0533409Y0356188D01*
X0533682Y0356229D01*
X0533709Y0356488D01*
X0568809Y0356488D01*
X0573609Y0361288D01*
X0573820Y0361446D01*
X0573909Y0361888D01*
X0577173Y0370081D01*
X0580086Y0384312D01*
X0572324Y0388296D01*
X0572109Y0388588D01*
X0568659Y0392038D01*
X0568809Y0392188D01*
X0568809Y0399088D01*
X0591609Y0421888D01*
X0591615Y0422115D01*
X0591909Y0422188D01*
X0591909Y0426688D01*
X0600309Y0435088D01*
X0600434Y0435146D01*
X0600609Y0435388D01*
X0600609Y0435988D01*
X0606159Y0441538D01*
X0606088Y0444720D01*
X0606159Y0441538D02*
X0608499Y0441949D01*
X0616509Y0441988D01*
X0620109Y0438388D01*
X0621309Y0438388D01*
X0621576Y0438257D01*
X0614709Y0438088D02*
X0614529Y0438257D01*
X0614409Y0438388D01*
X0613809Y0438988D01*
X0605409Y0438988D01*
X0604209Y0437788D01*
X0604209Y0433288D01*
X0604968Y0430425D01*
X0605322Y0415313D01*
X0615285Y0407870D01*
X0615363Y0390988D01*
X0615139Y0390938D01*
X0616809Y0390988D02*
X0617107Y0390938D01*
X0616809Y0390988D02*
X0616966Y0416577D01*
X0608409Y0416788D01*
X0612462Y0416879D01*
X0608109Y0417088D01*
X0607270Y0417100D01*
X0607270Y0427031D01*
X0607209Y0432088D01*
X0607209Y0435088D01*
X0607481Y0435146D01*
X0614709Y0434188D02*
X0614709Y0438088D01*
X0614709Y0434188D02*
X0627179Y0429946D01*
X0627029Y0425934D01*
X0637265Y0415973D02*
X0630848Y0449359D01*
X0635926Y0448611D01*
X0642934Y0455934D01*
X0638034Y0460834D01*
X0651942Y0477199D02*
X0651909Y0477388D01*
X0663909Y0466288D02*
X0663869Y0466081D01*
X0673809Y0476188D02*
X0674065Y0476300D01*
X0673809Y0476488D01*
X0647409Y0494488D02*
X0647250Y0494492D01*
X0631489Y0488425D02*
X0631509Y0488188D01*
X0631489Y0488425D02*
X0631209Y0488488D01*
X0621909Y0497788D02*
X0621309Y0497788D01*
X0621301Y0498041D01*
X0629709Y0511888D02*
X0629878Y0511864D01*
X0598663Y0422115D02*
X0598809Y0421888D01*
X0600896Y0416920D01*
X0609088Y0410185D01*
X0608576Y0404768D01*
X0609233Y0390938D01*
X0607509Y0390688D02*
X0607265Y0390938D01*
X0607509Y0390688D02*
X0607509Y0387688D01*
X0607511Y0386781D01*
X0607558Y0386158D01*
X0607518Y0381988D01*
X0600459Y0374338D01*
X0600309Y0374488D01*
X0597009Y0374488D01*
X0596907Y0374674D01*
X0596709Y0372988D02*
X0593409Y0372988D01*
X0592809Y0373588D01*
X0592809Y0387388D01*
X0605533Y0400230D01*
X0603750Y0408537D01*
X0602861Y0400264D02*
X0591609Y0387988D01*
X0591609Y0372988D01*
X0593709Y0370888D01*
X0596709Y0370888D01*
X0596907Y0370737D01*
X0596907Y0368769D02*
X0597309Y0368488D01*
X0599709Y0368488D01*
X0599859Y0368638D01*
X0601509Y0366988D01*
X0601509Y0352888D01*
X0601359Y0352505D01*
X0601509Y0352588D01*
X0603309Y0352588D01*
X0603328Y0352505D01*
X0603609Y0352288D01*
X0603609Y0349288D01*
X0604509Y0348388D01*
X0607509Y0348388D01*
X0607706Y0322713D01*
X0612609Y0322888D01*
X0612609Y0322588D01*
X0612777Y0321662D01*
X0612609Y0321688D01*
X0612609Y0322588D01*
X0616509Y0326488D01*
X0616509Y0330688D01*
X0615309Y0331888D01*
X0615309Y0352288D01*
X0615139Y0352505D01*
X0615009Y0352588D01*
X0615009Y0356488D01*
X0614960Y0357206D01*
X0615078Y0364912D01*
X0619831Y0366279D01*
X0631209Y0360688D01*
X0631209Y0357988D01*
X0632109Y0357088D01*
X0635109Y0357088D01*
X0635340Y0356957D01*
X0635340Y0358926D02*
X0635409Y0359188D01*
X0638709Y0359188D01*
X0646793Y0347902D01*
X0649706Y0341918D02*
X0650336Y0253731D01*
X0628583Y0232096D01*
X0650709Y0230488D02*
X0651609Y0230488D01*
X0651725Y0230647D01*
X0662004Y0211815D02*
X0661809Y0211588D01*
X0648907Y0198127D02*
X0648609Y0198388D01*
X0648609Y0198088D02*
X0648907Y0198127D01*
X0633009Y0211588D02*
X0633009Y0212788D01*
X0633191Y0213039D01*
X0633309Y0213088D01*
X0627009Y0205588D02*
X0626916Y0205548D01*
X0626709Y0205588D01*
X0630009Y0179788D02*
X0630207Y0179566D01*
X0630309Y0179788D01*
X0679376Y0229187D02*
X0679509Y0229288D01*
X0679509Y0267088D02*
X0679496Y0267128D01*
X0669548Y0277181D02*
X0669309Y0276988D01*
X0653648Y0277255D01*
X0653766Y0342718D01*
X0641109Y0364588D01*
X0635409Y0364588D01*
X0635340Y0364831D01*
X0635409Y0366688D02*
X0635340Y0366800D01*
X0635409Y0366688D02*
X0642309Y0366688D01*
X0657092Y0342298D01*
X0657132Y0282265D01*
X0666009Y0282088D01*
X0674709Y0282088D01*
X0679509Y0277288D01*
X0679548Y0277128D01*
X0669601Y0287180D02*
X0659978Y0287109D01*
X0660293Y0342945D01*
X0643215Y0368488D01*
X0635409Y0368488D01*
X0635340Y0368769D01*
X0635340Y0370737D02*
X0635109Y0370888D01*
X0627716Y0370652D01*
X0624975Y0373904D02*
X0623702Y0373655D01*
X0622631Y0373458D01*
X0618369Y0372404D01*
X0613200Y0375936D01*
X0618317Y0381173D01*
X0621073Y0382578D01*
X0621044Y0390938D01*
X0619209Y0390988D02*
X0619076Y0390938D01*
X0618909Y0390688D01*
X0618909Y0387688D01*
X0618009Y0386749D01*
X0613981Y0386749D01*
X0612916Y0386751D01*
X0612009Y0386749D01*
X0608921Y0386788D01*
X0607511Y0386781D01*
X0612916Y0386751D02*
X0612870Y0387649D01*
X0612909Y0390688D01*
X0613170Y0390938D01*
X0611409Y0390988D02*
X0611202Y0390938D01*
X0611409Y0390988D02*
X0611409Y0395788D01*
X0612009Y0402057D01*
X0602861Y0400264D02*
X0596798Y0414426D01*
X0620715Y0409535D02*
X0623803Y0411267D01*
X0671640Y0411265D01*
X0671640Y0411288D01*
X0673210Y0411170D01*
X0662089Y0409680D02*
X0624255Y0409869D01*
X0624171Y0405739D01*
X0624007Y0399440D01*
X0619209Y0394288D01*
X0619209Y0390988D01*
X0624794Y0386896D02*
X0628042Y0386975D01*
X0628980Y0387008D01*
X0628941Y0389402D01*
X0628918Y0390938D01*
X0626950Y0390938D02*
X0627007Y0396546D01*
X0627046Y0399986D01*
X0626995Y0403400D01*
X0627068Y0404989D01*
X0657265Y0404950D01*
X0662089Y0409680D02*
X0662057Y0380633D01*
X0663471Y0380636D01*
X0684009Y0379809D01*
X0684174Y0379635D01*
X0684309Y0379588D01*
X0684309Y0369688D01*
X0685809Y0368188D01*
X0687009Y0368188D01*
X0688509Y0366688D01*
X0688509Y0365488D01*
X0688603Y0365422D01*
X0688509Y0365188D01*
X0688509Y0357688D01*
X0685209Y0354388D01*
X0685198Y0354162D01*
X0686044Y0365422D02*
X0685809Y0365488D01*
X0678412Y0365488D01*
X0686044Y0371721D02*
X0687015Y0372691D01*
X0687015Y0373669D01*
X0687200Y0373855D01*
X0687200Y0382230D01*
X0686100Y0383330D01*
X0677934Y0383511D01*
X0677777Y0387430D01*
X0688809Y0377188D02*
X0691209Y0379588D01*
X0691222Y0379635D01*
X0688809Y0377188D02*
X0688809Y0371788D01*
X0688603Y0371721D01*
X0662329Y0378318D02*
X0655595Y0378309D01*
X0654589Y0378349D01*
X0651321Y0363235D01*
X0657659Y0363532D02*
X0658603Y0370934D01*
X0657659Y0363532D02*
X0657462Y0360383D01*
X0650100Y0374753D02*
X0646335Y0373716D01*
X0643910Y0373220D01*
X0641266Y0372708D01*
X0635340Y0372706D01*
X0630865Y0374749D02*
X0624975Y0373904D01*
X0625954Y0377884D02*
X0632326Y0382485D01*
X0633692Y0382446D01*
X0635340Y0382548D01*
X0635409Y0380788D02*
X0635340Y0380580D01*
X0635409Y0380788D02*
X0638709Y0380788D01*
X0662057Y0380633D01*
X0662329Y0378318D02*
X0662444Y0315024D01*
X0691044Y0314694D01*
X0633281Y0336085D02*
X0607141Y0308488D01*
X0572109Y0308488D01*
X0579666Y0337233D02*
X0587541Y0349713D01*
X0573820Y0361446D02*
X0573909Y0361588D01*
X0577389Y0366470D01*
X0593709Y0366688D01*
X0596709Y0366688D01*
X0596907Y0366800D01*
X0597009Y0366988D01*
X0597009Y0368488D01*
X0596907Y0368769D01*
X0599859Y0368638D02*
X0600909Y0369688D01*
X0600909Y0373888D01*
X0600459Y0374338D01*
X0596907Y0372706D02*
X0596709Y0372988D01*
X0605128Y0373280D02*
X0605100Y0376406D01*
X0608722Y0380422D01*
X0614470Y0382706D01*
X0613200Y0375936D02*
X0613209Y0368031D01*
X0613209Y0352588D01*
X0613170Y0352505D01*
X0611409Y0352288D02*
X0611202Y0352505D01*
X0611109Y0352588D01*
X0609309Y0352588D01*
X0609233Y0352505D01*
X0607509Y0352288D02*
X0607265Y0352505D01*
X0607509Y0352288D02*
X0607509Y0348388D01*
X0611409Y0349288D02*
X0611409Y0352288D01*
X0611409Y0349288D02*
X0612609Y0348088D01*
X0612609Y0328888D01*
X0612777Y0328709D01*
X0620568Y0337582D02*
X0618948Y0344072D01*
X0618909Y0352288D01*
X0619076Y0352505D01*
X0621044Y0352505D02*
X0621088Y0342879D01*
X0624985Y0340266D01*
X0626674Y0335735D01*
X0633281Y0336085D02*
X0623006Y0344926D01*
X0623013Y0352505D01*
X0617107Y0352505D02*
X0617109Y0357037D01*
X0620062Y0362201D01*
X0631209Y0360688D02*
X0635109Y0360688D01*
X0635340Y0360894D01*
X0630865Y0374749D02*
X0630904Y0378443D01*
X0632394Y0378515D01*
X0635297Y0378594D01*
X0635340Y0378611D01*
X0635109Y0378388D01*
X0635409Y0378388D02*
X0635340Y0378611D01*
X0635409Y0378388D02*
X0654589Y0378349D01*
X0658407Y0386013D02*
X0639470Y0398139D01*
X0630848Y0398099D01*
X0630887Y0390938D01*
X0632235Y0384688D02*
X0635340Y0384517D01*
X0632235Y0384688D02*
X0630615Y0384452D01*
X0627810Y0383713D01*
X0624794Y0386896D02*
X0619627Y0376721D01*
X0605128Y0373280D02*
X0605139Y0359083D01*
X0574439Y0380569D02*
X0570095Y0383404D01*
X0568520Y0382792D01*
X0527409Y0379288D01*
X0524409Y0376288D01*
X0524115Y0376032D01*
X0524109Y0375988D01*
X0521409Y0373288D01*
X0514509Y0373288D01*
X0514273Y0373158D01*
X0513909Y0372988D01*
X0510309Y0376588D01*
X0501909Y0376588D01*
X0497109Y0371788D01*
X0495375Y0373001D01*
X0495609Y0372988D01*
X0503559Y0365038D01*
X0486964Y0364939D01*
X0486846Y0347757D01*
X0488772Y0347760D01*
X0490808Y0346702D01*
X0497148Y0346781D01*
X0499957Y0346913D01*
X0506709Y0347188D01*
X0506753Y0347194D01*
X0506753Y0348926D02*
X0506709Y0348988D01*
X0501767Y0353694D01*
X0500863Y0359483D01*
X0500117Y0353927D02*
X0501767Y0353694D01*
X0500117Y0353927D02*
X0497203Y0354163D01*
X0490808Y0354221D01*
X0490808Y0346702D02*
X0495037Y0342096D01*
X0494880Y0340535D01*
X0495178Y0338631D01*
X0493753Y0338464D01*
X0488492Y0333439D01*
X0495178Y0331111D02*
X0496809Y0330988D01*
X0501533Y0330923D01*
X0501470Y0338183D01*
X0501549Y0340952D01*
X0501549Y0345354D01*
X0503709Y0345388D01*
X0506709Y0345388D01*
X0506753Y0345383D01*
X0506753Y0343650D02*
X0507009Y0343588D01*
X0507009Y0340588D01*
X0508209Y0339388D01*
X0508485Y0339300D01*
X0508509Y0339388D01*
X0510009Y0339388D01*
X0510210Y0339300D01*
X0510309Y0339388D01*
X0511809Y0339388D01*
X0511930Y0339300D01*
X0512109Y0339088D01*
X0512109Y0336088D01*
X0512259Y0335938D01*
X0512109Y0353188D02*
X0511930Y0353276D01*
X0512109Y0353188D02*
X0513609Y0353188D01*
X0513651Y0353276D01*
X0513909Y0353488D01*
X0513909Y0372688D01*
X0514209Y0372988D01*
X0514273Y0373158D01*
X0510009Y0367588D02*
X0504609Y0372988D01*
X0504509Y0373276D01*
X0504609Y0380188D02*
X0504509Y0380324D01*
X0504309Y0380188D01*
X0495609Y0380188D01*
X0495375Y0380048D01*
X0504609Y0380188D02*
X0514209Y0380188D01*
X0514273Y0380206D01*
X0514509Y0380488D01*
X0516909Y0382888D01*
X0524109Y0382888D01*
X0524115Y0383080D01*
X0524409Y0383188D01*
X0554409Y0383188D01*
X0563409Y0392188D01*
X0568509Y0392188D01*
X0568659Y0392038D01*
X0565509Y0388288D02*
X0565277Y0388296D01*
X0565509Y0388288D02*
X0566709Y0387088D01*
X0570095Y0383404D01*
X0568520Y0382792D02*
X0568638Y0370407D01*
X0566773Y0361446D01*
X0533682Y0363276D02*
X0533409Y0363088D01*
X0522309Y0363088D01*
X0515409Y0356188D01*
X0515409Y0353488D01*
X0515371Y0353276D01*
X0517092Y0353276D02*
X0517209Y0353188D01*
X0518709Y0353188D01*
X0518812Y0353276D01*
X0519009Y0353188D01*
X0520509Y0353188D01*
X0520533Y0353276D01*
X0510210Y0353276D02*
X0510009Y0353488D01*
X0510009Y0367588D01*
X0503559Y0365038D02*
X0508209Y0360388D01*
X0508209Y0353488D01*
X0508485Y0353276D01*
X0462816Y0398178D02*
X0455607Y0398090D01*
X0451639Y0398138D01*
X0448633Y0398098D01*
X0442757Y0398099D01*
X0431533Y0412962D01*
X0422561Y0413017D01*
X0422330Y0446003D01*
X0416087Y0442308D02*
X0407071Y0451245D01*
X0439970Y0483671D01*
X0439930Y0486643D01*
X0439898Y0502383D01*
X0433682Y0489083D02*
X0432570Y0486472D01*
X0403809Y0481288D02*
X0403780Y0481033D01*
X0403509Y0480988D01*
X0402609Y0480988D01*
X0386709Y0465088D02*
X0386663Y0464803D01*
X0386409Y0464788D01*
X0368409Y0450688D02*
X0368204Y0450414D01*
X0368109Y0450388D01*
X0362409Y0477388D02*
X0362490Y0477655D01*
X0362709Y0477688D01*
X0379509Y0486688D02*
X0379563Y0486697D01*
X0396935Y0504068D02*
X0397209Y0504088D01*
X0410474Y0520266D01*
X0338409Y0460588D02*
X0338299Y0460490D01*
X0416087Y0442308D02*
X0415833Y0409806D01*
X0415952Y0397650D01*
X0415952Y0384950D01*
X0423407Y0384950D01*
X0433941Y0380963D02*
X0433922Y0379428D01*
X0433909Y0378627D01*
X0433948Y0377580D01*
X0433907Y0375653D01*
X0433902Y0373487D01*
X0438131Y0373572D01*
X0438131Y0381052D02*
X0433941Y0380963D01*
X0438131Y0381052D02*
X0438229Y0384231D01*
X0438294Y0386370D01*
X0442743Y0392508D01*
X0442757Y0398099D01*
X0435710Y0398099D02*
X0415952Y0397650D01*
X0366909Y0233488D02*
X0367155Y0233330D01*
X0367209Y0233188D01*
X0387609Y0222388D02*
X0387844Y0222182D01*
X0402283Y0221858D02*
X0402309Y0222088D01*
X0391509Y0184588D02*
X0391384Y0184492D01*
X0519214Y0167981D02*
X0519309Y0167788D01*
X0519309Y0148888D01*
X0519609Y0148588D01*
X0519627Y0148454D01*
X0530809Y0222988D02*
X0531009Y0222988D01*
D34*
X0531009Y0192988D03*
X0403002Y0195648D03*
X0572109Y0308488D03*
X0620568Y0337582D03*
X0626674Y0335735D03*
X0646793Y0347902D03*
X0651321Y0363235D03*
X0627716Y0370652D03*
X0625954Y0377884D03*
X0627810Y0383713D03*
X0620062Y0362201D03*
X0574439Y0380569D03*
X0603750Y0408537D03*
X0596798Y0414426D03*
X0612009Y0402057D03*
X0620715Y0409535D03*
X0606088Y0444720D03*
X0672946Y0462451D03*
X0610421Y0525704D03*
X0523822Y0418204D03*
X0500863Y0359483D03*
X0501549Y0340952D03*
X0422330Y0446003D03*
X0340697Y0469200D03*
X0410474Y0520266D03*
X0678412Y0365488D03*
X0683668Y0307067D03*
D35*
X0351309Y0224788D02*
X0351309Y0217588D01*
X0366909Y0201988D01*
X0373809Y0201988D01*
X0374012Y0201864D01*
X0359486Y0217295D02*
X0359709Y0217588D01*
X0359709Y0236488D01*
X0361209Y0237988D01*
X0361866Y0238619D01*
X0361809Y0238888D01*
X0357309Y0243388D01*
X0351009Y0243388D01*
X0350758Y0243404D01*
X0342609Y0234088D02*
X0351009Y0225688D01*
X0351135Y0225647D01*
X0351309Y0224788D01*
X0342609Y0234088D02*
X0341709Y0234088D01*
X0341488Y0234133D01*
X0372776Y0244240D02*
X0372909Y0244288D01*
X0391509Y0244288D01*
X0391929Y0246189D01*
X0392109Y0246088D01*
X0392109Y0227788D01*
X0392709Y0227188D01*
X0392827Y0227166D01*
X0393609Y0227188D01*
X0407409Y0227188D01*
X0407601Y0227175D01*
X0397246Y0251506D02*
X0397209Y0251788D01*
X0397209Y0259588D01*
X0328809Y0327988D01*
X0328682Y0328217D01*
X0328809Y0338188D02*
X0328682Y0338217D01*
X0328809Y0338188D02*
X0367509Y0338188D01*
X0473921Y0236580D01*
X0620556Y0237170D01*
X0628583Y0232096D01*
X0633609Y0226588D02*
X0633900Y0226779D01*
X0634509Y0227488D01*
X0642609Y0235588D01*
X0646509Y0235588D01*
X0646742Y0235630D01*
X0633609Y0226588D02*
X0627909Y0220888D01*
X0627909Y0218488D01*
X0627874Y0218356D01*
X0627309Y0217588D01*
X0621009Y0211288D01*
X0616209Y0211288D01*
X0616006Y0211169D01*
X0621627Y0200259D02*
X0621609Y0200188D01*
X0621009Y0199588D01*
X0621009Y0189088D01*
X0620937Y0188837D01*
X0621609Y0189988D01*
X0640509Y0189988D01*
X0640555Y0189776D01*
X0635084Y0168206D02*
X0670539Y0201772D01*
X0669909Y0266788D01*
X0669609Y0267088D01*
X0669496Y0267181D01*
X0683668Y0307067D02*
X0690909Y0306988D01*
X0691044Y0307174D01*
X0575262Y0439801D02*
X0523822Y0418204D01*
X0575262Y0439801D02*
X0637809Y0460588D01*
X0638034Y0460834D01*
X0633009Y0466288D02*
X0632717Y0466152D01*
X0633009Y0467188D01*
X0633009Y0476788D01*
X0627009Y0482788D01*
X0626506Y0483442D01*
X0626409Y0483688D01*
X0617409Y0492688D01*
X0616209Y0492688D01*
X0615984Y0492724D01*
X0633009Y0466288D02*
X0646209Y0466288D01*
X0646321Y0466289D01*
X0654609Y0469288D02*
X0657009Y0471688D01*
X0657231Y0471910D01*
X0657609Y0472588D01*
X0665709Y0480688D01*
X0665709Y0484588D01*
X0665713Y0484651D01*
X0654609Y0469288D02*
X0654609Y0456988D01*
X0654598Y0456810D01*
X0430987Y0480165D02*
X0430809Y0480088D01*
X0430809Y0478588D01*
X0333609Y0381388D01*
X0333609Y0353188D01*
X0328809Y0348388D01*
X0328682Y0348217D01*
X0379114Y0444793D02*
X0379209Y0444988D01*
X0391509Y0457288D01*
X0391509Y0459688D01*
X0391646Y0459820D01*
X0392409Y0460288D01*
X0407409Y0475288D01*
X0408309Y0475288D01*
X0409097Y0475716D01*
X0409209Y0475888D01*
X0416109Y0475888D01*
X0425409Y0485188D01*
X0425669Y0485482D01*
X0373493Y0455703D02*
X0373209Y0455788D01*
X0347709Y0455788D01*
X0347709Y0451288D01*
X0347569Y0451220D01*
X0347709Y0455788D02*
X0347709Y0462988D01*
X0354009Y0469288D01*
X0354138Y0469303D01*
X0526261Y0167981D02*
X0526509Y0168088D01*
X0635084Y0168206D01*
D36*
X0638887Y0178292D02*
X0630309Y0179788D01*
X0630009Y0179788D02*
X0625267Y0178725D01*
X0612382Y0192043D01*
X0531009Y0192988D01*
X0531009Y0222988D01*
X0539911Y0228920D02*
X0427061Y0223015D01*
X0407709Y0222088D01*
X0402309Y0222088D01*
X0402283Y0221858D02*
X0396733Y0221458D01*
X0393775Y0221616D01*
X0387844Y0222182D01*
X0387609Y0222388D02*
X0376809Y0233188D01*
X0367209Y0233188D01*
X0366909Y0233488D02*
X0366476Y0252009D01*
X0322164Y0290337D01*
X0322243Y0372688D01*
X0328509Y0378088D01*
X0328809Y0378388D02*
X0333179Y0385635D01*
X0368109Y0421588D01*
X0368109Y0450388D01*
X0368409Y0450688D02*
X0375142Y0450452D01*
X0387826Y0462034D01*
X0386409Y0464788D01*
X0386709Y0465088D02*
X0402609Y0480988D01*
X0403809Y0481288D02*
X0411909Y0489388D01*
X0424626Y0502380D01*
X0439898Y0502383D01*
X0481918Y0502316D01*
X0560812Y0502316D01*
X0621301Y0498041D01*
X0621909Y0497788D02*
X0631209Y0488488D01*
X0631509Y0488188D02*
X0642309Y0477388D01*
X0651909Y0477388D01*
X0663909Y0466288D02*
X0672946Y0462451D01*
X0673809Y0476188D01*
X0673809Y0476488D02*
X0675541Y0484909D01*
X0664466Y0495551D01*
X0647409Y0494488D01*
X0629709Y0511888D02*
X0610421Y0525704D01*
X0432570Y0486472D02*
X0430987Y0480165D01*
X0430887Y0479871D01*
X0379509Y0486688D02*
X0371709Y0486688D01*
X0362709Y0477688D01*
X0362409Y0477388D02*
X0358319Y0481916D01*
X0343564Y0466255D01*
X0340697Y0469200D01*
X0343564Y0466255D02*
X0338409Y0460588D01*
X0556399Y0353139D02*
X0581241Y0353060D01*
X0581320Y0364517D01*
X0593100Y0364662D01*
X0593252Y0364814D01*
X0596517Y0364814D01*
X0596907Y0364831D01*
X0556399Y0353139D02*
X0555887Y0301957D01*
X0610021Y0302272D01*
X0645454Y0321328D01*
X0665415Y0340855D02*
X0665651Y0356643D01*
X0665651Y0358099D01*
X0674509Y0358020D01*
X0674037Y0341052D01*
X0665415Y0340855D01*
X0665424Y0341493D02*
X0674049Y0341493D01*
X0674093Y0343091D02*
X0665448Y0343091D01*
X0665472Y0344690D02*
X0674138Y0344690D01*
X0674182Y0346288D02*
X0665496Y0346288D01*
X0665520Y0347887D02*
X0674227Y0347887D01*
X0674271Y0349485D02*
X0665544Y0349485D01*
X0665568Y0351084D02*
X0674316Y0351084D01*
X0674360Y0352682D02*
X0665591Y0352682D01*
X0665615Y0354281D02*
X0674405Y0354281D01*
X0674449Y0355879D02*
X0665639Y0355879D01*
X0665651Y0357478D02*
X0674494Y0357478D01*
X0674391Y0361564D02*
X0666399Y0361761D01*
X0666084Y0390422D01*
X0674391Y0390540D01*
X0674391Y0389816D01*
X0674317Y0389742D01*
X0673696Y0388242D01*
X0673696Y0386618D01*
X0674317Y0385118D01*
X0674391Y0385044D01*
X0674391Y0361564D01*
X0674391Y0362273D02*
X0666393Y0362273D01*
X0666376Y0363872D02*
X0674391Y0363872D01*
X0674391Y0365470D02*
X0666358Y0365470D01*
X0666340Y0367069D02*
X0674391Y0367069D01*
X0674391Y0368667D02*
X0666323Y0368667D01*
X0666305Y0370266D02*
X0674391Y0370266D01*
X0674391Y0371864D02*
X0666288Y0371864D01*
X0666270Y0373463D02*
X0674391Y0373463D01*
X0674391Y0375061D02*
X0666253Y0375061D01*
X0666235Y0376660D02*
X0674391Y0376660D01*
X0674391Y0378258D02*
X0666217Y0378258D01*
X0666200Y0379857D02*
X0674391Y0379857D01*
X0674391Y0381455D02*
X0666182Y0381455D01*
X0666165Y0383054D02*
X0674391Y0383054D01*
X0674391Y0384652D02*
X0666147Y0384652D01*
X0666130Y0386251D02*
X0673848Y0386251D01*
X0673696Y0387849D02*
X0666112Y0387849D01*
X0666095Y0389448D02*
X0674195Y0389448D01*
X0675926Y0394753D02*
X0694785Y0393650D01*
X0694863Y0399398D01*
X0675848Y0399438D01*
X0675926Y0394753D01*
X0675908Y0395842D02*
X0694815Y0395842D01*
X0694793Y0394244D02*
X0684638Y0394244D01*
X0675881Y0397441D02*
X0694837Y0397441D01*
X0694858Y0399039D02*
X0675854Y0399039D01*
X0697674Y0383054D02*
X0703004Y0383054D01*
X0703094Y0384652D02*
X0697833Y0384652D01*
X0697992Y0386251D02*
X0703185Y0386251D01*
X0703275Y0387849D02*
X0698151Y0387849D01*
X0698310Y0389448D02*
X0703365Y0389448D01*
X0703407Y0390186D02*
X0698367Y0390028D01*
X0696950Y0375776D01*
X0702580Y0375540D01*
X0703407Y0390186D01*
X0702914Y0381455D02*
X0697515Y0381455D01*
X0697356Y0379857D02*
X0702824Y0379857D01*
X0702733Y0378258D02*
X0697197Y0378258D01*
X0697038Y0376660D02*
X0702643Y0376660D01*
X0694430Y0371682D02*
X0694467Y0366495D01*
X0692245Y0354162D01*
X0696647Y0354281D02*
X0703124Y0354281D01*
X0703114Y0355879D02*
X0696682Y0355879D01*
X0696717Y0357478D02*
X0703103Y0357478D01*
X0703093Y0359076D02*
X0696753Y0359076D01*
X0696753Y0359083D02*
X0703092Y0359202D01*
X0703210Y0341485D01*
X0696359Y0341328D01*
X0696753Y0359083D01*
X0696611Y0352682D02*
X0703135Y0352682D01*
X0703146Y0351084D02*
X0696576Y0351084D01*
X0696540Y0349485D02*
X0703156Y0349485D01*
X0703167Y0347887D02*
X0696505Y0347887D01*
X0696469Y0346288D02*
X0703178Y0346288D01*
X0703188Y0344690D02*
X0696434Y0344690D01*
X0696398Y0343091D02*
X0703199Y0343091D01*
X0703210Y0341493D02*
X0696363Y0341493D01*
X0692428Y0341493D02*
X0677774Y0341493D01*
X0677777Y0341406D02*
X0692422Y0341328D01*
X0692619Y0347666D01*
X0677541Y0347942D01*
X0677777Y0341406D01*
X0677716Y0343091D02*
X0692477Y0343091D01*
X0692527Y0344690D02*
X0677658Y0344690D01*
X0677600Y0346288D02*
X0692576Y0346288D01*
X0680552Y0347887D02*
X0677542Y0347887D01*
X0694467Y0366495D02*
X0699383Y0366524D01*
X0694430Y0371682D02*
X0691163Y0371721D01*
X0679509Y0267088D02*
X0679509Y0229288D01*
X0661809Y0211588D02*
X0648609Y0198388D01*
X0648609Y0198088D02*
X0649987Y0189392D01*
X0638887Y0178292D01*
X0627009Y0205588D02*
X0633009Y0211588D01*
X0633309Y0213088D02*
X0650709Y0230488D01*
X0626709Y0205588D02*
X0580802Y0208580D01*
X0539911Y0228920D01*
X0409470Y0261170D02*
X0400319Y0261328D01*
X0397209Y0259588D01*
X0403002Y0195648D02*
X0391509Y0184588D01*
D37*
X0415454Y0351131D03*
X0423407Y0384950D03*
X0433682Y0489083D03*
X0650100Y0374753D03*
X0670729Y0385934D03*
X0677777Y0387430D03*
X0691714Y0396839D03*
X0700572Y0386721D03*
X0699824Y0354635D03*
X0681202Y0344162D03*
X0669627Y0347587D03*
X0673210Y0411170D03*
D38*
X0658407Y0386013D03*
X0658603Y0370934D03*
X0657462Y0360383D03*
X0649706Y0341918D03*
X0645454Y0321328D03*
X0605139Y0359083D03*
X0587541Y0349713D03*
X0579666Y0337233D03*
X0619627Y0376721D03*
X0614470Y0382706D03*
X0409470Y0261170D03*
D39*
X0637265Y0415973D03*
X0657265Y0404950D03*
M02*
