%
M48
M72
T01C0.01500
T02C0.01575
T03C0.03150
T04C0.03937
T05C0.04000
T06C0.04331
T07C0.05512
%
T01
X345009Y231688
X396009Y222088
X531009Y194488
X636309Y180988
X642609Y222088
X690609Y278488
X619809Y330388
X622809Y334888
X628509Y340888
X615909Y344488
X617409Y359188
X611709Y362488
X604509Y360388
X590709Y369688
X586809Y373288
X580209Y371188
X571809Y373888
X568509Y367288
X629409Y363088
X641409Y360988
X641409Y380488
X629409Y384388
X634509Y390088
X628809Y396988
X628809Y406288
X635109Y412588
X597309Y417988
X646809Y444988
X622209Y490588
X677409Y371788
X677409Y365488
X651909Y342388
X504909Y339988
X492609Y350488
X504009Y373288
X431409Y336688
X388809Y388288
X396309Y435988
X402309Y436888
X365709Y445888
X345009Y463888
X396309Y472588
T02
X670296Y391957
X679115Y390855
X670139Y377863
X670651Y360225
X671911Y350658
X682147Y349517
X692344Y349674
X693367Y360383
X698722Y383099
T03
X562009Y461288
X498209Y469588
X466909Y231388
T04
X457009Y346288
X457009Y356288
T05
X669601Y287180
X669548Y277180
X679548Y277128
X679601Y287128
X679496Y267128
X669496Y267181
X569605Y149937
X559610Y149640
X549614Y149344
X539618Y149047
X529623Y148750
X519627Y148454
X468840Y151968
X459777Y156194
X450714Y160421
X441651Y164647
X432588Y168873
X423525Y173099
T06
X530809Y222988
X328682Y298217
X328682Y308217
X328682Y318217
X328682Y328217
X328682Y338217
X328682Y348217
X328682Y358217
X328682Y368217
X328682Y378217
X328682Y388217
X462816Y388178
X462816Y398178
T07
X467068Y375225
X467068Y317351
X561950Y317351
X561950Y375225
M30
