G75*
%MOIN*%
%OFA0B0*%
%FSLAX25Y25*%
%IPPOS*%
%LPD*%
%AMOC8*
5,1,8,0,0,1.08239X$1,22.5*
%
%ADD10C,0.01600*%
%ADD11C,0.00500*%
%ADD12C,0.00800*%
%ADD13C,0.00200*%
%ADD14C,0.00000*%
%ADD15C,0.00472*%
%ADD16C,0.00400*%
%ADD17C,0.00787*%
%ADD18C,0.00300*%
%ADD19C,0.00600*%
%ADD20C,0.00100*%
%ADD21C,0.00150*%
%ADD22C,0.00039*%
%ADD23C,0.01575*%
D10*
X0248205Y0095800D02*
X0261832Y0109083D01*
X0246079Y0101552D02*
X0246269Y0100837D01*
X0246475Y0100126D01*
X0246697Y0099420D01*
X0246935Y0098720D01*
X0247188Y0098024D01*
X0247456Y0097335D01*
X0247740Y0096652D01*
X0248039Y0095975D01*
X0264076Y0079788D02*
X0277186Y0093454D01*
X0276017Y0076583D02*
X0275324Y0076663D01*
X0274633Y0076758D01*
X0273945Y0076869D01*
X0273259Y0076994D01*
X0272576Y0077136D01*
X0271896Y0077292D01*
X0271221Y0077464D01*
X0270549Y0077650D01*
X0269891Y0077607D02*
X0269144Y0077810D01*
X0268402Y0078031D01*
X0267665Y0078269D01*
X0266935Y0078524D01*
X0266210Y0078797D01*
X0265492Y0079086D01*
X0264781Y0079391D01*
X0264077Y0079714D01*
X0245780Y0102139D02*
X0245632Y0102770D01*
X0245497Y0103404D01*
X0245374Y0104040D01*
X0245263Y0104679D01*
X0261886Y0108905D02*
X0261862Y0109311D01*
X0261847Y0109718D01*
X0261843Y0110125D01*
X0261849Y0110532D01*
X0261864Y0110938D01*
X0261890Y0111345D01*
X0261925Y0111750D01*
X0261971Y0112154D01*
X0262026Y0112558D01*
X0262091Y0112959D01*
X0262166Y0113359D01*
X0262251Y0113758D01*
X0262345Y0114153D01*
X0262449Y0114547D01*
X0262563Y0114938D01*
X0262686Y0115326D01*
X0262819Y0115710D01*
X0262961Y0116092D01*
X0263112Y0116470D01*
X0263272Y0116844D01*
X0263442Y0117214D01*
X0263621Y0117579D01*
X0263808Y0117941D01*
X0264004Y0118297D01*
X0264209Y0118649D01*
X0264423Y0118995D01*
X0264645Y0119336D01*
X0264875Y0119672D01*
X0265113Y0120002D01*
X0265359Y0120326D01*
X0265614Y0120644D01*
X0265876Y0120955D01*
X0266145Y0121260D01*
X0266422Y0121559D01*
X0266706Y0121850D01*
X0266997Y0122135D01*
X0267295Y0122412D01*
X0267599Y0122682D01*
X0267911Y0122944D01*
X0268228Y0123199D01*
X0268552Y0123446D01*
X0268881Y0123685D01*
X0269217Y0123915D01*
X0269557Y0124138D01*
X0269904Y0124352D01*
X0270255Y0124557D01*
X0270611Y0124754D01*
X0270972Y0124942D01*
X0271337Y0125121D01*
X0271707Y0125291D01*
X0272081Y0125452D01*
X0272459Y0125604D01*
X0272840Y0125747D01*
X0273224Y0125880D01*
X0273612Y0126004D01*
X0274003Y0126118D01*
X0274396Y0126223D01*
X0274792Y0126318D01*
X0275190Y0126403D01*
X0275590Y0126479D01*
X0275991Y0126544D01*
X0276394Y0126600D01*
X0276799Y0126646D01*
X0277204Y0126682D01*
X0277610Y0126708D01*
X0278017Y0126725D01*
X0278424Y0126731D01*
X0278831Y0126727D01*
X0279238Y0126714D01*
X0279644Y0126690D01*
X0280050Y0126656D01*
X0280454Y0126613D01*
X0280858Y0126560D01*
X0281260Y0126496D01*
X0281660Y0126423D01*
X0282059Y0126341D01*
X0282455Y0126248D01*
X0282849Y0126146D01*
X0283240Y0126034D01*
X0283629Y0125913D01*
X0284014Y0125782D01*
X0284396Y0125642D01*
X0284775Y0125492D01*
X0285150Y0125333D01*
X0285520Y0125166D01*
X0285887Y0124989D01*
X0285848Y0125131D02*
X0297068Y0133989D01*
X0296832Y0134162D02*
X0301281Y0129871D01*
X0301241Y0129934D02*
X0292383Y0119107D01*
X0311891Y0113383D02*
X0311891Y0112457D01*
X0311891Y0113383D02*
X0311893Y0113448D01*
X0311899Y0113512D01*
X0311908Y0113576D01*
X0311921Y0113639D01*
X0311938Y0113701D01*
X0311958Y0113763D01*
X0311982Y0113823D01*
X0312009Y0113881D01*
X0312040Y0113938D01*
X0312074Y0113993D01*
X0312111Y0114046D01*
X0312151Y0114096D01*
X0312194Y0114145D01*
X0312239Y0114190D01*
X0312288Y0114233D01*
X0312338Y0114273D01*
X0312391Y0114310D01*
X0312446Y0114344D01*
X0312503Y0114375D01*
X0312561Y0114402D01*
X0312621Y0114426D01*
X0312683Y0114446D01*
X0312745Y0114463D01*
X0312808Y0114476D01*
X0312872Y0114485D01*
X0312936Y0114491D01*
X0313001Y0114493D01*
X0312816Y0114493D01*
X0312790Y0114495D01*
X0312764Y0114500D01*
X0312739Y0114510D01*
X0312716Y0114522D01*
X0312695Y0114538D01*
X0312676Y0114557D01*
X0312660Y0114578D01*
X0312648Y0114601D01*
X0312638Y0114626D01*
X0312633Y0114652D01*
X0312631Y0114678D01*
X0313086Y0114865D02*
X0376044Y0177823D01*
X0345923Y0207702D02*
X0282764Y0144543D01*
X0282599Y0144398D02*
X0282597Y0144355D01*
X0282592Y0144313D01*
X0282582Y0144271D01*
X0282569Y0144230D01*
X0282553Y0144190D01*
X0282533Y0144152D01*
X0282510Y0144116D01*
X0282484Y0144082D01*
X0282455Y0144050D01*
X0282423Y0144021D01*
X0282389Y0143995D01*
X0282353Y0143972D01*
X0282315Y0143952D01*
X0282275Y0143936D01*
X0282234Y0143923D01*
X0282192Y0143913D01*
X0282150Y0143908D01*
X0282107Y0143906D01*
X0281985Y0143906D01*
X0281983Y0143866D01*
X0281978Y0143826D01*
X0281968Y0143788D01*
X0281956Y0143750D01*
X0281940Y0143713D01*
X0281920Y0143678D01*
X0281898Y0143645D01*
X0281872Y0143614D01*
X0281844Y0143586D01*
X0281813Y0143560D01*
X0281780Y0143538D01*
X0281745Y0143518D01*
X0281708Y0143502D01*
X0281670Y0143490D01*
X0281632Y0143480D01*
X0281592Y0143475D01*
X0281552Y0143473D01*
X0280257Y0143473D01*
X0244907Y0108052D02*
X0244960Y0107315D01*
X0245030Y0106579D01*
X0245116Y0105845D01*
X0245218Y0105113D01*
X0245336Y0104384D01*
X0245469Y0103657D01*
X0245619Y0102933D01*
X0245785Y0102213D01*
X0277032Y0093528D02*
X0277435Y0093498D01*
X0277838Y0093477D01*
X0278242Y0093467D01*
X0278646Y0093466D01*
X0279049Y0093475D01*
X0279453Y0093494D01*
X0279856Y0093522D01*
X0280258Y0093561D01*
X0280659Y0093609D01*
X0281059Y0093667D01*
X0281457Y0093734D01*
X0281853Y0093811D01*
X0282248Y0093898D01*
X0282640Y0093995D01*
X0283030Y0094100D01*
X0283417Y0094216D01*
X0283801Y0094340D01*
X0284182Y0094474D01*
X0284560Y0094617D01*
X0284934Y0094770D01*
X0285304Y0094931D01*
X0285670Y0095101D01*
X0286032Y0095280D01*
X0286390Y0095468D01*
X0286743Y0095665D01*
X0287091Y0095870D01*
X0287434Y0096083D01*
X0287771Y0096305D01*
X0288103Y0096534D01*
X0288430Y0096772D01*
X0288751Y0097018D01*
X0289065Y0097271D01*
X0289373Y0097532D01*
X0289675Y0097800D01*
X0289971Y0098076D01*
X0290259Y0098359D01*
X0290541Y0098648D01*
X0290815Y0098944D01*
X0291082Y0099247D01*
X0291342Y0099557D01*
X0291594Y0099872D01*
X0291839Y0100194D01*
X0292075Y0100521D01*
X0292304Y0100854D01*
X0292524Y0101193D01*
X0292736Y0101536D01*
X0292940Y0101885D01*
X0293135Y0102239D01*
X0293322Y0102597D01*
X0293499Y0102960D01*
X0293668Y0103327D01*
X0293828Y0103697D01*
X0293979Y0104072D01*
X0294121Y0104450D01*
X0294253Y0104832D01*
X0294377Y0105216D01*
X0294490Y0105604D01*
X0294595Y0105994D01*
X0294690Y0106387D01*
X0294775Y0106781D01*
X0294851Y0107178D01*
X0294917Y0107577D01*
X0294973Y0107977D01*
X0295020Y0108378D01*
X0295057Y0108780D01*
X0295084Y0109183D01*
X0295101Y0109586D01*
X0295109Y0109990D01*
X0295106Y0110394D01*
X0295094Y0110798D01*
X0295072Y0111201D01*
X0295041Y0111604D01*
X0294999Y0112006D01*
X0294948Y0112406D01*
X0294887Y0112806D01*
X0294817Y0113203D01*
X0294736Y0113599D01*
X0294647Y0113993D01*
X0294547Y0114384D01*
X0294438Y0114773D01*
X0294320Y0115159D01*
X0294193Y0115543D01*
X0294056Y0115923D01*
X0293910Y0116299D01*
X0293755Y0116672D01*
X0293591Y0117041D01*
X0293417Y0117406D01*
X0293236Y0117767D01*
X0293045Y0118123D01*
X0292846Y0118474D01*
X0292638Y0118821D01*
X0292422Y0119162D01*
X0311987Y0112199D02*
X0312028Y0111387D01*
X0312050Y0110574D01*
X0312053Y0109761D01*
X0312035Y0108948D01*
X0311998Y0108136D01*
X0311941Y0107325D01*
X0311865Y0106516D01*
X0311768Y0105709D01*
X0311653Y0104904D01*
X0311518Y0104102D01*
X0311363Y0103304D01*
X0311189Y0102510D01*
X0310996Y0101720D01*
X0310784Y0100935D01*
X0310553Y0100156D01*
X0310303Y0099382D01*
X0310034Y0098615D01*
X0309747Y0097855D01*
X0309441Y0097101D01*
X0309118Y0096356D01*
X0308776Y0095618D01*
X0308416Y0094889D01*
X0308039Y0094169D01*
X0307645Y0093458D01*
X0307233Y0092757D01*
X0306805Y0092066D01*
X0306359Y0091385D01*
X0305898Y0090716D01*
X0305420Y0090058D01*
X0304927Y0089412D01*
X0304418Y0088778D01*
X0303894Y0088157D01*
X0303355Y0087548D01*
X0302801Y0086953D01*
X0302233Y0086371D01*
X0301651Y0085803D01*
X0301056Y0085250D01*
X0300447Y0084711D01*
X0299825Y0084187D01*
X0299191Y0083679D01*
X0298545Y0083185D01*
X0297887Y0082708D01*
X0297217Y0082247D01*
X0296537Y0081802D01*
X0295846Y0081374D01*
X0295144Y0080962D01*
X0294433Y0080568D01*
X0293713Y0080191D01*
X0292984Y0079832D01*
X0292246Y0079491D01*
X0291500Y0079167D01*
X0290747Y0078862D01*
X0289986Y0078575D01*
X0289219Y0078307D01*
X0288445Y0078057D01*
X0287665Y0077826D01*
X0286880Y0077614D01*
X0286091Y0077422D01*
X0285296Y0077248D01*
X0284498Y0077094D01*
X0283696Y0076959D01*
X0282892Y0076844D01*
X0282084Y0076748D01*
X0281275Y0076672D01*
X0280464Y0076615D01*
X0279652Y0076578D01*
X0278839Y0076561D01*
X0278026Y0076564D01*
X0277213Y0076586D01*
X0276401Y0076628D01*
X0245098Y0107876D02*
X0245055Y0108692D01*
X0245031Y0109508D01*
X0245027Y0110324D01*
X0245043Y0111141D01*
X0245079Y0111956D01*
X0245135Y0112771D01*
X0245210Y0113584D01*
X0245306Y0114395D01*
X0245421Y0115203D01*
X0245556Y0116008D01*
X0245710Y0116810D01*
X0245884Y0117608D01*
X0246077Y0118401D01*
X0246289Y0119189D01*
X0246521Y0119972D01*
X0246772Y0120749D01*
X0247041Y0121520D01*
X0247329Y0122284D01*
X0247636Y0123041D01*
X0247961Y0123790D01*
X0248304Y0124530D01*
X0248665Y0125263D01*
X0249044Y0125986D01*
X0249441Y0126700D01*
X0249854Y0127404D01*
X0250285Y0128097D01*
X0250732Y0128780D01*
X0251196Y0129452D01*
X0251676Y0130112D01*
X0252173Y0130761D01*
X0252684Y0131397D01*
X0253211Y0132021D01*
X0253754Y0132631D01*
X0254310Y0133228D01*
X0254882Y0133812D01*
X0255467Y0134381D01*
X0256066Y0134936D01*
X0256678Y0135476D01*
X0257304Y0136001D01*
X0257941Y0136510D01*
X0258592Y0137004D01*
X0259253Y0137482D01*
X0259927Y0137944D01*
X0260611Y0138389D01*
X0261306Y0138818D01*
X0262012Y0139229D01*
X0262727Y0139623D01*
X0263451Y0139999D01*
X0264185Y0140358D01*
X0264927Y0140699D01*
X0265677Y0141021D01*
X0266435Y0141325D01*
X0267199Y0141611D01*
X0267971Y0141878D01*
X0268749Y0142126D01*
X0269533Y0142355D01*
X0270322Y0142565D01*
X0271116Y0142755D01*
X0271914Y0142926D01*
X0272716Y0143078D01*
X0273522Y0143210D01*
X0274331Y0143323D01*
X0275142Y0143415D01*
X0275955Y0143488D01*
X0276770Y0143541D01*
X0277585Y0143574D01*
X0278402Y0143588D01*
X0279218Y0143581D01*
X0280034Y0143555D01*
X0279223Y0143581D01*
X0278411Y0143588D01*
X0277599Y0143575D01*
X0276788Y0143542D01*
X0275978Y0143490D01*
X0275169Y0143418D01*
X0274363Y0143327D01*
X0273558Y0143216D01*
X0272757Y0143085D01*
X0271959Y0142936D01*
X0271165Y0142766D01*
X0270375Y0142578D01*
X0269590Y0142371D01*
X0268811Y0142145D01*
X0268037Y0141900D01*
X0267269Y0141636D01*
X0266508Y0141354D01*
X0265753Y0141053D01*
X0265007Y0140734D01*
X0264268Y0140397D01*
X0263538Y0140043D01*
X0262816Y0139670D01*
X0262104Y0139281D01*
X0261401Y0138874D01*
X0260709Y0138451D01*
X0260027Y0138010D01*
X0259355Y0137554D01*
X0258695Y0137081D01*
X0258047Y0136592D01*
X0257411Y0136088D01*
X0256787Y0135569D01*
X0256175Y0135034D01*
X0255577Y0134485D01*
X0254993Y0133922D01*
X0254422Y0133344D01*
X0253865Y0132753D01*
X0253323Y0132149D01*
X0252796Y0131532D01*
X0252284Y0130902D01*
X0251787Y0130260D01*
X0251306Y0129606D01*
X0250841Y0128940D01*
X0250392Y0128264D01*
X0249960Y0127577D01*
X0249544Y0126879D01*
X0249145Y0126172D01*
X0248764Y0125455D01*
X0248400Y0124729D01*
X0248054Y0123995D01*
X0247726Y0123253D01*
X0247416Y0122502D01*
X0247124Y0121745D01*
X0246850Y0120980D01*
X0246595Y0120209D01*
X0246359Y0119433D01*
X0246142Y0118650D01*
X0245944Y0117863D01*
X0245765Y0117071D01*
X0245605Y0116275D01*
X0245464Y0115476D01*
X0245343Y0114673D01*
X0245241Y0113867D01*
X0245159Y0113060D01*
X0245097Y0112250D01*
X0245054Y0111440D01*
X0245031Y0110628D01*
X0245027Y0109816D01*
X0245043Y0109004D01*
X0245079Y0108193D01*
X0245134Y0107383D01*
X0245209Y0106575D01*
X0245304Y0105769D01*
X0345756Y0208315D02*
X0342459Y0212501D01*
X0339265Y0216765D01*
X0336176Y0221106D01*
X0333192Y0225521D01*
X0330317Y0230007D01*
X0327551Y0234561D01*
X0324897Y0239181D01*
X0322356Y0243864D01*
X0319929Y0248608D01*
X0317618Y0253409D01*
X0315425Y0258265D01*
X0313350Y0263172D01*
X0311395Y0268129D01*
X0309560Y0273131D01*
X0307848Y0278177D01*
X0306258Y0283263D01*
X0304793Y0288385D01*
X0303452Y0293542D01*
X0302237Y0298730D01*
X0301149Y0303946D01*
X0300187Y0309186D01*
X0299353Y0314449D01*
X0298647Y0319730D01*
X0298069Y0325027D01*
X0297620Y0330336D01*
X0297300Y0335655D01*
X0297109Y0340980D01*
X0297048Y0346308D01*
X0297116Y0351635D01*
X0297313Y0356960D01*
X0297640Y0362278D01*
X0298096Y0367587D01*
X0298680Y0372883D01*
X0299393Y0378163D01*
X0300234Y0383425D01*
X0301202Y0388664D01*
X0302297Y0393879D01*
X0303519Y0399065D01*
X0304866Y0404220D01*
X0306337Y0409341D01*
X0307933Y0414425D01*
X0309652Y0419468D01*
X0311493Y0424468D01*
X0313454Y0429422D01*
X0315535Y0434327D01*
X0317735Y0439180D01*
X0320052Y0443978D01*
X0322484Y0448719D01*
X0325031Y0453399D01*
X0327691Y0458016D01*
X0330463Y0462567D01*
X0333344Y0467049D01*
X0336332Y0471460D01*
X0339428Y0475797D01*
X0342627Y0480057D01*
X0345929Y0484239D01*
X0345878Y0484920D02*
X0282654Y0548143D01*
X0282210Y0548430D02*
X0282208Y0548475D01*
X0282203Y0548521D01*
X0282194Y0548565D01*
X0282182Y0548609D01*
X0282166Y0548652D01*
X0282147Y0548693D01*
X0282125Y0548733D01*
X0282099Y0548770D01*
X0282071Y0548806D01*
X0282040Y0548839D01*
X0282007Y0548870D01*
X0281971Y0548898D01*
X0281934Y0548924D01*
X0281894Y0548946D01*
X0281853Y0548965D01*
X0281810Y0548981D01*
X0281766Y0548993D01*
X0281722Y0549002D01*
X0281676Y0549007D01*
X0281631Y0549009D01*
X0281517Y0549009D01*
X0281515Y0549029D01*
X0281510Y0549048D01*
X0281502Y0549066D01*
X0281490Y0549082D01*
X0281476Y0549096D01*
X0281460Y0549108D01*
X0281442Y0549116D01*
X0281423Y0549121D01*
X0281403Y0549123D01*
X0279320Y0549123D01*
X0286753Y0568162D02*
X0298092Y0559225D01*
X0298210Y0558847D02*
X0302816Y0563650D01*
X0303131Y0563989D02*
X0292855Y0574540D01*
X0311828Y0578977D02*
X0311828Y0580828D01*
X0311828Y0578977D02*
X0311830Y0578957D01*
X0311835Y0578938D01*
X0311843Y0578920D01*
X0311855Y0578904D01*
X0311869Y0578890D01*
X0311885Y0578878D01*
X0311903Y0578870D01*
X0311922Y0578865D01*
X0311942Y0578863D01*
X0311942Y0578749D01*
X0311944Y0578708D01*
X0311949Y0578668D01*
X0311958Y0578629D01*
X0311970Y0578590D01*
X0311986Y0578552D01*
X0312004Y0578517D01*
X0312026Y0578482D01*
X0312051Y0578450D01*
X0312078Y0578420D01*
X0312108Y0578393D01*
X0312140Y0578368D01*
X0312175Y0578346D01*
X0312210Y0578328D01*
X0312248Y0578312D01*
X0312287Y0578300D01*
X0312326Y0578291D01*
X0312366Y0578286D01*
X0312407Y0578284D01*
X0312491Y0578306D02*
X0376062Y0514735D01*
X0245155Y0578501D02*
X0245082Y0579251D01*
X0245025Y0580002D01*
X0244986Y0580755D01*
X0244964Y0581508D01*
X0244958Y0582261D01*
X0244970Y0583015D01*
X0244998Y0583768D01*
X0245044Y0584520D01*
X0245106Y0585271D01*
X0248083Y0596984D02*
X0261792Y0584083D01*
X0263615Y0612560D02*
X0264330Y0612896D01*
X0265053Y0613215D01*
X0265784Y0613516D01*
X0266521Y0613800D01*
X0267265Y0614066D01*
X0268016Y0614315D01*
X0268771Y0614545D01*
X0269533Y0614758D01*
X0270299Y0614952D01*
X0271069Y0615128D01*
X0271843Y0615285D01*
X0272621Y0615424D01*
X0273402Y0615545D01*
X0274186Y0615646D01*
X0274972Y0615730D01*
X0275759Y0615794D01*
X0276548Y0615839D01*
X0263647Y0612426D02*
X0277304Y0599044D01*
X0248128Y0596976D02*
X0247806Y0596279D01*
X0247499Y0595575D01*
X0247210Y0594863D01*
X0246937Y0594145D01*
X0246680Y0593421D01*
X0246441Y0592691D01*
X0246218Y0591956D01*
X0246012Y0591216D01*
X0245824Y0590471D01*
X0245653Y0589723D01*
X0245499Y0588970D01*
X0245363Y0588214D01*
X0245245Y0587455D01*
X0245144Y0586694D01*
X0245060Y0585930D01*
X0277237Y0599044D02*
X0277641Y0599064D01*
X0278044Y0599075D01*
X0278448Y0599076D01*
X0278852Y0599067D01*
X0279256Y0599049D01*
X0279659Y0599020D01*
X0280061Y0598982D01*
X0280462Y0598934D01*
X0280862Y0598876D01*
X0281260Y0598808D01*
X0281657Y0598731D01*
X0282051Y0598644D01*
X0282444Y0598548D01*
X0282834Y0598442D01*
X0283221Y0598326D01*
X0283605Y0598201D01*
X0283986Y0598067D01*
X0284364Y0597923D01*
X0284738Y0597771D01*
X0285108Y0597609D01*
X0285474Y0597438D01*
X0285836Y0597258D01*
X0286193Y0597070D01*
X0286546Y0596873D01*
X0286894Y0596667D01*
X0287237Y0596453D01*
X0287574Y0596231D01*
X0287906Y0596001D01*
X0288232Y0595762D01*
X0288552Y0595516D01*
X0288866Y0595262D01*
X0289174Y0595000D01*
X0289475Y0594731D01*
X0289770Y0594454D01*
X0290058Y0594171D01*
X0290339Y0593881D01*
X0290612Y0593583D01*
X0290879Y0593280D01*
X0291138Y0592970D01*
X0291389Y0592653D01*
X0291632Y0592331D01*
X0291868Y0592002D01*
X0292095Y0591669D01*
X0292315Y0591329D01*
X0292526Y0590985D01*
X0292728Y0590635D01*
X0292922Y0590281D01*
X0293107Y0589921D01*
X0293283Y0589558D01*
X0293451Y0589190D01*
X0293609Y0588819D01*
X0293758Y0588443D01*
X0293899Y0588064D01*
X0294029Y0587682D01*
X0294151Y0587297D01*
X0294263Y0586909D01*
X0294365Y0586518D01*
X0294458Y0586125D01*
X0294542Y0585729D01*
X0294616Y0585332D01*
X0294680Y0584933D01*
X0294734Y0584533D01*
X0294778Y0584131D01*
X0294813Y0583729D01*
X0294838Y0583325D01*
X0294853Y0582922D01*
X0294858Y0582518D01*
X0294853Y0582114D01*
X0294839Y0581710D01*
X0294814Y0581307D01*
X0294780Y0580904D01*
X0294736Y0580503D01*
X0294682Y0580102D01*
X0294619Y0579703D01*
X0294546Y0579306D01*
X0294463Y0578910D01*
X0294370Y0578517D01*
X0294268Y0578126D01*
X0294157Y0577738D01*
X0294035Y0577352D01*
X0293905Y0576970D01*
X0293765Y0576591D01*
X0293617Y0576215D01*
X0293459Y0575844D01*
X0293292Y0575476D01*
X0293116Y0575112D01*
X0292931Y0574753D01*
X0292737Y0574398D01*
X0311623Y0585749D02*
X0311525Y0586554D01*
X0311408Y0587357D01*
X0311272Y0588156D01*
X0311116Y0588952D01*
X0310940Y0589744D01*
X0310746Y0590531D01*
X0310533Y0591313D01*
X0310300Y0592090D01*
X0310049Y0592862D01*
X0309779Y0593626D01*
X0309491Y0594384D01*
X0309185Y0595135D01*
X0308860Y0595878D01*
X0308517Y0596614D01*
X0308157Y0597340D01*
X0307779Y0598058D01*
X0307384Y0598766D01*
X0306972Y0599464D01*
X0306543Y0600153D01*
X0306097Y0600830D01*
X0305635Y0601497D01*
X0305157Y0602152D01*
X0304664Y0602795D01*
X0304155Y0603427D01*
X0303630Y0604045D01*
X0303091Y0604651D01*
X0302538Y0605244D01*
X0301970Y0605823D01*
X0301388Y0606388D01*
X0300793Y0606939D01*
X0300184Y0607475D01*
X0299563Y0607996D01*
X0298929Y0608502D01*
X0298283Y0608992D01*
X0297626Y0609467D01*
X0296957Y0609926D01*
X0296277Y0610368D01*
X0295586Y0610793D01*
X0294886Y0611202D01*
X0294176Y0611594D01*
X0293456Y0611968D01*
X0292728Y0612325D01*
X0291991Y0612664D01*
X0291246Y0612985D01*
X0290494Y0613287D01*
X0289735Y0613572D01*
X0288969Y0613838D01*
X0288196Y0614085D01*
X0287418Y0614314D01*
X0286635Y0614523D01*
X0285846Y0614714D01*
X0285054Y0614885D01*
X0284257Y0615037D01*
X0283457Y0615170D01*
X0282654Y0615283D01*
X0281848Y0615377D01*
X0281041Y0615451D01*
X0280231Y0615505D01*
X0279421Y0615540D01*
X0278610Y0615555D01*
X0277799Y0615551D01*
X0276989Y0615527D01*
X0276179Y0615483D01*
X0245057Y0578756D02*
X0245158Y0577950D01*
X0245279Y0577146D01*
X0245419Y0576345D01*
X0245579Y0575548D01*
X0245758Y0574755D01*
X0245956Y0573967D01*
X0246173Y0573184D01*
X0246409Y0572406D01*
X0246665Y0571634D01*
X0246938Y0570869D01*
X0247231Y0570110D01*
X0247541Y0569359D01*
X0247870Y0568616D01*
X0248217Y0567880D01*
X0248581Y0567154D01*
X0248963Y0566436D01*
X0249362Y0565728D01*
X0249779Y0565030D01*
X0250212Y0564342D01*
X0250662Y0563665D01*
X0251128Y0562999D01*
X0251610Y0562345D01*
X0252108Y0561702D01*
X0252621Y0561072D01*
X0253150Y0560454D01*
X0253693Y0559850D01*
X0254251Y0559259D01*
X0254823Y0558681D01*
X0255409Y0558118D01*
X0256009Y0557569D01*
X0256621Y0557034D01*
X0257247Y0556515D01*
X0257884Y0556011D01*
X0258534Y0555523D01*
X0259196Y0555051D01*
X0259869Y0554594D01*
X0260552Y0554155D01*
X0261247Y0553732D01*
X0261951Y0553326D01*
X0262665Y0552937D01*
X0263388Y0552566D01*
X0264120Y0552212D01*
X0264860Y0551876D01*
X0265608Y0551559D01*
X0266364Y0551259D01*
X0267127Y0550978D01*
X0267896Y0550716D01*
X0268672Y0550472D01*
X0269453Y0550248D01*
X0270239Y0550042D01*
X0271031Y0549856D01*
X0271826Y0549688D01*
X0272625Y0549541D01*
X0273428Y0549412D01*
X0274234Y0549303D01*
X0275042Y0549214D01*
X0275851Y0549145D01*
X0276663Y0549095D01*
X0277475Y0549064D01*
X0278288Y0549054D01*
X0279101Y0549063D01*
X0279913Y0549092D01*
X0286871Y0568335D02*
X0286524Y0568131D01*
X0286173Y0567935D01*
X0285816Y0567747D01*
X0285455Y0567569D01*
X0285090Y0567399D01*
X0284721Y0567238D01*
X0284348Y0567087D01*
X0283971Y0566944D01*
X0283591Y0566810D01*
X0283208Y0566686D01*
X0282822Y0566571D01*
X0282434Y0566466D01*
X0282043Y0566370D01*
X0281649Y0566283D01*
X0281254Y0566206D01*
X0280857Y0566139D01*
X0280459Y0566082D01*
X0280059Y0566034D01*
X0279658Y0565996D01*
X0279256Y0565967D01*
X0278854Y0565949D01*
X0278451Y0565940D01*
X0278049Y0565941D01*
X0277646Y0565951D01*
X0277244Y0565972D01*
X0276842Y0566002D01*
X0276442Y0566042D01*
X0276042Y0566092D01*
X0275644Y0566152D01*
X0275247Y0566221D01*
X0274852Y0566299D01*
X0274459Y0566388D01*
X0274069Y0566485D01*
X0273681Y0566593D01*
X0273295Y0566709D01*
X0272913Y0566835D01*
X0272533Y0566971D01*
X0272158Y0567115D01*
X0271785Y0567269D01*
X0271417Y0567431D01*
X0271053Y0567603D01*
X0270692Y0567783D01*
X0270337Y0567972D01*
X0269986Y0568170D01*
X0269640Y0568376D01*
X0269299Y0568590D01*
X0268964Y0568812D01*
X0268633Y0569043D01*
X0268309Y0569282D01*
X0267991Y0569528D01*
X0267678Y0569782D01*
X0267372Y0570044D01*
X0267072Y0570313D01*
X0266779Y0570589D01*
X0266493Y0570872D01*
X0266214Y0571162D01*
X0265942Y0571459D01*
X0265677Y0571763D01*
X0265419Y0572072D01*
X0265170Y0572388D01*
X0264928Y0572710D01*
X0264693Y0573037D01*
X0264467Y0573371D01*
X0264249Y0573709D01*
X0264040Y0574053D01*
X0263838Y0574402D01*
X0263646Y0574755D01*
X0263462Y0575113D01*
X0263286Y0575476D01*
X0263120Y0575843D01*
X0262962Y0576213D01*
X0262814Y0576588D01*
X0262675Y0576965D01*
X0262544Y0577346D01*
X0262424Y0577731D01*
X0262312Y0578118D01*
X0262210Y0578507D01*
X0262118Y0578899D01*
X0262035Y0579293D01*
X0261962Y0579689D01*
X0261898Y0580087D01*
X0261844Y0580486D01*
X0261800Y0580886D01*
X0261765Y0581287D01*
X0261740Y0581689D01*
X0261725Y0582091D01*
X0261720Y0582494D01*
X0261725Y0582897D01*
X0261739Y0583299D01*
X0261763Y0583701D01*
X0261797Y0584102D01*
X0311567Y0586288D02*
X0311642Y0585562D01*
X0311700Y0584835D01*
X0311742Y0584107D01*
X0311769Y0583378D01*
X0311780Y0582649D01*
X0311775Y0581920D01*
X0311754Y0581191D01*
X0683162Y0485126D02*
X0686474Y0480920D01*
X0689684Y0476635D01*
X0692788Y0472274D01*
X0695786Y0467838D01*
X0698675Y0463331D01*
X0701454Y0458755D01*
X0704121Y0454113D01*
X0706675Y0449408D01*
X0709114Y0444642D01*
X0711437Y0439819D01*
X0713641Y0434940D01*
X0715727Y0430010D01*
X0717693Y0425030D01*
X0719537Y0420004D01*
X0721259Y0414935D01*
X0722858Y0409826D01*
X0724332Y0404679D01*
X0725681Y0399498D01*
X0726903Y0394286D01*
X0727999Y0389046D01*
X0728968Y0383781D01*
X0729808Y0378494D01*
X0730520Y0373187D01*
X0731103Y0367866D01*
X0731557Y0362531D01*
X0731881Y0357188D01*
X0732075Y0351838D01*
X0732140Y0346484D01*
X0732075Y0341131D01*
X0731880Y0335781D01*
X0731555Y0330437D01*
X0731101Y0325103D01*
X0730517Y0319781D01*
X0729805Y0314475D01*
X0728964Y0309188D01*
X0727995Y0303923D01*
X0726898Y0298683D01*
X0725675Y0293471D01*
X0724326Y0288290D01*
X0722851Y0283144D01*
X0721252Y0278035D01*
X0719530Y0272966D01*
X0717685Y0267940D01*
X0715719Y0262961D01*
X0713632Y0258030D01*
X0711427Y0253152D01*
X0709104Y0248329D01*
X0706664Y0243563D01*
X0704110Y0238858D01*
X0701442Y0234217D01*
X0698663Y0229641D01*
X0695773Y0225134D01*
X0692775Y0220699D01*
X0689670Y0216338D01*
X0686460Y0212053D01*
X0683147Y0207848D01*
X0683004Y0207793D02*
X0747494Y0143303D01*
X0747619Y0143257D02*
X0748446Y0142469D01*
X0750533Y0142902D01*
X0743422Y0124950D02*
X0732123Y0133257D01*
X0732068Y0133020D02*
X0727816Y0128690D01*
X0727556Y0128335D02*
X0735706Y0117391D01*
X0783824Y0112603D02*
X0783885Y0111793D01*
X0783926Y0110981D01*
X0783947Y0110169D01*
X0783948Y0109357D01*
X0783930Y0108544D01*
X0783892Y0107733D01*
X0783834Y0106922D01*
X0783757Y0106114D01*
X0783659Y0105307D01*
X0783543Y0104503D01*
X0783407Y0103702D01*
X0783251Y0102905D01*
X0783076Y0102111D01*
X0782882Y0101322D01*
X0782669Y0100538D01*
X0782437Y0099760D01*
X0782186Y0098987D01*
X0781916Y0098221D01*
X0781627Y0097461D01*
X0781321Y0096709D01*
X0780996Y0095964D01*
X0780653Y0095227D01*
X0780782Y0095402D02*
X0767422Y0108257D01*
X0752764Y0093559D02*
X0752362Y0093521D01*
X0751958Y0093492D01*
X0751554Y0093474D01*
X0751150Y0093465D01*
X0750746Y0093466D01*
X0750342Y0093477D01*
X0749938Y0093497D01*
X0749535Y0093528D01*
X0749132Y0093568D01*
X0748731Y0093619D01*
X0748331Y0093679D01*
X0747933Y0093748D01*
X0747536Y0093827D01*
X0747142Y0093916D01*
X0746750Y0094015D01*
X0746360Y0094123D01*
X0745973Y0094240D01*
X0745589Y0094367D01*
X0745208Y0094503D01*
X0744831Y0094649D01*
X0744457Y0094803D01*
X0744088Y0094967D01*
X0743722Y0095140D01*
X0743360Y0095321D01*
X0743004Y0095511D01*
X0742651Y0095710D01*
X0742304Y0095917D01*
X0741962Y0096133D01*
X0741626Y0096357D01*
X0741294Y0096589D01*
X0740969Y0096829D01*
X0740650Y0097077D01*
X0740336Y0097332D01*
X0740029Y0097596D01*
X0739729Y0097866D01*
X0739435Y0098144D01*
X0739148Y0098429D01*
X0738868Y0098721D01*
X0738595Y0099019D01*
X0738330Y0099324D01*
X0738072Y0099636D01*
X0737822Y0099953D01*
X0737579Y0100277D01*
X0737345Y0100606D01*
X0737118Y0100941D01*
X0736900Y0101282D01*
X0736690Y0101627D01*
X0736489Y0101978D01*
X0736296Y0102333D01*
X0736112Y0102693D01*
X0735937Y0103058D01*
X0735770Y0103426D01*
X0735613Y0103799D01*
X0735465Y0104175D01*
X0735326Y0104555D01*
X0735196Y0104938D01*
X0735076Y0105324D01*
X0734965Y0105713D01*
X0734863Y0106104D01*
X0734771Y0106498D01*
X0734689Y0106894D01*
X0734617Y0107292D01*
X0734554Y0107691D01*
X0734501Y0108092D01*
X0734457Y0108494D01*
X0734424Y0108897D01*
X0734400Y0109301D01*
X0734386Y0109705D01*
X0734382Y0110109D01*
X0734388Y0110514D01*
X0734403Y0110918D01*
X0734429Y0111321D01*
X0734464Y0111724D01*
X0734509Y0112126D01*
X0734564Y0112526D01*
X0734629Y0112926D01*
X0734703Y0113323D01*
X0734787Y0113719D01*
X0734880Y0114112D01*
X0734983Y0114503D01*
X0735096Y0114891D01*
X0735218Y0115277D01*
X0735349Y0115659D01*
X0735490Y0116039D01*
X0735640Y0116414D01*
X0735799Y0116786D01*
X0735966Y0117154D01*
X0752954Y0076359D02*
X0753743Y0076426D01*
X0754529Y0076512D01*
X0755313Y0076616D01*
X0756095Y0076739D01*
X0756873Y0076880D01*
X0757648Y0077040D01*
X0758419Y0077218D01*
X0759185Y0077414D01*
X0759947Y0077628D01*
X0760703Y0077860D01*
X0761453Y0078110D01*
X0762198Y0078378D01*
X0762936Y0078663D01*
X0763667Y0078965D01*
X0764390Y0079285D01*
X0765106Y0079622D01*
X0765814Y0079975D01*
X0765646Y0079954D02*
X0752462Y0093572D01*
X0783788Y0113008D02*
X0783700Y0113812D01*
X0783592Y0114613D01*
X0783464Y0115411D01*
X0783318Y0116205D01*
X0783152Y0116996D01*
X0782966Y0117783D01*
X0782762Y0118565D01*
X0782539Y0119342D01*
X0782297Y0120113D01*
X0782036Y0120878D01*
X0781757Y0121636D01*
X0781459Y0122388D01*
X0781144Y0123132D01*
X0780810Y0123868D01*
X0780458Y0124596D01*
X0780089Y0125315D01*
X0779703Y0126024D01*
X0779299Y0126725D01*
X0778878Y0127415D01*
X0778441Y0128095D01*
X0777988Y0128764D01*
X0777518Y0129421D01*
X0777032Y0130067D01*
X0776531Y0130701D01*
X0776015Y0131323D01*
X0775484Y0131932D01*
X0774938Y0132528D01*
X0774377Y0133110D01*
X0773803Y0133679D01*
X0773215Y0134234D01*
X0772614Y0134774D01*
X0771999Y0135299D01*
X0771373Y0135809D01*
X0770734Y0136304D01*
X0770083Y0136783D01*
X0769420Y0137246D01*
X0768747Y0137693D01*
X0768063Y0138124D01*
X0767369Y0138537D01*
X0766665Y0138934D01*
X0765951Y0139314D01*
X0765228Y0139676D01*
X0764497Y0140020D01*
X0763758Y0140346D01*
X0763011Y0140655D01*
X0762256Y0140945D01*
X0761495Y0141217D01*
X0760728Y0141470D01*
X0759954Y0141704D01*
X0759175Y0141920D01*
X0758391Y0142116D01*
X0757603Y0142294D01*
X0756810Y0142452D01*
X0756014Y0142591D01*
X0755215Y0142710D01*
X0754413Y0142810D01*
X0753608Y0142891D01*
X0752803Y0142951D01*
X0751995Y0142993D01*
X0751187Y0143014D01*
X0750379Y0143016D01*
X0717379Y0113465D02*
X0717333Y0113467D01*
X0717286Y0113473D01*
X0717241Y0113482D01*
X0717196Y0113496D01*
X0717153Y0113512D01*
X0717111Y0113533D01*
X0717071Y0113557D01*
X0717033Y0113584D01*
X0716998Y0113614D01*
X0716965Y0113647D01*
X0716935Y0113682D01*
X0716908Y0113720D01*
X0716884Y0113760D01*
X0716863Y0113802D01*
X0716847Y0113845D01*
X0716833Y0113890D01*
X0716824Y0113935D01*
X0716818Y0113982D01*
X0716816Y0114028D01*
X0716765Y0114033D02*
X0653224Y0177573D01*
X0717379Y0113465D02*
X0717501Y0113465D01*
X0717487Y0113463D01*
X0717474Y0113459D01*
X0717462Y0113451D01*
X0717452Y0113441D01*
X0717444Y0113429D01*
X0717440Y0113416D01*
X0717438Y0113402D01*
X0717438Y0111162D01*
X0717488Y0111278D02*
X0717462Y0110487D01*
X0717454Y0109696D01*
X0717465Y0108905D01*
X0717495Y0108115D01*
X0717544Y0107325D01*
X0717612Y0106537D01*
X0717490Y0106193D02*
X0717590Y0105390D01*
X0717711Y0104590D01*
X0717850Y0103792D01*
X0718009Y0102999D01*
X0718187Y0102209D01*
X0718384Y0101424D01*
X0718600Y0100644D01*
X0718834Y0099869D01*
X0719088Y0099100D01*
X0719359Y0098338D01*
X0719650Y0097582D01*
X0719958Y0096834D01*
X0720285Y0096093D01*
X0720629Y0095360D01*
X0720991Y0094636D01*
X0721370Y0093921D01*
X0721766Y0093215D01*
X0722180Y0092519D01*
X0722610Y0091834D01*
X0723057Y0091159D01*
X0723519Y0090494D01*
X0723998Y0089842D01*
X0724492Y0089201D01*
X0725002Y0088572D01*
X0725527Y0087956D01*
X0726066Y0087352D01*
X0726620Y0086762D01*
X0727188Y0086185D01*
X0727770Y0085623D01*
X0728365Y0085074D01*
X0728974Y0084540D01*
X0729595Y0084021D01*
X0730228Y0083517D01*
X0730874Y0083029D01*
X0731531Y0082556D01*
X0732199Y0082099D01*
X0732879Y0081659D01*
X0733568Y0081235D01*
X0734268Y0080828D01*
X0734977Y0080438D01*
X0735696Y0080065D01*
X0736423Y0079710D01*
X0737159Y0079373D01*
X0737903Y0079053D01*
X0738654Y0078751D01*
X0739412Y0078468D01*
X0740177Y0078203D01*
X0740948Y0077957D01*
X0741725Y0077729D01*
X0742507Y0077521D01*
X0743294Y0077331D01*
X0744085Y0077160D01*
X0744880Y0077009D01*
X0745679Y0076877D01*
X0746480Y0076764D01*
X0747284Y0076670D01*
X0748090Y0076596D01*
X0748898Y0076542D01*
X0749707Y0076507D01*
X0750516Y0076492D01*
X0751326Y0076496D01*
X0752135Y0076520D01*
X0752943Y0076563D01*
X0767495Y0108188D02*
X0767536Y0108589D01*
X0767567Y0108991D01*
X0767588Y0109394D01*
X0767600Y0109797D01*
X0767602Y0110201D01*
X0767594Y0110604D01*
X0767576Y0111007D01*
X0767548Y0111410D01*
X0767511Y0111811D01*
X0767464Y0112212D01*
X0767407Y0112611D01*
X0767341Y0113009D01*
X0767265Y0113405D01*
X0767179Y0113799D01*
X0767084Y0114191D01*
X0766979Y0114581D01*
X0766865Y0114968D01*
X0766741Y0115352D01*
X0766608Y0115733D01*
X0766466Y0116110D01*
X0766315Y0116484D01*
X0766155Y0116854D01*
X0765986Y0117221D01*
X0765808Y0117583D01*
X0765621Y0117940D01*
X0765426Y0118293D01*
X0765222Y0118641D01*
X0765010Y0118984D01*
X0764789Y0119322D01*
X0764561Y0119654D01*
X0764324Y0119981D01*
X0764079Y0120302D01*
X0763827Y0120617D01*
X0763567Y0120925D01*
X0763300Y0121227D01*
X0763026Y0121523D01*
X0762744Y0121812D01*
X0762456Y0122094D01*
X0762160Y0122369D01*
X0761859Y0122636D01*
X0761550Y0122896D01*
X0761236Y0123149D01*
X0760915Y0123394D01*
X0760589Y0123631D01*
X0760257Y0123860D01*
X0759919Y0124081D01*
X0759576Y0124294D01*
X0759229Y0124498D01*
X0758876Y0124694D01*
X0758519Y0124881D01*
X0758157Y0125059D01*
X0757791Y0125229D01*
X0757421Y0125389D01*
X0757047Y0125541D01*
X0756670Y0125684D01*
X0756289Y0125817D01*
X0755905Y0125941D01*
X0755518Y0126055D01*
X0755129Y0126161D01*
X0754737Y0126256D01*
X0754343Y0126342D01*
X0753947Y0126419D01*
X0753549Y0126486D01*
X0753150Y0126543D01*
X0752749Y0126591D01*
X0752348Y0126629D01*
X0751945Y0126657D01*
X0751542Y0126675D01*
X0751139Y0126683D01*
X0750735Y0126682D01*
X0750332Y0126671D01*
X0749929Y0126650D01*
X0749527Y0126619D01*
X0749126Y0126579D01*
X0748726Y0126529D01*
X0748327Y0126469D01*
X0747929Y0126399D01*
X0747534Y0126320D01*
X0747140Y0126231D01*
X0746749Y0126133D01*
X0746360Y0126025D01*
X0745974Y0125908D01*
X0745591Y0125781D01*
X0745211Y0125646D01*
X0744835Y0125501D01*
X0744462Y0125347D01*
X0744093Y0125184D01*
X0743728Y0125012D01*
X0743368Y0124831D01*
X0652864Y0514443D02*
X0648788Y0517732D01*
X0644633Y0520921D01*
X0640402Y0524009D01*
X0636098Y0526994D01*
X0631723Y0529874D01*
X0627280Y0532648D01*
X0622772Y0535314D01*
X0618200Y0537870D01*
X0613568Y0540316D01*
X0608879Y0542648D01*
X0604134Y0544867D01*
X0599337Y0546971D01*
X0594491Y0548958D01*
X0589599Y0550828D01*
X0584662Y0552579D01*
X0579685Y0554211D01*
X0574670Y0555722D01*
X0569620Y0557111D01*
X0564538Y0558378D01*
X0559426Y0559523D01*
X0554289Y0560543D01*
X0549128Y0561440D01*
X0543948Y0562211D01*
X0538750Y0562857D01*
X0533538Y0563378D01*
X0528315Y0563773D01*
X0523084Y0564041D01*
X0517849Y0564183D01*
X0512611Y0564199D01*
X0507374Y0564089D01*
X0502142Y0563852D01*
X0496917Y0563489D01*
X0491702Y0562999D01*
X0486500Y0562385D01*
X0481315Y0561644D01*
X0476149Y0560779D01*
X0471006Y0559790D01*
X0465888Y0558677D01*
X0460798Y0557440D01*
X0455739Y0556081D01*
X0450715Y0554600D01*
X0445728Y0552999D01*
X0440782Y0551278D01*
X0435878Y0549437D01*
X0431020Y0547479D01*
X0426210Y0545405D01*
X0421452Y0543215D01*
X0416749Y0540910D01*
X0412102Y0538493D01*
X0407515Y0535965D01*
X0402990Y0533326D01*
X0398531Y0530579D01*
X0394139Y0527725D01*
X0389817Y0524766D01*
X0385568Y0521704D01*
X0381393Y0518540D01*
X0377297Y0515276D01*
X0377350Y0177780D02*
X0381517Y0174486D01*
X0385763Y0171294D01*
X0390085Y0168205D01*
X0394480Y0165222D01*
X0398946Y0162346D01*
X0403481Y0159579D01*
X0408081Y0156923D01*
X0412744Y0154378D01*
X0417468Y0151948D01*
X0422248Y0149632D01*
X0427084Y0147433D01*
X0431971Y0145352D01*
X0436907Y0143389D01*
X0441890Y0141546D01*
X0446915Y0139825D01*
X0451981Y0138226D01*
X0457084Y0136750D01*
X0462221Y0135397D01*
X0467389Y0134170D01*
X0472586Y0133068D01*
X0477807Y0132092D01*
X0483051Y0131243D01*
X0488314Y0130521D01*
X0493592Y0129926D01*
X0498884Y0129460D01*
X0504185Y0129121D01*
X0509493Y0128911D01*
X0514805Y0128830D01*
X0520117Y0128877D01*
X0525426Y0129053D01*
X0530729Y0129357D01*
X0536024Y0129790D01*
X0541306Y0130351D01*
X0546573Y0131039D01*
X0551822Y0131854D01*
X0557050Y0132797D01*
X0562254Y0133865D01*
X0567430Y0135060D01*
X0572575Y0136379D01*
X0577688Y0137822D01*
X0582763Y0139389D01*
X0587800Y0141078D01*
X0592794Y0142889D01*
X0597743Y0144820D01*
X0602643Y0146870D01*
X0607493Y0149038D01*
X0612288Y0151323D01*
X0617027Y0153723D01*
X0621706Y0156237D01*
X0626324Y0158864D01*
X0630876Y0161602D01*
X0635360Y0164449D01*
X0639775Y0167404D01*
X0644116Y0170465D01*
X0648383Y0173630D01*
X0652571Y0176897D01*
X0683029Y0484808D02*
X0746544Y0548323D01*
X0746808Y0548682D02*
X0746810Y0548731D01*
X0746816Y0548780D01*
X0746825Y0548828D01*
X0746839Y0548875D01*
X0746856Y0548922D01*
X0746876Y0548966D01*
X0746900Y0549009D01*
X0746928Y0549050D01*
X0746958Y0549089D01*
X0746991Y0549125D01*
X0747027Y0549158D01*
X0747066Y0549188D01*
X0747107Y0549216D01*
X0747150Y0549240D01*
X0747194Y0549260D01*
X0747241Y0549277D01*
X0747288Y0549291D01*
X0747336Y0549300D01*
X0747385Y0549306D01*
X0747434Y0549308D01*
X0747749Y0549308D01*
X0747751Y0549293D01*
X0747755Y0549278D01*
X0747762Y0549264D01*
X0747772Y0549252D01*
X0747784Y0549242D01*
X0747798Y0549235D01*
X0747813Y0549231D01*
X0747828Y0549229D01*
X0749115Y0549229D01*
X0732934Y0558532D02*
X0729115Y0561643D01*
X0728958Y0561784D02*
X0737304Y0572729D01*
X0743265Y0567627D02*
X0732915Y0558568D01*
X0716783Y0578562D02*
X0652993Y0514773D01*
X0716942Y0578725D02*
X0716960Y0578727D01*
X0716977Y0578732D01*
X0716993Y0578740D01*
X0717006Y0578752D01*
X0717018Y0578765D01*
X0717026Y0578781D01*
X0717031Y0578798D01*
X0717033Y0578816D01*
X0717304Y0580887D01*
X0753245Y0615406D02*
X0754027Y0615330D01*
X0754807Y0615236D01*
X0755584Y0615124D01*
X0756359Y0614993D01*
X0757130Y0614844D01*
X0757897Y0614676D01*
X0758661Y0614491D01*
X0759419Y0614287D01*
X0760173Y0614066D01*
X0760921Y0613826D01*
X0761663Y0613569D01*
X0762399Y0613295D01*
X0763129Y0613003D01*
X0763851Y0612694D01*
X0764566Y0612368D01*
X0764540Y0612054D02*
X0752107Y0599320D01*
X0767741Y0583859D02*
X0767769Y0583450D01*
X0767787Y0583041D01*
X0767795Y0582631D01*
X0767792Y0582221D01*
X0767780Y0581812D01*
X0767758Y0581402D01*
X0767726Y0580994D01*
X0767684Y0580586D01*
X0767632Y0580180D01*
X0767570Y0579775D01*
X0767498Y0579371D01*
X0767416Y0578970D01*
X0767325Y0578570D01*
X0767224Y0578173D01*
X0767113Y0577779D01*
X0766993Y0577387D01*
X0766863Y0576999D01*
X0766723Y0576613D01*
X0766575Y0576231D01*
X0766417Y0575853D01*
X0766250Y0575479D01*
X0766074Y0575109D01*
X0765888Y0574744D01*
X0765694Y0574383D01*
X0765492Y0574027D01*
X0765280Y0573676D01*
X0765060Y0573330D01*
X0764832Y0572989D01*
X0764596Y0572655D01*
X0764351Y0572326D01*
X0764099Y0572003D01*
X0763838Y0571687D01*
X0763570Y0571377D01*
X0763295Y0571074D01*
X0763012Y0570777D01*
X0762722Y0570487D01*
X0762425Y0570205D01*
X0762122Y0569930D01*
X0761811Y0569662D01*
X0761495Y0569402D01*
X0761172Y0569150D01*
X0760843Y0568906D01*
X0760508Y0568670D01*
X0760167Y0568442D01*
X0759821Y0568222D01*
X0759470Y0568011D01*
X0759114Y0567809D01*
X0758753Y0567615D01*
X0758387Y0567431D01*
X0758017Y0567255D01*
X0757642Y0567088D01*
X0757264Y0566931D01*
X0756882Y0566782D01*
X0756497Y0566643D01*
X0756108Y0566514D01*
X0755716Y0566394D01*
X0755321Y0566284D01*
X0754924Y0566183D01*
X0754525Y0566092D01*
X0754123Y0566011D01*
X0753719Y0565939D01*
X0753314Y0565878D01*
X0752908Y0565826D01*
X0752500Y0565785D01*
X0752092Y0565753D01*
X0751683Y0565731D01*
X0751273Y0565719D01*
X0750863Y0565718D01*
X0750453Y0565726D01*
X0750044Y0565744D01*
X0749635Y0565772D01*
X0749227Y0565810D01*
X0748820Y0565858D01*
X0748415Y0565916D01*
X0748011Y0565984D01*
X0747608Y0566062D01*
X0747208Y0566149D01*
X0746810Y0566247D01*
X0746414Y0566354D01*
X0746022Y0566470D01*
X0745632Y0566596D01*
X0745245Y0566732D01*
X0744862Y0566877D01*
X0744482Y0567031D01*
X0744106Y0567194D01*
X0743735Y0567367D01*
X0743367Y0567548D01*
X0783757Y0586036D02*
X0783639Y0586794D01*
X0783504Y0587548D01*
X0783352Y0588300D01*
X0783182Y0589047D01*
X0782995Y0589791D01*
X0782792Y0590530D01*
X0782571Y0591264D01*
X0782334Y0591993D01*
X0782080Y0592716D01*
X0781810Y0593434D01*
X0781523Y0594145D01*
X0781220Y0594849D01*
X0780901Y0595546D01*
X0780566Y0596236D01*
X0780317Y0596276D02*
X0767974Y0583965D01*
X0752064Y0599283D02*
X0751654Y0599304D01*
X0751244Y0599315D01*
X0750833Y0599316D01*
X0750423Y0599307D01*
X0750013Y0599288D01*
X0749603Y0599259D01*
X0749194Y0599220D01*
X0748787Y0599171D01*
X0748381Y0599112D01*
X0747976Y0599043D01*
X0747573Y0598965D01*
X0747172Y0598876D01*
X0746773Y0598778D01*
X0746377Y0598670D01*
X0745984Y0598552D01*
X0745594Y0598425D01*
X0745207Y0598288D01*
X0744823Y0598142D01*
X0744443Y0597987D01*
X0744067Y0597822D01*
X0743695Y0597648D01*
X0743328Y0597465D01*
X0742965Y0597273D01*
X0742606Y0597073D01*
X0742253Y0596864D01*
X0741905Y0596646D01*
X0741563Y0596419D01*
X0741226Y0596185D01*
X0740895Y0595942D01*
X0740570Y0595691D01*
X0740251Y0595432D01*
X0739939Y0595166D01*
X0739633Y0594892D01*
X0739334Y0594611D01*
X0739042Y0594322D01*
X0738757Y0594027D01*
X0738479Y0593724D01*
X0738209Y0593415D01*
X0737947Y0593099D01*
X0737692Y0592777D01*
X0737445Y0592449D01*
X0737207Y0592115D01*
X0736976Y0591775D01*
X0736754Y0591430D01*
X0736541Y0591080D01*
X0736336Y0590724D01*
X0736140Y0590363D01*
X0735953Y0589998D01*
X0735774Y0589628D01*
X0735605Y0589254D01*
X0735445Y0588876D01*
X0735294Y0588494D01*
X0735153Y0588109D01*
X0735021Y0587720D01*
X0734899Y0587328D01*
X0734786Y0586933D01*
X0734683Y0586536D01*
X0734589Y0586136D01*
X0734506Y0585734D01*
X0734432Y0585330D01*
X0734368Y0584925D01*
X0734315Y0584518D01*
X0734271Y0584110D01*
X0734237Y0583701D01*
X0734213Y0583291D01*
X0734199Y0582880D01*
X0734195Y0582470D01*
X0734201Y0582059D01*
X0734217Y0581649D01*
X0734244Y0581240D01*
X0734280Y0580831D01*
X0734326Y0580423D01*
X0734382Y0580016D01*
X0734448Y0579611D01*
X0734524Y0579207D01*
X0734610Y0578806D01*
X0734706Y0578407D01*
X0734811Y0578010D01*
X0734926Y0577616D01*
X0735050Y0577225D01*
X0735184Y0576837D01*
X0735328Y0576452D01*
X0735481Y0576071D01*
X0735643Y0575694D01*
X0735814Y0575321D01*
X0735995Y0574952D01*
X0736184Y0574588D01*
X0736382Y0574228D01*
X0736589Y0573874D01*
X0736805Y0573524D01*
X0737029Y0573180D01*
X0737261Y0572842D01*
X0737501Y0572509D01*
X0717391Y0581591D02*
X0717387Y0582407D01*
X0717402Y0583223D01*
X0717438Y0584038D01*
X0717493Y0584853D01*
X0717569Y0585665D01*
X0717664Y0586476D01*
X0717779Y0587284D01*
X0717914Y0588089D01*
X0718068Y0588890D01*
X0718243Y0589688D01*
X0718436Y0590480D01*
X0718649Y0591268D01*
X0718881Y0592051D01*
X0719133Y0592827D01*
X0719403Y0593597D01*
X0719692Y0594361D01*
X0720000Y0595117D01*
X0720326Y0595865D01*
X0720670Y0596605D01*
X0721033Y0597336D01*
X0721413Y0598058D01*
X0721811Y0598771D01*
X0722226Y0599474D01*
X0722658Y0600166D01*
X0723107Y0600848D01*
X0723573Y0601518D01*
X0724054Y0602177D01*
X0724552Y0602823D01*
X0725066Y0603458D01*
X0725595Y0604079D01*
X0726139Y0604688D01*
X0726698Y0605283D01*
X0727271Y0605864D01*
X0727858Y0606430D01*
X0728459Y0606983D01*
X0729073Y0607520D01*
X0729701Y0608042D01*
X0730341Y0608549D01*
X0730993Y0609040D01*
X0731657Y0609514D01*
X0732332Y0609973D01*
X0733018Y0610414D01*
X0733715Y0610839D01*
X0734423Y0611246D01*
X0735140Y0611636D01*
X0735866Y0612009D01*
X0736601Y0612363D01*
X0737345Y0612699D01*
X0738096Y0613017D01*
X0738856Y0613317D01*
X0739622Y0613597D01*
X0740395Y0613859D01*
X0741174Y0614102D01*
X0741959Y0614326D01*
X0742749Y0614530D01*
X0743544Y0614715D01*
X0744343Y0614881D01*
X0745147Y0615026D01*
X0745953Y0615153D01*
X0746762Y0615259D01*
X0747574Y0615345D01*
X0748387Y0615412D01*
X0749202Y0615458D01*
X0750018Y0615485D01*
X0750834Y0615492D01*
X0751650Y0615478D01*
X0752465Y0615445D01*
X0753280Y0615392D01*
X0783847Y0586308D02*
X0783929Y0585500D01*
X0783991Y0584690D01*
X0784033Y0583880D01*
X0784056Y0583068D01*
X0784059Y0582256D01*
X0784042Y0581444D01*
X0784006Y0580633D01*
X0783949Y0579823D01*
X0783874Y0579015D01*
X0783778Y0578209D01*
X0783663Y0577405D01*
X0783529Y0576604D01*
X0783375Y0575807D01*
X0783202Y0575014D01*
X0783010Y0574225D01*
X0782799Y0573441D01*
X0782569Y0572663D01*
X0782320Y0571890D01*
X0782052Y0571123D01*
X0781766Y0570364D01*
X0781461Y0569611D01*
X0781138Y0568866D01*
X0780798Y0568129D01*
X0780439Y0567401D01*
X0780063Y0566681D01*
X0779670Y0565971D01*
X0779259Y0565270D01*
X0778832Y0564580D01*
X0778388Y0563900D01*
X0777927Y0563232D01*
X0777451Y0562574D01*
X0776959Y0561929D01*
X0776451Y0561295D01*
X0775928Y0560674D01*
X0775390Y0560066D01*
X0774837Y0559471D01*
X0774271Y0558890D01*
X0773690Y0558322D01*
X0773096Y0557769D01*
X0772488Y0557231D01*
X0771868Y0556707D01*
X0771235Y0556198D01*
X0770590Y0555705D01*
X0769933Y0555228D01*
X0769264Y0554767D01*
X0768585Y0554322D01*
X0767895Y0553894D01*
X0767195Y0553483D01*
X0766486Y0553089D01*
X0765766Y0552712D01*
X0765038Y0552352D01*
X0764302Y0552011D01*
X0763557Y0551687D01*
X0762805Y0551382D01*
X0762046Y0551095D01*
X0761279Y0550826D01*
X0760507Y0550576D01*
X0759729Y0550345D01*
X0758945Y0550133D01*
X0758156Y0549940D01*
X0757363Y0549766D01*
X0756566Y0549612D01*
X0755766Y0549476D01*
X0754962Y0549361D01*
X0754156Y0549264D01*
X0753348Y0549188D01*
X0752538Y0549131D01*
X0751727Y0549093D01*
X0750915Y0549076D01*
X0750103Y0549078D01*
X0749291Y0549099D01*
D11*
X0683112Y0476996D02*
X0666409Y0493699D01*
X0655273Y0482563D01*
X0671977Y0465860D01*
X0683112Y0476996D01*
X0630276Y0476924D02*
X0629778Y0477422D01*
X0629778Y0481409D01*
X0629280Y0481907D01*
X0627286Y0479914D01*
X0626702Y0478333D02*
X0625705Y0478333D01*
X0624709Y0477336D01*
X0624709Y0476340D01*
X0626702Y0474346D01*
X0627698Y0474346D01*
X0628695Y0475343D01*
X0628695Y0476340D01*
X0684666Y0371032D02*
X0684666Y0366111D01*
X0691420Y0369083D02*
X0691422Y0369109D01*
X0691428Y0369135D01*
X0691437Y0369159D01*
X0691451Y0369182D01*
X0691467Y0369203D01*
X0691486Y0369221D01*
X0691508Y0369235D01*
X0691532Y0369247D01*
X0691557Y0369255D01*
X0691583Y0369259D01*
X0691609Y0369259D01*
X0691635Y0369255D01*
X0691660Y0369247D01*
X0691684Y0369235D01*
X0691706Y0369221D01*
X0691725Y0369203D01*
X0691741Y0369182D01*
X0691755Y0369159D01*
X0691764Y0369135D01*
X0691770Y0369109D01*
X0691772Y0369083D01*
X0691770Y0369057D01*
X0691764Y0369031D01*
X0691755Y0369007D01*
X0691741Y0368984D01*
X0691725Y0368963D01*
X0691706Y0368945D01*
X0691684Y0368931D01*
X0691660Y0368919D01*
X0691635Y0368911D01*
X0691609Y0368907D01*
X0691583Y0368907D01*
X0691557Y0368911D01*
X0691532Y0368919D01*
X0691508Y0368931D01*
X0691486Y0368945D01*
X0691467Y0368963D01*
X0691451Y0368984D01*
X0691437Y0369007D01*
X0691428Y0369031D01*
X0691422Y0369057D01*
X0691420Y0369083D01*
X0692541Y0371032D02*
X0692541Y0366111D01*
X0643352Y0232978D02*
X0642356Y0232978D01*
X0640363Y0230985D01*
X0640363Y0229989D01*
X0641359Y0228992D01*
X0642356Y0228992D01*
X0642940Y0227411D02*
X0644933Y0225418D01*
X0643937Y0226414D02*
X0646926Y0229404D01*
X0644933Y0229404D01*
X0644349Y0230985D02*
X0644349Y0231982D01*
X0643352Y0232978D01*
X0648508Y0226826D02*
X0649504Y0226826D01*
X0650501Y0225830D01*
X0650501Y0224833D01*
X0650003Y0224335D01*
X0649006Y0224335D01*
X0649006Y0223338D01*
X0648508Y0222840D01*
X0647511Y0222840D01*
X0646515Y0223837D01*
X0646515Y0224833D01*
X0648508Y0224833D02*
X0649006Y0224335D01*
X0648211Y0207175D02*
X0659347Y0196039D01*
X0642643Y0179336D01*
X0631508Y0190472D01*
X0648211Y0207175D01*
X0389444Y0229828D02*
X0388447Y0228832D01*
X0387450Y0228832D01*
X0386454Y0229828D02*
X0386952Y0231323D01*
X0387450Y0231821D01*
X0388447Y0231821D01*
X0389444Y0230825D01*
X0389444Y0229828D01*
X0386454Y0229828D02*
X0384959Y0231323D01*
X0386952Y0233316D01*
X0382880Y0229244D02*
X0382880Y0227251D01*
X0381298Y0226666D02*
X0380302Y0226666D01*
X0379305Y0225669D01*
X0379305Y0224673D01*
X0381298Y0222680D01*
X0382295Y0222680D01*
X0383291Y0223676D01*
X0383291Y0224673D01*
X0384873Y0225258D02*
X0386866Y0227251D01*
X0385869Y0226254D02*
X0382880Y0229244D01*
X0369926Y0219383D02*
X0353222Y0236086D01*
X0342087Y0224951D01*
X0358790Y0208248D01*
X0369926Y0219383D01*
X0352588Y0295633D02*
X0348981Y0295633D01*
X0348981Y0301043D01*
X0347150Y0300141D02*
X0346248Y0301043D01*
X0344445Y0301043D01*
X0343543Y0300141D01*
X0343543Y0296534D01*
X0344445Y0295633D01*
X0346248Y0295633D01*
X0347150Y0296534D01*
X0341712Y0296534D02*
X0340811Y0295633D01*
X0339007Y0295633D01*
X0338105Y0296534D01*
X0339007Y0298338D02*
X0340811Y0298338D01*
X0341712Y0297436D01*
X0341712Y0296534D01*
X0339007Y0298338D02*
X0338105Y0299239D01*
X0338105Y0300141D01*
X0339007Y0301043D01*
X0340811Y0301043D01*
X0341712Y0300141D01*
X0342953Y0304648D02*
X0345658Y0304648D01*
X0346559Y0305550D01*
X0346559Y0309157D01*
X0345658Y0310059D01*
X0342953Y0310059D01*
X0342953Y0304648D01*
X0341122Y0305550D02*
X0340220Y0304648D01*
X0338417Y0304648D01*
X0337515Y0305550D01*
X0338417Y0307353D02*
X0340220Y0307353D01*
X0341122Y0306452D01*
X0341122Y0305550D01*
X0338417Y0307353D02*
X0337515Y0308255D01*
X0337515Y0309157D01*
X0338417Y0310059D01*
X0340220Y0310059D01*
X0341122Y0309157D01*
X0338460Y0315121D02*
X0338460Y0320531D01*
X0341165Y0320531D01*
X0342067Y0319629D01*
X0342067Y0317826D01*
X0341165Y0316924D01*
X0338460Y0316924D01*
X0343898Y0317826D02*
X0345701Y0317826D01*
X0347504Y0320531D02*
X0343898Y0320531D01*
X0343898Y0315121D01*
X0347504Y0315121D01*
X0349335Y0316023D02*
X0350237Y0315121D01*
X0352040Y0315121D01*
X0352942Y0316023D01*
X0352942Y0317826D01*
X0352040Y0318728D01*
X0351139Y0318728D01*
X0349335Y0317826D01*
X0349335Y0320531D01*
X0352942Y0320531D01*
X0351922Y0327011D02*
X0351922Y0332421D01*
X0349217Y0329716D01*
X0352824Y0329716D01*
X0347386Y0332421D02*
X0343779Y0332421D01*
X0343779Y0327011D01*
X0347386Y0327011D01*
X0345583Y0329716D02*
X0343779Y0329716D01*
X0341948Y0329716D02*
X0341047Y0328814D01*
X0338342Y0328814D01*
X0338342Y0327011D02*
X0338342Y0332421D01*
X0341047Y0332421D01*
X0341948Y0331519D01*
X0341948Y0329716D01*
X0344252Y0336893D02*
X0347859Y0336893D01*
X0349690Y0337794D02*
X0350591Y0336893D01*
X0352395Y0336893D01*
X0353296Y0337794D01*
X0353296Y0338696D01*
X0352395Y0339598D01*
X0351493Y0339598D01*
X0352395Y0339598D02*
X0353296Y0340499D01*
X0353296Y0341401D01*
X0352395Y0342303D01*
X0350591Y0342303D01*
X0349690Y0341401D01*
X0347859Y0342303D02*
X0344252Y0342303D01*
X0344252Y0336893D01*
X0344252Y0339598D02*
X0346055Y0339598D01*
X0342421Y0339598D02*
X0341519Y0338696D01*
X0338814Y0338696D01*
X0338814Y0336893D02*
X0338814Y0342303D01*
X0341519Y0342303D01*
X0342421Y0341401D01*
X0342421Y0339598D01*
X0340625Y0346223D02*
X0340625Y0351633D01*
X0343330Y0351633D01*
X0344232Y0350732D01*
X0344232Y0348928D01*
X0343330Y0348027D01*
X0340625Y0348027D01*
X0346063Y0348928D02*
X0348768Y0348928D01*
X0349670Y0348027D01*
X0349670Y0347125D01*
X0348768Y0346223D01*
X0346063Y0346223D01*
X0346063Y0351633D01*
X0348768Y0351633D01*
X0349670Y0350732D01*
X0349670Y0349830D01*
X0348768Y0348928D01*
X0351501Y0348928D02*
X0353304Y0349830D01*
X0354206Y0349830D01*
X0355107Y0348928D01*
X0355107Y0347125D01*
X0354206Y0346223D01*
X0352402Y0346223D01*
X0351501Y0347125D01*
X0351501Y0348928D02*
X0351501Y0351633D01*
X0355107Y0351633D01*
X0348292Y0355944D02*
X0347390Y0355042D01*
X0345587Y0355042D01*
X0344685Y0355944D01*
X0342854Y0356845D02*
X0342854Y0360452D01*
X0344685Y0359551D02*
X0345587Y0360452D01*
X0347390Y0360452D01*
X0348292Y0359551D01*
X0348292Y0358649D01*
X0347390Y0357747D01*
X0348292Y0356845D01*
X0348292Y0355944D01*
X0347390Y0357747D02*
X0346488Y0357747D01*
X0342854Y0356845D02*
X0341051Y0355042D01*
X0339247Y0356845D01*
X0339247Y0360452D01*
X0338925Y0365515D02*
X0340728Y0367318D01*
X0340728Y0370925D01*
X0342559Y0370925D02*
X0345264Y0370925D01*
X0346166Y0370023D01*
X0346166Y0369121D01*
X0345264Y0368220D01*
X0342559Y0368220D01*
X0342559Y0365515D02*
X0342559Y0370925D01*
X0345264Y0368220D02*
X0346166Y0367318D01*
X0346166Y0366416D01*
X0345264Y0365515D01*
X0342559Y0365515D01*
X0338925Y0365515D02*
X0337121Y0367318D01*
X0337121Y0370925D01*
X0338263Y0375908D02*
X0340968Y0375908D01*
X0341870Y0376810D01*
X0341870Y0377712D01*
X0340968Y0378613D01*
X0338263Y0378613D01*
X0338263Y0375908D02*
X0338263Y0381318D01*
X0340968Y0381318D01*
X0341870Y0380417D01*
X0341870Y0379515D01*
X0340968Y0378613D01*
X0343701Y0378613D02*
X0347307Y0378613D01*
X0347307Y0379515D02*
X0347307Y0375908D01*
X0343701Y0375908D02*
X0343701Y0379515D01*
X0345504Y0381318D01*
X0347307Y0379515D01*
X0349138Y0381318D02*
X0352745Y0381318D01*
X0350942Y0381318D02*
X0350942Y0375908D01*
X0354576Y0375007D02*
X0358183Y0375007D01*
X0360014Y0376810D02*
X0360915Y0375908D01*
X0362719Y0375908D01*
X0363621Y0376810D01*
X0363621Y0378613D01*
X0361817Y0378613D01*
X0360014Y0376810D02*
X0360014Y0380417D01*
X0360915Y0381318D01*
X0362719Y0381318D01*
X0363621Y0380417D01*
X0365451Y0381318D02*
X0369058Y0375908D01*
X0369058Y0381318D01*
X0370889Y0381318D02*
X0373594Y0381318D01*
X0374496Y0380417D01*
X0374496Y0376810D01*
X0373594Y0375908D01*
X0370889Y0375908D01*
X0370889Y0381318D01*
X0365451Y0381318D02*
X0365451Y0375908D01*
X0357041Y0370925D02*
X0353434Y0370925D01*
X0355238Y0370925D02*
X0355238Y0365515D01*
X0351603Y0365515D02*
X0351603Y0369121D01*
X0349800Y0370925D01*
X0347997Y0369121D01*
X0347997Y0365515D01*
X0347997Y0368220D02*
X0351603Y0368220D01*
X0352946Y0386105D02*
X0353847Y0387007D01*
X0353847Y0390614D01*
X0352946Y0391515D01*
X0350241Y0391515D01*
X0350241Y0386105D01*
X0352946Y0386105D01*
X0348410Y0386105D02*
X0348410Y0391515D01*
X0344803Y0391515D02*
X0348410Y0386105D01*
X0344803Y0386105D02*
X0344803Y0391515D01*
X0342972Y0390614D02*
X0342070Y0391515D01*
X0340267Y0391515D01*
X0339365Y0390614D01*
X0339365Y0387007D01*
X0340267Y0386105D01*
X0342070Y0386105D01*
X0342972Y0387007D01*
X0342972Y0388810D01*
X0341169Y0388810D01*
X0356226Y0458864D02*
X0372929Y0475567D01*
X0361794Y0486702D01*
X0345090Y0469999D01*
X0356226Y0458864D01*
X0392166Y0467473D02*
X0393162Y0466477D01*
X0394159Y0466477D01*
X0395242Y0465394D02*
X0395242Y0464397D01*
X0396238Y0463401D01*
X0397235Y0463401D01*
X0399228Y0465394D01*
X0399228Y0466391D01*
X0398231Y0467387D01*
X0397235Y0467387D01*
X0396736Y0466889D01*
X0396736Y0465892D01*
X0398231Y0464397D01*
X0396152Y0468470D02*
X0396152Y0469467D01*
X0395155Y0470463D01*
X0394159Y0470463D01*
X0392166Y0468470D01*
X0392166Y0467473D01*
X0451767Y0401496D02*
X0451062Y0400792D01*
X0451062Y0399382D01*
X0451767Y0398678D01*
X0451062Y0397146D02*
X0451062Y0395737D01*
X0451062Y0396442D02*
X0454586Y0396442D01*
X0455291Y0395737D01*
X0455291Y0395032D01*
X0454586Y0394328D01*
X0455291Y0398678D02*
X0452472Y0401496D01*
X0451767Y0401496D01*
X0455291Y0401496D02*
X0455291Y0398678D01*
X0351997Y0308255D02*
X0351997Y0304648D01*
X0351997Y0307353D02*
X0348390Y0307353D01*
X0348390Y0308255D02*
X0350194Y0310059D01*
X0351997Y0308255D01*
X0348390Y0308255D02*
X0348390Y0304648D01*
D12*
X0420050Y0177478D02*
X0417937Y0172947D01*
X0419146Y0169624D01*
X0423677Y0167511D01*
X0427000Y0168720D01*
X0428209Y0165398D01*
X0432741Y0163285D01*
X0436063Y0164494D01*
X0437272Y0161172D01*
X0441804Y0159059D01*
X0445126Y0160268D01*
X0446335Y0156946D01*
X0450867Y0154833D01*
X0454189Y0156042D01*
X0455398Y0152719D01*
X0459930Y0150606D01*
X0463252Y0151816D01*
X0464461Y0148493D01*
X0468993Y0146380D01*
X0472315Y0147589D01*
X0474428Y0152121D01*
X0473219Y0155443D01*
X0468687Y0157556D01*
X0465365Y0156347D01*
X0464156Y0159669D01*
X0459624Y0161783D01*
X0456302Y0160573D01*
X0455093Y0163896D01*
X0450561Y0166009D01*
X0447239Y0164800D01*
X0446030Y0168122D01*
X0441498Y0170235D01*
X0438176Y0169026D01*
X0436967Y0172348D01*
X0432435Y0174461D01*
X0429113Y0173252D01*
X0427904Y0176574D01*
X0423372Y0178687D01*
X0420050Y0177478D01*
X0514555Y0150804D02*
X0514703Y0145806D01*
X0517277Y0143382D01*
X0522274Y0143530D01*
X0524699Y0146103D01*
X0527272Y0143678D01*
X0532270Y0143827D01*
X0534695Y0146400D01*
X0537268Y0143975D01*
X0542266Y0144123D01*
X0544690Y0146696D01*
X0547263Y0144272D01*
X0552261Y0144420D01*
X0554686Y0146993D01*
X0557259Y0144568D01*
X0562257Y0144717D01*
X0564681Y0147290D01*
X0567255Y0144865D01*
X0572252Y0145013D01*
X0574677Y0147586D01*
X0574529Y0152584D01*
X0571956Y0155009D01*
X0566958Y0154860D01*
X0564533Y0152287D01*
X0561960Y0154712D01*
X0556962Y0154564D01*
X0554538Y0151991D01*
X0551964Y0154415D01*
X0546967Y0154267D01*
X0544542Y0151694D01*
X0541969Y0154119D01*
X0536971Y0153970D01*
X0534546Y0151397D01*
X0531973Y0153822D01*
X0526975Y0153674D01*
X0524551Y0151101D01*
X0521978Y0153526D01*
X0516980Y0153377D01*
X0514555Y0150804D01*
X0664483Y0264707D02*
X0666970Y0262194D01*
X0681970Y0262115D01*
X0684483Y0264602D01*
X0684509Y0269602D01*
X0682022Y0272115D01*
X0667022Y0272194D01*
X0664509Y0269707D01*
X0664483Y0264707D01*
X0667022Y0272194D02*
X0664535Y0274707D01*
X0664562Y0279707D01*
X0665794Y0282030D01*
X0663982Y0283600D01*
X0664186Y0290119D01*
X0665247Y0292193D01*
X0682127Y0292115D01*
X0684614Y0289602D01*
X0684588Y0284602D01*
X0682074Y0282115D01*
X0665794Y0282030D01*
X0684561Y0279602D02*
X0684535Y0274602D01*
X0682022Y0272115D01*
X0633840Y0354005D02*
X0633840Y0355186D01*
X0633840Y0354005D02*
X0632659Y0354005D01*
X0599588Y0354005D02*
X0598407Y0354005D01*
X0598407Y0355186D01*
X0598407Y0388257D02*
X0599588Y0389438D01*
X0612304Y0405343D02*
X0617029Y0405343D01*
X0624509Y0410461D02*
X0624509Y0412824D01*
X0617029Y0417942D02*
X0612304Y0417942D01*
X0604824Y0412824D02*
X0604824Y0410461D01*
X0632659Y0389438D02*
X0633840Y0389438D01*
X0633840Y0388257D01*
X0701269Y0372245D02*
X0720269Y0372245D01*
X0717769Y0369245D02*
X0719269Y0367745D01*
X0717769Y0366245D01*
X0719269Y0367745D02*
X0715769Y0367745D01*
X0720269Y0363245D02*
X0701269Y0363245D01*
D13*
X0690171Y0359472D02*
X0688703Y0359472D01*
X0689437Y0359472D02*
X0689437Y0361674D01*
X0688703Y0360940D01*
X0687962Y0360940D02*
X0687595Y0360573D01*
X0686494Y0360573D01*
X0686494Y0361674D02*
X0687595Y0361674D01*
X0687962Y0361307D01*
X0687962Y0360940D01*
X0687595Y0360573D02*
X0687962Y0360206D01*
X0687962Y0359839D01*
X0687595Y0359472D01*
X0686494Y0359472D01*
X0686494Y0361674D01*
X0702202Y0376216D02*
X0702202Y0377684D01*
X0702936Y0378418D01*
X0703670Y0377684D01*
X0703670Y0376216D01*
X0704412Y0376216D02*
X0705880Y0376216D01*
X0705146Y0376216D02*
X0705146Y0378418D01*
X0704412Y0377684D01*
X0703670Y0377317D02*
X0702202Y0377317D01*
X0616392Y0399499D02*
X0614924Y0399499D01*
X0615658Y0399499D02*
X0615658Y0401701D01*
X0614924Y0400967D01*
X0614182Y0401334D02*
X0614182Y0401701D01*
X0614182Y0401334D02*
X0613448Y0400600D01*
X0613448Y0399499D01*
X0613448Y0400600D02*
X0612714Y0401334D01*
X0612714Y0401701D01*
X0666226Y0464249D02*
X0667004Y0465027D01*
X0667004Y0465546D01*
X0665966Y0466584D01*
X0665447Y0466584D01*
X0664669Y0465806D01*
X0666226Y0464249D01*
X0667529Y0466071D02*
X0668048Y0466071D01*
X0668567Y0466590D01*
X0668567Y0467109D01*
X0668307Y0467368D01*
X0667788Y0467368D01*
X0667010Y0466590D01*
X0667529Y0466071D01*
X0667010Y0466590D02*
X0667010Y0467628D01*
X0667269Y0468406D01*
X0665925Y0473251D02*
X0667482Y0474808D01*
X0665925Y0474808D01*
X0666963Y0473770D01*
X0665141Y0475073D02*
X0665141Y0475592D01*
X0664622Y0476111D01*
X0664622Y0476630D01*
X0664882Y0476890D01*
X0665401Y0476890D01*
X0665920Y0476371D01*
X0665920Y0475852D01*
X0665920Y0476890D02*
X0663844Y0474814D01*
X0663844Y0475333D02*
X0664363Y0474814D01*
X0664882Y0474814D01*
X0665141Y0475073D01*
X0663844Y0475333D02*
X0663844Y0475852D01*
X0663319Y0476376D02*
X0664616Y0477674D01*
X0663578Y0478712D02*
X0662281Y0477414D01*
X0662281Y0476895D01*
X0662800Y0476376D01*
X0663319Y0476376D01*
X0455786Y0380349D02*
X0455786Y0379615D01*
X0455419Y0379248D01*
X0453951Y0380716D01*
X0455419Y0380716D01*
X0455786Y0380349D01*
X0455419Y0379248D02*
X0453951Y0379248D01*
X0453584Y0379615D01*
X0453584Y0380349D01*
X0453951Y0380716D01*
X0455786Y0378506D02*
X0455786Y0377038D01*
X0455786Y0377772D02*
X0453584Y0377772D01*
X0454318Y0377038D01*
X0453951Y0376296D02*
X0453584Y0375929D01*
X0453584Y0375195D01*
X0453951Y0374828D01*
X0454318Y0374828D01*
X0454685Y0375195D01*
X0454685Y0375929D01*
X0455052Y0376296D01*
X0455419Y0376296D01*
X0455786Y0375929D01*
X0455786Y0375195D01*
X0455419Y0374828D01*
X0455419Y0374086D02*
X0453584Y0374086D01*
X0453584Y0372618D02*
X0455419Y0372618D01*
X0455786Y0372985D01*
X0455786Y0373719D01*
X0455419Y0374086D01*
X0456153Y0375562D02*
X0453217Y0375562D01*
X0360367Y0445890D02*
X0359329Y0446928D01*
X0358551Y0446149D01*
X0359329Y0445890D01*
X0359589Y0445631D01*
X0359589Y0445112D01*
X0359070Y0444593D01*
X0358551Y0444593D01*
X0358032Y0445112D01*
X0358032Y0445631D01*
X0357507Y0446155D02*
X0358545Y0447193D01*
X0358545Y0447712D01*
X0357767Y0448491D01*
X0356210Y0446934D01*
X0356988Y0446155D01*
X0357507Y0446155D01*
X0361375Y0465871D02*
X0361894Y0465871D01*
X0362413Y0466390D01*
X0362413Y0466909D01*
X0361116Y0468207D01*
X0361900Y0468472D02*
X0361900Y0468991D01*
X0362419Y0469510D01*
X0362938Y0469510D01*
X0363197Y0468731D02*
X0362678Y0468212D01*
X0362159Y0468212D01*
X0361900Y0468472D01*
X0361900Y0469510D02*
X0363976Y0467434D01*
X0363976Y0467953D02*
X0363976Y0468472D01*
X0363716Y0468731D01*
X0363197Y0468731D01*
X0363976Y0467953D02*
X0363457Y0467434D01*
X0362938Y0467434D01*
X0361375Y0465871D02*
X0360078Y0467169D01*
X0363722Y0469775D02*
X0363722Y0470813D01*
X0365279Y0469256D01*
X0364760Y0468737D02*
X0365798Y0469775D01*
X0350757Y0253147D02*
X0351017Y0252887D01*
X0351017Y0252368D01*
X0350498Y0251849D01*
X0349979Y0251849D01*
X0349719Y0252109D01*
X0349719Y0252628D01*
X0350238Y0253147D01*
X0350757Y0253147D01*
X0351017Y0252368D02*
X0351536Y0252368D01*
X0351795Y0252109D01*
X0351795Y0251590D01*
X0351276Y0251071D01*
X0350757Y0251071D01*
X0350498Y0251330D01*
X0350498Y0251849D01*
X0350233Y0250546D02*
X0349195Y0251584D01*
X0348676Y0251584D01*
X0347897Y0250806D01*
X0349454Y0249249D01*
X0350233Y0250027D01*
X0350233Y0250546D01*
X0358632Y0229340D02*
X0357335Y0228042D01*
X0357335Y0227523D01*
X0357854Y0227004D01*
X0358373Y0227004D01*
X0359670Y0228302D01*
X0359936Y0227517D02*
X0360455Y0227517D01*
X0360973Y0226998D01*
X0360973Y0226479D01*
X0361498Y0225955D02*
X0361239Y0225695D01*
X0361239Y0225176D01*
X0361758Y0224657D01*
X0361758Y0224138D01*
X0361498Y0223879D01*
X0360979Y0223879D01*
X0360460Y0224398D01*
X0360460Y0224917D01*
X0360720Y0225176D01*
X0361239Y0225176D01*
X0361758Y0224657D02*
X0362277Y0224657D01*
X0362536Y0224917D01*
X0362536Y0225436D01*
X0362017Y0225955D01*
X0361498Y0225955D01*
X0360195Y0225701D02*
X0360195Y0226220D01*
X0359676Y0226739D01*
X0359676Y0227258D01*
X0359936Y0227517D01*
X0360973Y0227517D02*
X0358898Y0225441D01*
X0359417Y0225441D02*
X0359936Y0225441D01*
X0360195Y0225701D01*
X0359417Y0225441D02*
X0358898Y0225960D01*
X0358898Y0226479D01*
X0446633Y0171631D02*
X0446811Y0171143D01*
X0447143Y0170988D01*
X0447631Y0171166D01*
X0448407Y0172829D01*
X0448739Y0172674D02*
X0448074Y0172984D01*
X0449412Y0172360D02*
X0450409Y0171895D01*
X0450587Y0171407D01*
X0450277Y0170742D01*
X0449789Y0170564D01*
X0448791Y0171030D01*
X0448481Y0170364D02*
X0449412Y0172360D01*
X0451259Y0171094D02*
X0451747Y0171271D01*
X0452412Y0170961D01*
X0452590Y0170473D01*
X0452435Y0170141D01*
X0450484Y0169431D01*
X0451814Y0168810D01*
X0489160Y0180339D02*
X0489527Y0179972D01*
X0490261Y0179972D01*
X0490628Y0180339D01*
X0490628Y0180706D01*
X0490261Y0181073D01*
X0489527Y0181073D01*
X0489160Y0181440D01*
X0489160Y0181807D01*
X0489527Y0182174D01*
X0490261Y0182174D01*
X0490628Y0181807D01*
X0491370Y0182174D02*
X0491370Y0179972D01*
X0492104Y0180706D01*
X0492838Y0179972D01*
X0492838Y0182174D01*
X0493580Y0181440D02*
X0494314Y0182174D01*
X0494314Y0179972D01*
X0493580Y0179972D02*
X0495048Y0179972D01*
X0540931Y0157525D02*
X0541309Y0157169D01*
X0541676Y0157180D01*
X0542032Y0157558D01*
X0541977Y0159392D01*
X0541610Y0159381D02*
X0542344Y0159403D01*
X0543086Y0159425D02*
X0544186Y0159457D01*
X0544564Y0159101D01*
X0544586Y0158368D01*
X0544230Y0157990D01*
X0543129Y0157957D01*
X0543151Y0157224D02*
X0543086Y0159425D01*
X0545316Y0158757D02*
X0546028Y0159512D01*
X0546094Y0157311D01*
X0546827Y0157333D02*
X0545360Y0157289D01*
X0614615Y0194342D02*
X0615379Y0193549D01*
X0615898Y0193539D01*
X0616955Y0194557D01*
X0616965Y0195076D01*
X0616202Y0195869D01*
X0614615Y0194342D01*
X0616148Y0192750D02*
X0616412Y0193004D01*
X0618488Y0192964D01*
X0618752Y0193219D01*
X0617734Y0194277D01*
X0646495Y0187641D02*
X0647792Y0186344D01*
X0648311Y0186344D01*
X0648830Y0186863D01*
X0648830Y0187382D01*
X0647533Y0188679D01*
X0648317Y0188944D02*
X0648317Y0189463D01*
X0648836Y0189982D01*
X0649355Y0189982D01*
X0649615Y0189204D02*
X0649096Y0188685D01*
X0648577Y0188685D01*
X0648317Y0188944D01*
X0648317Y0189982D02*
X0650393Y0187906D01*
X0649874Y0187906D02*
X0650393Y0188425D01*
X0650393Y0188944D01*
X0650134Y0189204D01*
X0649615Y0189204D01*
X0650399Y0189988D02*
X0651177Y0190766D01*
X0651696Y0190766D01*
X0651956Y0190507D01*
X0651956Y0189988D01*
X0651437Y0189469D01*
X0650918Y0189469D01*
X0650399Y0189988D01*
X0650399Y0191026D01*
X0650658Y0191804D01*
X0649874Y0187906D02*
X0649355Y0187906D01*
D14*
X0559194Y0317351D02*
X0559196Y0317456D01*
X0559202Y0317561D01*
X0559212Y0317665D01*
X0559226Y0317769D01*
X0559244Y0317873D01*
X0559266Y0317975D01*
X0559291Y0318077D01*
X0559321Y0318178D01*
X0559354Y0318277D01*
X0559391Y0318375D01*
X0559432Y0318472D01*
X0559477Y0318567D01*
X0559525Y0318660D01*
X0559576Y0318752D01*
X0559632Y0318841D01*
X0559690Y0318928D01*
X0559752Y0319013D01*
X0559816Y0319096D01*
X0559884Y0319176D01*
X0559955Y0319253D01*
X0560029Y0319327D01*
X0560106Y0319399D01*
X0560185Y0319468D01*
X0560267Y0319533D01*
X0560351Y0319596D01*
X0560438Y0319655D01*
X0560527Y0319711D01*
X0560618Y0319764D01*
X0560711Y0319813D01*
X0560805Y0319858D01*
X0560901Y0319900D01*
X0560999Y0319938D01*
X0561098Y0319972D01*
X0561199Y0320003D01*
X0561300Y0320029D01*
X0561403Y0320052D01*
X0561506Y0320071D01*
X0561610Y0320086D01*
X0561714Y0320097D01*
X0561819Y0320104D01*
X0561924Y0320107D01*
X0562029Y0320106D01*
X0562134Y0320101D01*
X0562238Y0320092D01*
X0562342Y0320079D01*
X0562446Y0320062D01*
X0562549Y0320041D01*
X0562651Y0320016D01*
X0562752Y0319988D01*
X0562851Y0319955D01*
X0562950Y0319919D01*
X0563047Y0319879D01*
X0563142Y0319836D01*
X0563236Y0319788D01*
X0563328Y0319738D01*
X0563418Y0319684D01*
X0563506Y0319626D01*
X0563591Y0319565D01*
X0563674Y0319501D01*
X0563755Y0319434D01*
X0563833Y0319364D01*
X0563908Y0319290D01*
X0563980Y0319215D01*
X0564050Y0319136D01*
X0564116Y0319055D01*
X0564180Y0318971D01*
X0564240Y0318885D01*
X0564296Y0318797D01*
X0564350Y0318706D01*
X0564400Y0318614D01*
X0564446Y0318520D01*
X0564489Y0318424D01*
X0564528Y0318326D01*
X0564563Y0318228D01*
X0564594Y0318127D01*
X0564622Y0318026D01*
X0564646Y0317924D01*
X0564666Y0317821D01*
X0564682Y0317717D01*
X0564694Y0317613D01*
X0564702Y0317508D01*
X0564706Y0317403D01*
X0564706Y0317299D01*
X0564702Y0317194D01*
X0564694Y0317089D01*
X0564682Y0316985D01*
X0564666Y0316881D01*
X0564646Y0316778D01*
X0564622Y0316676D01*
X0564594Y0316575D01*
X0564563Y0316474D01*
X0564528Y0316376D01*
X0564489Y0316278D01*
X0564446Y0316182D01*
X0564400Y0316088D01*
X0564350Y0315996D01*
X0564296Y0315905D01*
X0564240Y0315817D01*
X0564180Y0315731D01*
X0564116Y0315647D01*
X0564050Y0315566D01*
X0563980Y0315487D01*
X0563908Y0315412D01*
X0563833Y0315338D01*
X0563755Y0315268D01*
X0563674Y0315201D01*
X0563591Y0315137D01*
X0563506Y0315076D01*
X0563418Y0315018D01*
X0563328Y0314964D01*
X0563236Y0314914D01*
X0563142Y0314866D01*
X0563047Y0314823D01*
X0562950Y0314783D01*
X0562851Y0314747D01*
X0562752Y0314714D01*
X0562651Y0314686D01*
X0562549Y0314661D01*
X0562446Y0314640D01*
X0562342Y0314623D01*
X0562238Y0314610D01*
X0562134Y0314601D01*
X0562029Y0314596D01*
X0561924Y0314595D01*
X0561819Y0314598D01*
X0561714Y0314605D01*
X0561610Y0314616D01*
X0561506Y0314631D01*
X0561403Y0314650D01*
X0561300Y0314673D01*
X0561199Y0314699D01*
X0561098Y0314730D01*
X0560999Y0314764D01*
X0560901Y0314802D01*
X0560805Y0314844D01*
X0560711Y0314889D01*
X0560618Y0314938D01*
X0560527Y0314991D01*
X0560438Y0315047D01*
X0560351Y0315106D01*
X0560267Y0315169D01*
X0560185Y0315234D01*
X0560106Y0315303D01*
X0560029Y0315375D01*
X0559955Y0315449D01*
X0559884Y0315526D01*
X0559816Y0315606D01*
X0559752Y0315689D01*
X0559690Y0315774D01*
X0559632Y0315861D01*
X0559576Y0315950D01*
X0559525Y0316042D01*
X0559477Y0316135D01*
X0559432Y0316230D01*
X0559391Y0316327D01*
X0559354Y0316425D01*
X0559321Y0316524D01*
X0559291Y0316625D01*
X0559266Y0316727D01*
X0559244Y0316829D01*
X0559226Y0316933D01*
X0559212Y0317037D01*
X0559202Y0317141D01*
X0559196Y0317246D01*
X0559194Y0317351D01*
X0559194Y0375225D02*
X0559196Y0375330D01*
X0559202Y0375435D01*
X0559212Y0375539D01*
X0559226Y0375643D01*
X0559244Y0375747D01*
X0559266Y0375849D01*
X0559291Y0375951D01*
X0559321Y0376052D01*
X0559354Y0376151D01*
X0559391Y0376249D01*
X0559432Y0376346D01*
X0559477Y0376441D01*
X0559525Y0376534D01*
X0559576Y0376626D01*
X0559632Y0376715D01*
X0559690Y0376802D01*
X0559752Y0376887D01*
X0559816Y0376970D01*
X0559884Y0377050D01*
X0559955Y0377127D01*
X0560029Y0377201D01*
X0560106Y0377273D01*
X0560185Y0377342D01*
X0560267Y0377407D01*
X0560351Y0377470D01*
X0560438Y0377529D01*
X0560527Y0377585D01*
X0560618Y0377638D01*
X0560711Y0377687D01*
X0560805Y0377732D01*
X0560901Y0377774D01*
X0560999Y0377812D01*
X0561098Y0377846D01*
X0561199Y0377877D01*
X0561300Y0377903D01*
X0561403Y0377926D01*
X0561506Y0377945D01*
X0561610Y0377960D01*
X0561714Y0377971D01*
X0561819Y0377978D01*
X0561924Y0377981D01*
X0562029Y0377980D01*
X0562134Y0377975D01*
X0562238Y0377966D01*
X0562342Y0377953D01*
X0562446Y0377936D01*
X0562549Y0377915D01*
X0562651Y0377890D01*
X0562752Y0377862D01*
X0562851Y0377829D01*
X0562950Y0377793D01*
X0563047Y0377753D01*
X0563142Y0377710D01*
X0563236Y0377662D01*
X0563328Y0377612D01*
X0563418Y0377558D01*
X0563506Y0377500D01*
X0563591Y0377439D01*
X0563674Y0377375D01*
X0563755Y0377308D01*
X0563833Y0377238D01*
X0563908Y0377164D01*
X0563980Y0377089D01*
X0564050Y0377010D01*
X0564116Y0376929D01*
X0564180Y0376845D01*
X0564240Y0376759D01*
X0564296Y0376671D01*
X0564350Y0376580D01*
X0564400Y0376488D01*
X0564446Y0376394D01*
X0564489Y0376298D01*
X0564528Y0376200D01*
X0564563Y0376102D01*
X0564594Y0376001D01*
X0564622Y0375900D01*
X0564646Y0375798D01*
X0564666Y0375695D01*
X0564682Y0375591D01*
X0564694Y0375487D01*
X0564702Y0375382D01*
X0564706Y0375277D01*
X0564706Y0375173D01*
X0564702Y0375068D01*
X0564694Y0374963D01*
X0564682Y0374859D01*
X0564666Y0374755D01*
X0564646Y0374652D01*
X0564622Y0374550D01*
X0564594Y0374449D01*
X0564563Y0374348D01*
X0564528Y0374250D01*
X0564489Y0374152D01*
X0564446Y0374056D01*
X0564400Y0373962D01*
X0564350Y0373870D01*
X0564296Y0373779D01*
X0564240Y0373691D01*
X0564180Y0373605D01*
X0564116Y0373521D01*
X0564050Y0373440D01*
X0563980Y0373361D01*
X0563908Y0373286D01*
X0563833Y0373212D01*
X0563755Y0373142D01*
X0563674Y0373075D01*
X0563591Y0373011D01*
X0563506Y0372950D01*
X0563418Y0372892D01*
X0563328Y0372838D01*
X0563236Y0372788D01*
X0563142Y0372740D01*
X0563047Y0372697D01*
X0562950Y0372657D01*
X0562851Y0372621D01*
X0562752Y0372588D01*
X0562651Y0372560D01*
X0562549Y0372535D01*
X0562446Y0372514D01*
X0562342Y0372497D01*
X0562238Y0372484D01*
X0562134Y0372475D01*
X0562029Y0372470D01*
X0561924Y0372469D01*
X0561819Y0372472D01*
X0561714Y0372479D01*
X0561610Y0372490D01*
X0561506Y0372505D01*
X0561403Y0372524D01*
X0561300Y0372547D01*
X0561199Y0372573D01*
X0561098Y0372604D01*
X0560999Y0372638D01*
X0560901Y0372676D01*
X0560805Y0372718D01*
X0560711Y0372763D01*
X0560618Y0372812D01*
X0560527Y0372865D01*
X0560438Y0372921D01*
X0560351Y0372980D01*
X0560267Y0373043D01*
X0560185Y0373108D01*
X0560106Y0373177D01*
X0560029Y0373249D01*
X0559955Y0373323D01*
X0559884Y0373400D01*
X0559816Y0373480D01*
X0559752Y0373563D01*
X0559690Y0373648D01*
X0559632Y0373735D01*
X0559576Y0373824D01*
X0559525Y0373916D01*
X0559477Y0374009D01*
X0559432Y0374104D01*
X0559391Y0374201D01*
X0559354Y0374299D01*
X0559321Y0374398D01*
X0559291Y0374499D01*
X0559266Y0374601D01*
X0559244Y0374703D01*
X0559226Y0374807D01*
X0559212Y0374911D01*
X0559202Y0375015D01*
X0559196Y0375120D01*
X0559194Y0375225D01*
X0464312Y0375225D02*
X0464314Y0375330D01*
X0464320Y0375435D01*
X0464330Y0375539D01*
X0464344Y0375643D01*
X0464362Y0375747D01*
X0464384Y0375849D01*
X0464409Y0375951D01*
X0464439Y0376052D01*
X0464472Y0376151D01*
X0464509Y0376249D01*
X0464550Y0376346D01*
X0464595Y0376441D01*
X0464643Y0376534D01*
X0464694Y0376626D01*
X0464750Y0376715D01*
X0464808Y0376802D01*
X0464870Y0376887D01*
X0464934Y0376970D01*
X0465002Y0377050D01*
X0465073Y0377127D01*
X0465147Y0377201D01*
X0465224Y0377273D01*
X0465303Y0377342D01*
X0465385Y0377407D01*
X0465469Y0377470D01*
X0465556Y0377529D01*
X0465645Y0377585D01*
X0465736Y0377638D01*
X0465829Y0377687D01*
X0465923Y0377732D01*
X0466019Y0377774D01*
X0466117Y0377812D01*
X0466216Y0377846D01*
X0466317Y0377877D01*
X0466418Y0377903D01*
X0466521Y0377926D01*
X0466624Y0377945D01*
X0466728Y0377960D01*
X0466832Y0377971D01*
X0466937Y0377978D01*
X0467042Y0377981D01*
X0467147Y0377980D01*
X0467252Y0377975D01*
X0467356Y0377966D01*
X0467460Y0377953D01*
X0467564Y0377936D01*
X0467667Y0377915D01*
X0467769Y0377890D01*
X0467870Y0377862D01*
X0467969Y0377829D01*
X0468068Y0377793D01*
X0468165Y0377753D01*
X0468260Y0377710D01*
X0468354Y0377662D01*
X0468446Y0377612D01*
X0468536Y0377558D01*
X0468624Y0377500D01*
X0468709Y0377439D01*
X0468792Y0377375D01*
X0468873Y0377308D01*
X0468951Y0377238D01*
X0469026Y0377164D01*
X0469098Y0377089D01*
X0469168Y0377010D01*
X0469234Y0376929D01*
X0469298Y0376845D01*
X0469358Y0376759D01*
X0469414Y0376671D01*
X0469468Y0376580D01*
X0469518Y0376488D01*
X0469564Y0376394D01*
X0469607Y0376298D01*
X0469646Y0376200D01*
X0469681Y0376102D01*
X0469712Y0376001D01*
X0469740Y0375900D01*
X0469764Y0375798D01*
X0469784Y0375695D01*
X0469800Y0375591D01*
X0469812Y0375487D01*
X0469820Y0375382D01*
X0469824Y0375277D01*
X0469824Y0375173D01*
X0469820Y0375068D01*
X0469812Y0374963D01*
X0469800Y0374859D01*
X0469784Y0374755D01*
X0469764Y0374652D01*
X0469740Y0374550D01*
X0469712Y0374449D01*
X0469681Y0374348D01*
X0469646Y0374250D01*
X0469607Y0374152D01*
X0469564Y0374056D01*
X0469518Y0373962D01*
X0469468Y0373870D01*
X0469414Y0373779D01*
X0469358Y0373691D01*
X0469298Y0373605D01*
X0469234Y0373521D01*
X0469168Y0373440D01*
X0469098Y0373361D01*
X0469026Y0373286D01*
X0468951Y0373212D01*
X0468873Y0373142D01*
X0468792Y0373075D01*
X0468709Y0373011D01*
X0468624Y0372950D01*
X0468536Y0372892D01*
X0468446Y0372838D01*
X0468354Y0372788D01*
X0468260Y0372740D01*
X0468165Y0372697D01*
X0468068Y0372657D01*
X0467969Y0372621D01*
X0467870Y0372588D01*
X0467769Y0372560D01*
X0467667Y0372535D01*
X0467564Y0372514D01*
X0467460Y0372497D01*
X0467356Y0372484D01*
X0467252Y0372475D01*
X0467147Y0372470D01*
X0467042Y0372469D01*
X0466937Y0372472D01*
X0466832Y0372479D01*
X0466728Y0372490D01*
X0466624Y0372505D01*
X0466521Y0372524D01*
X0466418Y0372547D01*
X0466317Y0372573D01*
X0466216Y0372604D01*
X0466117Y0372638D01*
X0466019Y0372676D01*
X0465923Y0372718D01*
X0465829Y0372763D01*
X0465736Y0372812D01*
X0465645Y0372865D01*
X0465556Y0372921D01*
X0465469Y0372980D01*
X0465385Y0373043D01*
X0465303Y0373108D01*
X0465224Y0373177D01*
X0465147Y0373249D01*
X0465073Y0373323D01*
X0465002Y0373400D01*
X0464934Y0373480D01*
X0464870Y0373563D01*
X0464808Y0373648D01*
X0464750Y0373735D01*
X0464694Y0373824D01*
X0464643Y0373916D01*
X0464595Y0374009D01*
X0464550Y0374104D01*
X0464509Y0374201D01*
X0464472Y0374299D01*
X0464439Y0374398D01*
X0464409Y0374499D01*
X0464384Y0374601D01*
X0464362Y0374703D01*
X0464344Y0374807D01*
X0464330Y0374911D01*
X0464320Y0375015D01*
X0464314Y0375120D01*
X0464312Y0375225D01*
X0464312Y0317351D02*
X0464314Y0317456D01*
X0464320Y0317561D01*
X0464330Y0317665D01*
X0464344Y0317769D01*
X0464362Y0317873D01*
X0464384Y0317975D01*
X0464409Y0318077D01*
X0464439Y0318178D01*
X0464472Y0318277D01*
X0464509Y0318375D01*
X0464550Y0318472D01*
X0464595Y0318567D01*
X0464643Y0318660D01*
X0464694Y0318752D01*
X0464750Y0318841D01*
X0464808Y0318928D01*
X0464870Y0319013D01*
X0464934Y0319096D01*
X0465002Y0319176D01*
X0465073Y0319253D01*
X0465147Y0319327D01*
X0465224Y0319399D01*
X0465303Y0319468D01*
X0465385Y0319533D01*
X0465469Y0319596D01*
X0465556Y0319655D01*
X0465645Y0319711D01*
X0465736Y0319764D01*
X0465829Y0319813D01*
X0465923Y0319858D01*
X0466019Y0319900D01*
X0466117Y0319938D01*
X0466216Y0319972D01*
X0466317Y0320003D01*
X0466418Y0320029D01*
X0466521Y0320052D01*
X0466624Y0320071D01*
X0466728Y0320086D01*
X0466832Y0320097D01*
X0466937Y0320104D01*
X0467042Y0320107D01*
X0467147Y0320106D01*
X0467252Y0320101D01*
X0467356Y0320092D01*
X0467460Y0320079D01*
X0467564Y0320062D01*
X0467667Y0320041D01*
X0467769Y0320016D01*
X0467870Y0319988D01*
X0467969Y0319955D01*
X0468068Y0319919D01*
X0468165Y0319879D01*
X0468260Y0319836D01*
X0468354Y0319788D01*
X0468446Y0319738D01*
X0468536Y0319684D01*
X0468624Y0319626D01*
X0468709Y0319565D01*
X0468792Y0319501D01*
X0468873Y0319434D01*
X0468951Y0319364D01*
X0469026Y0319290D01*
X0469098Y0319215D01*
X0469168Y0319136D01*
X0469234Y0319055D01*
X0469298Y0318971D01*
X0469358Y0318885D01*
X0469414Y0318797D01*
X0469468Y0318706D01*
X0469518Y0318614D01*
X0469564Y0318520D01*
X0469607Y0318424D01*
X0469646Y0318326D01*
X0469681Y0318228D01*
X0469712Y0318127D01*
X0469740Y0318026D01*
X0469764Y0317924D01*
X0469784Y0317821D01*
X0469800Y0317717D01*
X0469812Y0317613D01*
X0469820Y0317508D01*
X0469824Y0317403D01*
X0469824Y0317299D01*
X0469820Y0317194D01*
X0469812Y0317089D01*
X0469800Y0316985D01*
X0469784Y0316881D01*
X0469764Y0316778D01*
X0469740Y0316676D01*
X0469712Y0316575D01*
X0469681Y0316474D01*
X0469646Y0316376D01*
X0469607Y0316278D01*
X0469564Y0316182D01*
X0469518Y0316088D01*
X0469468Y0315996D01*
X0469414Y0315905D01*
X0469358Y0315817D01*
X0469298Y0315731D01*
X0469234Y0315647D01*
X0469168Y0315566D01*
X0469098Y0315487D01*
X0469026Y0315412D01*
X0468951Y0315338D01*
X0468873Y0315268D01*
X0468792Y0315201D01*
X0468709Y0315137D01*
X0468624Y0315076D01*
X0468536Y0315018D01*
X0468446Y0314964D01*
X0468354Y0314914D01*
X0468260Y0314866D01*
X0468165Y0314823D01*
X0468068Y0314783D01*
X0467969Y0314747D01*
X0467870Y0314714D01*
X0467769Y0314686D01*
X0467667Y0314661D01*
X0467564Y0314640D01*
X0467460Y0314623D01*
X0467356Y0314610D01*
X0467252Y0314601D01*
X0467147Y0314596D01*
X0467042Y0314595D01*
X0466937Y0314598D01*
X0466832Y0314605D01*
X0466728Y0314616D01*
X0466624Y0314631D01*
X0466521Y0314650D01*
X0466418Y0314673D01*
X0466317Y0314699D01*
X0466216Y0314730D01*
X0466117Y0314764D01*
X0466019Y0314802D01*
X0465923Y0314844D01*
X0465829Y0314889D01*
X0465736Y0314938D01*
X0465645Y0314991D01*
X0465556Y0315047D01*
X0465469Y0315106D01*
X0465385Y0315169D01*
X0465303Y0315234D01*
X0465224Y0315303D01*
X0465147Y0315375D01*
X0465073Y0315449D01*
X0465002Y0315526D01*
X0464934Y0315606D01*
X0464870Y0315689D01*
X0464808Y0315774D01*
X0464750Y0315861D01*
X0464694Y0315950D01*
X0464643Y0316042D01*
X0464595Y0316135D01*
X0464550Y0316230D01*
X0464509Y0316327D01*
X0464472Y0316425D01*
X0464439Y0316524D01*
X0464409Y0316625D01*
X0464384Y0316727D01*
X0464362Y0316829D01*
X0464344Y0316933D01*
X0464330Y0317037D01*
X0464320Y0317141D01*
X0464314Y0317246D01*
X0464312Y0317351D01*
D15*
X0438879Y0338847D02*
X0431005Y0338847D01*
X0431005Y0345855D02*
X0438879Y0345855D01*
X0438682Y0354123D02*
X0430808Y0354123D01*
X0430808Y0361131D02*
X0438682Y0361131D01*
X0457816Y0383178D02*
X0467816Y0383178D01*
X0467816Y0399844D01*
X0464483Y0403178D02*
X0457816Y0403178D01*
X0457816Y0383178D01*
X0443800Y0392627D02*
X0435926Y0392627D01*
X0435926Y0399635D02*
X0443800Y0399635D01*
X0494627Y0371761D02*
X0494627Y0363887D01*
X0494824Y0358099D02*
X0494824Y0350225D01*
X0496044Y0344438D02*
X0496044Y0336564D01*
X0502895Y0336564D02*
X0502895Y0344438D01*
X0501674Y0350225D02*
X0501674Y0358099D01*
X0502541Y0360580D02*
X0502541Y0368454D01*
X0501635Y0371761D02*
X0501635Y0363887D01*
X0509548Y0360580D02*
X0509548Y0368454D01*
X0510651Y0368375D02*
X0510651Y0360501D01*
X0517659Y0360501D02*
X0517659Y0368375D01*
X0518564Y0368414D02*
X0518564Y0360540D01*
X0525572Y0360540D02*
X0525572Y0368414D01*
X0529155Y0361957D02*
X0537029Y0361957D01*
X0537029Y0354950D02*
X0529155Y0354950D01*
X0564076Y0358572D02*
X0571950Y0358572D01*
X0571950Y0365580D02*
X0564076Y0365580D01*
X0564863Y0384792D02*
X0572737Y0384792D01*
X0572737Y0391800D02*
X0564863Y0391800D01*
X0593643Y0405422D02*
X0593643Y0413296D01*
X0600651Y0413296D02*
X0600651Y0405422D01*
X0604430Y0421052D02*
X0612304Y0421052D01*
X0618170Y0421013D02*
X0626044Y0421013D01*
X0626044Y0428020D02*
X0618170Y0428020D01*
X0612304Y0428060D02*
X0604430Y0428060D01*
X0637492Y0458304D02*
X0643060Y0452736D01*
X0649773Y0452666D02*
X0654784Y0447655D01*
X0665418Y0458289D01*
X0660407Y0463300D02*
X0649773Y0452666D01*
X0647904Y0457580D02*
X0642336Y0463148D01*
X0644647Y0484289D02*
X0622000Y0506936D01*
X0614950Y0499407D02*
X0609382Y0493840D01*
X0614226Y0488996D02*
X0619794Y0494563D01*
X0624855Y0488479D02*
X0619287Y0482911D01*
X0624242Y0477956D02*
X0629810Y0483524D01*
X0644647Y0484289D02*
X0657453Y0497095D01*
X0634806Y0519742D01*
X0433534Y0482462D02*
X0427966Y0488029D01*
X0423122Y0483186D02*
X0428690Y0477618D01*
X0411644Y0478013D02*
X0406076Y0483581D01*
X0401232Y0478737D02*
X0406800Y0473169D01*
X0396345Y0462202D02*
X0390778Y0467770D01*
X0385822Y0462815D02*
X0391390Y0457247D01*
X0382166Y0476494D02*
X0369360Y0489300D01*
X0392007Y0511947D01*
X0404813Y0499141D02*
X0382166Y0476494D01*
X0355261Y0452752D02*
X0344626Y0463386D01*
X0339616Y0458375D01*
X0350250Y0447741D01*
X0333682Y0393217D02*
X0323682Y0393217D01*
X0323682Y0296551D01*
X0327016Y0293217D02*
X0333682Y0293217D01*
X0333682Y0393217D01*
X0394950Y0254053D02*
X0389382Y0248485D01*
X0394226Y0243641D02*
X0399794Y0249209D01*
X0405304Y0229722D02*
X0399736Y0224155D01*
X0395597Y0224980D02*
X0390030Y0219412D01*
X0385074Y0224368D02*
X0390642Y0229936D01*
X0404580Y0219311D02*
X0410148Y0224878D01*
X0376615Y0212067D02*
X0399262Y0189420D01*
X0386456Y0176614D02*
X0363809Y0199261D01*
X0376615Y0212067D01*
X0348647Y0243289D02*
X0338012Y0232655D01*
X0333001Y0237666D01*
X0343636Y0248300D01*
X0483643Y0194320D02*
X0483643Y0170225D01*
X0499706Y0170225D01*
X0507737Y0178257D02*
X0507737Y0194320D01*
X0483643Y0194320D01*
X0518800Y0171485D02*
X0526674Y0171485D01*
X0526674Y0164477D02*
X0518800Y0164477D01*
X0619963Y0186992D02*
X0630392Y0176155D01*
X0635498Y0181069D01*
X0625070Y0191906D01*
X0630895Y0210492D02*
X0625327Y0216060D01*
X0630171Y0220903D02*
X0635738Y0215336D01*
X0631603Y0224232D02*
X0626035Y0229800D01*
X0630879Y0234644D02*
X0636447Y0229076D01*
X0643972Y0233445D02*
X0649540Y0227877D01*
X0654495Y0232832D02*
X0648927Y0238400D01*
X0651801Y0214418D02*
X0674448Y0237065D01*
X0687254Y0224259D02*
X0664607Y0201612D01*
X0651801Y0214418D01*
X0687619Y0306997D02*
X0687619Y0314871D01*
X0694470Y0314871D02*
X0694470Y0306997D01*
X0616281Y0321249D02*
X0616281Y0329123D01*
X0609273Y0329123D02*
X0609273Y0321249D01*
X0680375Y0377627D02*
X0680375Y0385501D01*
X0687383Y0385501D02*
X0687383Y0377627D01*
X0688170Y0377666D02*
X0688170Y0385540D01*
X0695178Y0385540D02*
X0695178Y0377666D01*
D16*
X0687679Y0372609D02*
X0687679Y0370207D01*
X0685277Y0372609D01*
X0684677Y0372609D01*
X0684076Y0372008D01*
X0684076Y0370807D01*
X0684677Y0370207D01*
X0684076Y0367724D02*
X0687679Y0367724D01*
X0687679Y0366523D02*
X0687679Y0368926D01*
X0685277Y0366523D02*
X0684076Y0367724D01*
X0684677Y0365242D02*
X0684076Y0364642D01*
X0684076Y0363441D01*
X0684677Y0362840D01*
X0687079Y0362840D01*
X0687679Y0363441D01*
X0687679Y0364642D01*
X0687079Y0365242D01*
X0688472Y0389677D02*
X0690874Y0389677D01*
X0691474Y0390278D01*
X0691474Y0391479D01*
X0690874Y0392079D01*
X0690874Y0393360D02*
X0690273Y0393360D01*
X0689673Y0393961D01*
X0689673Y0395162D01*
X0690273Y0395762D01*
X0690874Y0395762D01*
X0691474Y0395162D01*
X0691474Y0393961D01*
X0690874Y0393360D01*
X0689673Y0393961D02*
X0689072Y0393360D01*
X0688472Y0393360D01*
X0687871Y0393961D01*
X0687871Y0395162D01*
X0688472Y0395762D01*
X0689072Y0395762D01*
X0689673Y0395162D01*
X0688472Y0392079D02*
X0687871Y0391479D01*
X0687871Y0390278D01*
X0688472Y0389677D01*
X0626210Y0427758D02*
X0623808Y0425356D01*
X0623808Y0424756D01*
X0622526Y0424756D02*
X0620124Y0424756D01*
X0622526Y0427158D01*
X0622526Y0427758D01*
X0621926Y0428359D01*
X0620725Y0428359D01*
X0620124Y0427758D01*
X0618843Y0427758D02*
X0618243Y0428359D01*
X0617042Y0428359D01*
X0616441Y0427758D01*
X0616441Y0425356D01*
X0617042Y0424756D01*
X0618243Y0424756D01*
X0618843Y0425356D01*
X0613152Y0424320D02*
X0611951Y0423719D01*
X0610750Y0422518D01*
X0612552Y0422518D01*
X0613152Y0421918D01*
X0613152Y0421317D01*
X0612552Y0420717D01*
X0611351Y0420717D01*
X0610750Y0421317D01*
X0610750Y0422518D01*
X0609469Y0423119D02*
X0609469Y0423719D01*
X0608869Y0424320D01*
X0607668Y0424320D01*
X0607067Y0423719D01*
X0605786Y0423719D02*
X0605186Y0424320D01*
X0603984Y0424320D01*
X0603384Y0423719D01*
X0603384Y0421317D01*
X0603984Y0420717D01*
X0605186Y0420717D01*
X0605786Y0421317D01*
X0607067Y0420717D02*
X0609469Y0423119D01*
X0609469Y0420717D02*
X0607067Y0420717D01*
X0596947Y0421116D02*
X0594545Y0423518D01*
X0593944Y0423518D01*
X0593344Y0422918D01*
X0593344Y0421717D01*
X0593944Y0421116D01*
X0593944Y0419835D02*
X0593344Y0419235D01*
X0593344Y0418034D01*
X0593944Y0417433D01*
X0596346Y0417433D01*
X0596947Y0418034D01*
X0596947Y0419235D01*
X0596346Y0419835D01*
X0596947Y0421116D02*
X0596947Y0423518D01*
X0596346Y0424799D02*
X0596947Y0425400D01*
X0596947Y0426601D01*
X0596346Y0427201D01*
X0593944Y0427201D01*
X0593344Y0426601D01*
X0593344Y0425400D01*
X0593944Y0424799D01*
X0594545Y0424799D01*
X0595145Y0425400D01*
X0595145Y0427201D01*
X0623808Y0428359D02*
X0626210Y0428359D01*
X0626210Y0427758D01*
X0631751Y0463515D02*
X0634299Y0466063D01*
X0631751Y0466063D01*
X0633449Y0464364D01*
X0630845Y0466968D02*
X0629996Y0466968D01*
X0628722Y0468242D01*
X0629571Y0467393D02*
X0629571Y0465695D01*
X0630845Y0466968D02*
X0631694Y0467818D01*
X0631694Y0468667D01*
X0630420Y0469941D01*
X0627873Y0467393D01*
X0609015Y0483254D02*
X0609015Y0484104D01*
X0608590Y0484528D01*
X0607741Y0484528D01*
X0606467Y0483254D01*
X0607316Y0482405D01*
X0608165Y0482405D01*
X0609015Y0483254D01*
X0606467Y0483254D02*
X0606467Y0484953D01*
X0606891Y0486227D01*
X0604712Y0483198D02*
X0603862Y0483198D01*
X0602589Y0481924D01*
X0605136Y0479376D01*
X0604287Y0480225D02*
X0605561Y0481499D01*
X0605561Y0482349D01*
X0604712Y0483198D01*
X0605136Y0481075D02*
X0606835Y0481075D01*
X0620970Y0515398D02*
X0619272Y0517096D01*
X0620121Y0516247D02*
X0622669Y0518795D01*
X0620970Y0518795D01*
X0618366Y0518002D02*
X0616668Y0519700D01*
X0617517Y0518851D02*
X0620065Y0521399D01*
X0618366Y0521399D01*
X0617885Y0522729D02*
X0617885Y0523579D01*
X0617036Y0524428D01*
X0616186Y0524428D01*
X0614488Y0522729D01*
X0614488Y0521880D01*
X0615337Y0521031D01*
X0616186Y0521031D01*
X0659440Y0481823D02*
X0661611Y0479653D01*
X0667792Y0473471D02*
X0669962Y0471301D01*
X0669962Y0473471D02*
X0667792Y0471301D01*
X0559845Y0388099D02*
X0558644Y0387499D01*
X0557443Y0386298D01*
X0559245Y0386298D01*
X0559845Y0385697D01*
X0559845Y0385097D01*
X0559245Y0384496D01*
X0558044Y0384496D01*
X0557443Y0385097D01*
X0557443Y0386298D01*
X0556162Y0387499D02*
X0555562Y0388099D01*
X0554361Y0388099D01*
X0553760Y0387499D01*
X0553760Y0385097D01*
X0554361Y0384496D01*
X0555562Y0384496D01*
X0556162Y0385097D01*
X0556656Y0361879D02*
X0556656Y0360077D01*
X0557857Y0360678D01*
X0558457Y0360678D01*
X0559058Y0360077D01*
X0559058Y0358876D01*
X0558457Y0358276D01*
X0557256Y0358276D01*
X0556656Y0358876D01*
X0555375Y0358876D02*
X0554774Y0358276D01*
X0553573Y0358276D01*
X0552973Y0358876D01*
X0552973Y0361278D01*
X0553573Y0361879D01*
X0554774Y0361879D01*
X0555375Y0361278D01*
X0556656Y0361879D02*
X0559058Y0361879D01*
X0525868Y0355522D02*
X0525868Y0353120D01*
X0525868Y0354321D02*
X0522265Y0354321D01*
X0523466Y0353120D01*
X0523466Y0351839D02*
X0522866Y0351839D01*
X0522265Y0351238D01*
X0522265Y0350037D01*
X0522866Y0349437D01*
X0522866Y0348156D02*
X0522265Y0347555D01*
X0522265Y0346354D01*
X0522866Y0345754D01*
X0525268Y0345754D01*
X0525868Y0346354D01*
X0525868Y0347555D01*
X0525268Y0348156D01*
X0525868Y0349437D02*
X0523466Y0351839D01*
X0525868Y0351839D02*
X0525868Y0349437D01*
X0524137Y0354654D02*
X0521735Y0354654D01*
X0524137Y0357056D01*
X0524137Y0357656D01*
X0523536Y0358257D01*
X0522335Y0358257D01*
X0521735Y0357656D01*
X0520453Y0357656D02*
X0519853Y0358257D01*
X0518652Y0358257D01*
X0518051Y0357656D01*
X0516770Y0357656D02*
X0516170Y0358257D01*
X0514969Y0358257D01*
X0514368Y0357656D01*
X0514368Y0355254D01*
X0514969Y0354654D01*
X0516170Y0354654D01*
X0516770Y0355254D01*
X0518051Y0354654D02*
X0520453Y0357056D01*
X0520453Y0357656D01*
X0520453Y0354654D02*
X0518051Y0354654D01*
X0513354Y0372512D02*
X0513955Y0373112D01*
X0513955Y0374313D01*
X0513354Y0374914D01*
X0513955Y0376195D02*
X0513955Y0378597D01*
X0513955Y0377396D02*
X0510352Y0377396D01*
X0511553Y0376195D01*
X0510952Y0374914D02*
X0510352Y0374313D01*
X0510352Y0373112D01*
X0510952Y0372512D01*
X0513354Y0372512D01*
X0513354Y0379878D02*
X0513955Y0380479D01*
X0513955Y0381680D01*
X0513354Y0382280D01*
X0510952Y0382280D01*
X0510352Y0381680D01*
X0510352Y0380479D01*
X0510952Y0379878D01*
X0511553Y0379878D01*
X0512153Y0380479D01*
X0512153Y0382280D01*
X0505844Y0381758D02*
X0505844Y0380557D01*
X0505244Y0379957D01*
X0502842Y0382359D01*
X0505244Y0382359D01*
X0505844Y0381758D01*
X0505244Y0379957D02*
X0502842Y0379957D01*
X0502241Y0380557D01*
X0502241Y0381758D01*
X0502842Y0382359D01*
X0502842Y0378676D02*
X0502241Y0378075D01*
X0502241Y0376874D01*
X0502842Y0376274D01*
X0502842Y0374993D02*
X0502241Y0374392D01*
X0502241Y0373191D01*
X0502842Y0372591D01*
X0505244Y0372591D01*
X0505844Y0373191D01*
X0505844Y0374392D01*
X0505244Y0374993D01*
X0505844Y0376274D02*
X0503442Y0378676D01*
X0502842Y0378676D01*
X0505844Y0378676D02*
X0505844Y0376274D01*
X0497931Y0376498D02*
X0497931Y0377699D01*
X0497331Y0378300D01*
X0497931Y0379581D02*
X0497931Y0381983D01*
X0497931Y0380782D02*
X0494328Y0380782D01*
X0495529Y0379581D01*
X0494928Y0378300D02*
X0494328Y0377699D01*
X0494328Y0376498D01*
X0494928Y0375898D01*
X0497331Y0375898D01*
X0497931Y0376498D01*
X0497931Y0383264D02*
X0497331Y0383264D01*
X0494928Y0385666D01*
X0494328Y0385666D01*
X0494328Y0383264D01*
X0496267Y0356786D02*
X0496868Y0356786D01*
X0497468Y0356185D01*
X0498069Y0356786D01*
X0498669Y0356786D01*
X0499270Y0356185D01*
X0499270Y0354984D01*
X0498669Y0354384D01*
X0499270Y0353103D02*
X0498069Y0351902D01*
X0498069Y0352502D02*
X0498069Y0350701D01*
X0499270Y0350701D02*
X0495667Y0350701D01*
X0495667Y0352502D01*
X0496267Y0353103D01*
X0497468Y0353103D01*
X0498069Y0352502D01*
X0496267Y0354384D02*
X0495667Y0354984D01*
X0495667Y0356185D01*
X0496267Y0356786D01*
X0497468Y0356185D02*
X0497468Y0355585D01*
X0499047Y0343081D02*
X0498446Y0342481D01*
X0498446Y0341280D01*
X0499047Y0340679D01*
X0499047Y0339398D02*
X0500248Y0339398D01*
X0500848Y0338797D01*
X0500848Y0336996D01*
X0500848Y0338197D02*
X0502049Y0339398D01*
X0502049Y0340679D02*
X0499647Y0343081D01*
X0499047Y0343081D01*
X0502049Y0343081D02*
X0502049Y0340679D01*
X0499047Y0339398D02*
X0498446Y0338797D01*
X0498446Y0336996D01*
X0502049Y0336996D01*
X0425987Y0340353D02*
X0423585Y0340353D01*
X0425386Y0342154D01*
X0425386Y0338551D01*
X0422304Y0338551D02*
X0419902Y0338551D01*
X0422304Y0340953D01*
X0422304Y0341554D01*
X0421703Y0342154D01*
X0420502Y0342154D01*
X0419902Y0341554D01*
X0418621Y0341554D02*
X0418020Y0342154D01*
X0416819Y0342154D01*
X0416219Y0341554D01*
X0416219Y0339152D01*
X0416819Y0338551D01*
X0418020Y0338551D01*
X0418621Y0339152D01*
X0417823Y0353827D02*
X0418424Y0354427D01*
X0417823Y0353827D02*
X0416622Y0353827D01*
X0416022Y0354427D01*
X0416022Y0356829D01*
X0416622Y0357430D01*
X0417823Y0357430D01*
X0418424Y0356829D01*
X0419705Y0356829D02*
X0420305Y0357430D01*
X0421506Y0357430D01*
X0422107Y0356829D01*
X0422107Y0356229D01*
X0419705Y0353827D01*
X0422107Y0353827D01*
X0423388Y0354427D02*
X0423989Y0353827D01*
X0425190Y0353827D01*
X0425790Y0354427D01*
X0425790Y0355028D01*
X0425190Y0355628D01*
X0424589Y0355628D01*
X0425190Y0355628D02*
X0425790Y0356229D01*
X0425790Y0356829D01*
X0425190Y0357430D01*
X0423989Y0357430D01*
X0423388Y0356829D01*
X0422941Y0392331D02*
X0423542Y0392931D01*
X0422941Y0392331D02*
X0421740Y0392331D01*
X0421140Y0392931D01*
X0421140Y0395333D01*
X0421740Y0395934D01*
X0422941Y0395934D01*
X0423542Y0395333D01*
X0424823Y0395333D02*
X0425424Y0395934D01*
X0426625Y0395934D01*
X0427225Y0395333D01*
X0427225Y0394733D01*
X0424823Y0392331D01*
X0427225Y0392331D01*
X0428506Y0392931D02*
X0429107Y0392331D01*
X0430308Y0392331D01*
X0430908Y0392931D01*
X0430908Y0394132D01*
X0430308Y0394733D01*
X0429707Y0394733D01*
X0428506Y0394132D01*
X0428506Y0395934D01*
X0430908Y0395934D01*
X0359137Y0465201D02*
X0356966Y0463031D01*
X0365318Y0471382D02*
X0367488Y0473553D01*
X0365318Y0473553D02*
X0367488Y0471382D01*
X0413792Y0471304D02*
X0416340Y0473851D01*
X0417614Y0472578D01*
X0417614Y0471728D01*
X0416764Y0470879D01*
X0415915Y0470879D01*
X0414641Y0472153D01*
X0415491Y0471304D02*
X0415491Y0469605D01*
X0416821Y0469124D02*
X0416821Y0468275D01*
X0417670Y0467425D01*
X0418520Y0467425D01*
X0419369Y0468275D01*
X0419369Y0469124D01*
X0418944Y0469549D01*
X0417670Y0469973D01*
X0418944Y0471247D01*
X0420643Y0469549D01*
X0417805Y0487972D02*
X0416107Y0489671D01*
X0419504Y0489671D01*
X0419928Y0490095D01*
X0419928Y0490944D01*
X0419079Y0491794D01*
X0418230Y0491794D01*
X0416899Y0493973D02*
X0414352Y0491426D01*
X0413502Y0492275D02*
X0415201Y0490576D01*
X0415201Y0493973D02*
X0416899Y0493973D01*
X0414720Y0495304D02*
X0413870Y0494455D01*
X0413021Y0494455D01*
X0411747Y0495729D01*
X0410898Y0494879D02*
X0413446Y0497427D01*
X0414720Y0496153D01*
X0414720Y0495304D01*
X0412597Y0494879D02*
X0412597Y0493181D01*
X0402816Y0510232D02*
X0403665Y0511082D01*
X0403665Y0511931D01*
X0404996Y0512412D02*
X0406694Y0514111D01*
X0405845Y0513261D02*
X0403297Y0515809D01*
X0403297Y0514111D01*
X0401967Y0513629D02*
X0401117Y0513629D01*
X0400268Y0512780D01*
X0400268Y0511931D01*
X0401967Y0510232D01*
X0402816Y0510232D01*
X0407175Y0515441D02*
X0406751Y0515866D01*
X0406751Y0516715D01*
X0407600Y0517564D01*
X0408449Y0517564D01*
X0408874Y0517139D01*
X0408874Y0516290D01*
X0408025Y0515441D01*
X0407175Y0515441D01*
X0406751Y0516715D02*
X0405902Y0516715D01*
X0405477Y0517139D01*
X0405477Y0517989D01*
X0406326Y0518838D01*
X0407175Y0518838D01*
X0407600Y0518413D01*
X0407600Y0517564D01*
X0323482Y0382383D02*
X0322281Y0381182D01*
X0322281Y0381783D02*
X0322281Y0379981D01*
X0323482Y0379981D02*
X0319879Y0379981D01*
X0319879Y0381783D01*
X0320480Y0382383D01*
X0321681Y0382383D01*
X0322281Y0381783D01*
X0323482Y0378700D02*
X0323482Y0376298D01*
X0319879Y0376298D01*
X0319879Y0378700D01*
X0321681Y0377499D02*
X0321681Y0376298D01*
X0322882Y0375017D02*
X0320480Y0375017D01*
X0319879Y0374417D01*
X0319879Y0372615D01*
X0323482Y0372615D01*
X0323482Y0374417D01*
X0322882Y0375017D01*
X0323482Y0371334D02*
X0321080Y0371334D01*
X0319879Y0370133D01*
X0321080Y0368932D01*
X0323482Y0368932D01*
X0323482Y0367651D02*
X0323482Y0365249D01*
X0319879Y0365249D01*
X0319879Y0367651D01*
X0321681Y0366450D02*
X0321681Y0365249D01*
X0321681Y0363968D02*
X0321681Y0361566D01*
X0323482Y0361566D02*
X0319879Y0361566D01*
X0319879Y0363968D02*
X0323482Y0363968D01*
X0324083Y0360285D02*
X0324083Y0357882D01*
X0323482Y0355400D02*
X0319879Y0355400D01*
X0319879Y0354199D02*
X0319879Y0356601D01*
X0319879Y0352918D02*
X0322882Y0352918D01*
X0323482Y0352318D01*
X0323482Y0351117D01*
X0322882Y0350516D01*
X0319879Y0350516D01*
X0320480Y0349235D02*
X0319879Y0348635D01*
X0319879Y0347434D01*
X0320480Y0346833D01*
X0322882Y0346833D01*
X0323482Y0347434D01*
X0323482Y0348635D01*
X0322882Y0349235D01*
X0320480Y0349235D01*
X0319879Y0345552D02*
X0322281Y0343150D01*
X0321681Y0343750D02*
X0323482Y0345552D01*
X0323482Y0343150D02*
X0319879Y0343150D01*
X0321080Y0341869D02*
X0323482Y0341869D01*
X0321681Y0341869D02*
X0321681Y0339467D01*
X0321080Y0339467D02*
X0319879Y0340668D01*
X0321080Y0341869D01*
X0321080Y0339467D02*
X0323482Y0339467D01*
X0323482Y0338186D02*
X0323482Y0335784D01*
X0319879Y0335784D01*
X0319879Y0338186D01*
X0321681Y0336985D02*
X0321681Y0335784D01*
X0321681Y0334503D02*
X0322281Y0333902D01*
X0322281Y0332100D01*
X0323482Y0332100D02*
X0319879Y0332100D01*
X0319879Y0333902D01*
X0320480Y0334503D01*
X0321681Y0334503D01*
X0322281Y0333301D02*
X0323482Y0334503D01*
X0322882Y0330819D02*
X0322281Y0330819D01*
X0321681Y0330219D01*
X0321681Y0328417D01*
X0323482Y0328417D02*
X0319879Y0328417D01*
X0319879Y0330219D01*
X0320480Y0330819D01*
X0321080Y0330819D01*
X0321681Y0330219D01*
X0322882Y0330819D02*
X0323482Y0330219D01*
X0323482Y0328417D01*
X0321681Y0368932D02*
X0321681Y0371334D01*
X0386467Y0240448D02*
X0385618Y0239599D01*
X0385618Y0238749D01*
X0386042Y0238325D01*
X0386891Y0238325D01*
X0388165Y0239599D01*
X0387316Y0240448D02*
X0386467Y0240448D01*
X0387316Y0240448D02*
X0389015Y0238749D01*
X0389015Y0237900D01*
X0388165Y0237051D01*
X0387316Y0237051D01*
X0386835Y0235720D02*
X0385136Y0235720D01*
X0385561Y0236145D02*
X0384287Y0234871D01*
X0385136Y0234022D02*
X0382589Y0236570D01*
X0383862Y0237843D01*
X0384712Y0237843D01*
X0385561Y0236994D01*
X0385561Y0236145D01*
X0409465Y0234418D02*
X0410739Y0235692D01*
X0411589Y0235692D01*
X0412438Y0234843D01*
X0412438Y0233994D01*
X0411164Y0232720D01*
X0412013Y0233569D02*
X0413712Y0233569D01*
X0414618Y0234475D02*
X0416316Y0236173D01*
X0415467Y0235324D02*
X0412919Y0237872D01*
X0412919Y0236173D01*
X0415099Y0239202D02*
X0415099Y0240052D01*
X0415948Y0240901D01*
X0416797Y0240901D01*
X0416797Y0237504D01*
X0417646Y0237504D01*
X0418496Y0238353D01*
X0418496Y0239202D01*
X0416797Y0240901D01*
X0415099Y0239202D02*
X0416797Y0237504D01*
X0412013Y0231870D02*
X0409465Y0234418D01*
X0364959Y0220928D02*
X0362789Y0223099D01*
X0356607Y0229280D02*
X0354437Y0231450D01*
X0356607Y0231450D02*
X0354437Y0229280D01*
X0399246Y0181159D02*
X0397548Y0179460D01*
X0397548Y0178611D01*
X0398397Y0177762D01*
X0399246Y0177762D01*
X0399727Y0176431D02*
X0401426Y0174733D01*
X0400577Y0175582D02*
X0403124Y0178130D01*
X0401426Y0178130D01*
X0400945Y0179460D02*
X0400945Y0180310D01*
X0400095Y0181159D01*
X0399246Y0181159D01*
X0403606Y0175101D02*
X0404879Y0173827D01*
X0404879Y0172978D01*
X0404455Y0172553D01*
X0403606Y0172553D01*
X0402756Y0173402D01*
X0402756Y0174252D01*
X0403606Y0175101D01*
X0405304Y0175101D01*
X0406578Y0174676D01*
X0530811Y0171184D02*
X0530811Y0168782D01*
X0531412Y0168181D01*
X0532613Y0168181D01*
X0533213Y0168782D01*
X0534495Y0168181D02*
X0536897Y0168181D01*
X0535696Y0168181D02*
X0535696Y0171784D01*
X0534495Y0170583D01*
X0533213Y0171184D02*
X0532613Y0171784D01*
X0531412Y0171784D01*
X0530811Y0171184D01*
X0538178Y0171184D02*
X0538778Y0171784D01*
X0539979Y0171784D01*
X0540580Y0171184D01*
X0538178Y0168782D01*
X0538778Y0168181D01*
X0539979Y0168181D01*
X0540580Y0168782D01*
X0540580Y0171184D01*
X0538178Y0171184D02*
X0538178Y0168782D01*
X0615707Y0225149D02*
X0618255Y0227697D01*
X0619529Y0226423D01*
X0619529Y0225574D01*
X0618680Y0224724D01*
X0617830Y0224724D01*
X0616556Y0225998D01*
X0617406Y0225149D02*
X0617406Y0223451D01*
X0618736Y0222969D02*
X0619161Y0223394D01*
X0620010Y0223394D01*
X0620859Y0222545D01*
X0620859Y0221695D01*
X0620435Y0221271D01*
X0619585Y0221271D01*
X0618736Y0222120D01*
X0618736Y0222969D01*
X0620010Y0223394D02*
X0620010Y0224243D01*
X0620435Y0224668D01*
X0621284Y0224668D01*
X0622133Y0223819D01*
X0622133Y0222969D01*
X0621709Y0222545D01*
X0620859Y0222545D01*
X0638595Y0222367D02*
X0641143Y0224914D01*
X0642417Y0223641D01*
X0642417Y0222791D01*
X0641568Y0221942D01*
X0640718Y0221942D01*
X0639444Y0223216D01*
X0640294Y0222367D02*
X0640294Y0220668D01*
X0641200Y0219762D02*
X0641624Y0220187D01*
X0645021Y0220187D01*
X0645446Y0220612D01*
X0643747Y0222310D01*
X0651735Y0194025D02*
X0653906Y0191855D01*
X0653906Y0194025D02*
X0651735Y0191855D01*
X0645554Y0185673D02*
X0643384Y0183503D01*
X0684408Y0235350D02*
X0685257Y0235350D01*
X0686106Y0236200D01*
X0686106Y0237049D01*
X0687437Y0237530D02*
X0689135Y0239229D01*
X0688286Y0238379D02*
X0685738Y0240927D01*
X0685738Y0239229D01*
X0684408Y0238747D02*
X0683558Y0238747D01*
X0682709Y0237898D01*
X0682709Y0237049D01*
X0684408Y0235350D01*
X0688767Y0241408D02*
X0690466Y0243107D01*
X0691315Y0241408D02*
X0688767Y0243956D01*
X0688767Y0241408D01*
X0616577Y0307063D02*
X0616577Y0308264D01*
X0615976Y0308864D01*
X0616577Y0310146D02*
X0614175Y0312548D01*
X0613574Y0312548D01*
X0612974Y0311947D01*
X0612974Y0310746D01*
X0613574Y0310146D01*
X0613574Y0308864D02*
X0612974Y0308264D01*
X0612974Y0307063D01*
X0613574Y0306462D01*
X0615976Y0306462D01*
X0616577Y0307063D01*
X0616577Y0310146D02*
X0616577Y0312548D01*
X0615976Y0313829D02*
X0615376Y0313829D01*
X0614775Y0314429D01*
X0614775Y0315630D01*
X0615376Y0316231D01*
X0615976Y0316231D01*
X0616577Y0315630D01*
X0616577Y0314429D01*
X0615976Y0313829D01*
X0614775Y0314429D02*
X0614175Y0313829D01*
X0613574Y0313829D01*
X0612974Y0314429D01*
X0612974Y0315630D01*
X0613574Y0316231D01*
X0614175Y0316231D01*
X0614775Y0315630D01*
X0687241Y0321134D02*
X0687241Y0322935D01*
X0687842Y0323536D01*
X0689043Y0323536D01*
X0689643Y0322935D01*
X0689643Y0321134D01*
X0689643Y0322335D02*
X0690844Y0323536D01*
X0690844Y0324817D02*
X0690844Y0327219D01*
X0690844Y0326018D02*
X0687241Y0326018D01*
X0688442Y0324817D01*
X0687241Y0321134D02*
X0690844Y0321134D01*
D17*
X0656920Y0207124D02*
X0656922Y0207163D01*
X0656928Y0207202D01*
X0656938Y0207240D01*
X0656951Y0207277D01*
X0656968Y0207312D01*
X0656988Y0207346D01*
X0657012Y0207377D01*
X0657039Y0207406D01*
X0657068Y0207432D01*
X0657100Y0207455D01*
X0657134Y0207475D01*
X0657170Y0207491D01*
X0657207Y0207503D01*
X0657246Y0207512D01*
X0657285Y0207517D01*
X0657324Y0207518D01*
X0657363Y0207515D01*
X0657402Y0207508D01*
X0657439Y0207497D01*
X0657476Y0207483D01*
X0657511Y0207465D01*
X0657544Y0207444D01*
X0657575Y0207419D01*
X0657603Y0207392D01*
X0657628Y0207362D01*
X0657650Y0207329D01*
X0657669Y0207295D01*
X0657684Y0207259D01*
X0657696Y0207221D01*
X0657704Y0207183D01*
X0657708Y0207144D01*
X0657708Y0207104D01*
X0657704Y0207065D01*
X0657696Y0207027D01*
X0657684Y0206989D01*
X0657669Y0206953D01*
X0657650Y0206919D01*
X0657628Y0206886D01*
X0657603Y0206856D01*
X0657575Y0206829D01*
X0657544Y0206804D01*
X0657511Y0206783D01*
X0657476Y0206765D01*
X0657439Y0206751D01*
X0657402Y0206740D01*
X0657363Y0206733D01*
X0657324Y0206730D01*
X0657285Y0206731D01*
X0657246Y0206736D01*
X0657207Y0206745D01*
X0657170Y0206757D01*
X0657134Y0206773D01*
X0657100Y0206793D01*
X0657068Y0206816D01*
X0657039Y0206842D01*
X0657012Y0206871D01*
X0656988Y0206902D01*
X0656968Y0206936D01*
X0656951Y0206971D01*
X0656938Y0207008D01*
X0656928Y0207046D01*
X0656922Y0207085D01*
X0656920Y0207124D01*
X0633424Y0177704D02*
X0633426Y0177743D01*
X0633432Y0177782D01*
X0633442Y0177820D01*
X0633455Y0177857D01*
X0633472Y0177892D01*
X0633492Y0177926D01*
X0633516Y0177957D01*
X0633543Y0177986D01*
X0633572Y0178012D01*
X0633604Y0178035D01*
X0633638Y0178055D01*
X0633674Y0178071D01*
X0633711Y0178083D01*
X0633750Y0178092D01*
X0633789Y0178097D01*
X0633828Y0178098D01*
X0633867Y0178095D01*
X0633906Y0178088D01*
X0633943Y0178077D01*
X0633980Y0178063D01*
X0634015Y0178045D01*
X0634048Y0178024D01*
X0634079Y0177999D01*
X0634107Y0177972D01*
X0634132Y0177942D01*
X0634154Y0177909D01*
X0634173Y0177875D01*
X0634188Y0177839D01*
X0634200Y0177801D01*
X0634208Y0177763D01*
X0634212Y0177724D01*
X0634212Y0177684D01*
X0634208Y0177645D01*
X0634200Y0177607D01*
X0634188Y0177569D01*
X0634173Y0177533D01*
X0634154Y0177499D01*
X0634132Y0177466D01*
X0634107Y0177436D01*
X0634079Y0177409D01*
X0634048Y0177384D01*
X0634015Y0177363D01*
X0633980Y0177345D01*
X0633943Y0177331D01*
X0633906Y0177320D01*
X0633867Y0177313D01*
X0633828Y0177310D01*
X0633789Y0177311D01*
X0633750Y0177316D01*
X0633711Y0177325D01*
X0633674Y0177337D01*
X0633638Y0177353D01*
X0633604Y0177373D01*
X0633572Y0177396D01*
X0633543Y0177422D01*
X0633516Y0177451D01*
X0633492Y0177482D01*
X0633472Y0177516D01*
X0633455Y0177551D01*
X0633442Y0177588D01*
X0633432Y0177626D01*
X0633426Y0177665D01*
X0633424Y0177704D01*
X0488800Y0182272D02*
X0488802Y0182441D01*
X0488808Y0182610D01*
X0488819Y0182779D01*
X0488833Y0182947D01*
X0488852Y0183115D01*
X0488875Y0183283D01*
X0488901Y0183450D01*
X0488932Y0183616D01*
X0488967Y0183782D01*
X0489006Y0183946D01*
X0489050Y0184110D01*
X0489097Y0184272D01*
X0489148Y0184433D01*
X0489203Y0184593D01*
X0489262Y0184752D01*
X0489324Y0184909D01*
X0489391Y0185064D01*
X0489462Y0185218D01*
X0489536Y0185370D01*
X0489614Y0185520D01*
X0489695Y0185668D01*
X0489780Y0185814D01*
X0489869Y0185958D01*
X0489961Y0186100D01*
X0490057Y0186239D01*
X0490156Y0186376D01*
X0490258Y0186511D01*
X0490364Y0186643D01*
X0490473Y0186772D01*
X0490585Y0186899D01*
X0490700Y0187023D01*
X0490818Y0187144D01*
X0490939Y0187262D01*
X0491063Y0187377D01*
X0491190Y0187489D01*
X0491319Y0187598D01*
X0491451Y0187704D01*
X0491586Y0187806D01*
X0491723Y0187905D01*
X0491862Y0188001D01*
X0492004Y0188093D01*
X0492148Y0188182D01*
X0492294Y0188267D01*
X0492442Y0188348D01*
X0492592Y0188426D01*
X0492744Y0188500D01*
X0492898Y0188571D01*
X0493053Y0188638D01*
X0493210Y0188700D01*
X0493369Y0188759D01*
X0493529Y0188814D01*
X0493690Y0188865D01*
X0493852Y0188912D01*
X0494016Y0188956D01*
X0494180Y0188995D01*
X0494346Y0189030D01*
X0494512Y0189061D01*
X0494679Y0189087D01*
X0494847Y0189110D01*
X0495015Y0189129D01*
X0495183Y0189143D01*
X0495352Y0189154D01*
X0495521Y0189160D01*
X0495690Y0189162D01*
X0495859Y0189160D01*
X0496028Y0189154D01*
X0496197Y0189143D01*
X0496365Y0189129D01*
X0496533Y0189110D01*
X0496701Y0189087D01*
X0496868Y0189061D01*
X0497034Y0189030D01*
X0497200Y0188995D01*
X0497364Y0188956D01*
X0497528Y0188912D01*
X0497690Y0188865D01*
X0497851Y0188814D01*
X0498011Y0188759D01*
X0498170Y0188700D01*
X0498327Y0188638D01*
X0498482Y0188571D01*
X0498636Y0188500D01*
X0498788Y0188426D01*
X0498938Y0188348D01*
X0499086Y0188267D01*
X0499232Y0188182D01*
X0499376Y0188093D01*
X0499518Y0188001D01*
X0499657Y0187905D01*
X0499794Y0187806D01*
X0499929Y0187704D01*
X0500061Y0187598D01*
X0500190Y0187489D01*
X0500317Y0187377D01*
X0500441Y0187262D01*
X0500562Y0187144D01*
X0500680Y0187023D01*
X0500795Y0186899D01*
X0500907Y0186772D01*
X0501016Y0186643D01*
X0501122Y0186511D01*
X0501224Y0186376D01*
X0501323Y0186239D01*
X0501419Y0186100D01*
X0501511Y0185958D01*
X0501600Y0185814D01*
X0501685Y0185668D01*
X0501766Y0185520D01*
X0501844Y0185370D01*
X0501918Y0185218D01*
X0501989Y0185064D01*
X0502056Y0184909D01*
X0502118Y0184752D01*
X0502177Y0184593D01*
X0502232Y0184433D01*
X0502283Y0184272D01*
X0502330Y0184110D01*
X0502374Y0183946D01*
X0502413Y0183782D01*
X0502448Y0183616D01*
X0502479Y0183450D01*
X0502505Y0183283D01*
X0502528Y0183115D01*
X0502547Y0182947D01*
X0502561Y0182779D01*
X0502572Y0182610D01*
X0502578Y0182441D01*
X0502580Y0182272D01*
X0502578Y0182103D01*
X0502572Y0181934D01*
X0502561Y0181765D01*
X0502547Y0181597D01*
X0502528Y0181429D01*
X0502505Y0181261D01*
X0502479Y0181094D01*
X0502448Y0180928D01*
X0502413Y0180762D01*
X0502374Y0180598D01*
X0502330Y0180434D01*
X0502283Y0180272D01*
X0502232Y0180111D01*
X0502177Y0179951D01*
X0502118Y0179792D01*
X0502056Y0179635D01*
X0501989Y0179480D01*
X0501918Y0179326D01*
X0501844Y0179174D01*
X0501766Y0179024D01*
X0501685Y0178876D01*
X0501600Y0178730D01*
X0501511Y0178586D01*
X0501419Y0178444D01*
X0501323Y0178305D01*
X0501224Y0178168D01*
X0501122Y0178033D01*
X0501016Y0177901D01*
X0500907Y0177772D01*
X0500795Y0177645D01*
X0500680Y0177521D01*
X0500562Y0177400D01*
X0500441Y0177282D01*
X0500317Y0177167D01*
X0500190Y0177055D01*
X0500061Y0176946D01*
X0499929Y0176840D01*
X0499794Y0176738D01*
X0499657Y0176639D01*
X0499518Y0176543D01*
X0499376Y0176451D01*
X0499232Y0176362D01*
X0499086Y0176277D01*
X0498938Y0176196D01*
X0498788Y0176118D01*
X0498636Y0176044D01*
X0498482Y0175973D01*
X0498327Y0175906D01*
X0498170Y0175844D01*
X0498011Y0175785D01*
X0497851Y0175730D01*
X0497690Y0175679D01*
X0497528Y0175632D01*
X0497364Y0175588D01*
X0497200Y0175549D01*
X0497034Y0175514D01*
X0496868Y0175483D01*
X0496701Y0175457D01*
X0496533Y0175434D01*
X0496365Y0175415D01*
X0496197Y0175401D01*
X0496028Y0175390D01*
X0495859Y0175384D01*
X0495690Y0175382D01*
X0495521Y0175384D01*
X0495352Y0175390D01*
X0495183Y0175401D01*
X0495015Y0175415D01*
X0494847Y0175434D01*
X0494679Y0175457D01*
X0494512Y0175483D01*
X0494346Y0175514D01*
X0494180Y0175549D01*
X0494016Y0175588D01*
X0493852Y0175632D01*
X0493690Y0175679D01*
X0493529Y0175730D01*
X0493369Y0175785D01*
X0493210Y0175844D01*
X0493053Y0175906D01*
X0492898Y0175973D01*
X0492744Y0176044D01*
X0492592Y0176118D01*
X0492442Y0176196D01*
X0492294Y0176277D01*
X0492148Y0176362D01*
X0492004Y0176451D01*
X0491862Y0176543D01*
X0491723Y0176639D01*
X0491586Y0176738D01*
X0491451Y0176840D01*
X0491319Y0176946D01*
X0491190Y0177055D01*
X0491063Y0177167D01*
X0490939Y0177282D01*
X0490818Y0177400D01*
X0490700Y0177521D01*
X0490585Y0177645D01*
X0490473Y0177772D01*
X0490364Y0177901D01*
X0490258Y0178033D01*
X0490156Y0178168D01*
X0490057Y0178305D01*
X0489961Y0178444D01*
X0489869Y0178586D01*
X0489780Y0178730D01*
X0489695Y0178876D01*
X0489614Y0179024D01*
X0489536Y0179174D01*
X0489462Y0179326D01*
X0489391Y0179480D01*
X0489324Y0179635D01*
X0489262Y0179792D01*
X0489203Y0179951D01*
X0489148Y0180111D01*
X0489097Y0180272D01*
X0489050Y0180434D01*
X0489006Y0180598D01*
X0488967Y0180762D01*
X0488932Y0180928D01*
X0488901Y0181094D01*
X0488875Y0181261D01*
X0488852Y0181429D01*
X0488833Y0181597D01*
X0488819Y0181765D01*
X0488808Y0181934D01*
X0488802Y0182103D01*
X0488800Y0182272D01*
X0368927Y0206555D02*
X0368929Y0206594D01*
X0368935Y0206633D01*
X0368945Y0206671D01*
X0368958Y0206708D01*
X0368975Y0206743D01*
X0368995Y0206777D01*
X0369019Y0206808D01*
X0369046Y0206837D01*
X0369075Y0206863D01*
X0369107Y0206886D01*
X0369141Y0206906D01*
X0369177Y0206922D01*
X0369214Y0206934D01*
X0369253Y0206943D01*
X0369292Y0206948D01*
X0369331Y0206949D01*
X0369370Y0206946D01*
X0369409Y0206939D01*
X0369446Y0206928D01*
X0369483Y0206914D01*
X0369518Y0206896D01*
X0369551Y0206875D01*
X0369582Y0206850D01*
X0369610Y0206823D01*
X0369635Y0206793D01*
X0369657Y0206760D01*
X0369676Y0206726D01*
X0369691Y0206690D01*
X0369703Y0206652D01*
X0369711Y0206614D01*
X0369715Y0206575D01*
X0369715Y0206535D01*
X0369711Y0206496D01*
X0369703Y0206458D01*
X0369691Y0206420D01*
X0369676Y0206384D01*
X0369657Y0206350D01*
X0369635Y0206317D01*
X0369610Y0206287D01*
X0369582Y0206260D01*
X0369551Y0206235D01*
X0369518Y0206214D01*
X0369483Y0206196D01*
X0369446Y0206182D01*
X0369409Y0206171D01*
X0369370Y0206164D01*
X0369331Y0206161D01*
X0369292Y0206162D01*
X0369253Y0206167D01*
X0369214Y0206176D01*
X0369177Y0206188D01*
X0369141Y0206204D01*
X0369107Y0206224D01*
X0369075Y0206247D01*
X0369046Y0206273D01*
X0369019Y0206302D01*
X0368995Y0206333D01*
X0368975Y0206367D01*
X0368958Y0206402D01*
X0368945Y0206439D01*
X0368935Y0206477D01*
X0368929Y0206516D01*
X0368927Y0206555D01*
X0334222Y0234269D02*
X0334224Y0234308D01*
X0334230Y0234347D01*
X0334240Y0234385D01*
X0334253Y0234422D01*
X0334270Y0234457D01*
X0334290Y0234491D01*
X0334314Y0234522D01*
X0334341Y0234551D01*
X0334370Y0234577D01*
X0334402Y0234600D01*
X0334436Y0234620D01*
X0334472Y0234636D01*
X0334509Y0234648D01*
X0334548Y0234657D01*
X0334587Y0234662D01*
X0334626Y0234663D01*
X0334665Y0234660D01*
X0334704Y0234653D01*
X0334741Y0234642D01*
X0334778Y0234628D01*
X0334813Y0234610D01*
X0334846Y0234589D01*
X0334877Y0234564D01*
X0334905Y0234537D01*
X0334930Y0234507D01*
X0334952Y0234474D01*
X0334971Y0234440D01*
X0334986Y0234404D01*
X0334998Y0234366D01*
X0335006Y0234328D01*
X0335010Y0234289D01*
X0335010Y0234249D01*
X0335006Y0234210D01*
X0334998Y0234172D01*
X0334986Y0234134D01*
X0334971Y0234098D01*
X0334952Y0234064D01*
X0334930Y0234031D01*
X0334905Y0234001D01*
X0334877Y0233974D01*
X0334846Y0233949D01*
X0334813Y0233928D01*
X0334778Y0233910D01*
X0334741Y0233896D01*
X0334704Y0233885D01*
X0334665Y0233878D01*
X0334626Y0233875D01*
X0334587Y0233876D01*
X0334548Y0233881D01*
X0334509Y0233890D01*
X0334472Y0233902D01*
X0334436Y0233918D01*
X0334402Y0233938D01*
X0334370Y0233961D01*
X0334341Y0233987D01*
X0334314Y0234016D01*
X0334290Y0234047D01*
X0334270Y0234081D01*
X0334253Y0234116D01*
X0334240Y0234153D01*
X0334230Y0234191D01*
X0334224Y0234230D01*
X0334222Y0234269D01*
X0650994Y0449269D02*
X0650996Y0449308D01*
X0651002Y0449347D01*
X0651012Y0449385D01*
X0651025Y0449422D01*
X0651042Y0449457D01*
X0651062Y0449491D01*
X0651086Y0449522D01*
X0651113Y0449551D01*
X0651142Y0449577D01*
X0651174Y0449600D01*
X0651208Y0449620D01*
X0651244Y0449636D01*
X0651281Y0449648D01*
X0651320Y0449657D01*
X0651359Y0449662D01*
X0651398Y0449663D01*
X0651437Y0449660D01*
X0651476Y0449653D01*
X0651513Y0449642D01*
X0651550Y0449628D01*
X0651585Y0449610D01*
X0651618Y0449589D01*
X0651649Y0449564D01*
X0651677Y0449537D01*
X0651702Y0449507D01*
X0651724Y0449474D01*
X0651743Y0449440D01*
X0651758Y0449404D01*
X0651770Y0449366D01*
X0651778Y0449328D01*
X0651782Y0449289D01*
X0651782Y0449249D01*
X0651778Y0449210D01*
X0651770Y0449172D01*
X0651758Y0449134D01*
X0651743Y0449098D01*
X0651724Y0449064D01*
X0651702Y0449031D01*
X0651677Y0449001D01*
X0651649Y0448974D01*
X0651618Y0448949D01*
X0651585Y0448928D01*
X0651550Y0448910D01*
X0651513Y0448896D01*
X0651476Y0448885D01*
X0651437Y0448878D01*
X0651398Y0448875D01*
X0651359Y0448876D01*
X0651320Y0448881D01*
X0651281Y0448890D01*
X0651244Y0448902D01*
X0651208Y0448918D01*
X0651174Y0448938D01*
X0651142Y0448961D01*
X0651113Y0448987D01*
X0651086Y0449016D01*
X0651062Y0449047D01*
X0651042Y0449081D01*
X0651025Y0449116D01*
X0651012Y0449153D01*
X0651002Y0449191D01*
X0650996Y0449230D01*
X0650994Y0449269D01*
X0651547Y0489801D02*
X0651549Y0489840D01*
X0651555Y0489879D01*
X0651565Y0489917D01*
X0651578Y0489954D01*
X0651595Y0489989D01*
X0651615Y0490023D01*
X0651639Y0490054D01*
X0651666Y0490083D01*
X0651695Y0490109D01*
X0651727Y0490132D01*
X0651761Y0490152D01*
X0651797Y0490168D01*
X0651834Y0490180D01*
X0651873Y0490189D01*
X0651912Y0490194D01*
X0651951Y0490195D01*
X0651990Y0490192D01*
X0652029Y0490185D01*
X0652066Y0490174D01*
X0652103Y0490160D01*
X0652138Y0490142D01*
X0652171Y0490121D01*
X0652202Y0490096D01*
X0652230Y0490069D01*
X0652255Y0490039D01*
X0652277Y0490006D01*
X0652296Y0489972D01*
X0652311Y0489936D01*
X0652323Y0489898D01*
X0652331Y0489860D01*
X0652335Y0489821D01*
X0652335Y0489781D01*
X0652331Y0489742D01*
X0652323Y0489704D01*
X0652311Y0489666D01*
X0652296Y0489630D01*
X0652277Y0489596D01*
X0652255Y0489563D01*
X0652230Y0489533D01*
X0652202Y0489506D01*
X0652171Y0489481D01*
X0652138Y0489460D01*
X0652103Y0489442D01*
X0652066Y0489428D01*
X0652029Y0489417D01*
X0651990Y0489410D01*
X0651951Y0489407D01*
X0651912Y0489408D01*
X0651873Y0489413D01*
X0651834Y0489422D01*
X0651797Y0489434D01*
X0651761Y0489450D01*
X0651727Y0489470D01*
X0651695Y0489493D01*
X0651666Y0489519D01*
X0651639Y0489548D01*
X0651615Y0489579D01*
X0651595Y0489613D01*
X0651578Y0489648D01*
X0651565Y0489685D01*
X0651555Y0489723D01*
X0651549Y0489762D01*
X0651547Y0489801D01*
X0374479Y0482006D02*
X0374481Y0482045D01*
X0374487Y0482084D01*
X0374497Y0482122D01*
X0374510Y0482159D01*
X0374527Y0482194D01*
X0374547Y0482228D01*
X0374571Y0482259D01*
X0374598Y0482288D01*
X0374627Y0482314D01*
X0374659Y0482337D01*
X0374693Y0482357D01*
X0374729Y0482373D01*
X0374766Y0482385D01*
X0374805Y0482394D01*
X0374844Y0482399D01*
X0374883Y0482400D01*
X0374922Y0482397D01*
X0374961Y0482390D01*
X0374998Y0482379D01*
X0375035Y0482365D01*
X0375070Y0482347D01*
X0375103Y0482326D01*
X0375134Y0482301D01*
X0375162Y0482274D01*
X0375187Y0482244D01*
X0375209Y0482211D01*
X0375228Y0482177D01*
X0375243Y0482141D01*
X0375255Y0482103D01*
X0375263Y0482065D01*
X0375267Y0482026D01*
X0375267Y0481986D01*
X0375263Y0481947D01*
X0375255Y0481909D01*
X0375243Y0481871D01*
X0375228Y0481835D01*
X0375209Y0481801D01*
X0375187Y0481768D01*
X0375162Y0481738D01*
X0375134Y0481711D01*
X0375103Y0481686D01*
X0375070Y0481665D01*
X0375035Y0481647D01*
X0374998Y0481633D01*
X0374961Y0481622D01*
X0374922Y0481615D01*
X0374883Y0481612D01*
X0374844Y0481613D01*
X0374805Y0481618D01*
X0374766Y0481627D01*
X0374729Y0481639D01*
X0374693Y0481655D01*
X0374659Y0481675D01*
X0374627Y0481698D01*
X0374598Y0481724D01*
X0374571Y0481753D01*
X0374547Y0481784D01*
X0374527Y0481818D01*
X0374510Y0481853D01*
X0374497Y0481890D01*
X0374487Y0481928D01*
X0374481Y0481967D01*
X0374479Y0482006D01*
X0340836Y0461772D02*
X0340838Y0461811D01*
X0340844Y0461850D01*
X0340854Y0461888D01*
X0340867Y0461925D01*
X0340884Y0461960D01*
X0340904Y0461994D01*
X0340928Y0462025D01*
X0340955Y0462054D01*
X0340984Y0462080D01*
X0341016Y0462103D01*
X0341050Y0462123D01*
X0341086Y0462139D01*
X0341123Y0462151D01*
X0341162Y0462160D01*
X0341201Y0462165D01*
X0341240Y0462166D01*
X0341279Y0462163D01*
X0341318Y0462156D01*
X0341355Y0462145D01*
X0341392Y0462131D01*
X0341427Y0462113D01*
X0341460Y0462092D01*
X0341491Y0462067D01*
X0341519Y0462040D01*
X0341544Y0462010D01*
X0341566Y0461977D01*
X0341585Y0461943D01*
X0341600Y0461907D01*
X0341612Y0461869D01*
X0341620Y0461831D01*
X0341624Y0461792D01*
X0341624Y0461752D01*
X0341620Y0461713D01*
X0341612Y0461675D01*
X0341600Y0461637D01*
X0341585Y0461601D01*
X0341566Y0461567D01*
X0341544Y0461534D01*
X0341519Y0461504D01*
X0341491Y0461477D01*
X0341460Y0461452D01*
X0341427Y0461431D01*
X0341392Y0461413D01*
X0341355Y0461399D01*
X0341318Y0461388D01*
X0341279Y0461381D01*
X0341240Y0461378D01*
X0341201Y0461379D01*
X0341162Y0461384D01*
X0341123Y0461393D01*
X0341086Y0461405D01*
X0341050Y0461421D01*
X0341016Y0461441D01*
X0340984Y0461464D01*
X0340955Y0461490D01*
X0340928Y0461519D01*
X0340904Y0461550D01*
X0340884Y0461584D01*
X0340867Y0461619D01*
X0340854Y0461656D01*
X0340844Y0461694D01*
X0340838Y0461733D01*
X0340836Y0461772D01*
D18*
X0417991Y0352086D02*
X0417991Y0349667D01*
X0418475Y0349183D01*
X0419442Y0349183D01*
X0419926Y0349667D01*
X0419926Y0352086D01*
X0420938Y0351602D02*
X0421421Y0352086D01*
X0422389Y0352086D01*
X0422873Y0351602D01*
X0422389Y0350634D02*
X0421421Y0350634D01*
X0420938Y0351118D01*
X0420938Y0351602D01*
X0421905Y0352569D02*
X0421905Y0348699D01*
X0421421Y0349183D02*
X0422389Y0349183D01*
X0422873Y0349667D01*
X0422873Y0350151D01*
X0422389Y0350634D01*
X0423884Y0351118D02*
X0424852Y0352086D01*
X0424852Y0349183D01*
X0425819Y0349183D02*
X0423884Y0349183D01*
X0421421Y0349183D02*
X0420938Y0349667D01*
X0426831Y0349183D02*
X0428766Y0349183D01*
X0427798Y0349183D02*
X0427798Y0352086D01*
X0426831Y0351118D01*
X0687265Y0290259D02*
X0690167Y0290244D01*
X0690172Y0291211D02*
X0690162Y0289276D01*
X0689670Y0287783D02*
X0687252Y0287796D01*
X0687249Y0287312D02*
X0687254Y0288280D01*
X0688227Y0289286D02*
X0687265Y0290259D01*
X0689670Y0287783D02*
X0690152Y0287297D01*
X0690149Y0286813D01*
X0689663Y0286332D01*
D19*
X0593115Y0390357D02*
X0590179Y0390357D01*
X0591647Y0390357D02*
X0591647Y0394760D01*
X0590179Y0393293D01*
X0588511Y0394760D02*
X0588511Y0391091D01*
X0587777Y0390357D01*
X0586309Y0390357D01*
X0585575Y0391091D01*
X0585575Y0394760D01*
X0446438Y0382910D02*
X0440060Y0382910D01*
X0440084Y0379201D02*
X0440083Y0379163D01*
X0440084Y0375509D02*
X0440060Y0375400D01*
X0440060Y0371713D02*
X0446438Y0371713D01*
X0446461Y0371703D01*
X0446438Y0375399D02*
X0446438Y0379224D01*
X0440060Y0371713D02*
X0440060Y0371703D01*
D20*
X0511372Y0347721D02*
X0511372Y0346803D01*
X0511555Y0346620D01*
X0511922Y0346620D01*
X0512106Y0346803D01*
X0512106Y0347721D01*
X0512477Y0347537D02*
X0512660Y0347721D01*
X0513027Y0347721D01*
X0513211Y0347537D01*
X0513582Y0347537D02*
X0513765Y0347721D01*
X0514132Y0347721D01*
X0514316Y0347537D01*
X0514316Y0347354D01*
X0514132Y0347170D01*
X0514316Y0346987D01*
X0514316Y0346803D01*
X0514132Y0346620D01*
X0513765Y0346620D01*
X0513582Y0346803D01*
X0513211Y0346803D02*
X0513211Y0346987D01*
X0513027Y0347170D01*
X0512660Y0347170D01*
X0512477Y0347354D01*
X0512477Y0347537D01*
X0512844Y0347904D02*
X0512844Y0346436D01*
X0513027Y0346620D02*
X0513211Y0346803D01*
X0513027Y0346620D02*
X0512660Y0346620D01*
X0512477Y0346803D01*
X0513949Y0347170D02*
X0514132Y0347170D01*
X0371205Y0442972D02*
X0370686Y0442453D01*
X0370686Y0443491D01*
X0370557Y0443621D01*
X0370297Y0443621D01*
X0370038Y0443361D01*
X0370038Y0443102D01*
X0369775Y0442840D02*
X0369516Y0442840D01*
X0369256Y0442580D01*
X0369256Y0442321D01*
X0369386Y0442191D01*
X0369645Y0442191D01*
X0369905Y0442450D01*
X0370164Y0442450D01*
X0370294Y0442321D01*
X0370294Y0442061D01*
X0370035Y0441802D01*
X0369775Y0441802D01*
X0369513Y0441539D02*
X0368864Y0442188D01*
X0368345Y0441669D02*
X0368994Y0441020D01*
X0369253Y0441020D01*
X0369513Y0441280D01*
X0369513Y0441539D01*
X0370294Y0441802D02*
X0369256Y0442840D01*
X0642233Y0477646D02*
X0642493Y0477387D01*
X0642752Y0477387D01*
X0643401Y0478035D01*
X0643534Y0477643D02*
X0643793Y0477643D01*
X0644053Y0477384D01*
X0644053Y0477124D01*
X0643663Y0476995D02*
X0643404Y0477254D01*
X0643404Y0477514D01*
X0643534Y0477643D01*
X0644053Y0477643D02*
X0643015Y0476605D01*
X0643274Y0476605D02*
X0643534Y0476605D01*
X0643663Y0476735D01*
X0643663Y0476995D01*
X0643274Y0476605D02*
X0643015Y0476865D01*
X0643015Y0477124D01*
X0642233Y0477646D02*
X0642233Y0477906D01*
X0642882Y0478554D01*
X0644445Y0476992D02*
X0644055Y0476602D01*
X0644445Y0476473D01*
X0644574Y0476343D01*
X0644574Y0476083D01*
X0644315Y0475824D01*
X0644055Y0475824D01*
X0643796Y0476083D01*
X0643796Y0476343D01*
X0644445Y0476992D02*
X0644964Y0476473D01*
X0375576Y0235612D02*
X0374538Y0234574D01*
X0374798Y0234574D02*
X0375057Y0234574D01*
X0375187Y0234704D01*
X0375187Y0234963D01*
X0374927Y0235223D01*
X0374927Y0235482D01*
X0375057Y0235612D01*
X0375317Y0235612D01*
X0375576Y0235353D01*
X0375576Y0235093D01*
X0375838Y0234831D02*
X0375709Y0234701D01*
X0375709Y0234442D01*
X0376098Y0234052D01*
X0375838Y0233793D02*
X0376357Y0234312D01*
X0376357Y0234571D01*
X0376098Y0234831D01*
X0375838Y0234831D01*
X0375319Y0234312D02*
X0375319Y0234052D01*
X0375579Y0233793D01*
X0375838Y0233793D01*
X0374798Y0234574D02*
X0374538Y0234834D01*
X0374538Y0235093D01*
X0374276Y0235355D02*
X0374925Y0236004D01*
X0374406Y0236523D02*
X0373757Y0235874D01*
X0373757Y0235615D01*
X0374016Y0235355D01*
X0374276Y0235355D01*
X0623723Y0212799D02*
X0624372Y0212150D01*
X0624631Y0212150D01*
X0624891Y0212410D01*
X0624891Y0212669D01*
X0624242Y0213318D01*
X0624634Y0213450D02*
X0624634Y0213710D01*
X0624893Y0213969D01*
X0625153Y0213969D01*
X0625283Y0213580D02*
X0625023Y0213321D01*
X0624764Y0213321D01*
X0624634Y0213450D01*
X0624634Y0213969D02*
X0625672Y0212932D01*
X0625672Y0213191D02*
X0625672Y0213450D01*
X0625542Y0213580D01*
X0625283Y0213580D01*
X0625672Y0213191D02*
X0625412Y0212932D01*
X0625153Y0212932D01*
X0625934Y0213713D02*
X0626064Y0213583D01*
X0625934Y0213713D02*
X0625934Y0214751D01*
X0625804Y0214881D01*
X0625285Y0214362D01*
D21*
X0510200Y0349330D02*
X0510202Y0349377D01*
X0510208Y0349423D01*
X0510218Y0349469D01*
X0510231Y0349514D01*
X0510248Y0349557D01*
X0510269Y0349599D01*
X0510293Y0349639D01*
X0510321Y0349677D01*
X0510352Y0349713D01*
X0510385Y0349745D01*
X0510421Y0349775D01*
X0510459Y0349802D01*
X0510500Y0349825D01*
X0510542Y0349845D01*
X0510586Y0349862D01*
X0510631Y0349874D01*
X0510677Y0349883D01*
X0510724Y0349888D01*
X0510771Y0349889D01*
X0510817Y0349886D01*
X0510864Y0349879D01*
X0510909Y0349868D01*
X0510954Y0349854D01*
X0510997Y0349836D01*
X0511038Y0349814D01*
X0511078Y0349789D01*
X0511115Y0349761D01*
X0511150Y0349729D01*
X0511182Y0349695D01*
X0511211Y0349659D01*
X0511237Y0349620D01*
X0511260Y0349579D01*
X0511279Y0349536D01*
X0511294Y0349492D01*
X0511306Y0349446D01*
X0511314Y0349400D01*
X0511318Y0349353D01*
X0511318Y0349307D01*
X0511314Y0349260D01*
X0511306Y0349214D01*
X0511294Y0349168D01*
X0511279Y0349124D01*
X0511260Y0349081D01*
X0511237Y0349040D01*
X0511211Y0349001D01*
X0511182Y0348965D01*
X0511150Y0348931D01*
X0511115Y0348899D01*
X0511078Y0348871D01*
X0511039Y0348846D01*
X0510997Y0348824D01*
X0510954Y0348806D01*
X0510909Y0348792D01*
X0510864Y0348781D01*
X0510817Y0348774D01*
X0510771Y0348771D01*
X0510724Y0348772D01*
X0510677Y0348777D01*
X0510631Y0348786D01*
X0510586Y0348798D01*
X0510542Y0348815D01*
X0510500Y0348835D01*
X0510459Y0348858D01*
X0510421Y0348885D01*
X0510385Y0348915D01*
X0510352Y0348947D01*
X0510321Y0348983D01*
X0510293Y0349021D01*
X0510269Y0349061D01*
X0510248Y0349103D01*
X0510231Y0349146D01*
X0510218Y0349191D01*
X0510208Y0349237D01*
X0510202Y0349283D01*
X0510200Y0349330D01*
D22*
X0510085Y0350025D02*
X0510085Y0342651D01*
X0518933Y0342651D01*
X0518933Y0350025D01*
X0510085Y0350025D01*
D23*
X0508879Y0164556D02*
X0508881Y0164612D01*
X0508887Y0164667D01*
X0508897Y0164721D01*
X0508910Y0164775D01*
X0508928Y0164828D01*
X0508949Y0164879D01*
X0508973Y0164929D01*
X0509001Y0164977D01*
X0509033Y0165023D01*
X0509067Y0165067D01*
X0509105Y0165108D01*
X0509145Y0165146D01*
X0509188Y0165181D01*
X0509233Y0165213D01*
X0509281Y0165242D01*
X0509330Y0165268D01*
X0509381Y0165290D01*
X0509433Y0165308D01*
X0509487Y0165322D01*
X0509542Y0165333D01*
X0509597Y0165340D01*
X0509652Y0165343D01*
X0509708Y0165342D01*
X0509763Y0165337D01*
X0509818Y0165328D01*
X0509872Y0165316D01*
X0509925Y0165299D01*
X0509977Y0165279D01*
X0510027Y0165255D01*
X0510075Y0165228D01*
X0510122Y0165198D01*
X0510166Y0165164D01*
X0510208Y0165127D01*
X0510246Y0165087D01*
X0510283Y0165045D01*
X0510316Y0165000D01*
X0510345Y0164954D01*
X0510372Y0164905D01*
X0510394Y0164854D01*
X0510414Y0164802D01*
X0510429Y0164748D01*
X0510441Y0164694D01*
X0510449Y0164639D01*
X0510453Y0164584D01*
X0510453Y0164528D01*
X0510449Y0164473D01*
X0510441Y0164418D01*
X0510429Y0164364D01*
X0510414Y0164310D01*
X0510394Y0164258D01*
X0510372Y0164207D01*
X0510345Y0164158D01*
X0510316Y0164112D01*
X0510283Y0164067D01*
X0510246Y0164025D01*
X0510208Y0163985D01*
X0510166Y0163948D01*
X0510122Y0163914D01*
X0510075Y0163884D01*
X0510027Y0163857D01*
X0509977Y0163833D01*
X0509925Y0163813D01*
X0509872Y0163796D01*
X0509818Y0163784D01*
X0509763Y0163775D01*
X0509708Y0163770D01*
X0509652Y0163769D01*
X0509597Y0163772D01*
X0509542Y0163779D01*
X0509487Y0163790D01*
X0509433Y0163804D01*
X0509381Y0163822D01*
X0509330Y0163844D01*
X0509281Y0163870D01*
X0509233Y0163899D01*
X0509188Y0163931D01*
X0509145Y0163966D01*
X0509105Y0164004D01*
X0509067Y0164045D01*
X0509033Y0164089D01*
X0509001Y0164135D01*
X0508973Y0164183D01*
X0508949Y0164233D01*
X0508928Y0164284D01*
X0508910Y0164337D01*
X0508897Y0164391D01*
X0508887Y0164445D01*
X0508881Y0164500D01*
X0508879Y0164556D01*
M02*
